<?xml version="1.0" standalone="no"?>
<!DOCTYPE svg PUBLIC "-//W3C//DTD SVG 1.1//EN" "http://www.w3.org/Graphics/SVG/1.1/DTD/svg11.dtd" >
<svg xmlns="http://www.w3.org/2000/svg" xmlns:xlink="http://www.w3.org/1999/xlink" version="1.1">
<metadata>
Created by FontForge 20170731 at Thu Oct 15 04:08:42 2015
 By ,,,
Copyright (c) 2015 by DearType, Veneta Rangelova. All rights reserved.
</metadata>
<defs>
<font id="LifehackSans-Medium" horiz-adv-x="0" >
  <font-face 
    font-family="Lifehack Sans Medium"
    font-weight="600"
    font-stretch="normal"
    units-per-em="1000"
    panose-1="0 0 7 0 0 0 0 0 0 0"
    ascent="750"
    descent="-250"
    x-height="576"
    cap-height="699"
    bbox="-467 -254 854 858"
    underline-thickness="50"
    underline-position="-200"
    unicode-range="U+0020-2260"
  />
<missing-glyph horiz-adv-x="500" 
d="M410 750v-1000h-317v1000h317zM333 683h-165v-33h65v-37h-66v-33h166v33h-66v37h66v33zM267 554h-100v-104h166v34h-66v70zM233 520v-36h-33v36h33zM333 423h-166v-33h66v-37h-66v-33h100v70h66v33zM333 363h-33v-66h-133v-34h166v100zM333 241h-100v-56h34v23h33v-47
h-100v80h-33v-113h166v113zM333 68h-166v-113h166v113zM300 35v-47h-100v47h100zM333 -68h-166v-33h70l-70 -47v-33h166v33h-102l70 47h32v33z" />
    <glyph glyph-name=".notdef" horiz-adv-x="500" 
d="M410 750v-1000h-317v1000h317zM333 683h-165v-33h65v-37h-66v-33h166v33h-66v37h66v33zM267 554h-100v-104h166v34h-66v70zM233 520v-36h-33v36h33zM333 423h-166v-33h66v-37h-66v-33h100v70h66v33zM333 363h-33v-66h-133v-34h166v100zM333 241h-100v-56h34v23h33v-47
h-100v80h-33v-113h166v113zM333 68h-166v-113h166v113zM300 35v-47h-100v47h100zM333 -68h-166v-33h70l-70 -47v-33h166v33h-102l70 47h32v33z" />
    <glyph glyph-name=".null" 
 />
    <glyph glyph-name="nonmarkingreturn" horiz-adv-x="333" 
 />
    <glyph glyph-name="space" unicode=" " horiz-adv-x="229" 
 />
    <glyph glyph-name="exclam" unicode="!" horiz-adv-x="275" 
d="M96 679q3 13 18.5 20t28.5 7q35 0 43 -19q-1 -5 -5.5 -215.5t-4.5 -219.5q0 -75 -42 -75q-36 0 -36 72q0 136 -2 430zM103 100q24 11 41 11q25 0 33 -14t8 -41q0 -50 -52 -50q-21 0 -35 18.5t-14 40.5q0 23 19 35z" />
    <glyph glyph-name="quotedbl" unicode="&#x22;" horiz-adv-x="283" 
d="M50 688q11 8 38 8q33 0 33 -38q0 -43 -5.5 -97.5t-14.5 -65.5q-6 -6 -27 -6q-15 0 -20.5 2.5t-9.5 14.5q-12 23 -12 149q0 20 18 33zM165 688q13 8 37 8q33 0 33 -38q0 -43 -5.5 -97.5t-14.5 -65.5q-5 -6 -27 -6q-14 0 -19.5 3t-10.5 14q-12 23 -12 149q0 21 19 33z" />
    <glyph glyph-name="numbersign" unicode="#" horiz-adv-x="524" 
d="M409 304q1 0 8 0.5t11 0.5q57 0 57 -24q0 -10 -9.5 -28t-29.5 -28q-19 1 -73 1v-181q0 -13 -5 -21.5t-9.5 -11.5t-15.5 -8q-8 -4 -27 -4q-21 0 -21 41q0 4 0.5 11t0.5 10v13q0 6 1 58.5t1 93.5h-27q-9 0 -26 -0.5t-25 -0.5v-181q0 -8 -2 -14.5t-3.5 -10t-6.5 -7t-7 -4.5
t-8 -3.5t-7 -2.5q-6 -3 -25 -3q-18 0 -18 36q0 4 0.5 12t0.5 11v167h-76q-39 0 -39 20q0 22 11 39.5t35 17.5h70v117h-53q-3 0 -11.5 -0.5t-12.5 -0.5q-39 0 -39 22q0 55 46 55h70q-2 148 -3 160q12 22 26.5 32t22.5 10q31 -3 31 -53v-28q-1 -53 -1 -121h78q0 122 -3 161
q8 15 18.5 25t17.5 13t11 3q31 -3 31 -53v-28q-1 -52 -1 -121h32q20 2 25 2q55 0 55 -23q0 -11 -9.5 -29t-30.5 -28l-72 3v-118h32zM221 420q0 -19 -0.5 -58t-0.5 -59h79v117h-78z" />
    <glyph glyph-name="dollar" unicode="$" horiz-adv-x="350" 
d="M66 531q0 50 26 85.5t67 47.5v42q0 13 9 22.5t22 9.5q10 0 23 -7.5t13 -20.5v-43q86 -20 91 -174q0 -31 -24 -31q-15 0 -23 1t-17 6.5t-13 16.5q-1 5 -4 36q-1 21 -2 31t-4.5 27t-11 24.5t-19.5 7.5q-21 0 -35 -22t-14 -55q0 -25 12.5 -50.5t26 -41.5t39.5 -42
q31 -33 46.5 -51t31.5 -53.5t16 -73.5q0 -156 -96 -189v-51q0 -10 -8 -17t-18 -7q-41 0 -41 30v39q-47 8 -74.5 53t-27.5 100q0 50 42 50q21 0 34 -11t13 -32q6 -96 42 -96q50 0 50 97q0 29 -13 57t-25 43t-38 42q-31 33 -47 53t-32.5 60.5t-16.5 86.5z" />
    <glyph glyph-name="percent" unicode="%" horiz-adv-x="585" 
d="M29 558q0 62 35.5 98t91.5 36q51 0 85 -39t34 -95q0 -49 -34 -88t-93 -39q-51 0 -83.5 38t-35.5 89zM461 668q7 22 38 22q42 0 42 -27l-1 -3v-6q-10 -7 -420 -622q-6 -9 -9.5 -13.5t-12 -8.5t-20.5 -4q-13 0 -19 1t-12 7t-6 18q0 17 16 47zM109 566q0 -28 10.5 -46
t30.5 -18q22 0 35 16.5t13 40.5q0 61 -43 61q-41 0 -46 -54zM328 142q0 62 35 97.5t92 35.5q51 0 85 -39t34 -94q0 -50 -34 -89t-93 -39q-51 0 -83.5 38t-35.5 90zM408 149q0 -64 41 -64q22 0 35 17t13 41q0 60 -43 60q-42 0 -46 -54z" />
    <glyph glyph-name="ampersand" unicode="&#x26;" horiz-adv-x="550" 
d="M261 206q1 -6 7 -18.5t6 -24.5q0 -13 -11 -20.5t-24 -7.5q-44 0 -44 56q0 55 43 91q34 29 121 40l24 3q30 5 43.5 13t13.5 23q0 14 -18 24q-24 11 -24 30q0 21 6 27.5t26 6.5q29 0 49.5 -24t20.5 -49q0 -35 -14 -59.5t-36 -35.5t-36 -15t-28 -5q3 -24 3 -47
q0 -103 -40.5 -159t-119.5 -56q-23 0 -45.5 6.5t-50.5 24.5t-45.5 59.5t-17.5 102.5q0 38 2.5 60.5t11.5 55t32.5 58.5t60.5 48q-16 10 -26 19.5t-21 38.5t-11 71q0 60 32.5 107t94.5 47q49 0 79 -36t30 -101q0 -35 -43 -35q-9 0 -16 8t-8 16q0 3 -1 16t-2 19.5t-4 17.5
t-7 17t-12 10.5t-19 4.5q-24 0 -36.5 -29.5t-12.5 -61.5q0 -92 58 -96h28q34 0 34 -27q0 -16 -9 -25.5t-25 -9.5q-40 0 -68 -16t-42.5 -44t-20.5 -58t-6 -65q0 -143 89 -143q65 0 80 74q6 33 6 75q0 32 -6 48q-41 -6 -51 -50z" />
    <glyph glyph-name="quotesingle" unicode="'" horiz-adv-x="144" 
d="M50 688q13 8 37 8q33 0 33 -38q0 -43 -5.5 -97.5t-14.5 -65.5q-5 -6 -27 -6q-14 0 -19 2.5t-11 14.5q-12 25 -12 149q0 21 19 33z" />
    <glyph glyph-name="parenleft" unicode="(" horiz-adv-x="241" 
d="M206 687q-37 -74 -57 -165t-20 -169q0 -86 18 -167.5t36 -119.5l18 -39q-5 -50 -56 -50q-103 183 -103 383q0 88 23 172t43.5 122.5t32.5 51.5q11 11 24 11q9 0 19 -5t15 -10l5 -5z" />
    <glyph glyph-name="parenright" unicode=")" horiz-adv-x="258" 
d="M44 697q18 20 39 20q13 0 24 -11q8 -8 22 -34t32.5 -69.5t31.5 -109t13 -133.5q0 -198 -103 -383q-51 0 -56 50q8 15 20 42t31.5 112t19.5 172q0 78 -19.5 169.5t-56.5 164.5z" />
    <glyph glyph-name="asterisk" unicode="*" horiz-adv-x="351" 
d="M43 480q0 5 4 11q32 24 76 60l-78 51l5 21q6 21 32 21q12 0 20 -6l37 -23l-1 46q0 38 43 38q22 0 22 -25v-8.5v-15.5v-18.5v-18.5l64 49q4 1 9 1q9 0 16 -9.5t7 -20.5q0 -8 -5 -15q-16 -16 -69 -55l83 -49q-2 -4 -5.5 -10.5t-15.5 -17.5t-26 -11q-10 0 -55 25l2 -62
q-1 -11 -11.5 -17t-24.5 -6q-23 0 -26 16l-3 70l-59 -42q-4 -1 -9 -1q-32 0 -32 22z" />
    <glyph glyph-name="plus" unicode="+" horiz-adv-x="352" 
d="M318 297q-6 -34 -27 -34h-90v-104q0 -17 -23 -17h-9q-32 0 -32 28v93h-87q-27 0 -27 34q0 30 28 30h86v79q0 14 8.5 23t21.5 9q16 0 25 -10t9 -18v-83h86q13 0 22 -8.5t9 -21.5z" />
    <glyph glyph-name="comma" unicode="," horiz-adv-x="161" 
d="M48 104q22 12 41 12q25 0 33.5 -14.5t8.5 -41.5q0 -17 -16 -62t-28 -62q-10 -12 -24 -12q-12 0 -21 10t-9 18l1 4l3 9t3 12q8 36 9 44q-21 16 -21 49q0 23 20 34z" />
    <glyph glyph-name="hyphen" unicode="-" horiz-adv-x="336" 
d="M303 247q-4 -40 -28 -40h-215q-20 0 -25.5 10.5t-5.5 30.5q0 15 9 24t23 9h210q13 0 22.5 -9.5t9.5 -24.5z" />
    <glyph glyph-name="period" unicode="." horiz-adv-x="160" 
d="M49 100q20 11 41 11q25 0 33 -14t8 -41q0 -24 -14 -37t-38 -13q-21 0 -35.5 18.5t-14.5 40.5q0 24 20 35z" />
    <glyph glyph-name="slash" unicode="/" horiz-adv-x="432" 
d="M315 692q9 24 38 24q42 0 42 -28l-1 -9q-6 -10 -178 -440q-86 -219 -91 -226q-15 -26 -41 -26q-13 0 -19 1t-12 7t-6 19q0 21 12 41z" />
    <glyph glyph-name="zero" unicode="0" horiz-adv-x="357" 
d="M327 530q0 -47 1 -72q1 -27 1 -89q0 -53 -0.5 -79t-1.5 -70t-4.5 -65t-9 -52t-14.5 -46t-22 -31t-30.5 -22t-40.5 -6t-41 7t-31 24.5t-22.5 34.5t-15.5 51t-9.5 59.5t-5 74t-2.5 80.5t-1 92v2q0 42 2 74.5t9.5 74.5t20.5 69.5t38.5 47t60.5 19.5q57 0 85.5 -53t32.5 -125
zM206 63q11 0 19.5 11.5t13.5 36t8.5 48.5t4.5 64.5t1.5 68t0.5 73.5q0 128 -7 181q-14 94 -40 94q-56 0 -56 -300q0 -277 55 -277z" />
    <glyph glyph-name="one" unicode="1" horiz-adv-x="300" 
d="M254 690q6 -5 6 -86l-10 -584q-30 -22 -54 -22q-21 0 -24 26q0 2 -0.5 6t-0.5 7q0 28 2 90.5t5.5 131.5t6.5 133.5l5 107.5t2 44q0 -1 -17 -32.5t-34.5 -64.5t-34.5 -63t-21 -33q-2 -1 -7 -1q-41 0 -41 28q0 13 8 29l140 272q17 20 43 20q12 0 26 -9z" />
    <glyph glyph-name="two" unicode="2" horiz-adv-x="318" 
d="M56 503q-7 14 -7 49q0 25 5 47.5t17 46.5t39 38t66 14q42 0 77.5 -31t35.5 -105q0 -126 -92 -296l-89 -186h75.5t46 -0.5t17.5 -0.5h8q37 0 37 -32q0 -19 -10.5 -28.5t-24.5 -9.5q-35 0 -127 -2q-27 -1 -66 -1q-17 0 -31.5 13t-16.5 33q0 14 11.5 43t24 52.5t31.5 58
t22 40.5q106 203 106 312q0 71 -43 71q-44 0 -48 -94q0 -5 -0.5 -12.5t-10.5 -20t-28 -12.5q-15 0 -25 13z" />
    <glyph glyph-name="three" unicode="3" horiz-adv-x="313" 
d="M60 553q-5 15 -5 36q0 43 27 79t92 36q107 0 107 -158q0 -115 -54 -151q67 -30 67 -137q0 -65 -5.5 -109t-20 -80t-41.5 -53.5t-68 -17.5q-68 0 -95 36.5t-27 132.5q20 23 44 23q13 0 23 -9q15 -12 15 -60q0 -16 0.5 -24.5t4 -20t11.5 -17t22 -5.5q58 0 58 163v19
q0 127 -83 127q-27 0 -27 30q0 15 6.5 22.5t13 9t19.5 1.5q12 0 16 1q46 24 46 139q0 33 -9.5 57t-28.5 24q-22 0 -32 -23.5t-10 -48.5q0 -13 -17.5 -22t-30.5 -9q-12 0 -18 9z" />
    <glyph glyph-name="four" unicode="4" horiz-adv-x="375" 
d="M212 606q-13 -38 -36 -105.5t-40.5 -118t-27.5 -76.5h114v56q2 76 10 119q7 40 45 40q5 0 21 -6v-216h46q31 0 31 -25q0 -11 -11 -24q-13 -14 -46 -14h-25l-3 -93t-2 -92q-1 -20 -3 -30t-12.5 -19t-31.5 -9q-7 0 -11 1t-8.5 6t-6.5 16q0 63 4 219q-11 0 -39 0.5t-43 0.5
h-51q-37 0 -48 6t-11 35l4 23q10 30 138 388q12 3 19 3q35 0 41 -34z" />
    <glyph glyph-name="five" unicode="5" horiz-adv-x="304" 
d="M89 410q-10 0 -16 1.5t-11.5 9t-5.5 21.5l-1 203q0 25 12 32q17 8 126 8q78 0 78 -35q0 -14 -10.5 -24.5t-21.5 -10.5h-38q-77 0 -77 3v-144h17q37 -2 68 -17q11 -5 15.5 -8t19 -16.5t22 -29.5t14.5 -46.5t7 -69.5q0 -58 -1 -88.5t-5 -70t-12.5 -58.5t-23.5 -38.5
t-38.5 -26.5t-56.5 -7q-72 0 -96 42.5t-25 122.5q1 3 2.5 8.5t11 14t23.5 8.5q24 0 28.5 -9.5t4.5 -52.5q0 -74 53 -74q25 0 38.5 22t16.5 49.5t3 71.5v61q0 91 -17 119.5t-85 28.5h-19z" />
    <glyph glyph-name="six" unicode="6" horiz-adv-x="336" 
d="M301 574q0 -43 -27 -43q-9 0 -20.5 6t-19.5 12l-7 6v16q0 19 -4 33.5t-9.5 21.5t-11.5 12t-10 6l-4 1q-28 -3 -44 -50t-19.5 -85.5t-3.5 -72.5v-17q31 12 62 12q64 0 97.5 -44.5t33.5 -146.5q0 -34 -1 -56.5t-5.5 -53t-15 -50t-26.5 -38.5t-43 -28t-63 -9q-37 0 -61.5 20
t-36 58t-15.5 76t-4 91v167q0 51 2.5 88t11 75.5t23.5 62.5t42 39t64 15q35 0 59.5 -12.5t35.5 -33t15.5 -39.5t4.5 -39zM178 376q-29 -1 -60 -27q-1 -20 -1 -56q0 -110 14.5 -171.5t41.5 -61.5q34 0 47 50.5t13 102.5q0 84 -9.5 122t-45.5 41z" />
    <glyph glyph-name="seven" unicode="7" horiz-adv-x="253" 
d="M37 684h144q6 0 19.5 0.5t21.5 0.5q15 0 26 -11t14 -22l3 -11l-149 -611q-10 -27 -47 -27q-34 0 -34 22q0 5 3 14l149 573q-2 0 -35 0.5t-64 0.5q-38 0 -46 2q-27 6 -27 28q0 8 3.5 17.5t7.5 14.5l4 5z" />
    <glyph glyph-name="eight" unicode="8" horiz-adv-x="341" 
d="M193 697q62 0 92.5 -44t30.5 -117q0 -117 -51 -151q53 -48 53 -136q0 -33 -0.5 -51t-3.5 -48t-8.5 -47t-16.5 -38.5t-26.5 -33t-40 -19.5t-55.5 -8q-39 0 -65 18t-38 53t-16 70t-4 86q0 107 58 155q-48 37 -48 145q0 82 36.5 124t102.5 42zM239 542q0 99 -47 99
q-58 0 -58 -105q0 -122 50 -122q28 0 41 32t14 64v32zM174 58q66 0 66 173q0 126 -57 126q-58 0 -58 -115q0 -84 9 -134t40 -50z" />
    <glyph glyph-name="nine" unicode="9" horiz-adv-x="344" 
d="M56 129q0 44 28 44q8 0 19.5 -6t18.5 -12l8 -6v-17q0 -21 4 -36t9 -22t12.5 -11t11 -4.5t6.5 -0.5q62 0 62 208v17q-28 -12 -60 -12q-132 0 -132 191q0 42 1.5 68.5t10 61.5t24 55.5t45.5 35.5t73 15q37 0 61.5 -20t36 -58.5t15.5 -76.5t4 -91v-167q0 -51 -2.5 -87.5
t-11 -75t-23.5 -62.5t-41.5 -39t-63.5 -15q-36 0 -60.5 12t-35.5 32.5t-15.5 39t-4.5 39.5zM180 327q34 0 58 26q1 21 1 57q0 233 -54 233q-19 0 -32 -17t-19 -44.5t-8 -49t-2 -42.5q0 -43 1.5 -66t6.5 -48.5t16.5 -37t31.5 -11.5z" />
    <glyph glyph-name="colon" unicode=":" horiz-adv-x="204" 
d="M70 396q20 12 41 12q25 0 33 -14t8 -42q0 -23 -14 -36t-38 -13q-21 0 -35.5 18.5t-14.5 40.5q0 23 20 34zM70 104q20 12 41 12q25 0 33 -14t8 -41q0 -24 -14 -37t-38 -13q-21 0 -35.5 18.5t-14.5 40.5q0 23 20 34z" />
    <glyph glyph-name="semicolon" unicode=";" horiz-adv-x="203" 
d="M69 396q20 12 41 12q25 0 33 -14t8 -42q0 -23 -14 -36t-38 -13q-21 0 -35.5 18.5t-14.5 40.5q0 23 20 34zM69 104q20 12 41 12q25 0 33.5 -14.5t8.5 -41.5q0 -17 -16 -62t-28 -62q-10 -12 -24 -12q-12 0 -21 10t-9 18q11 23 16 69q-21 16 -21 49q0 23 20 34z" />
    <glyph glyph-name="less" unicode="&#x3c;" horiz-adv-x="333" 
d="M271 427q24 -14 24 -29q0 -11 -12 -23q-7 -7 -78.5 -43.5t-82.5 -41.5q102 -51 147 -81q2 -2 5.5 -4t5 -3.5t4 -3.5t4 -3t3 -3t2.5 -3.5t1.5 -3.5t0.5 -4q0 -28 -17 -35q-12 -4 -23 -4q-17 0 -26 6l-31 18q-112 62 -145 89q-17 14 -17 32q0 20 21 32q29 18 80.5 45
t88.5 46l38 18z" />
    <glyph glyph-name="equal" unicode="=" horiz-adv-x="341" 
d="M309 340q-6 -34 -28 -34h-228q-21 0 -21 34q0 30 29 30h216q13 0 22.5 -8.5t9.5 -21.5zM309 241q-6 -34 -28 -34h-221q-10 0 -19 9.5t-9 24.5q0 30 29 30h216q13 0 22.5 -8.5t9.5 -21.5z" />
    <glyph glyph-name="greater" unicode="&#x3e;" horiz-adv-x="338" 
d="M61 144q-25 13 -25 29q0 10 13 23q4 4 42 23.5t77.5 39.5t40.5 21q-101 51 -146 82q-16 11 -21.5 16t-5.5 13q0 27 17 34q8 4 24 4q12 0 26 -6l31 -18q112 -62 145 -89q16 -12 16 -32t-19 -32q-29 -18 -81 -45t-89 -45l-38 -18h-7z" />
    <glyph glyph-name="question" unicode="?" horiz-adv-x="384" 
d="M322 582q0 -36 -11.5 -71.5t-23.5 -57t-34 -53.5q-20 -31 -29.5 -47.5t-19.5 -45t-10 -55.5q0 -12 1 -16q0 -1 0.5 -7.5t0.5 -11.5q-1 -18 -7.5 -27.5t-14 -11t-22.5 -1.5q-20 0 -28 15t-8 57q0 32 11 65.5t21.5 52t32.5 54.5q19 31 29 48t19.5 45.5t9.5 54.5
q0 31 -9.5 52.5t-28.5 21.5q-29 0 -45 -29t-16 -79q0 -26 -5.5 -38.5t-23.5 -12.5q-31 0 -40 13.5t-9 49.5q0 84 41 123.5t102 39.5q49 0 83 -33.5t34 -94.5zM133 100q24 11 41 11q25 0 33 -14t8 -41q0 -50 -52 -50q-21 0 -35 18.5t-14 40.5q0 23 19 35z" />
    <glyph glyph-name="at" unicode="@" horiz-adv-x="554" 
d="M318 653q56 -2 97 -29t61.5 -69.5t29.5 -85.5t9 -89q0 -76 -42 -127.5t-111 -51.5q-25 0 -44 24l-20 -10q-44 -29 -75 -29q-24 0 -40 16.5t-22 41.5t-7.5 38t-1.5 22q3 42 19 87t50 81.5t77 36.5q18 0 34 -10q3 0 7.5 0.5t6.5 0.5q8 0 23 -8q8 -11 8 -24q0 -16 -2 -60
q-3 -63 -3 -69q0 -81 15 -81q23 0 36.5 49t13.5 86q0 57 -12 100.5t-43.5 73.5t-79.5 30q-63 0 -106 -44t-60.5 -104t-17.5 -128q0 -105 46.5 -163t139.5 -58q41 0 91 28.5t83 71.5q23 -3 38 -13t11 -27q-10 -38 -70 -80.5t-160 -42.5q-257 0 -257 289q0 156 66.5 242
t196.5 86zM290 456q-21 -11 -39.5 -63t-18.5 -99q0 -46 33 -46q10 0 22.5 8t11.5 16q-7 42 -7 89q0 37 16 93q-3 3 -8 3z" />
    <glyph glyph-name="A" unicode="A" horiz-adv-x="345" 
d="M333 58q2 -8 2 -13q0 -19 -14.5 -30t-38.5 -12q-20 0 -23 26l-29 221l-102 -1l-2 -10q-1 -8 -4 -24.5t-4 -25.5q-20 -142 -30 -165q-6 -4 -25.5 -11.5t-27.5 -7.5q-21 0 -21 28q0 11 3 22l23 134q59 331 76 412l3 13q5 20 8.5 31t11.5 26.5t22.5 22.5t34.5 7q49 0 61 -97
q0 -2 52 -370zM161 442l-22 -131q12 0 41 0.5t42 0.5l-36 277q0 -1 -25 -147z" />
    <glyph glyph-name="B" unicode="B" horiz-adv-x="334" 
d="M285 544q0 -100 -38 -152q20 -10 39 -31q32 -37 32 -120q0 -49 -2 -79.5t-9 -64.5t-20.5 -52t-38.5 -30.5t-61 -12.5h-121q-8 0 -14 3q-23 13 -23 42l6 581q5 24 18.5 40t35 22.5t38.5 8.5t40 2q37 0 61.5 -12t36.5 -35.5t16 -48.5t4 -61zM152 637q-34 0 -37 -9
q-2 -74 -4 -220h49q49 3 49 125v31q0 37 -12.5 55t-44.5 18zM110 348q-1 -76 -1 -234v-46h65q35 0 52.5 30t17.5 74q0 6 0.5 17.5t0.5 16.5v16q0 66 -16 96t-68 30h-51z" />
    <glyph glyph-name="C" unicode="C" horiz-adv-x="340" 
d="M313 515q-12 -17 -42 -17q-19 0 -27 8q-2 7 -5.5 33t-7.5 44.5t-18 34.5t-37 16q-30 0 -48.5 -42.5t-18.5 -87.5q0 -27 -1 -44q-2 -56 -2 -108l3 -101q0 -186 72 -186q28 0 49.5 25t21.5 64v40q2 12 13 19t23 7q22 0 29 -12t7 -35q0 -54 -9 -78q-41 -97 -136 -97
q-68 0 -102.5 43t-41.5 114q-8 91 -8 244q0 108 15 176q28 124 141 124q85 0 117 -91q14 -41 14 -89z" />
    <glyph glyph-name="D" unicode="D" horiz-adv-x="373" 
d="M61 687q21 4 37 4q56 0 101.5 -26.5t73.5 -66.5t47 -90t26.5 -93.5t7.5 -79.5q0 -288 -211 -325q-30 -5 -50 -5q-48 0 -51 30q-10 87 -10 333q0 62 1.5 145t1.5 102v10q0 21 1 30.5t7 19t18 12.5zM118 617q-1 -84 -1 -213q0 -265 2 -335v-7q45 2 78 30.5t50 72t24.5 86
t7.5 83.5q0 53 -19 119.5t-56 119t-79 52.5q-3 0 -7 -1v-7z" />
    <glyph glyph-name="E" unicode="E" horiz-adv-x="267" 
d="M107 621q-2 -1 -2 -76q0 -35 -0.5 -69t-0.5 -38v-22l1 -33q5 -1 37 -1h48q30 0 37.5 -7t7.5 -30q0 -17 -10.5 -26t-24.5 -9h-61q-17 0 -23 -2.5t-6 -11.5v-47q0 -87 -1 -125l-1 -60l15 -2q25 0 30 1q7 0 23.5 1.5t22.5 1.5q37 0 44 -13q4 -8 4 -21q0 -12 -9 -19.5
t-20 -8.5q-75 -7 -130 -7q-33 0 -45 10t-12 39v53q3 86 3 349q0 119 1 127q0 3 0.5 9.5t0.5 10.5q2 63 17 87q11 14 67 14q6 0 16 -0.5t16 -0.5h31q40 0 53 -5.5t13 -29.5q0 -22 -12 -30t-53 -8h-9z" />
    <glyph glyph-name="F" unicode="F" horiz-adv-x="292" 
d="M290 672q-2 -26 -13 -33.5t-34 -7.5q-8 0 -25 0.5t-26 0.5q-18 1 -55 1q-9 0 -29 -2q5 -78 5 -224h12.5h21.5h25q14 0 22.5 -0.5t20.5 -3t18 -9.5t6 -18q0 -6 -0.5 -14t-0.5 -10q-3 -24 -98 -24h-31q-2 -57 -2 -278q0 -29 -7.5 -39.5t-33.5 -10.5q-22 0 -28.5 10.5
t-6.5 34.5q0 11 3 182v155q0 206 -4 246q0 43 25 66q6 5 41 9.5t76 4.5q48 0 83 -6.5t35 -17.5v-12z" />
    <glyph glyph-name="G" unicode="G" horiz-adv-x="399" 
d="M207 277q-24 7 -24 36q0 12 9 18q13 11 51 11h50q7 0 24 1t26 1q42 0 53 -7q2 -4 2 -15q0 -17 -6 -27q-9 -14 -29 -16q-11 -2 -37 -4v-17q0 -6 0.5 -19t0.5 -20q0 -45 -5 -78t-19 -68.5t-45 -54.5t-78 -19q-71 0 -110 49.5t-39 123.5q0 51 -1 96q-5 210 -5 225
q0 73 19 124q14 37 52 64.5t84 27.5q22 0 49 -10.5t37 -19.5q21 -21 32 -48.5t13 -46t4 -60.5q-2 -8 -17 -14.5t-26 -6.5q-29 0 -31 42q0 10 -2 23q-3 19 -5 28.5t-8.5 24.5t-19 22t-30.5 7q-60 0 -70 -114q-1 -11 -1 -81q0 -43 2 -145q2 -98 2 -136t19.5 -75t49.5 -37
q36 0 56.5 36.5t20.5 85.5q0 13 -0.5 34t-0.5 30v25q-15 0 -47 4z" />
    <glyph glyph-name="H" unicode="H" horiz-adv-x="322" 
d="M111 669q-3 -220 -3 -328q14 1 49 1q38 0 68 -3l5 337q0 10 10.5 18t24.5 8q19 0 40 -21q1 -37 1 -128q0 -322 -6 -532q-20 -16 -49 -16q-28 0 -28 16v124q0 23 0.5 67t0.5 61l-116 -1v-152q0 -26 -0.5 -39.5t-3 -33t-9 -30t-16.5 -12.5h-15q-33 0 -33 34t0.5 91t0.5 81
v110q0 77 -0.5 162t-0.5 99q0 61 2 87q2 25 39 25q13 0 26 -7.5t13 -17.5z" />
    <glyph glyph-name="I" unicode="I" horiz-adv-x="248" 
d="M20 668q6 20 26 29q166 0 177 -6q19 -12 19 -27q0 -11 -7 -24t-14 -13q-1 0 -11 -0.5t-19 -0.5q-3 0 -10.5 -0.5t-11.5 -0.5v-117q0 -154 -3 -269q-2 -94 -2 -124v-42h46q23 -8 27 -25q0 -39 -18 -44q-5 -1 -33 -1q-53 0 -119 2q-6 0 -17.5 0.5t-12.5 0.5q-7 0 -14.5 15
t-7.5 21q0 14 22 29q6 2 50 2v551h-15q-28 0 -33 1q-19 5 -19 43z" />
    <glyph glyph-name="J" unicode="J" horiz-adv-x="304" 
d="M211 691q13 9 40 9q30 0 30 -43q0 -349 -8 -494q-2 -71 -32 -119t-97 -48q-115 0 -115 192v73q0 11 12 20t28 9q14 0 28 -15t14 -46q0 -55 -1 -78l-1 -32q0 -26 11 -44t32 -18q42 0 42 73q0 8 3 266v76v89v76q0 40 14 54z" />
    <glyph glyph-name="K" unicode="K" horiz-adv-x="304" 
d="M78 704q15 0 33 -12q4 -32 4 -86q0 -36 -2 -108q-2 -56 -2 -102l17 51q34 94 68 199q19 54 53 51q30 -4 30 -21q0 -23 -10 -46q-44 -106 -48 -117q-64 -160 -72 -175q12 -28 24 -47q40 -71 69 -137q53 -110 53 -140q0 -20 -46 -20q-11 0 -19 7t-12 14.5t-11 24.5
q-27 65 -103 223q-3 -64 -3 -223q0 -30 -9 -38t-29 -8q-37 0 -37 40q11 297 11 587q0 60 8 68q15 15 33 15z" />
    <glyph glyph-name="L" unicode="L" horiz-adv-x="253" 
d="M110 85l28 -2h49q40 0 58 -6q8 -3 8 -28q0 -26 -17 -35q-12 -7 -73 -7q-86 0 -104 7q-8 3 -14 8q-10 9 -12 56q3 54 3 256q0 277 -4 345q16 24 35 24q10 0 28 -12q19 -13 19 -79q0 -428 -4 -527z" />
    <glyph glyph-name="M" unicode="M" horiz-adv-x="539" 
d="M422 683q19 11 43 11q35 0 35 -49l2 -114q5 -242 5 -456q0 -20 -1 -29.5t-6 -22.5t-17.5 -18.5t-33.5 -5.5q-22 0 -25 23q0 363 2 505q-5 -24 -15.5 -79t-15.5 -76q-35 -142 -60 -264q-15 -37 -65 -37q-31 0 -44 38q-33 105 -113 411q0 -84 2 -218q1 -94 1 -270
q-4 -29 -46 -29q-33 0 -33 50q0 3 -0.5 62t-1 146.5t-0.5 161.5q0 55 -0.5 138.5t-0.5 100.5q14 34 57 34q22 0 44 -13l142 -517q85 396 103 451q6 19 10 29t12 20t20 17z" />
    <glyph glyph-name="N" unicode="N" horiz-adv-x="378" 
d="M35 649q2 17 18 28t41 11q21 -12 32 -57l3 -13q8 -28 42.5 -148.5t58.5 -197.5t45 -135q-4 85 -4 124q0 29 -2.5 88.5t-2.5 82.5q0 16 -1 44.5t-1.5 50t-0.5 36.5v89q0 20 14 32.5t53 17.5q7 -11 10 -21q0 -13 2 -157q4 -220 4 -360q0 -90 -4 -106q-1 -15 -23.5 -27.5
t-44.5 -12.5q-28 0 -35 18l-130 406q4 -82 4 -141l2 -274q-25 -23 -55 -23q-18 0 -22 41t-4 134v181q0 259 1 289z" />
    <glyph glyph-name="O" unicode="O" horiz-adv-x="340" 
d="M317 530q0 -30 2 -80q1 -21 1 -70q0 -89 -6.5 -155t-22 -119t-43 -80.5t-67.5 -27.5q-53 0 -87 27t-50 105q-18 82 -18 204v129q0 37 7 75t23 78.5t50.5 66t82.5 25.5q54 0 90 -55.5t38 -122.5zM175 62q34 0 49.5 88.5t15.5 214.5q0 11 1 39t1 49.5t-1 51t-5 51t-10.5 42
t-19 31t-29.5 10.5q-21 0 -36 -20t-25.5 -87.5t-10.5 -182.5q0 -42 2 -82t8.5 -91t22 -82.5t37.5 -31.5z" />
    <glyph glyph-name="P" unicode="P" horiz-adv-x="326" 
d="M34 628q16 75 133 75q89 0 125 -56q18 -29 18 -108q0 -141 -17 -192q-31 -92 -118 -92q-62 0 -63 -1t-3 -108v-33l1 -68q0 -4 -4 -14t-15.5 -21t-26.5 -11q-19 0 -27 4.5t-8 18.5zM152 638q-34 0 -37 -10q-3 -134 -3 -217q0 -57 1 -89h49q35 0 52.5 29.5t17.5 73.5
q0 4 0.5 29.5t0.5 40.5v36q0 55 -17 81t-64 26z" />
    <glyph glyph-name="Q" unicode="Q" horiz-adv-x="338" 
d="M315 530q0 -30 2 -80q1 -21 1 -70q0 -169 -25 -262q52 -55 59 -126q0 -6 -15.5 -15t-28.5 -9t-20 11q-16 38 -31 59q-31 -40 -80 -40q-53 0 -86.5 27t-50.5 105q-18 90 -18 204q0 13 0.5 38t0.5 36v55q0 40 5.5 75.5t20.5 77.5t50 67t86 25q54 0 90.5 -55.5t39.5 -122.5z
M101 349q0 -93 9 -157h11q54 0 106 -25q12 76 12 198q0 141 -9 199q-4 25 -20 50t-37 25t-36 -20t-25.5 -87.5t-10.5 -182.5zM171 62q21 0 37 33q-38 28 -86 31q17 -64 49 -64z" />
    <glyph glyph-name="R" unicode="R" horiz-adv-x="331" 
d="M34 628q16 75 133 75q89 0 125 -56q18 -29 18 -108q0 -141 -17 -192q-21 -60 -62 -80q81 -117 98 -255q-16 -16 -41 -16q-11 0 -25 9.5t-16 16.5q-11 65 -39 135.5t-64 97.5l-32 1q-2 -4 -2 -143l1 -68q0 -4 -4 -14t-16 -21t-27 -11q-19 0 -27 4.5t-8 18.5zM115 628
q-3 -134 -3 -219q0 -58 1 -90h49q35 0 53 31t18 75q0 4 0.5 29.5t0.5 40.5v36q0 55 -17.5 81t-64.5 26q-35 0 -37 -10z" />
    <glyph glyph-name="S" unicode="S" horiz-adv-x="292" 
d="M156 702q115 0 120 -179q0 -31 -24 -31q-16 0 -23.5 1t-16.5 7t-13 18q-1 1 -3 37q-1 19 -2.5 30.5t-5 27t-11 23t-19.5 7.5q-22 0 -36.5 -22.5t-14.5 -54.5q0 -24 14.5 -56.5t27 -51.5t38.5 -57q42 -59 66 -108t24 -103q0 -196 -142 -196q-54 0 -87.5 47t-33.5 106
q0 52 43 52q46 0 46 -44q7 -96 43 -96q52 0 52 97q0 34 -13.5 69.5t-26 55.5t-39.5 59q-29 41 -45 66t-32 69t-16 87q0 63 37.5 101.5t92.5 38.5z" />
    <glyph glyph-name="T" unicode="T" horiz-adv-x="286" 
d="M-2 668q7 23 27 31q234 0 244 -5q6 -3 13 -13t7 -17q0 -13 -7.5 -25t-14.5 -12l-12 -1h-23q-14 -1 -49 -1q0 -177 -2 -399q0 -24 -0.5 -77t-0.5 -58v-63q0 -3 -4 -9.5t-15 -13t-26 -6.5q-25 0 -32.5 9.5t-7.5 28.5v18q0 3 0.5 10t0.5 11q3 210 3 548h-37q-39 0 -45 1
q-19 5 -19 43z" />
    <glyph glyph-name="U" unicode="U" horiz-adv-x="368" 
d="M28 659q19 35 49 35q40 0 40 -59v-484q0 -30 19.5 -59.5t46.5 -29.5q71 0 71 220q0 7 3 136q1 1 1 60l-1 60q0 80 -1 113q13 40 65 40q15 0 22 -19q0 -72 -7.5 -288t-12.5 -241q-20 -90 -58.5 -119.5t-95.5 -29.5q-84 0 -120 92q-15 40 -19 431z" />
    <glyph glyph-name="V" unicode="V" horiz-adv-x="346" 
d="M216 372l55 310q9 18 40 18q13 0 20 -11.5t7 -26.5q0 -6 -5 -34l-3 -18q-34 -213 -101 -526q-12 -53 -25 -66q-15 -15 -41 -15q-49 0 -64 97q-46 270 -85 546q0 50 42 53q9 0 20.5 -7.5t14.5 -15.5q6 -22 18 -120q25 -219 61 -422z" />
    <glyph glyph-name="W" unicode="W" horiz-adv-x="594" 
d="M467 373v-1l55 310q10 18 40 18q28 0 28 -32q0 -5 -8 -58q-57 -335 -110 -539q-7 -24 -11 -35.5t-17 -22t-34 -10.5q-50 0 -65 97q-18 110 -50 339q-49 -261 -78 -368q-8 -35 -20 -51.5t-42 -16.5q-50 0 -65 97q-24 144 -59 411q-3 27 -9.5 64t-10.5 62t-4 33
q0 16 10 21.5t35 7.5q10 0 21.5 -7.5t14.5 -15.5q7 -32 15 -114q2 -23 60 -439l50 250l42 170q0 9 16.5 24t31.5 15t26 -7.5t13 -17.5q12 -45 23 -118l15 -103q15 -102 36 -215z" />
    <glyph glyph-name="X" unicode="X" horiz-adv-x="367" 
d="M4 25q69 165 143 336q-60 151 -105 280q-5 13 -5 22q0 15 10 24t25 9q14 0 25.5 -11t16.5 -27q21 -57 76 -197q71 161 102 223q2 4 10 10t15 6q14 0 27 -11.5t13 -26.5q0 -5 -3 -11q-28 -56 -125 -287q88 -220 134 -331q-1 -4 -3 -10t-12 -15.5t-23 -9.5q-18 0 -27 10
q-20 25 -113 255l-95 -225q-21 -43 -48 -43q-22 0 -37 23z" />
    <glyph glyph-name="Y" unicode="Y" horiz-adv-x="321" 
d="M237 686q11 11 28 11q21 0 28 -27q2 -14 2 -43q0 -34 -6.5 -252.5t-10.5 -243.5q-24 -132 -137 -132q-10 0 -20.5 1.5t-28 9.5t-30.5 21.5t-23 41t-10 64.5q0 45 43 45q8 0 13.5 -2t12 -8.5t9.5 -23t3 -42.5q0 -42 41 -42q29 0 42.5 24.5t13.5 58.5l4 112
q-33 -12 -69 -12q-18 0 -53 15q-24 11 -39 40t-20.5 76t-7 77t-1.5 79q0 9 0.5 25.5t0.5 24.5q1 19 1 69q0 10 15.5 26t31.5 16q25 0 25 -35q0 -186 12 -293q2 -9 7 -19.5t18.5 -21.5t30.5 -11q18 0 51 20l7 292q0 43 16 59z" />
    <glyph glyph-name="Z" unicode="Z" horiz-adv-x="304" 
d="M39 650q0 16 6 29q0 8 176 8q12 0 27 -2q55 -4 55 -53q0 -13 -2.5 -28.5t-4.5 -23.5l-3 -9l-200 -497h165q22 -8 22 -32q0 -23 -18 -35q-88 -5 -156 -5q-50 0 -55 1q-26 7 -38 24.5t-12 33.5q0 2 50.5 124.5t59.5 143.5q13 28 59 147.5t51 143.5l-144 -1q-38 0 -38 31z
" />
    <glyph glyph-name="bracketleft" unicode="[" horiz-adv-x="292" 
d="M74 690q10 23 97 23q22 0 58 -4q10 -2 17 -12.5t7 -20.5q0 -11 -6 -19q-7 -11 -97 -11q2 -596 5 -606q87 0 94 -13q6 -6 6 -17q0 -12 -5.5 -22t-13.5 -11h-6q-3 0 -27 -1t-40 -1q-37 0 -49 1q-22 2 -28 9t-10 36v5v15.5v22.5t-0.5 30.5t-0.5 36v42v46.5q0 461 -1 465v6z
" />
    <glyph glyph-name="backslash" unicode="\" horiz-adv-x="439" 
d="M383 55q12 -26 12 -41q0 -13 -6 -19t-12 -7t-18 -1q-18 0 -25.5 6t-15.5 20q-4 5 -92 226q-172 436 -178 440q0 20 9.5 28.5t32.5 8.5q29 0 38 -24z" />
    <glyph glyph-name="bracketright" unicode="]" horiz-adv-x="294" 
d="M226 684q-2 -7 -2 -465v-64v-56.5t-0.5 -43.5t-0.5 -30v-11q-4 -24 -11 -30t-26 -8q-12 -1 -49 -1q-15 0 -40.5 1t-32.5 1q-19 3 -19 33q0 8 7 19q5 11 93 11q3 32 5 606q-90 0 -97 11q-6 8 -6 19q0 10 6.5 20.5t16.5 12.5q36 4 43 4h17q86 0 96 -23v-6z" />
    <glyph glyph-name="asciicircum" unicode="^" horiz-adv-x="368" 
d="M361 391q-7 -30 -37 -30q-16 0 -28 12q-11 10 -55.5 104.5t-53.5 116.5q-77 -154 -110 -203q-17 -28 -38 -28q-15 0 -23.5 10.5t-8.5 25.5q0 22 7 32l24 42q7 12 26 45t31 53.5t28 45.5t28 40q17 21 40 21q22 0 39 -26q24 -39 56.5 -103t53.5 -108l21 -44v-6z" />
    <glyph glyph-name="underscore" unicode="_" horiz-adv-x="497" 
d="M453 43q-4 -40 -27 -40h-343q-14 0 -21 7t-8 14t-1 20q0 14 9 23.5t22 9.5h338q12 0 21.5 -10t9.5 -24z" />
    <glyph glyph-name="grave" unicode="`" horiz-adv-x="132" 
d="M7 827q16 12 40 12q3 0 4.5 -0.5t2.5 -0.5h1q12 -8 26.5 -22.5t22.5 -25.5l9 -10q19 -24 19 -40q0 -20 -32 -20q-11 0 -47 31.5t-43 42.5q-9 13 -9 20t6 13z" />
    <glyph glyph-name="a" unicode="a" horiz-adv-x="298" 
d="M278 49q1 -4 1 -11q0 -33 -46 -35q-21 0 -21 21l-22 170q-13 0 -40.5 -0.5t-39.5 -0.5l-5 -34q-18 -122 -25 -138q-5 -4 -22.5 -10t-24.5 -6q-19 0 -19 24q0 10 3 19l15 88q54 298 67 363q5 25 9 38t18.5 26.5t38.5 13.5q18 0 29.5 -15t14.5 -28t7 -37q3 -21 27 -192
t35 -256zM141 380l-21 -129q9 0 30.5 0.5t32.5 0.5l-26 219z" />
    <glyph glyph-name="b" unicode="b" horiz-adv-x="284" 
d="M242 447q0 -82 -30 -124q16 -9 30 -25q27 -30 27 -99q0 -41 -1.5 -66t-7.5 -53t-17.5 -43t-32 -25t-50.5 -10h-92q-12 0 -17 2q-21 7 -21 36l3 478q4 20 16 33t30.5 18t31.5 6.5t33 1.5q58 0 78 -34t20 -96zM132 521q-22 0 -26 -8q-2 -58 -4 -174h35q37 4 37 93v27
q0 31 -9 46.5t-33 15.5zM102 282q-1 -60 -1 -186v-33h49q52 0 52 79q0 5 0.5 14.5t0.5 13.5v13q0 23 -1.5 38t-7.5 30.5t-19.5 23t-35.5 7.5h-37z" />
    <glyph glyph-name="c" unicode="c" horiz-adv-x="291" 
d="M262 424q-11 -13 -35 -13q-26 0 -31 8q-3 12 -3 28q-2 21 -4.5 32.5t-13 24t-28.5 12.5q-23 0 -35.5 -31.5t-12.5 -67.5q0 -4 -0.5 -16t-0.5 -20q-1 -23 -1 -89v-71q0 -154 53 -154q55 0 55 65v10v13v11q2 11 13.5 16.5t22.5 5.5q20 0 25.5 -10t5.5 -30q0 -47 -7 -66
q-36 -78 -114 -78q-109 0 -119 124q-7 80 -7 203q0 91 12 145q12 59 42.5 81t75.5 22q70 0 97 -75q13 -35 10 -80z" />
    <glyph glyph-name="d" unicode="d" horiz-adv-x="330" 
d="M60 575q16 4 34 4q58 0 102 -33t67 -82.5t34 -96.5t11 -87q0 -241 -177 -271q-24 -4 -42 -4q-42 0 -46 26q-7 70 -7 216v62q0 55 1 127t1 86q0 17 1 25.5t6 17t15 10.5zM111 510q-1 -71 -1 -172q0 -76 0.5 -136.5t1 -93.5t0.5 -40v-4q45 6 74 44.5t39 82t10 89.5
q0 45 -13.5 98t-42 95t-63.5 42h-5v-5z" />
    <glyph glyph-name="e" unicode="e" horiz-adv-x="232" 
d="M100 510q-1 0 -1 -58q0 -30 -0.5 -57t-0.5 -29v-17q0 -26 -1 -26q2 -1 53 -1h13q25 0 31 -8t6 -28q0 -30 -30 -30h-50q-11 0 -14 -2t-3 -8q0 -10 0.5 -33.5t0.5 -36.5t-0.5 -37t-0.5 -35q0 -10 -0.5 -24.5t-0.5 -18.5h30q5 0 18.5 1.5t18.5 1.5q32 0 38 -13q3 -6 3 -24
q0 -10 -7.5 -16.5t-16.5 -7.5q-54 -6 -109 -6q-28 0 -38 8.5t-10 33.5v47q3 79 3 310l1 97q2 50 15 74q7 10 83 10h26q23 0 33 -1.5t16 -8t6 -20.5q0 -20 -10 -27t-44 -7h-8z" />
    <glyph glyph-name="f" unicode="f" horiz-adv-x="261" 
d="M255 546q-2 -22 -11 -29t-29 -7q-6 0 -20.5 0.5t-21.5 0.5h-22h-25h-18q4 -63 4 -175h45q56 0 56 -29v-20q-3 -21 -82 -21h-23q-1 -47 -1 -224q0 -24 -6.5 -33t-28.5 -9q-37 0 -37 38q0 27 0.5 76t0.5 72q0 21 0.5 63t0.5 62q0 176 -3 200q0 35 21 55q13 11 102 11
q98 0 98 -20v-11z" />
    <glyph glyph-name="g" unicode="g" horiz-adv-x="341" 
d="M193 478q-10 41 -38 41q-24 0 -35.5 -25t-13.5 -58q-1 -9 -1 -66q0 -34 2 -114v-107q0 -32 12.5 -60.5t35.5 -28.5q28 0 42 25.5t14 64.5q0 7 -0.5 20t-0.5 18v33q-20 2 -32 4q-21 8 -21 30q0 15 9 22q13 8 41 8q9 0 23 0.5t20 0.5h38q26 0 39 -6q8 -4 8 -12
q0 -20 -3 -26q-8 -12 -28 -16q-16 -3 -27 -3v-10q0 -5 0.5 -16t0.5 -17q0 -36 -4 -63.5t-15.5 -56.5t-37.5 -45t-64 -16q-59 0 -91 41t-32 101q0 38 -1 74q-4 136 -4 186q0 63 15 102q11 31 43 53t70 22q18 0 40.5 -8.5t29.5 -16.5q24 -25 31 -52.5t9 -74.5q-5 -18 -38 -18
q-16 0 -25 20q-7 28 -11 50z" />
    <glyph glyph-name="h" unicode="h" horiz-adv-x="300" 
d="M107 549q-3 -170 -3 -255q11 1 37 1q35 0 49 -2l3 262q0 9 10.5 16t23.5 7q17 0 35 -17v-106q0 -296 -5 -436q-18 -14 -41 -14q-27 0 -27 14v102q0 21 0.5 59.5t0.5 53.5l-86 -1v-132q0 -21 -0.5 -32.5t-2.5 -28t-7.5 -25t-14.5 -10.5h-15q-28 0 -28 29q0 28 0.5 74.5
t0.5 66.5v90q0 63 -0.5 133t-0.5 81q0 21 0.5 41.5t0.5 28.5q0 23 34 23q12 0 24 -6.5t12 -16.5z" />
    <glyph glyph-name="i" unicode="i" horiz-adv-x="210" 
d="M15 552q1 22 24 25q138 0 146 -4q16 -13 16 -25q0 -5 -6.5 -19t-11.5 -14h-22q-2 0 -9 -0.5t-11 -0.5v-94q0 -158 -1 -222l-1 -101v-31h35q18 -6 23 -25q0 -34 -15 -38q-9 -2 -126 1h-15l-10 1q-6 0 -13 13t-7 18q0 13 18 28q3 2 40 2v447q-25 0 -37 2q-17 3 -17 37z" />
    <glyph glyph-name="j" unicode="j" horiz-adv-x="265" 
d="M173 567q11 9 43 7q22 -1 22 -36q0 -283 -7 -404q-4 -138 -111 -138q-101 0 -101 159v59q0 9 13 17.5t26 8.5t24.5 -12.5t11.5 -38.5q0 -12 -0.5 -32.5t-0.5 -28.5v-26q0 -50 34 -50q33 0 33 59q0 39 0.5 110t0.5 105q0 33 0.5 98t0.5 97q0 33 11 46z" />
    <glyph glyph-name="k" unicode="k" horiz-adv-x="282" 
d="M105 571q5 -35 5 -82q0 -20 -1.5 -58.5t-1.5 -57.5v-20q28 70 64 175q14 44 27 47q20 5 26 5q25 0 27 -24q2 -21 -12 -44q-3 -7 -14.5 -37.5t-20.5 -50.5q-11 -24 -30 -66.5t-25 -55.5q14 -31 29 -60.5t32 -62.5t26 -51l30 -60q12 -24 12 -46q0 -26 -36 -28h-5
q-22 0 -42 45q-28 55 -92 199v-19q0 -35 -2.5 -96t-2.5 -78q0 -30 -7.5 -37.5t-26.5 -7.5q-4 0 -24 5q-9 3 -9 35q9 299 9 466v9q0 1 -1 13.5t0 22t4 15.5q7 16 33 16q16 0 21 -4z" />
    <glyph glyph-name="l" unicode="l" horiz-adv-x="222" 
d="M161 75q25 0 47 -4q8 -8 8 -29q0 -22 -9 -27q-16 -9 -68 -9h-9q-68 0 -88 12q-9 12 -9 48q2 58 2 202q0 247 -3 291q12 20 30 20q28 0 36.5 -19t8.5 -64q0 -340 -2 -421h56z" />
    <glyph glyph-name="m" unicode="m" horiz-adv-x="469" 
d="M354 565q22 10 40 10q32 0 32 -41q0 -39 2 -115q3 -175 3 -356q0 -20 -2.5 -32t-14 -22t-33.5 -10q-19 0 -22 31q0 309 1 367l-24 -101q-24 -90 -47 -206q-11 -31 -57 -31q-28 0 -39 32q-47 144 -89 297q0 -93 1 -142q2 -150 2 -219q-4 -25 -39 -25q-16 0 -22.5 14
t-6.5 28q-3 45 -3 306q0 46 -0.5 115t-0.5 83q11 29 50 29q22 0 38 -8l115 -414q69 311 84 357q8 45 32 53z" />
    <glyph glyph-name="n" unicode="n" horiz-adv-x="320" 
d="M33 534q1 33 50 33q4 -1 7 -3t6 -5.5t4.5 -7t3.5 -9.5t3.5 -10t3.5 -11.5t3 -11.5q87 -293 114 -366q0 5 -0.5 12.5t-0.5 10.5q-2 32 -2 49q0 47 -2 141q0 14 -1 37t-1.5 40.5t-0.5 29.5v73q0 16 11.5 27t33.5 11q21 0 23 -13q0 -72 1 -130q1 -93 1 -296q0 -75 -4 -88
q-4 -12 -21 -22t-34 -10q-25 0 -30 15l-103 297v-85q0 -55 1 -117.5t1 -101.5q-22 -20 -49 -20q-21 0 -21 90q0 8 0.5 27t0.5 29v148q0 187 2 237z" />
    <glyph glyph-name="o" unicode="o" horiz-adv-x="287" 
d="M264 439q0 -44 1 -66q1 -17 1 -58q0 -73 -5.5 -128t-18.5 -99t-36 -67t-57 -23q-44 0 -72.5 22.5t-41.5 87.5q-15 78 -15 170q0 11 0.5 31t0.5 29v46q0 31 6 62.5t19.5 65.5t42 55t67.5 21q45 0 75.5 -46.5t32.5 -102.5zM145 58q48 0 48 245q0 123 -7 166q-3 20 -13.5 38
t-26.5 18q-17 0 -28 -16t-19 -70.5t-8 -149.5q0 -231 54 -231z" />
    <glyph glyph-name="p" unicode="p" horiz-adv-x="285" 
d="M32 515q12 64 112 64q75 0 104 -46q15 -23 15 -90q0 -115 -14 -159q-25 -75 -99 -75h-15.5h-15t-13.5 1h-5q-3 -3 -3 -116l1 -56q0 -8 -10.5 -24t-29.5 -16q-31 0 -31 21zM103 512q-3 -107 -3 -169q0 -13 0.5 -35t0.5 -36h39q23 0 37.5 22t14.5 55q0 4 0.5 25.5t0.5 33.5
v28q0 45 -12.5 64t-48.5 19q-27 0 -29 -7z" />
    <glyph glyph-name="q" unicode="q" horiz-adv-x="289" 
d="M266 432q0 -45 1 -66q0 -10 0.5 -29t0.5 -28q0 -142 -22 -216q43 -46 50 -104q0 -5 -12 -12.5t-23 -7.5q-16 0 -17 9q-2 4 -6 12.5t-6.5 13.5t-6.5 11t-9 10q-26 -32 -65 -32q-44 0 -72 22.5t-42 87.5q-15 77 -15 168q0 10 0.5 30t0.5 30v45q0 203 134 203
q45 0 75.5 -45.5t33.5 -101.5zM94 282q0 -71 5 -127h7q40 0 82 -20q8 61 8 161q0 120 -7 163q-3 20 -13 38t-26 18q-18 0 -29 -15.5t-19 -69t-8 -148.5zM146 54q22 0 31 27q-23 16 -69 20q15 -47 38 -47z" />
    <glyph glyph-name="r" unicode="r" horiz-adv-x="277" 
d="M32 515q12 64 112 64q73 0 104 -47q15 -24 15 -89q0 -115 -14 -159q-16 -48 -51 -64q66 -91 80 -210q-14 -14 -35 -14q-9 0 -23 7.5t-16 12.5q-10 52 -33.5 110.5t-51.5 82.5l-18 2q-3 -3 -3 -117l1 -56q0 -9 -10 -24.5t-29 -15.5q-32 0 -32 21zM103 512q-3 -107 -3 -169
q0 -13 0.5 -35t0.5 -36h39q23 0 37.5 22t14.5 55q0 4 0.5 25.5t0.5 33.5v28q0 45 -12.5 64t-48.5 19q-27 0 -29 -7z" />
    <glyph glyph-name="s" unicode="s" horiz-adv-x="257" 
d="M142 589q97 0 102 -151q0 -27 -21 -27q-14 0 -21 0.5t-15 6t-12 15.5q-1 2 -3 30q-1 15 -1.5 23t-3 20.5t-8.5 18t-15 5.5q-38 0 -38 -56q0 -46 64 -136q75 -111 75 -178q0 -166 -121 -166q-46 0 -73.5 40t-27.5 90q0 44 37 44q18 0 30.5 -10.5t12.5 -29.5q0 -73 31 -73
q39 0 39 76q0 28 -10.5 57t-22 47.5t-31.5 47.5q-77 107 -77 188q0 53 32 85.5t78 32.5z" />
    <glyph glyph-name="t" unicode="t" horiz-adv-x="242" 
d="M-1 552q6 20 24 27q192 0 199 -3q5 -3 12 -13.5t7 -16.5q0 -5 -7 -18t-12 -13h-26q-11 -1 -42 -1q0 -235 -1 -326q0 -19 -0.5 -63t-0.5 -49v-52q0 -2 -4 -7.5t-13.5 -11.5t-21.5 -6q-21 0 -28 8t-7 25v14q0 3 0.5 9t0.5 9q3 171 3 449h-28q-33 0 -38 1q-18 3 -18 28
q0 7 1 10z" />
    <glyph glyph-name="u" unicode="u" horiz-adv-x="317" 
d="M32 547q15 31 41 31q39 0 39 -51v-401q0 -24 13 -46t33 -22q57 0 57 177q0 21 0.5 58t0.5 54t0.5 50.5t0.5 49.5q0 68 -1 95q12 33 60 33q13 0 20 -15q0 -62 -6 -241.5t-11 -200.5q-16 -75 -48.5 -99.5t-80.5 -24.5q-71 0 -101 78q-13 34 -17 370v105z" />
    <glyph glyph-name="v" unicode="v" horiz-adv-x="283" 
d="M169 308l45 255q9 15 38 15q24 0 24 -33q0 -10 -4 -30l-3 -13q-31 -194 -83 -431q-5 -24 -8.5 -35t-15 -22t-31.5 -11q-18 0 -30 15t-16 28.5t-8 36.5q-45 275 -70 450q-2 8 -2 11q0 19 7.5 25t30.5 8q10 0 20.5 -6t12.5 -14q6 -20 13 -91q2 -12 6 -52t8 -71t13 -90.5
t21 -126.5z" />
    <glyph glyph-name="w" unicode="w" horiz-adv-x="508" 
d="M380 308l46 254q9 15 39 15q24 0 24 -33q0 -7 -7 -42q-43 -265 -87 -431q-7 -25 -12 -37t-15.5 -21.5t-27.5 -9.5q-42 0 -54 80q-21 124 -34 226l-5 34q-35 -175 -61 -272q-1 -2 -3 -12.5t-4 -15.5t-6 -14t-9 -13.5t-13.5 -8.5t-19.5 -4q-42 0 -54 80q-23 130 -51 328
q-1 9 -5.5 54.5t-7.5 66.5q-2 8 -2 12q0 33 28 33q9 0 20.5 -6t13.5 -15q6 -24 17 -101.5t25 -179.5t22 -154q6 32 19.5 96t19.5 92l33 140q-1 6 14.5 19t29.5 13q13 0 24 -6.5t12 -15.5q11 -57 29.5 -172.5t27.5 -164.5z" />
    <glyph glyph-name="x" unicode="x" horiz-adv-x="303" 
d="M-3 22q58 139 119 281q-19 49 -47.5 126.5t-36.5 96.5q-6 15 -6 25q13 24 35 24q12 0 21.5 -10t13.5 -23q7 -13 15.5 -35.5t21 -56.5t21.5 -58q64 142 80 174q1 3 9 7.5t16 4.5q9 0 21.5 -9t13.5 -20q0 -4 -3 -13q-15 -28 -102 -232q69 -172 113 -277q-11 -30 -35 -30
q-16 0 -25 9q-19 24 -92 207l-77 -184q-14 -34 -40 -34q-10 0 -22.5 7.5t-13.5 19.5z" />
    <glyph glyph-name="y" unicode="y" horiz-adv-x="278" 
d="M201 571q16 8 29 8q20 0 25 -21q2 -10 2 -25v-12q-9 -377 -15 -411q-19 -111 -115 -111q-11 0 -22.5 3t-29.5 13t-29.5 35.5t-11.5 63.5q0 22 9 30.5t28 8.5q12 0 17 -2.5t10.5 -16.5t7.5 -44q3 -32 31 -32q38 0 38 65l2 88q-25 -7 -48 -7q-27 0 -46 10q-25 13 -38.5 59
t-15 80t-1.5 90v41q1 16 1 56q6 26 27 34q9 3 19 3q21 0 21 -30q0 -12 -0.5 -46.5t0 -51.5t1.5 -45.5t3.5 -52.5t7.5 -47q7 -41 38 -41q15 0 33 11q6 214 6 245q0 33 16 52z" />
    <glyph glyph-name="z" unicode="z" horiz-adv-x="271" 
d="M45 566q12 4 76 8t93 2q46 -2 46 -49q0 -11 -2.5 -24t-5.5 -21l-2 -7l-157 -403h133q19 -6 19 -36q0 -14 -21 -26q-72 -4 -128 -4h-11l-38 1q-41 7 -41 44q0 2 40.5 104t49.5 121q9 20 44 113t44 123l-114 -1q-31 0 -31 32q0 12 6 23z" />
    <glyph glyph-name="braceleft" unicode="{" horiz-adv-x="336" 
d="M289 701q15 -12 15 -31q-1 -13 -10 -22.5t-20 -9.5q-14 3 -17 4q-17 5 -20 5q-24 0 -24 -63q0 -15 0.5 -36t0.5 -28l-1 -34q-1 -29 -8 -54t-17 -40.5t-20 -27t-17 -16.5l-7 -4q28 -15 42 -55t16 -70.5t2 -84.5v-41q2 -56 29 -56q10 0 21.5 2.5t17.5 4.5l7 3
q16 -21 16 -36q0 -12 -5.5 -21t-11.5 -12l-5 -2h-22q-34 0 -59 9t-38 20.5t-20.5 28t-9.5 28t-2 23.5q0 127 -8 184q-3 20 -27.5 27t-30.5 15q-9 13 -9 31q0 12 5 20t10 11t14 6.5t11 4.5q28 14 33 27l5 54q10 138 20 183q13 59 95 59q31 0 49 -6z" />
    <glyph glyph-name="bar" unicode="|" horiz-adv-x="224" 
d="M150 698l3 -665v-20q0 -43 -26 -43q-44 0 -51 43v11v30.5t-0.5 44t-0.5 58v66.5q0 484 -2 492q9 22 34 22q16 0 29.5 -10t13.5 -29z" />
    <glyph glyph-name="braceright" unicode="}" horiz-adv-x="343" 
d="M84 702q25 5 46 5q83 0 95 -59q12 -61 14 -191q2 -38 3 -46q7 -20 32 -30q1 -1 14.5 -4t19.5 -9.5t6 -21.5q0 -22 -9 -35q-6 -8 -22 -10q-23 -1 -38 -32q-9 -19 -12 -63t-2 -79l1 -35q0 -115 -131 -116h-22q-23 7 -23 32q0 15 17 39q24 -10 47 -10q28 0 30 55q0 4 0.5 13
t0.5 14q1 41 2.5 63.5t7.5 60t20 62.5t36 39q-26 11 -46.5 44.5t-20.5 96.5q0 13 2 31q2 27 2 68q0 63 -22 63q-4 0 -19 -5q-4 -2 -18 -4q-11 0 -20 10t-9 23q0 18 15 30z" />
    <glyph glyph-name="asciitilde" unicode="~" horiz-adv-x="411" 
d="M24 221q-4 1 -9.5 9.5t-5.5 18.5q0 6 5 14q53 69 112 69q34 0 87 -33q36 -24 57 -24t52 29q22 18 35 20q18 -14 18 -31q0 -20 -39 -55.5t-79 -35.5q-30 0 -78 33q-3 2 -11 7.5t-12 8t-10 5.5t-11 4.5t-10 1.5q-20 0 -49 -27q-25 -19 -36 -19q-8 0 -16 5z" />
    <glyph glyph-name="exclamdown" unicode="&#xa1;" horiz-adv-x="247" 
d="M103 354q-19 12 -19 35q0 22 14 40.5t35 18.5q52 0 52 -50q0 -27 -8 -41t-33 -14q-17 0 -41 11zM96 -225q2 294 2 430q0 72 36 72q42 0 42 -75q0 -9 4.5 -219.5t5.5 -215.5q-8 -19 -43 -19q-13 0 -28.5 7t-18.5 20z" />
    <glyph glyph-name="sterling" unicode="&#xa3;" horiz-adv-x="395" 
d="M287 334q-6 -34 -27 -34h-62q0 -102 -8 -156q65 -11 122 -41.5t57 -63.5t-29 -33q-12 0 -17 3q-65 52 -146 70q-26 -84 -91 -84q-27 0 -45.5 18t-18.5 45q0 37 26.5 59t66.5 27v156h-49q-19 0 -19 18v7q0 1 0.5 4t0.5 5q0 30 29 30h38q0 230 67 304q28 26 54 26
q48 0 48 -63q0 -62 -82 -171q0 -5 -0.5 -17.5t-0.5 -19.5q-2 -36 -2 -59h57q13 0 22 -8.5t9 -21.5zM228 631q-18 -1 -28.5 -32.5t-8.5 -66.5q2 4 12.5 24.5t17.5 39.5t7 35zM87 56q18 0 25 27q-31 -4 -31 -19q0 -8 6 -8z" />
    <glyph glyph-name="currency" unicode="&#xa4;" horiz-adv-x="439" 
d="M67 501q21 -1 63 -43q35 26 81 27q48 0 85 -29q40 42 61 42q17 -1 26.5 -13.5t11.5 -26.5l-54 -66q6 -19 6 -46q0 -31 -11 -57q53 -55 63 -70q0 -14 -10.5 -26.5t-26.5 -12.5q-29 0 -68 45q-33 -28 -82 -28q-46 0 -80 22q-39 -41 -57 -41q-14 0 -27.5 13.5t-13.5 24.5
l47 60q-9 21 -9 52q0 36 15 73q-9 10 -23.5 25.5t-23.5 24.5t-9 10q0 5 12.5 21t23.5 19zM209 260q26 0 45 23.5t19 52.5q-1 36 -15.5 62t-46.5 26t-49.5 -29t-17.5 -63q0 -28 19 -50t46 -22z" />
    <glyph glyph-name="yen" unicode="&#xa5;" horiz-adv-x="406" 
d="M326 175q-5 -29 -28 -29h-52v-28q0 -82 -6 -94q-8 -19 -31 -19q-39 0 -39 36l-1 105h-65q-18 0 -18 29q0 13 7.5 22.5t21.5 9.5h53v37h-64q-18 0 -18 29q0 31 29 31h57q-144 339 -144 360q0 8 19 18.5t31 10.5q9 0 15.5 -4.5t8.5 -9.5l3 -5l106 -291q75 264 96 290
q18 21 36 21q27 0 27 -23q0 -7 -1 -10l-118 -357h43q13 0 22.5 -9t9.5 -22q-6 -29 -28 -29h-53v-37h49q13 0 22.5 -9.5t9.5 -22.5z" />
    <glyph glyph-name="brokenbar" unicode="&#xa6;" horiz-adv-x="224" 
d="M151 413q-5 -21 -42 -21q-19 0 -34 17q0 295 -2 307q9 21 34 21q15 0 29 -11t14 -28q1 -99 1 -285zM77 285q12 24 44 24q23 0 31 -21l1 -275q0 -17 -3 -26q-9 -17 -23 -17q-43 0 -50 37q-2 16 -2 274z" />
    <glyph glyph-name="section" unicode="&#xa7;" horiz-adv-x="369" 
d="M48 102q0 43 45 45l23 -2q35 -89 80 -89q12 0 21.5 8t9.5 22q0 16 -5.5 31.5t-22 36t-23.5 28.5t-32 34q-35 36 -51.5 55.5t-34.5 56t-18 71.5q0 57 56 104q-32 48 -32 86q0 49 33 80t86 31q58 0 96 -41q11 -12 20 -26.5t13 -22.5l4 -8v-6q0 -43 -44 -45l-24 2
q-33 92 -78 92q-27 -3 -27 -30q1 -27 16.5 -55t29 -43t43.5 -46q26 -27 36 -38.5t28 -36t25 -47.5t7 -49q0 -58 -57 -104q30 -47 33 -84v-4q0 -39 -29 -73t-87 -37h-6q-37 0 -70.5 24.5t-48.5 49.5l-15 24v6zM174 406q-37 41 -44 51q-10 -19 -10 -43q3 -32 19 -57
q23 -29 54 -63l42 -49q9 27 9 43q0 31 -26 66q-22 28 -44 52z" />
    <glyph glyph-name="dieresis" unicode="&#xa8;" horiz-adv-x="178" 
d="M12 821q15 7 35 7q34 0 34 -44q0 -39 -43 -39q-17 0 -29.5 14.5t-12.5 32.5q0 19 16 29zM108 821q17 7 36 7q34 0 34 -44q0 -39 -43 -39q-18 0 -30 14.5t-12 32.5t15 29z" />
    <glyph glyph-name="copyright" unicode="&#xa9;" horiz-adv-x="515" 
d="M264 689q58 0 101.5 -25t66.5 -60.5t36.5 -86t17 -89t3.5 -82.5q0 -86 -20.5 -151t-56 -101t-75.5 -53.5t-85 -17.5q-61 0 -106.5 25.5t-71.5 71t-38 100t-12 119.5q0 43 5 85t21 91.5t41 86.5t70 62t103 25zM256 85q73 0 116 75t43 190q0 44 -6 85t-21.5 88t-50 75.5
t-83.5 28.5q-59 0 -107 -71t-48 -204q0 -48 8 -92.5t25.5 -85t49.5 -65t74 -24.5zM366 428q-12 -14 -35 -14q-15 0 -24 9l-3 16q-3 20 -5.5 30t-12.5 22t-26 12q-53 0 -53 -148q0 -138 49 -138q20 0 36 16t16 35v33q4 22 34 22q19 0 25 -10t6 -30q0 -57 -32 -93t-86 -36
q-38 0 -64.5 19t-39 50.5t-18 62.5t-5.5 65q0 58 12 111q10 45 44.5 74.5t74.5 29.5q53 0 80.5 -39t28.5 -94z" />
    <glyph glyph-name="ordfeminine" unicode="&#xaa;" horiz-adv-x="224" 
d="M165 355q-18 2 -23 24q-23 -23 -52 -23q-36 0 -51.5 30t-15.5 68v9q3 49 23 76t72 27q9 0 25 -4v14q0 7 0.5 20t0.5 20q0 29 -19 29q-11 0 -17.5 -8.5t-6.5 -19.5q0 -15 -6.5 -20t-21.5 -5q-35 0 -35 31q0 30 25.5 50t57.5 20q36 0 59 -21.5t23 -54.5q0 -31 -1 -51
q-2 -62 -2 -152q0 -36 -4 -47.5t-19 -11.5h-12zM104 412q14 0 39 33v64q-10 6 -21 6q-41 0 -41 -59q0 -44 23 -44z" />
    <glyph glyph-name="guillemotleft" unicode="&#xab;" horiz-adv-x="387" 
d="M166 446q6 2 11 -1q19 -10 19 -36q0 -11 -6 -21q-7 -9 -30.5 -31t-43.5 -39l-21 -18l83 -81q20 -20 20 -38q0 -15 -10 -25t-25 -10t-21 5l-23 21q-115 102 -115 129q0 10 40.5 46.5t81.5 67.5zM310 446q6 2 10 -1q20 -13 20 -36q0 -12 -7 -21t-30.5 -31t-44.5 -39
l-20 -18l83 -81q21 -20 21 -38q0 -14 -10 -24.5t-25 -10.5q-16 0 -22 5q-34 31 -50.5 46.5t-41 39.5t-35 39.5t-10.5 24.5q0 10 40.5 46.5t81.5 67.5z" />
    <glyph glyph-name="logicalnot" unicode="&#xac;" horiz-adv-x="502" 
d="M47 301q-18 19 -18 37q0 12 19 34q9 0 30 -0.5t31 -0.5h56q196 0 270 2l12 1q25 0 25 -65v-46q0 -14 -3 -47q-1 -8 -13.5 -13.5t-23.5 -5.5q-13 0 -19 6q-12 7 -12 99q-89 -1 -207 -1h-147z" />
    <glyph glyph-name="registered" unicode="&#xae;" horiz-adv-x="342" 
d="M173 699q76 0 114.5 -54t38.5 -126q0 -88 -49 -131.5t-113 -43.5q-75 0 -114 51t-39 120q0 48 14.5 87.5t52.5 68t95 28.5zM165 387q51 0 77 40.5t26 91.5q0 61 -27.5 99t-72.5 38q-34 0 -67 -35.5t-33 -101.5q0 -52 22.5 -92t74.5 -40zM227 427q-4 -12 -24 -12
q-6 0 -12 4.5t-7 9.5q-8 37 -21 60l-2 -60q0 -1 -4 -5.5t-10.5 -8.5t-11.5 -4q-11 0 -14.5 2.5t-3.5 11.5l1 176q0 14 14 24.5t35 10.5q23 0 40 -19t17 -43q0 -58 -25 -74q22 -34 28 -73zM183 557q0 32 -18 36v-65q18 0 18 29z" />
    <glyph glyph-name="macron" unicode="&#xaf;" horiz-adv-x="217" 
d="M217 771q-5 -35 -23 -35h-166q-26 0 -26 36q0 11 8 19t19 8h162q10 0 18 -9t8 -19z" />
    <glyph glyph-name="degree" unicode="&#xb0;" horiz-adv-x="222" 
d="M3 589q0 49 29.5 77.5t75.5 28.5q42 0 70 -32t28 -78q0 -42 -27.5 -74.5t-76.5 -32.5q-42 0 -70 32.5t-29 78.5zM70 592q0 -55 34 -55q17 0 27.5 14.5t10.5 34.5q0 49 -35 49q-34 0 -37 -43z" />
    <glyph glyph-name="plusminus" unicode="&#xb1;" horiz-adv-x="353" 
d="M313 343q-3 -34 -27 -34h-85v-89q0 -18 -18 -18h-7q-2 0 -5 0.5t-4 0.5q-30 0 -30 27v79h-82q-10 0 -19 9t-9 25q0 30 29 30h81v74q0 14 8.5 23t21.5 9q15 0 24.5 -9.5t9.5 -18.5v-78h81q13 0 22 -8.5t9 -21.5zM301 162q-8 -31 -28 -31h-205q-32 0 -32 25q0 4 1.5 10.5
t8.5 16t19 9.5h205q12 0 21.5 -8.5t9.5 -21.5z" />
    <glyph glyph-name="uni00B2" unicode="&#xb2;" horiz-adv-x="179" 
d="M20 599q-4 12 -4 26q0 25 21 49t58 24q32 0 50.5 -19t18.5 -50q0 -64 -41 -141l-32 -69q55 0 62 -2q15 -3 15 -29q0 -23 -20 -23q-5 0 -31 -0.5t-41 -0.5h-34q-10 0 -17.5 7t-8.5 17q11 39 41 95q50 97 50 145q0 25 -15 25q-18 0 -20 -37q-3 -24 -22 -24q-23 0 -30 7z
" />
    <glyph glyph-name="uni00B3" unicode="&#xb3;" horiz-adv-x="181" 
d="M29 627l-1 15q0 21 17 40t53 19q69 0 69 -79q0 -52 -25 -71q31 -22 31 -77q0 -59 -19 -86.5t-63 -27.5q-37 0 -51.5 18t-14.5 66q11 16 26 16q7 0 15 -6q4 -4 9 -25q4 -24 20 -24q19 0 19 63v8q0 51 -37 51q-18 0 -18 24q0 6 1.5 10t7.5 7l8 4t11 4l12 4q11 9 11 44
q0 36 -13 36q-16 0 -16 -24q0 -7 -15.5 -13t-22.5 -6q-13 0 -14 10z" />
    <glyph glyph-name="acute" unicode="&#xb4;" horiz-adv-x="124" 
d="M118 828q7 -6 7 -14t-9 -22q-16 -20 -47.5 -46t-42.5 -26q-32 0 -32 20q0 16 19 40l3 4q4 5 9 11.5t11.5 13.5t13.5 13.5t13 10.5q12 6 17 6q23 0 38 -11z" />
    <glyph glyph-name="paragraph" unicode="&#xb6;" horiz-adv-x="380" 
d="M338 654q0 -264 3 -641q0 -17 -3 -26q-2 -6 -9 -11.5t-13 -5.5q-22 0 -32.5 11t-14.5 32v11q0 11 -0.5 30.5t-0.5 44v58v66.5v401q-12 0 -33 0.5t-33 0.5q1 -196 1.5 -338.5t1 -190t0.5 -63.5v-20q0 -17 -3 -26q-8 -17 -25 -17q-39 0 -48 38q0 -1 0 13v40v60t-0.5 76
t-1 86t-1 92t-1.5 91q-44 3 -68 33.5t-24 79.5q0 50 23.5 76t56.5 32q40 9 103 9q28 0 44.5 -1t37 -4.5t30.5 -12.5t10 -24z" />
    <glyph glyph-name="periodcentered" unicode="&#xb7;" horiz-adv-x="123" 
d="M40 378q22 12 41 12q25 0 33 -14.5t8 -41.5q0 -23 -14 -36.5t-38 -13.5q-21 0 -35.5 18.5t-14.5 41.5q0 22 20 34z" />
    <glyph glyph-name="cedilla" unicode="&#xb8;" horiz-adv-x="145" 
d="M81 23q37 -11 50 -28.5t13 -45.5q0 -39 -24 -57.5t-57 -18.5q-25 0 -44 10t-19 31q0 26 18 26q4 0 17 -5t19 -5q35 0 35 22q0 9 -9 14.5t-25.5 10t-18.5 5.5q-32 14 -32 40q0 14 16 42h61q-18 -31 -18 -37q15 -3 18 -4z" />
    <glyph glyph-name="uni00B9" unicode="&#xb9;" horiz-adv-x="164" 
d="M131 695q6 -6 6 -44l-5 -278q-13 -10 -31 -10q-12 0 -18 5q-6 4 -6 19l5 190q-28 -47 -37 -47h-5q-5 1 -6.5 1t-6 1.5t-6 3t-3 5t-1.5 7.5q0 8 3 15l64 123q9 13 24 13q11 0 23 -4z" />
    <glyph glyph-name="ordmasculine" unicode="&#xba;" horiz-adv-x="226" 
d="M31 526q0 29 1 45.5t6 43t14.5 41t28.5 26t47 11.5q26 0 43.5 -10.5t26.5 -25t13.5 -42.5t5.5 -48.5t1 -57.5q0 -30 -3.5 -53t-12.5 -47t-28.5 -37t-49.5 -13q-25 0 -43 9t-27.5 22.5t-14.5 37.5t-6.5 45t-1.5 53zM92 512q0 -106 33 -106t33 115q0 124 -31 124
q-35 0 -35 -133z" />
    <glyph glyph-name="guillemotright" unicode="&#xbb;" horiz-adv-x="418" 
d="M65 147q-6 -2 -11 1q-20 13 -20 37q0 11 7 21q7 9 30.5 31t44.5 39l20 18q-4 4 -37.5 37t-45.5 44q-21 21 -21 38q0 15 17 30q6 5 19 5q10 0 20 -7l24 -19q114 -98 114 -129q0 -11 -40 -47.5t-80 -67.5zM208 147q-4 -5 -10 1q-21 21 -21 37q0 12 8 21q7 8 31 30t44 40
l20 18q-6 5 -39.5 38.5t-43.5 42.5q-22 21 -22 38q0 16 18 30q6 5 18 5q11 0 21 -7l23 -19q114 -98 114 -129q0 -11 -40.5 -47.5t-80.5 -67.5z" />
    <glyph glyph-name="questiondown" unicode="&#xbf;" horiz-adv-x="336" 
d="M256 362q-24 -11 -41 -11q-25 0 -33 14t-8 41q0 50 52 50q21 0 35 -18.5t14 -40.5q0 -23 -19 -35zM67 -120q0 36 11.5 71.5t23.5 57t34 53.5q20 31 29.5 47.5t19.5 45t10 55.5q0 12 -1 16q0 1 -0.5 7.5t-0.5 11.5q1 18 7.5 27.5t14 11t22.5 1.5q20 0 28 -15t8 -57
q0 -32 -11 -65.5t-21.5 -52t-32.5 -54.5q-19 -31 -29 -48t-19.5 -45.5t-9.5 -54.5q0 -31 9.5 -52.5t28.5 -21.5q29 0 45 29t16 79q0 26 5.5 38.5t23.5 12.5q31 0 40 -13.5t9 -49.5q0 -84 -41 -123.5t-102 -39.5q-49 0 -83 33.5t-34 94.5z" />
    <glyph glyph-name="Agrave" unicode="&#xc0;" horiz-adv-x="345" 
d="M228 734q-11 0 -47 31.5t-43 42.5q-9 14 -9 20q0 7 6 13q16 12 40 12q3 0 4.5 -0.5t2.5 -0.5h1q12 -8 26.5 -22.5t22.5 -25.5l9 -10q19 -24 19 -40q0 -20 -32 -20zM333 58q2 -8 2 -13q0 -19 -14.5 -30t-38.5 -12q-20 0 -23 26l-29 221l-102 -1l-2 -10q-1 -8 -4 -24.5
t-4 -25.5q-20 -142 -30 -165q-6 -4 -25.5 -11.5t-27.5 -7.5q-21 0 -21 28q0 11 3 22l23 134q59 331 76 412l3 13q5 20 8.5 31t11.5 26.5t22.5 22.5t34.5 7q49 0 61 -97q0 -2 52 -370zM161 442l-22 -131q12 0 41 0.5t42 0.5l-36 277q0 -1 -25 -147z" />
    <glyph glyph-name="Aacute" unicode="&#xc1;" horiz-adv-x="345" 
d="M162 734q-33 0 -33 20q0 15 20 40l3 4q4 5 9 11.5t11.5 13.5t13.5 13.5t13 10.5q12 6 17 6q23 0 38 -11q7 -6 7 -14q0 -9 -9 -22q-16 -20 -47.5 -46t-42.5 -26zM333 58q2 -8 2 -13q0 -19 -14.5 -30t-38.5 -12q-20 0 -23 26l-29 221l-102 -1l-2 -10q-1 -8 -4 -24.5
t-4 -25.5q-20 -142 -30 -165q-6 -4 -25.5 -11.5t-27.5 -7.5q-21 0 -21 28q0 11 3 22l23 134q59 331 76 412l3 13q5 20 8.5 31t11.5 26.5t22.5 22.5t34.5 7q49 0 61 -97q0 -2 52 -370zM161 442l-22 -131q12 0 41 0.5t42 0.5l-36 277q0 -1 -25 -147z" />
    <glyph glyph-name="Acircumflex" unicode="&#xc2;" horiz-adv-x="345" 
d="M126 741q-12 0 -26 12q-3 5 -3 14q0 11 7 18l30 23q53 40 70 42q9 0 33.5 -19.5t44.5 -38.5l21 -20q2 -3 2 -10q-10 -21 -34 -21q-10 0 -16 4q-7 3 -20.5 13.5t-23.5 19.5l-10 9q-2 -1 -18.5 -13t-26.5 -20q-20 -13 -30 -13zM333 58q2 -8 2 -13q0 -19 -14.5 -30
t-38.5 -12q-20 0 -23 26l-29 221l-102 -1l-2 -10q-1 -8 -4 -24.5t-4 -25.5q-20 -142 -30 -165q-6 -4 -25.5 -11.5t-27.5 -7.5q-21 0 -21 28q0 11 3 22l23 134q59 331 76 412l3 13q5 20 8.5 31t11.5 26.5t22.5 22.5t34.5 7q49 0 61 -97q0 -2 52 -370zM161 442l-22 -131
q12 0 41 0.5t42 0.5l-36 277q0 -1 -25 -147z" />
    <glyph glyph-name="Atilde" unicode="&#xc3;" horiz-adv-x="345" 
d="M115 751q-10 0 -18 7t-8 22q0 17 22 41.5t53 24.5q21 0 45 -16q22 -12 33 -12q6 0 23 11q14 12 27 14q17 -9 17 -24q0 -26 -22.5 -47.5t-47.5 -21.5q-24 0 -48 18q-22 13 -26 13q-11 0 -24 -15t-26 -15zM333 58q2 -8 2 -13q0 -19 -14.5 -30t-38.5 -12q-20 0 -23 26
l-29 221l-102 -1l-2 -10q-1 -8 -4 -24.5t-4 -25.5q-20 -142 -30 -165q-6 -4 -25.5 -11.5t-27.5 -7.5q-21 0 -21 28q0 11 3 22l23 134q59 331 76 412l3 13q5 20 8.5 31t11.5 26.5t22.5 22.5t34.5 7q49 0 61 -97q0 -2 52 -370zM161 442l-22 -131q12 0 41 0.5t42 0.5l-36 277
q0 -1 -25 -147z" />
    <glyph glyph-name="Adieresis" unicode="&#xc4;" horiz-adv-x="345" 
d="M145 759q-17 0 -29.5 14.5t-12.5 32.5q0 19 16 29q15 7 35 7q34 0 34 -44q0 -39 -43 -39zM242 759q-18 0 -30 14.5t-12 32.5t15 29q17 7 36 7q34 0 34 -44q0 -39 -43 -39zM333 58q2 -8 2 -13q0 -19 -14.5 -30t-38.5 -12q-20 0 -23 26l-29 221l-102 -1l-2 -10
q-1 -8 -4 -24.5t-4 -25.5q-20 -142 -30 -165q-6 -4 -25.5 -11.5t-27.5 -7.5q-21 0 -21 28q0 11 3 22l23 134q59 331 76 412l3 13q5 20 8.5 31t11.5 26.5t22.5 22.5t34.5 7q49 0 61 -97q0 -2 52 -370zM161 442l-22 -131q12 0 41 0.5t42 0.5l-36 277q0 -1 -25 -147z" />
    <glyph glyph-name="Aring" unicode="&#xc5;" horiz-adv-x="345" 
d="M197 738q-25 0 -42 18t-17 43q0 26 17.5 42.5t43.5 16.5q25 0 42 -18t17 -43t-17 -42t-44 -17zM197 815q-5 0 -9.5 -6t-4.5 -12q0 -5 4.5 -10t9.5 -5q6 0 11.5 5t5.5 13q0 5 -4.5 10t-12.5 5zM333 58q2 -8 2 -13q0 -19 -14.5 -30t-38.5 -12q-20 0 -23 26l-29 221l-102 -1
l-2 -10q-1 -8 -4 -24.5t-4 -25.5q-20 -142 -30 -165q-6 -4 -25.5 -11.5t-27.5 -7.5q-21 0 -21 28q0 11 3 22l23 134q59 331 76 412l3 13q5 20 8.5 31t11.5 26.5t22.5 22.5t34.5 7q49 0 61 -97q0 -2 52 -370zM161 442l-22 -131q12 0 41 0.5t42 0.5l-36 277q0 -1 -25 -147z
" />
    <glyph glyph-name="AE" unicode="&#xc6;" horiz-adv-x="447" 
d="M334 622q-29 0 -50 -3l-2 -74q0 -35 -0.5 -69t-0.5 -38v-22q0 -35 1 -39q8 -2 57 -2h28q45 0 45 -32q0 -30 -35 -30h-61q-29 0 -29 -14v-21q0 -4 0.5 -12.5t0.5 -13.5q0 -52 -2 -128q-1 -25 -1 -60q0 -2 14 -2q26 0 31 1q5 0 22.5 1.5t23.5 1.5q38 0 44 -13q3 -9 3 -21
t-8.5 -19.5t-19.5 -8.5q-75 -7 -131 -7q-33 0 -44.5 10t-11.5 39v53q3 159 3 216q-64 -2 -67 -3t-16 -72q-1 -8 -4 -25.5t-4 -26.5q-23 -150 -31 -169q-6 -5 -25.5 -12.5t-27.5 -7.5q-22 0 -22 28q0 12 3 23l18 101q56 333 87 450l3 10q9 26 15.5 40t23.5 27.5t41 13.5
q27 0 44 -13q53 16 111 16q19 0 30.5 -1.5t23 -9.5t11.5 -24q0 -38 -64 -38h-27zM152 373q9 -1 29 -1h31v246q-9 -6 -12 -17q-7 -19 -16 -70t-18 -84q-12 -64 -14 -74z" />
    <glyph glyph-name="Ccedilla" unicode="&#xc7;" horiz-adv-x="340" 
d="M288 220q22 0 29 -12t7 -35q0 -54 -9 -78q-39 -94 -130 -97q-9 -16 -9 -21q15 -3 18 -4q37 -11 50 -28.5t13 -45.5q0 -39 -24 -57.5t-57 -18.5q-25 0 -44 10t-19 31q0 26 18 26q4 0 17 -5t19 -5q35 0 35 22q0 9 -9 14.5t-25.5 10t-18.5 5.5q-32 14 -32 40q0 12 12 34
q-84 27 -94 149q-8 91 -8 244q0 108 15 176q28 124 141 124q85 0 117 -91q14 -41 14 -89l-1 -4q-12 -17 -42 -17q-19 0 -27 8q-2 7 -5.5 33t-7.5 44.5t-18 34.5t-37 16q-30 0 -48.5 -42.5t-18.5 -87.5q0 -27 -1 -44q-2 -56 -2 -108l3 -101q0 -186 72 -186q28 0 49.5 25
t21.5 64v40q2 12 13 19t23 7z" />
    <glyph glyph-name="Egrave" unicode="&#xc8;" horiz-adv-x="267" 
d="M84 840q16 12 40 12h4.5h2.5l1 -1q12 -8 26.5 -22.5t23.5 -24.5l8 -11q19 -24 19 -40q0 -20 -32 -20q-11 0 -47 31.5t-43 42.5q-9 13 -9 20t6 13zM107 621q-2 -1 -2 -76q0 -35 -0.5 -69t-0.5 -38v-22l1 -33q5 -1 37 -1h48q30 0 37.5 -7t7.5 -30q0 -17 -10.5 -26t-24.5 -9
h-61q-17 0 -23 -2.5t-6 -11.5v-47q0 -87 -1 -125l-1 -60l15 -2q25 0 30 1q7 0 23.5 1.5t22.5 1.5q37 0 44 -13q4 -8 4 -21q0 -12 -9 -19.5t-20 -8.5q-75 -7 -130 -7q-33 0 -45 10t-12 39v53q3 86 3 349q0 119 1 127q0 3 0.5 9.5t0.5 10.5q2 63 17 87q11 14 67 14
q6 0 16 -0.5t16 -0.5h31q40 0 53 -5.5t13 -29.5q0 -22 -12 -30t-53 -8h-9z" />
    <glyph glyph-name="Eacute" unicode="&#xc9;" horiz-adv-x="267" 
d="M203 841q7 -6 7 -14q0 -9 -9 -22q-16 -20 -47.5 -46t-42.5 -26q-33 0 -33 20q0 15 20 40l4 5q3 4 8 10.5t11.5 13.5t13.5 13.5t13 10.5q12 6 17 6q23 0 38 -11zM107 621q-2 -1 -2 -76q0 -35 -0.5 -69t-0.5 -38v-22l1 -33q5 -1 37 -1h48q30 0 37.5 -7t7.5 -30
q0 -17 -10.5 -26t-24.5 -9h-61q-17 0 -23 -2.5t-6 -11.5v-47q0 -87 -1 -125l-1 -60l15 -2q25 0 30 1q7 0 23.5 1.5t22.5 1.5q37 0 44 -13q4 -8 4 -21q0 -12 -9 -19.5t-20 -8.5q-75 -7 -130 -7q-33 0 -45 10t-12 39v53q3 86 3 349q0 119 1 127q0 3 0.5 9.5t0.5 10.5
q2 63 17 87q11 14 67 14q6 0 16 -0.5t16 -0.5h31q40 0 53 -5.5t13 -29.5q0 -22 -12 -30t-53 -8h-9z" />
    <glyph glyph-name="Ecircumflex" unicode="&#xca;" horiz-adv-x="267" 
d="M252 771q2 -3 2 -10q-10 -21 -34 -21q-10 0 -16 4q-7 3 -20.5 13.5t-23.5 19.5l-10 9q-2 -1 -18.5 -13t-26.5 -20q-19 -13 -30 -13q-12 0 -26 12q-3 4 -3 14q0 11 7 18l30 23q53 40 70 42q9 0 33.5 -19.5t45.5 -39.5zM107 621q-2 -1 -2 -76q0 -35 -0.5 -69t-0.5 -38v-22
l1 -33q5 -1 37 -1h48q30 0 37.5 -7t7.5 -30q0 -17 -10.5 -26t-24.5 -9h-61q-17 0 -23 -2.5t-6 -11.5v-47q0 -87 -1 -125l-1 -60l15 -2q25 0 30 1q7 0 23.5 1.5t22.5 1.5q37 0 44 -13q4 -8 4 -21q0 -12 -9 -19.5t-20 -8.5q-75 -7 -130 -7q-33 0 -45 10t-12 39v53q3 86 3 349
q0 119 1 127q0 3 0.5 9.5t0.5 10.5q2 63 17 87q11 14 67 14q6 0 16 -0.5t16 -0.5h31q40 0 53 -5.5t13 -29.5q0 -22 -12 -30t-53 -8h-9z" />
    <glyph glyph-name="Edieresis" unicode="&#xcb;" horiz-adv-x="267" 
d="M68 834q15 7 35 7q34 0 34 -44q0 -39 -43 -39q-17 0 -29.5 14.5t-12.5 32.5q0 19 16 29zM164 834q17 7 36 7q34 0 34 -44q0 -39 -43 -39q-18 0 -30 14.5t-12 32.5q0 19 15 29zM107 621q-2 -1 -2 -76q0 -35 -0.5 -69t-0.5 -38v-22l1 -33q5 -1 37 -1h48q30 0 37.5 -7
t7.5 -30q0 -17 -10.5 -26t-24.5 -9h-61q-17 0 -23 -2.5t-6 -11.5v-47q0 -87 -1 -125l-1 -60l15 -2q25 0 30 1q7 0 23.5 1.5t22.5 1.5q37 0 44 -13q4 -8 4 -21q0 -12 -9 -19.5t-20 -8.5q-75 -7 -130 -7q-33 0 -45 10t-12 39v53q3 86 3 349q0 119 1 127q0 3 0.5 9.5t0.5 10.5
q2 63 17 87q11 14 67 14q6 0 16 -0.5t16 -0.5h31q40 0 53 -5.5t13 -29.5q0 -22 -12 -30t-53 -8h-9z" />
    <glyph glyph-name="Igrave" unicode="&#xcc;" horiz-adv-x="248" 
d="M72 840q16 12 40 12h4.5h2.5l1 -1q12 -8 26.5 -22.5t23.5 -24.5l8 -11q19 -24 19 -40q0 -20 -32 -20q-11 0 -47 31.5t-43 42.5q-9 13 -9 20t6 13zM20 668q6 20 26 29q166 0 177 -6q19 -12 19 -27q0 -11 -7 -24t-14 -13q-1 0 -11 -0.5t-19 -0.5q-3 0 -10.5 -0.5
t-11.5 -0.5v-117q0 -154 -3 -269q-2 -94 -2 -124v-42h46q23 -8 27 -25q0 -39 -18 -44q-5 -1 -33 -1q-53 0 -119 2q-6 0 -17.5 0.5t-12.5 0.5q-7 0 -14.5 15t-7.5 21q0 14 22 29q6 2 50 2v551h-15q-28 0 -33 1q-19 5 -19 43z" />
    <glyph glyph-name="Iacute" unicode="&#xcd;" horiz-adv-x="248" 
d="M191 841q7 -6 7 -14q0 -9 -9 -22q-16 -20 -47.5 -46t-42.5 -26q-33 0 -33 20q0 15 20 40l4 5q3 4 8 10.5t11.5 13.5t13.5 13.5t13 10.5q12 6 17 6q23 0 38 -11zM20 668q6 20 26 29q166 0 177 -6q19 -12 19 -27q0 -11 -7 -24t-14 -13q-1 0 -11 -0.5t-19 -0.5
q-3 0 -10.5 -0.5t-11.5 -0.5v-117q0 -154 -3 -269q-2 -94 -2 -124v-42h46q23 -8 27 -25q0 -39 -18 -44q-5 -1 -33 -1q-53 0 -119 2q-6 0 -17.5 0.5t-12.5 0.5q-7 0 -14.5 15t-7.5 21q0 14 22 29q6 2 50 2v551h-15q-28 0 -33 1q-19 5 -19 43z" />
    <glyph glyph-name="Icircumflex" unicode="&#xce;" horiz-adv-x="248" 
d="M240 771q2 -3 2 -10q-10 -21 -34 -21q-10 0 -16 4q-7 3 -20.5 13.5t-23.5 19.5l-10 9q-2 -1 -18.5 -13t-26.5 -20q-19 -13 -30 -13q-12 0 -26 12q-3 4 -3 14q0 11 7 18l30 23q53 40 70 42q9 0 33.5 -19.5t45.5 -39.5zM20 668q6 20 26 29q166 0 177 -6q19 -12 19 -27
q0 -11 -7 -24t-14 -13q-1 0 -11 -0.5t-19 -0.5q-3 0 -10.5 -0.5t-11.5 -0.5v-117q0 -154 -3 -269q-2 -94 -2 -124v-42h46q23 -8 27 -25q0 -39 -18 -44q-5 -1 -33 -1q-53 0 -119 2q-6 0 -17.5 0.5t-12.5 0.5q-7 0 -14.5 15t-7.5 21q0 14 22 29q6 2 50 2v551h-15q-28 0 -33 1
q-19 5 -19 43z" />
    <glyph glyph-name="Idieresis" unicode="&#xcf;" horiz-adv-x="248" 
d="M56 834q15 7 35 7q34 0 34 -44q0 -39 -43 -39q-17 0 -29.5 14.5t-12.5 32.5q0 19 16 29zM152 834q17 7 36 7q34 0 34 -44q0 -39 -43 -39q-18 0 -30 14.5t-12 32.5q0 19 15 29zM20 668q6 20 26 29q166 0 177 -6q19 -12 19 -27q0 -11 -7 -24t-14 -13q-1 0 -11 -0.5
t-19 -0.5q-3 0 -10.5 -0.5t-11.5 -0.5v-117q0 -154 -3 -269q-2 -94 -2 -124v-42h46q23 -8 27 -25q0 -39 -18 -44q-5 -1 -33 -1q-53 0 -119 2q-6 0 -17.5 0.5t-12.5 0.5q-7 0 -14.5 15t-7.5 21q0 14 22 29q6 2 50 2v551h-15q-28 0 -33 1q-19 5 -19 43z" />
    <glyph glyph-name="Eth" unicode="&#xd0;" horiz-adv-x="373" 
d="M98 691q56 0 101.5 -26.5t73.5 -66.5t47 -90t26.5 -93.5t7.5 -79.5q0 -288 -211 -325q-30 -5 -50 -5q-48 0 -51 30q-10 82 -10 281h-40q-24 0 -24 39q0 13 7 21.5t18 8.5h39q0 57 1.5 134.5t1.5 95.5v10q0 21 1 30.5t7 19t18 12.5q21 4 37 4zM119 62q45 2 78 30.5t50 72
t24.5 86t7.5 83.5q0 53 -19 119.5t-56 119t-79 52.5q-3 0 -7 -1v-7q-1 -84 -1 -213v-19h103q10 0 17.5 -8.5t7.5 -21.5q-3 -39 -22 -39h-106q0 -187 2 -247v-7z" />
    <glyph glyph-name="Ntilde" unicode="&#xd1;" horiz-adv-x="378" 
d="M83 779q0 17 22 41.5t53 24.5q21 0 45 -16q22 -12 33 -12q6 0 23 11q14 12 27 14q17 -9 17 -24q0 -26 -22.5 -47.5t-47.5 -21.5q-24 0 -48 18q-22 13 -26 13q-11 0 -24 -15t-26 -15q-10 0 -18 7t-8 22zM35 649q2 17 18 28t41 11q21 -12 32 -57l3 -13q8 -28 42.5 -148.5
t58.5 -197.5t45 -135q-4 85 -4 124q0 29 -2.5 88.5t-2.5 82.5q0 16 -1 44.5t-1.5 50t-0.5 36.5v89q0 20 14 32.5t53 17.5q7 -11 10 -21q0 -13 2 -157q4 -220 4 -360q0 -90 -4 -106q-1 -15 -23.5 -27.5t-44.5 -12.5q-28 0 -35 18l-130 406q4 -82 4 -141l2 -274
q-25 -23 -55 -23q-18 0 -22 41t-4 134v181q0 259 1 289z" />
    <glyph glyph-name="Ograve" unicode="&#xd2;" horiz-adv-x="340" 
d="M119 840q16 12 40 12h4.5h2.5l1 -1q12 -8 26.5 -22.5t22.5 -24.5l9 -11q19 -24 19 -40q0 -20 -32 -20q-11 0 -47 31.5t-43 42.5q-9 13 -9 20t6 13zM317 530q0 -30 2 -80q1 -21 1 -70q0 -89 -6.5 -155t-22 -119t-43 -80.5t-67.5 -27.5q-53 0 -87 27t-50 105
q-18 82 -18 204v129q0 37 7 75t23 78.5t50.5 66t82.5 25.5q54 0 90 -55.5t38 -122.5zM175 62q34 0 49.5 88.5t15.5 214.5q0 11 1 39t1 49.5t-1 51t-5 51t-10.5 42t-19 31t-29.5 10.5q-21 0 -36 -20t-25.5 -87.5t-10.5 -182.5q0 -42 2 -82t8.5 -91t22 -82.5t37.5 -31.5z" />
    <glyph glyph-name="Oacute" unicode="&#xd3;" horiz-adv-x="340" 
d="M238 841q7 -6 7 -14q0 -9 -9 -22q-16 -20 -47.5 -46t-42.5 -26q-33 0 -33 20q0 15 20 40l3 5q4 4 9 10.5t11.5 13.5t13.5 13.5t13 10.5q12 6 17 6q23 0 38 -11zM317 530q0 -30 2 -80q1 -21 1 -70q0 -89 -6.5 -155t-22 -119t-43 -80.5t-67.5 -27.5q-53 0 -87 27t-50 105
q-18 82 -18 204v129q0 37 7 75t23 78.5t50.5 66t82.5 25.5q54 0 90 -55.5t38 -122.5zM175 62q34 0 49.5 88.5t15.5 214.5q0 11 1 39t1 49.5t-1 51t-5 51t-10.5 42t-19 31t-29.5 10.5q-21 0 -36 -20t-25.5 -87.5t-10.5 -182.5q0 -42 2 -82t8.5 -91t22 -82.5t37.5 -31.5z" />
    <glyph glyph-name="Ocircumflex" unicode="&#xd4;" horiz-adv-x="340" 
d="M287 771q2 -3 2 -10q-10 -21 -34 -21q-10 0 -16 4q-7 3 -20.5 13.5t-23.5 19.5l-10 9q-2 -1 -18.5 -13t-26.5 -20q-19 -13 -30 -13q-12 0 -26 12q-3 4 -3 14q0 11 7 18l30 23q53 40 70 42q9 0 33.5 -19.5t44.5 -39.5zM317 530q0 -30 2 -80q1 -21 1 -70q0 -89 -6.5 -155
t-22 -119t-43 -80.5t-67.5 -27.5q-53 0 -87 27t-50 105q-18 82 -18 204v129q0 37 7 75t23 78.5t50.5 66t82.5 25.5q54 0 90 -55.5t38 -122.5zM175 62q34 0 49.5 88.5t15.5 214.5q0 11 1 39t1 49.5t-1 51t-5 51t-10.5 42t-19 31t-29.5 10.5q-21 0 -36 -20t-25.5 -87.5
t-10.5 -182.5q0 -42 2 -82t8.5 -91t22 -82.5t37.5 -31.5z" />
    <glyph glyph-name="Otilde" unicode="&#xd5;" horiz-adv-x="340" 
d="M73 779q0 17 22 41.5t53 24.5q21 0 45 -16q22 -12 33 -12q6 0 23 11q14 12 27 14q17 -9 17 -24q0 -26 -22.5 -47.5t-47.5 -21.5q-24 0 -48 18q-22 13 -26 13q-11 0 -24 -15t-26 -15q-10 0 -18 7t-8 22zM317 530q0 -30 2 -80q1 -21 1 -70q0 -89 -6.5 -155t-22 -119
t-43 -80.5t-67.5 -27.5q-53 0 -87 27t-50 105q-18 82 -18 204v129q0 37 7 75t23 78.5t50.5 66t82.5 25.5q54 0 90 -55.5t38 -122.5zM175 62q34 0 49.5 88.5t15.5 214.5q0 11 1 39t1 49.5t-1 51t-5 51t-10.5 42t-19 31t-29.5 10.5q-21 0 -36 -20t-25.5 -87.5t-10.5 -182.5
q0 -42 2 -82t8.5 -91t22 -82.5t37.5 -31.5z" />
    <glyph glyph-name="Odieresis" unicode="&#xd6;" horiz-adv-x="340" 
d="M103 834q15 7 35 7q34 0 34 -44q0 -39 -43 -39q-17 0 -29.5 14.5t-12.5 32.5q0 19 16 29zM199 834q17 7 36 7q34 0 34 -44q0 -39 -43 -39q-18 0 -30 14.5t-12 32.5q0 19 15 29zM317 530q0 -30 2 -80q1 -21 1 -70q0 -89 -6.5 -155t-22 -119t-43 -80.5t-67.5 -27.5
q-53 0 -87 27t-50 105q-18 82 -18 204v129q0 37 7 75t23 78.5t50.5 66t82.5 25.5q54 0 90 -55.5t38 -122.5zM175 62q34 0 49.5 88.5t15.5 214.5q0 11 1 39t1 49.5t-1 51t-5 51t-10.5 42t-19 31t-29.5 10.5q-21 0 -36 -20t-25.5 -87.5t-10.5 -182.5q0 -42 2 -82t8.5 -91
t22 -82.5t37.5 -31.5z" />
    <glyph glyph-name="multiply" unicode="&#xd7;" horiz-adv-x="337" 
d="M279 187q-12 -8 -29 -8q-10 0 -15 5l-63 63l-75 -74q-26 6 -34 16q-10 9 -10 21q0 10 9 18l65 65l-61 62q-7 12 -7 17q0 12 13 27q10 10 22 10q10 0 19 -9l60 -62l57 56q12 10 23 10q15 0 23 -13q8 -11 8 -24q0 -10 -6 -16l-60 -59l60 -61q10 -8 10 -22q0 -15 -9 -22z
" />
    <glyph glyph-name="Oslash" unicode="&#xd8;" horiz-adv-x="340" 
d="M344 686l-1 -9q-3 -4 -36 -87q8 -28 10 -60q0 -30 2 -80q1 -21 1 -70q0 -89 -6.5 -155t-22 -119t-43 -80.5t-67.5 -27.5q-64 0 -96 36q-10 -22 -11 -23q-15 -26 -41 -26q-13 0 -19 1t-12 7t-6 19q0 21 12 41l34 85q-16 80 -16 196v129q0 37 7 75t23 78.5t50.5 66
t82.5 25.5q37 0 70 -31l5 13q9 24 38 24q42 0 42 -28zM105 349q0 -33 1 -53l120 300q-17 43 -49 43q-21 0 -36 -20t-25.5 -87.5t-10.5 -182.5zM240 365q0 7 0.5 28t0.5 34l-76 -190q-38 -97 -41 -104q19 -71 51 -71q34 0 49.5 88.5t15.5 214.5z" />
    <glyph glyph-name="Ugrave" unicode="&#xd9;" horiz-adv-x="368" 
d="M132 840q16 12 40 12h4.5h2.5l1 -1q12 -8 26.5 -22.5t23.5 -24.5l8 -11q19 -24 19 -40q0 -20 -32 -20q-11 0 -47 31.5t-43 42.5q-9 13 -9 20t6 13zM28 659q19 35 49 35q40 0 40 -59v-484q0 -30 19.5 -59.5t46.5 -29.5q71 0 71 220q0 7 3 136q1 1 1 60l-1 60q0 80 -1 113
q13 40 65 40q15 0 22 -19q0 -72 -7.5 -288t-12.5 -241q-20 -90 -58.5 -119.5t-95.5 -29.5q-84 0 -120 92q-15 40 -19 431z" />
    <glyph glyph-name="Uacute" unicode="&#xda;" horiz-adv-x="368" 
d="M251 841q7 -6 7 -14q0 -9 -9 -22q-16 -20 -47.5 -46t-42.5 -26q-33 0 -33 20q0 15 20 40l4 5q3 4 8 10.5t11.5 13.5t13.5 13.5t13 10.5q12 6 17 6q23 0 38 -11zM28 659q19 35 49 35q40 0 40 -59v-484q0 -30 19.5 -59.5t46.5 -29.5q71 0 71 220q0 7 3 136q1 1 1 60l-1 60
q0 80 -1 113q13 40 65 40q15 0 22 -19q0 -72 -7.5 -288t-12.5 -241q-20 -90 -58.5 -119.5t-95.5 -29.5q-84 0 -120 92q-15 40 -19 431z" />
    <glyph glyph-name="Ucircumflex" unicode="&#xdb;" horiz-adv-x="368" 
d="M300 771q2 -3 2 -10q-10 -21 -34 -21q-10 0 -16 4q-7 3 -20.5 13.5t-23.5 19.5l-10 9q-2 -1 -18.5 -13t-26.5 -20q-19 -13 -30 -13q-12 0 -26 12q-3 4 -3 14q0 11 7 18l30 23q53 40 70 42q9 0 33.5 -19.5t45.5 -39.5zM28 659q19 35 49 35q40 0 40 -59v-484
q0 -30 19.5 -59.5t46.5 -29.5q71 0 71 220q0 7 3 136q1 1 1 60l-1 60q0 80 -1 113q13 40 65 40q15 0 22 -19q0 -72 -7.5 -288t-12.5 -241q-20 -90 -58.5 -119.5t-95.5 -29.5q-84 0 -120 92q-15 40 -19 431z" />
    <glyph glyph-name="Udieresis" unicode="&#xdc;" horiz-adv-x="368" 
d="M116 834q15 7 35 7q34 0 34 -44q0 -39 -43 -39q-17 0 -29.5 14.5t-12.5 32.5q0 19 16 29zM212 834q17 7 36 7q34 0 34 -44q0 -39 -43 -39q-18 0 -30 14.5t-12 32.5q0 19 15 29zM28 659q19 35 49 35q40 0 40 -59v-484q0 -30 19.5 -59.5t46.5 -29.5q71 0 71 220q0 7 3 136
q1 1 1 60l-1 60q0 80 -1 113q13 40 65 40q15 0 22 -19q0 -72 -7.5 -288t-12.5 -241q-20 -90 -58.5 -119.5t-95.5 -29.5q-84 0 -120 92q-15 40 -19 431z" />
    <glyph glyph-name="Yacute" unicode="&#xdd;" horiz-adv-x="321" 
d="M219 841q7 -6 7 -14q0 -9 -9 -22q-16 -20 -47.5 -46t-42.5 -26q-33 0 -33 20q0 15 20 40l4 5q3 4 8 10.5t11.5 13.5t13.5 13.5t13 10.5q12 6 17 6q23 0 38 -11zM237 686q11 11 28 11q21 0 28 -27q2 -14 2 -43q0 -34 -6.5 -252.5t-10.5 -243.5q-24 -132 -137 -132
q-10 0 -20.5 1.5t-28 9.5t-30.5 21.5t-23 41t-10 64.5q0 45 43 45q8 0 13.5 -2t12 -8.5t9.5 -23t3 -42.5q0 -42 41 -42q29 0 42.5 24.5t13.5 58.5l4 112q-33 -12 -69 -12q-18 0 -53 15q-24 11 -39 40t-20.5 76t-7 77t-1.5 79q0 9 0.5 25.5t0.5 24.5q1 19 1 69q0 10 15.5 26
t31.5 16q25 0 25 -35q0 -186 12 -293q2 -9 7 -19.5t18.5 -21.5t30.5 -11q18 0 51 20l7 292q0 43 16 59z" />
    <glyph glyph-name="Thorn" unicode="&#xde;" horiz-adv-x="322" 
d="M119 589q28 7 48 7q136 0 136 -164q0 -165 -17 -216q-30 -92 -118 -92q-18 0 -53 7l-1 -89q-1 -6 -5 -15.5t-15.5 -20t-26.5 -10.5q-18 0 -24 4.5t-6 19.5l6 646q0 14 12 26t29 12q21 0 36 -24zM146 531q-10 0 -28 -8l-3 -319q30 -11 52 -12q31 1 45 47t14 100
q0 4 0.5 24.5t0.5 31.5v29q0 55 -17.5 81t-63.5 26z" />
    <glyph glyph-name="germandbls" unicode="&#xdf;" horiz-adv-x="391" 
d="M157 59q8 36 41 36l11 -1q13 -27 38 -27q47 0 47 104q0 35 -18.5 65.5t-34.5 44t-47 35.5l-15 12q-32 26 -32 62q0 29 20 76q26 56 26 105q0 27 -11 46t-32 19q-19 0 -30 -23t-11 -37q0 -100 -3 -202q0 -32 -1 -99t-1 -96q0 -111 5 -148q-5 -12 -19.5 -22.5t-24.5 -10.5
q-33 4 -33 69q2 90 2 212v160q0 50 2 106q4 64 34 108t95 44q42 0 70.5 -36.5t28.5 -92.5q0 -61 -25 -113q-18 -38 -18 -62q0 -12 14 -21q25 -14 42.5 -27.5t41.5 -38t37 -60t13 -78.5q0 -63 -34.5 -115t-93.5 -52q-33 0 -56.5 15t-27.5 43z" />
    <glyph glyph-name="agrave" unicode="&#xe0;" horiz-adv-x="298" 
d="M190 620q-11 0 -47 31.5t-43 42.5q-9 14 -9 20q0 7 6 13q16 12 40 12q3 0 4.5 -0.5t2.5 -0.5h1q12 -8 26.5 -22.5t22.5 -25.5l9 -10q19 -24 19 -40q0 -20 -32 -20zM278 49q1 -4 1 -11q0 -33 -46 -35q-21 0 -21 21l-22 170q-13 0 -40.5 -0.5t-39.5 -0.5l-5 -34
q-18 -122 -25 -138q-5 -4 -22.5 -10t-24.5 -6q-19 0 -19 24q0 10 3 19l15 88q54 298 67 363q5 25 9 38t18.5 26.5t38.5 13.5q18 0 29.5 -15t14.5 -28t7 -37q3 -21 27 -192t35 -256zM141 380l-21 -129q9 0 30.5 0.5t32.5 0.5l-26 219z" />
    <glyph glyph-name="aacute" unicode="&#xe1;" horiz-adv-x="298" 
d="M123 620q-32 0 -32 20q0 16 19 40l4 4q3 5 8 11.5t11.5 13.5t13.5 13.5t13 10.5q12 6 17 6q23 0 38 -11q7 -6 7 -14t-9 -22q-16 -20 -47.5 -46t-42.5 -26zM278 49q1 -4 1 -11q0 -33 -46 -35q-21 0 -21 21l-22 170q-13 0 -40.5 -0.5t-39.5 -0.5l-5 -34q-18 -122 -25 -138
q-5 -4 -22.5 -10t-24.5 -6q-19 0 -19 24q0 10 3 19l15 88q54 298 67 363q5 25 9 38t18.5 26.5t38.5 13.5q18 0 29.5 -15t14.5 -28t7 -37q3 -21 27 -192t35 -256zM141 380l-21 -129q9 0 30.5 0.5t32.5 0.5l-26 219z" />
    <glyph glyph-name="acircumflex" unicode="&#xe2;" horiz-adv-x="298" 
d="M88 627q-12 0 -26 12q-3 5 -3 14q0 11 7 18l30 23q53 40 70 42q9 0 33.5 -19.5t44.5 -38.5l21 -20q2 -3 2 -10q-10 -21 -34 -21q-10 0 -16 4q-7 3 -20.5 13.5t-23.5 19.5l-10 9q-2 -1 -18.5 -13t-26.5 -20q-20 -13 -30 -13zM278 49q1 -4 1 -11q0 -33 -46 -35
q-21 0 -21 21l-22 170q-13 0 -40.5 -0.5t-39.5 -0.5l-5 -34q-18 -122 -25 -138q-5 -4 -22.5 -10t-24.5 -6q-19 0 -19 24q0 10 3 19l15 88q54 298 67 363q5 25 9 38t18.5 26.5t38.5 13.5q18 0 29.5 -15t14.5 -28t7 -37q3 -21 27 -192t35 -256zM141 380l-21 -129q9 0 30.5 0.5
t32.5 0.5l-26 219z" />
    <glyph glyph-name="atilde" unicode="&#xe3;" horiz-adv-x="298" 
d="M77 637q-10 0 -18 7t-8 22q0 17 22 41.5t53 24.5q21 0 45 -16q22 -12 33 -12q6 0 23 11q14 12 27 14q17 -9 17 -24q0 -26 -22.5 -47.5t-47.5 -21.5q-24 0 -48 18q-22 13 -26 13q-11 0 -24 -15t-26 -15zM278 49q1 -4 1 -11q0 -33 -46 -35q-21 0 -21 21l-22 170
q-13 0 -40.5 -0.5t-39.5 -0.5l-5 -34q-18 -122 -25 -138q-5 -4 -22.5 -10t-24.5 -6q-19 0 -19 24q0 10 3 19l15 88q54 298 67 363q5 25 9 38t18.5 26.5t38.5 13.5q18 0 29.5 -15t14.5 -28t7 -37q3 -21 27 -192t35 -256zM141 380l-21 -129q9 0 30.5 0.5t32.5 0.5l-26 219z
" />
    <glyph glyph-name="adieresis" unicode="&#xe4;" horiz-adv-x="298" 
d="M107 645q-17 0 -29.5 14.5t-12.5 32.5q0 19 16 29q15 7 35 7q34 0 34 -44q0 -39 -43 -39zM204 645q-18 0 -30 14.5t-12 32.5t15 29q17 7 36 7q34 0 34 -44q0 -39 -43 -39zM278 49q1 -4 1 -11q0 -33 -46 -35q-21 0 -21 21l-22 170q-13 0 -40.5 -0.5t-39.5 -0.5l-5 -34
q-18 -122 -25 -138q-5 -4 -22.5 -10t-24.5 -6q-19 0 -19 24q0 10 3 19l15 88q54 298 67 363q5 25 9 38t18.5 26.5t38.5 13.5q18 0 29.5 -15t14.5 -28t7 -37q3 -21 27 -192t35 -256zM141 380l-21 -129q9 0 30.5 0.5t32.5 0.5l-26 219z" />
    <glyph glyph-name="aring" unicode="&#xe5;" horiz-adv-x="298" 
d="M159 624q-25 0 -42 18t-17 43q0 26 17.5 42.5t43.5 16.5q25 0 42 -18t17 -43t-17 -42t-44 -17zM159 701q-5 0 -9.5 -6t-4.5 -12q0 -5 4.5 -10t9.5 -5q6 0 11.5 5t5.5 13q0 5 -4.5 10t-12.5 5zM278 49q1 -4 1 -11q0 -33 -46 -35q-21 0 -21 21l-22 170q-13 0 -40.5 -0.5
t-39.5 -0.5l-5 -34q-18 -122 -25 -138q-5 -4 -22.5 -10t-24.5 -6q-19 0 -19 24q0 10 3 19l15 88q54 298 67 363q5 25 9 38t18.5 26.5t38.5 13.5q18 0 29.5 -15t14.5 -28t7 -37q3 -21 27 -192t35 -256zM141 380l-21 -129q9 0 30.5 0.5t32.5 0.5l-26 219z" />
    <glyph glyph-name="ae" unicode="&#xe6;" horiz-adv-x="414" 
d="M351 64q32 0 38 -13q3 -6 3 -24q0 -10 -7.5 -16.5t-16.5 -7.5q-54 -6 -119 -6q-28 0 -38 8.5t-10 33.5v47q0 10 3 171q-12 0 -41 -0.5t-42 -0.5l-10 -58l-6 -39q-18 -122 -25 -138q-5 -4 -22.5 -10t-24.5 -6q-19 0 -19 24q0 10 3 19l15 88q54 298 67 363q6 32 26.5 55
t55.5 23q23 0 44 -7q13 7 78 7h36q23 0 33 -1.5t16 -8t6 -20.5q0 -20 -10 -27t-44 -7h-8l-60 -3q-1 0 -1 -58q0 -30 -0.5 -57t-0.5 -29v-17q0 -26 -1 -26q2 -1 63 -1h13q25 0 31 -8t6 -28q0 -30 -30 -30h-60q-11 0 -14 -2t-3 -8q0 -10 0.5 -33.5t0.5 -36.5t-0.5 -37
t-0.5 -35q0 -10 -0.5 -24.5t-0.5 -18.5h30q42 3 47 3zM131 318q24 1 73 1v77l1 97q0 2 0.5 7.5t0.5 8.5q-7 1 -20 1q-24 0 -29 -29l-16 -101z" />
    <glyph glyph-name="ccedilla" unicode="&#xe7;" horiz-adv-x="291" 
d="M241 188q20 0 25.5 -10t5.5 -30q0 -47 -7 -66q-36 -78 -114 -78h-1q0 -1 -0.5 -3t-0.5 -3q15 -3 18 -4q37 -11 50 -28.5t13 -45.5q0 -39 -24 -57.5t-57 -18.5q-25 0 -44 10t-19 31q0 26 18 26q4 0 17 -5t19 -5q35 0 35 22q0 9 -9 14.5t-25.5 10t-18.5 5.5q-32 14 -32 40
q0 10 6 22q-57 25 -64 113q-7 80 -7 203q0 91 12 145q12 59 42.5 81t75.5 22q70 0 97 -75q13 -35 10 -80q-11 -13 -35 -13q-26 0 -31 8q-3 12 -3 28q-2 21 -4.5 32.5t-13 24t-28.5 12.5q-23 0 -35.5 -31.5t-12.5 -67.5q0 -4 -0.5 -16t-0.5 -20q-1 -23 -1 -89v-71
q0 -154 53 -154q55 0 55 65v10v13v11q2 11 13.5 16.5t22.5 5.5z" />
    <glyph glyph-name="egrave" unicode="&#xe8;" horiz-adv-x="232" 
d="M65 727q16 12 40 12q3 0 4.5 -0.5t2.5 -0.5h1q12 -8 26.5 -22.5t22.5 -25.5l9 -10q19 -24 19 -40q0 -20 -32 -20q-11 0 -47 31.5t-43 42.5q-9 14 -9 20q0 7 6 13zM100 510q-1 0 -1 -58q0 -30 -0.5 -57t-0.5 -29v-17q0 -26 -1 -26q2 -1 53 -1h13q25 0 31 -8t6 -28
q0 -30 -30 -30h-50q-11 0 -14 -2t-3 -8q0 -10 0.5 -33.5t0.5 -36.5t-0.5 -37t-0.5 -35q0 -10 -0.5 -24.5t-0.5 -18.5h30q5 0 18.5 1.5t18.5 1.5q32 0 38 -13q3 -6 3 -24q0 -10 -7.5 -16.5t-16.5 -7.5q-54 -6 -109 -6q-28 0 -38 8.5t-10 33.5v47q3 79 3 310l1 97q2 50 15 74
q7 10 83 10h26q23 0 33 -1.5t16 -8t6 -20.5q0 -20 -10 -27t-44 -7h-8z" />
    <glyph glyph-name="eacute" unicode="&#xe9;" horiz-adv-x="232" 
d="M183 728q7 -6 7 -14t-9 -22q-16 -20 -47.5 -46t-42.5 -26q-32 0 -32 20q0 16 19 40l4 4q3 5 8 11.5t11.5 13.5t13.5 13.5t13 10.5q12 6 17 6q23 0 38 -11zM100 510q-1 0 -1 -58q0 -30 -0.5 -57t-0.5 -29v-17q0 -26 -1 -26q2 -1 53 -1h13q25 0 31 -8t6 -28q0 -30 -30 -30
h-50q-11 0 -14 -2t-3 -8q0 -10 0.5 -33.5t0.5 -36.5t-0.5 -37t-0.5 -35q0 -10 -0.5 -24.5t-0.5 -18.5h30q5 0 18.5 1.5t18.5 1.5q32 0 38 -13q3 -6 3 -24q0 -10 -7.5 -16.5t-16.5 -7.5q-54 -6 -109 -6q-28 0 -38 8.5t-10 33.5v47q3 79 3 310l1 97q2 50 15 74q7 10 83 10h26
q23 0 33 -1.5t16 -8t6 -20.5q0 -20 -10 -27t-44 -7h-8z" />
    <glyph glyph-name="ecircumflex" unicode="&#xea;" horiz-adv-x="232" 
d="M233 658q2 -3 2 -10q-10 -21 -34 -21q-10 0 -16 4q-7 3 -20.5 13.5t-23.5 19.5l-10 9q-2 -1 -18.5 -13t-26.5 -20q-19 -13 -30 -13q-12 0 -26 12q-3 5 -3 14q0 11 7 18l30 23q53 40 70 42q9 0 33.5 -19.5t44.5 -38.5zM100 510q-1 0 -1 -58q0 -30 -0.5 -57t-0.5 -29v-17
q0 -26 -1 -26q2 -1 53 -1h13q25 0 31 -8t6 -28q0 -30 -30 -30h-50q-11 0 -14 -2t-3 -8q0 -10 0.5 -33.5t0.5 -36.5t-0.5 -37t-0.5 -35q0 -10 -0.5 -24.5t-0.5 -18.5h30q5 0 18.5 1.5t18.5 1.5q32 0 38 -13q3 -6 3 -24q0 -10 -7.5 -16.5t-16.5 -7.5q-54 -6 -109 -6
q-28 0 -38 8.5t-10 33.5v47q3 79 3 310l1 97q2 50 15 74q7 10 83 10h26q23 0 33 -1.5t16 -8t6 -20.5q0 -20 -10 -27t-44 -7h-8z" />
    <glyph glyph-name="edieresis" unicode="&#xeb;" horiz-adv-x="232" 
d="M49 721q15 7 35 7q34 0 34 -44q0 -39 -43 -39q-17 0 -29.5 14.5t-12.5 32.5q0 19 16 29zM145 721q17 7 36 7q34 0 34 -44q0 -39 -43 -39q-18 0 -30 14.5t-12 32.5t15 29zM100 510q-1 0 -1 -58q0 -30 -0.5 -57t-0.5 -29v-17q0 -26 -1 -26q2 -1 53 -1h13q25 0 31 -8t6 -28
q0 -30 -30 -30h-50q-11 0 -14 -2t-3 -8q0 -10 0.5 -33.5t0.5 -36.5t-0.5 -37t-0.5 -35q0 -10 -0.5 -24.5t-0.5 -18.5h30q5 0 18.5 1.5t18.5 1.5q32 0 38 -13q3 -6 3 -24q0 -10 -7.5 -16.5t-16.5 -7.5q-54 -6 -109 -6q-28 0 -38 8.5t-10 33.5v47q3 79 3 310l1 97q2 50 15 74
q7 10 83 10h26q23 0 33 -1.5t16 -8t6 -20.5q0 -20 -10 -27t-44 -7h-8z" />
    <glyph glyph-name="igrave" unicode="&#xec;" horiz-adv-x="210" 
d="M44 727q16 12 40 12q3 0 4.5 -0.5t2.5 -0.5h1q12 -8 26.5 -22.5t23.5 -25.5l8 -10q19 -24 19 -40q0 -20 -32 -20q-11 0 -47 31.5t-43 42.5q-9 14 -9 20q0 7 6 13zM15 552q1 22 24 25q138 0 146 -4q16 -13 16 -25q0 -5 -6.5 -19t-11.5 -14h-22q-2 0 -9 -0.5t-11 -0.5v-94
q0 -158 -1 -222l-1 -101v-31h35q18 -6 23 -25q0 -34 -15 -38q-9 -2 -126 1h-15l-10 1q-6 0 -13 13t-7 18q0 13 18 28q3 2 40 2v447q-25 0 -37 2q-17 3 -17 37z" />
    <glyph glyph-name="iacute" unicode="&#xed;" horiz-adv-x="210" 
d="M162 728q7 -6 7 -14t-9 -22q-16 -20 -47.5 -46t-42.5 -26q-32 0 -32 20q0 16 19 40l3 4q4 5 9 11.5t11.5 13.5t13.5 13.5t13 10.5q12 6 17 6q23 0 38 -11zM15 552q1 22 24 25q138 0 146 -4q16 -13 16 -25q0 -5 -6.5 -19t-11.5 -14h-22q-2 0 -9 -0.5t-11 -0.5v-94
q0 -158 -1 -222l-1 -101v-31h35q18 -6 23 -25q0 -34 -15 -38q-9 -2 -126 1h-15l-10 1q-6 0 -13 13t-7 18q0 13 18 28q3 2 40 2v447q-25 0 -37 2q-17 3 -17 37z" />
    <glyph glyph-name="icircumflex" unicode="&#xee;" horiz-adv-x="210" 
d="M212 658q2 -3 2 -10q-10 -21 -34 -21q-10 0 -16 4q-7 3 -20.5 13.5t-23.5 19.5l-10 9q-2 -1 -18.5 -13t-26.5 -20q-19 -13 -30 -13q-12 0 -26 12q-3 5 -3 14q0 11 7 18l30 23q53 40 70 42q9 0 33.5 -19.5t45.5 -38.5zM15 552q1 22 24 25q138 0 146 -4q16 -13 16 -25
q0 -5 -6.5 -19t-11.5 -14h-22q-2 0 -9 -0.5t-11 -0.5v-94q0 -158 -1 -222l-1 -101v-31h35q18 -6 23 -25q0 -34 -15 -38q-9 -2 -126 1h-15l-10 1q-6 0 -13 13t-7 18q0 13 18 28q3 2 40 2v447q-25 0 -37 2q-17 3 -17 37z" />
    <glyph glyph-name="idieresis" unicode="&#xef;" horiz-adv-x="210" 
d="M28 721q15 7 35 7q34 0 34 -44q0 -39 -43 -39q-17 0 -29.5 14.5t-12.5 32.5q0 19 16 29zM124 721q17 7 36 7q34 0 34 -44q0 -39 -43 -39q-18 0 -30 14.5t-12 32.5t15 29zM15 552q1 22 24 25q138 0 146 -4q16 -13 16 -25q0 -5 -6.5 -19t-11.5 -14h-22q-2 0 -9 -0.5
t-11 -0.5v-94q0 -158 -1 -222l-1 -101v-31h35q18 -6 23 -25q0 -34 -15 -38q-9 -2 -126 1h-15l-10 1q-6 0 -13 13t-7 18q0 13 18 28q3 2 40 2v447q-25 0 -37 2q-17 3 -17 37z" />
    <glyph glyph-name="eth" unicode="&#xf0;" horiz-adv-x="284" 
d="M235 548q13 10 26 0.5t13 -27.5q0 -15 -9 -22l-43 -29q42 -119 42 -278q0 -203 -116 -203h-22q-116 0 -116 199q0 99 28.5 142t94.5 43q27 0 48 -7q-10 47 -16 67l-48 -32q-16 -10 -30 -1.5t-14 27.5q0 15 13 23l57 37q-22 42 -44 42q-2 0 -5 -1t-7 -2t-7 -2
q-24 -6 -27 18l-1 18q0 18 17 24q80 24 129 -61zM190 137v70q0 58 -9 81t-44 23t-44 -23t-9 -81v-81q0 -35 15 -56.5t40 -21.5q51 0 51 89z" />
    <glyph glyph-name="ntilde" unicode="&#xf1;" horiz-adv-x="320" 
d="M53 666q0 17 22 41.5t53 24.5q21 0 45 -16q22 -12 33 -12q6 0 23 11q14 12 27 14q17 -9 17 -24q0 -26 -22.5 -47.5t-47.5 -21.5q-24 0 -48 18q-22 13 -26 13q-11 0 -24 -15t-26 -15q-10 0 -18 7t-8 22zM33 534q1 33 50 33q4 -1 7 -3t6 -5.5t4.5 -7t3.5 -9.5t3.5 -10
t3.5 -11.5t3 -11.5q87 -293 114 -366q0 5 -0.5 12.5t-0.5 10.5q-2 32 -2 49q0 47 -2 141q0 14 -1 37t-1.5 40.5t-0.5 29.5v73q0 16 11.5 27t33.5 11q21 0 23 -13q0 -72 1 -130q1 -93 1 -296q0 -75 -4 -88q-4 -12 -21 -22t-34 -10q-25 0 -30 15l-103 297v-85q0 -55 1 -117.5
t1 -101.5q-22 -20 -49 -20q-21 0 -21 90q0 8 0.5 27t0.5 29v148q0 187 2 237z" />
    <glyph glyph-name="ograve" unicode="&#xf2;" horiz-adv-x="287" 
d="M83 727q16 12 40 12q3 0 4.5 -0.5t2.5 -0.5h1q12 -8 26.5 -22.5t22.5 -25.5l9 -10q19 -24 19 -40q0 -20 -32 -20q-11 0 -47 31.5t-43 42.5q-9 14 -9 20q0 7 6 13zM264 439q0 -44 1 -66q1 -17 1 -58q0 -73 -5.5 -128t-18.5 -99t-36 -67t-57 -23q-44 0 -72.5 22.5
t-41.5 87.5q-15 78 -15 170q0 11 0.5 31t0.5 29v46q0 31 6 62.5t19.5 65.5t42 55t67.5 21q45 0 75.5 -46.5t32.5 -102.5zM145 58q48 0 48 245q0 123 -7 166q-3 20 -13.5 38t-26.5 18q-17 0 -28 -16t-19 -70.5t-8 -149.5q0 -231 54 -231z" />
    <glyph glyph-name="oacute" unicode="&#xf3;" horiz-adv-x="287" 
d="M201 728q7 -6 7 -14t-9 -22q-16 -20 -47.5 -46t-42.5 -26q-32 0 -32 20q0 16 19 40l4 4q3 5 8 11.5t11.5 13.5t13.5 13.5t13 10.5q12 6 17 6q23 0 38 -11zM264 439q0 -44 1 -66q1 -17 1 -58q0 -73 -5.5 -128t-18.5 -99t-36 -67t-57 -23q-44 0 -72.5 22.5t-41.5 87.5
q-15 78 -15 170q0 11 0.5 31t0.5 29v46q0 31 6 62.5t19.5 65.5t42 55t67.5 21q45 0 75.5 -46.5t32.5 -102.5zM145 58q48 0 48 245q0 123 -7 166q-3 20 -13.5 38t-26.5 18q-17 0 -28 -16t-19 -70.5t-8 -149.5q0 -231 54 -231z" />
    <glyph glyph-name="ocircumflex" unicode="&#xf4;" horiz-adv-x="287" 
d="M251 658q2 -3 2 -10q-10 -21 -34 -21q-10 0 -16 4q-7 3 -20.5 13.5t-23.5 19.5l-10 9q-2 -1 -18.5 -13t-26.5 -20q-19 -13 -30 -13q-12 0 -26 12q-3 5 -3 14q0 11 7 18l30 23q53 40 70 42q9 0 33.5 -19.5t44.5 -38.5zM264 439q0 -44 1 -66q1 -17 1 -58q0 -73 -5.5 -128
t-18.5 -99t-36 -67t-57 -23q-44 0 -72.5 22.5t-41.5 87.5q-15 78 -15 170q0 11 0.5 31t0.5 29v46q0 31 6 62.5t19.5 65.5t42 55t67.5 21q45 0 75.5 -46.5t32.5 -102.5zM145 58q48 0 48 245q0 123 -7 166q-3 20 -13.5 38t-26.5 18q-17 0 -28 -16t-19 -70.5t-8 -149.5
q0 -231 54 -231z" />
    <glyph glyph-name="otilde" unicode="&#xf5;" horiz-adv-x="287" 
d="M37 666q0 17 22 41.5t53 24.5q21 0 45 -16q22 -12 33 -12q6 0 23 11q14 12 27 14q17 -9 17 -24q0 -26 -22.5 -47.5t-47.5 -21.5q-24 0 -48 18q-22 13 -26 13q-11 0 -24 -15t-26 -15q-10 0 -18 7t-8 22zM264 439q0 -44 1 -66q1 -17 1 -58q0 -73 -5.5 -128t-18.5 -99
t-36 -67t-57 -23q-44 0 -72.5 22.5t-41.5 87.5q-15 78 -15 170q0 11 0.5 31t0.5 29v46q0 31 6 62.5t19.5 65.5t42 55t67.5 21q45 0 75.5 -46.5t32.5 -102.5zM145 58q48 0 48 245q0 123 -7 166q-3 20 -13.5 38t-26.5 18q-17 0 -28 -16t-19 -70.5t-8 -149.5q0 -231 54 -231z
" />
    <glyph glyph-name="odieresis" unicode="&#xf6;" horiz-adv-x="287" 
d="M67 721q15 7 35 7q34 0 34 -44q0 -39 -43 -39q-17 0 -29.5 14.5t-12.5 32.5q0 19 16 29zM163 721q17 7 36 7q34 0 34 -44q0 -39 -43 -39q-18 0 -30 14.5t-12 32.5t15 29zM264 439q0 -44 1 -66q1 -17 1 -58q0 -73 -5.5 -128t-18.5 -99t-36 -67t-57 -23q-44 0 -72.5 22.5
t-41.5 87.5q-15 78 -15 170q0 11 0.5 31t0.5 29v46q0 31 6 62.5t19.5 65.5t42 55t67.5 21q45 0 75.5 -46.5t32.5 -102.5zM145 58q48 0 48 245q0 123 -7 166q-3 20 -13.5 38t-26.5 18q-17 0 -28 -16t-19 -70.5t-8 -149.5q0 -231 54 -231z" />
    <glyph glyph-name="divide" unicode="&#xf7;" horiz-adv-x="332" 
d="M137 426q14 9 35 9q22 0 29 -11.5t7 -35.5q0 -44 -45 -44q-18 0 -31 16t-13 35q0 21 18 31zM300 293q-6 -34 -28 -34h-221q-10 0 -19 9.5t-9 24.5q0 30 29 30h216q13 0 22.5 -8.5t9.5 -21.5zM137 225q20 10 35 10q22 0 29 -12.5t7 -36.5q0 -20 -12 -31.5t-33 -11.5
q-18 0 -31 16t-13 35q0 21 18 31z" />
    <glyph glyph-name="oslash" unicode="&#xf8;" horiz-adv-x="287" 
d="M292 569l-1 -8q-1 -1 -4.5 -10.5t-12.5 -30.5t-16 -39q4 -21 6 -42q0 -44 1 -66q1 -17 1 -58q0 -73 -5.5 -128t-18.5 -99t-36 -67t-57 -23q-47 0 -74 24q-10 -25 -12 -27q-13 -22 -35 -22q-11 0 -16.5 1t-10.5 6t-5 16q0 17 10 35l30 74q-1 1 -1 3q-15 78 -15 170
q0 11 0.5 31t0.5 29v46q0 31 6 62.5t19.5 65.5t42 55t67.5 21q34 0 62 -30l6 14q8 21 32 21q36 0 36 -24zM91 289q0 -28 1 -46l93 232q-10 50 -39 50q-17 0 -28 -16t-19 -70.5t-8 -149.5zM193 303v16q-24 -59 -53 -132q-7 -16 -17.5 -44.5t-14.5 -37.5q13 -47 37 -47
q48 0 48 245z" />
    <glyph glyph-name="ugrave" unicode="&#xf9;" horiz-adv-x="317" 
d="M98 727q16 12 40 12q3 0 4.5 -0.5t2.5 -0.5h1q12 -8 26.5 -22.5t23.5 -25.5l8 -10q19 -24 19 -40q0 -20 -32 -20q-11 0 -47 31.5t-43 42.5q-9 14 -9 20q0 7 6 13zM32 547q15 31 41 31q39 0 39 -51v-401q0 -24 13 -46t33 -22q57 0 57 177q0 21 0.5 58t0.5 54t0.5 50.5
t0.5 49.5q0 68 -1 95q12 33 60 33q13 0 20 -15q0 -62 -6 -241.5t-11 -200.5q-16 -75 -48.5 -99.5t-80.5 -24.5q-71 0 -101 78q-13 34 -17 370v105z" />
    <glyph glyph-name="uacute" unicode="&#xfa;" horiz-adv-x="317" 
d="M216 728q7 -6 7 -14t-9 -22q-16 -20 -47.5 -46t-42.5 -26q-32 0 -32 20q0 16 19 40l3 4q4 5 9 11.5t11.5 13.5t13.5 13.5t13 10.5q12 6 17 6q23 0 38 -11zM32 547q15 31 41 31q39 0 39 -51v-401q0 -24 13 -46t33 -22q57 0 57 177q0 21 0.5 58t0.5 54t0.5 50.5t0.5 49.5
q0 68 -1 95q12 33 60 33q13 0 20 -15q0 -62 -6 -241.5t-11 -200.5q-16 -75 -48.5 -99.5t-80.5 -24.5q-71 0 -101 78q-13 34 -17 370v105z" />
    <glyph glyph-name="ucircumflex" unicode="&#xfb;" horiz-adv-x="317" 
d="M266 658q2 -3 2 -10q-10 -21 -34 -21q-10 0 -16 4q-7 3 -20.5 13.5t-23.5 19.5l-10 9q-2 -1 -18.5 -13t-26.5 -20q-19 -13 -30 -13q-12 0 -26 12q-3 5 -3 14q0 11 7 18l30 23q53 40 70 42q9 0 33.5 -19.5t45.5 -38.5zM32 547q15 31 41 31q39 0 39 -51v-401q0 -24 13 -46
t33 -22q57 0 57 177q0 21 0.5 58t0.5 54t0.5 50.5t0.5 49.5q0 68 -1 95q12 33 60 33q13 0 20 -15q0 -62 -6 -241.5t-11 -200.5q-16 -75 -48.5 -99.5t-80.5 -24.5q-71 0 -101 78q-13 34 -17 370v105z" />
    <glyph glyph-name="udieresis" unicode="&#xfc;" horiz-adv-x="317" 
d="M82 721q15 7 35 7q34 0 34 -44q0 -39 -43 -39q-17 0 -29.5 14.5t-12.5 32.5q0 19 16 29zM178 721q17 7 36 7q34 0 34 -44q0 -39 -43 -39q-18 0 -30 14.5t-12 32.5t15 29zM32 547q15 31 41 31q39 0 39 -51v-401q0 -24 13 -46t33 -22q57 0 57 177q0 21 0.5 58t0.5 54
t0.5 50.5t0.5 49.5q0 68 -1 95q12 33 60 33q13 0 20 -15q0 -62 -6 -241.5t-11 -200.5q-16 -75 -48.5 -99.5t-80.5 -24.5q-71 0 -101 78q-13 34 -17 370v105z" />
    <glyph glyph-name="yacute" unicode="&#xfd;" horiz-adv-x="278" 
d="M196 728q7 -6 7 -14t-9 -22q-16 -20 -47.5 -46t-42.5 -26q-32 0 -32 20q0 16 19 40l3 4q4 5 9 11.5t11.5 13.5t13.5 13.5t13 10.5q12 6 17 6q23 0 38 -11zM201 571q16 8 29 8q20 0 25 -21q2 -10 2 -25v-12q-9 -377 -15 -411q-19 -111 -115 -111q-11 0 -22.5 3t-29.5 13
t-29.5 35.5t-11.5 63.5q0 22 9 30.5t28 8.5q12 0 17 -2.5t10.5 -16.5t7.5 -44q3 -32 31 -32q38 0 38 65l2 88q-25 -7 -48 -7q-27 0 -46 10q-25 13 -38.5 59t-15 80t-1.5 90v41q1 16 1 56q6 26 27 34q9 3 19 3q21 0 21 -30q0 -12 -0.5 -46.5t0 -51.5t1.5 -45.5t3.5 -52.5
t7.5 -47q7 -41 38 -41q15 0 33 11q6 214 6 245q0 33 16 52z" />
    <glyph glyph-name="thorn" unicode="&#xfe;" horiz-adv-x="274" 
d="M101 485q24 4 35 4q113 0 113 -135t-14 -177q-26 -76 -98 -76q-18 0 -40 5v-71q0 -3 -4.5 -12t-14.5 -18t-23 -9q-17 0 -22 3.5t-5 16.5l5 529q0 13 10.5 23t24.5 10q23 0 34 -20zM118 431l-18 -5l-2 -255q21 -6 38 -8q43 1 43 115q0 4 0.5 21t0.5 26v22q0 45 -12.5 64.5
t-49.5 19.5z" />
    <glyph glyph-name="ydieresis" unicode="&#xff;" horiz-adv-x="278" 
d="M62 721q15 7 35 7q34 0 34 -44q0 -39 -43 -39q-17 0 -29.5 14.5t-12.5 32.5q0 19 16 29zM158 721q17 7 36 7q34 0 34 -44q0 -39 -43 -39q-18 0 -30 14.5t-12 32.5t15 29zM201 571q16 8 29 8q20 0 25 -21q2 -10 2 -25v-12q-9 -377 -15 -411q-19 -111 -115 -111
q-11 0 -22.5 3t-29.5 13t-29.5 35.5t-11.5 63.5q0 22 9 30.5t28 8.5q12 0 17 -2.5t10.5 -16.5t7.5 -44q3 -32 31 -32q38 0 38 65l2 88q-25 -7 -48 -7q-27 0 -46 10q-25 13 -38.5 59t-15 80t-1.5 90v41q1 16 1 56q6 26 27 34q9 3 19 3q21 0 21 -30q0 -12 -0.5 -46.5t0 -51.5
t1.5 -45.5t3.5 -52.5t7.5 -47q7 -41 38 -41q15 0 33 11q6 214 6 245q0 33 16 52z" />
    <glyph glyph-name="Amacron" unicode="&#x100;" horiz-adv-x="345" 
d="M118 750q-26 0 -26 36q0 11 8 19t19 8h162q10 0 18 -9t8 -19q-5 -35 -23 -35h-166zM333 58q2 -8 2 -13q0 -19 -14.5 -30t-38.5 -12q-20 0 -23 26l-29 221l-102 -1l-2 -10q-1 -8 -4 -24.5t-4 -25.5q-20 -142 -30 -165q-6 -4 -25.5 -11.5t-27.5 -7.5q-21 0 -21 28
q0 11 3 22l23 134q59 331 76 412l3 13q5 20 8.5 31t11.5 26.5t22.5 22.5t34.5 7q49 0 61 -97q0 -2 52 -370zM161 442l-22 -131q12 0 41 0.5t42 0.5l-36 277q0 -1 -25 -147z" />
    <glyph glyph-name="amacron" unicode="&#x101;" horiz-adv-x="298" 
d="M80 636q-26 0 -26 36q0 11 8 19t19 8h162q10 0 18 -9t8 -19q-5 -35 -23 -35h-166zM278 49q1 -4 1 -11q0 -33 -46 -35q-21 0 -21 21l-22 170q-13 0 -40.5 -0.5t-39.5 -0.5l-5 -34q-18 -122 -25 -138q-5 -4 -22.5 -10t-24.5 -6q-19 0 -19 24q0 10 3 19l15 88q54 298 67 363
q5 25 9 38t18.5 26.5t38.5 13.5q18 0 29.5 -15t14.5 -28t7 -37q3 -21 27 -192t35 -256zM141 380l-21 -129q9 0 30.5 0.5t32.5 0.5l-26 219z" />
    <glyph glyph-name="Abreve" unicode="&#x102;" horiz-adv-x="345" 
d="M203 742q-47 0 -73 24.5t-26 56.5q0 8 3 13q10 10 23 10q22 0 28 -16q18 -36 43 -36q13 0 26 13.5t21 30.5q5 10 20 10q23 0 33 -20q2 -2 0 -6q-1 -3 -3 -8.5t-10 -19.5t-18 -24.5t-28 -19t-39 -8.5zM333 58q2 -8 2 -13q0 -19 -14.5 -30t-38.5 -12q-20 0 -23 26l-29 221
l-102 -1l-2 -10q-1 -8 -4 -24.5t-4 -25.5q-20 -142 -30 -165q-6 -4 -25.5 -11.5t-27.5 -7.5q-21 0 -21 28q0 11 3 22l23 134q59 331 76 412l3 13q5 20 8.5 31t11.5 26.5t22.5 22.5t34.5 7q49 0 61 -97q0 -2 52 -370zM161 442l-22 -131q12 0 41 0.5t42 0.5l-36 277
q0 -1 -25 -147z" />
    <glyph glyph-name="abreve" unicode="&#x103;" horiz-adv-x="298" 
d="M165 628q-47 0 -73 24.5t-26 56.5q0 9 3 13q10 10 23 10q22 0 28 -16q18 -36 43 -36q13 0 26 13.5t21 30.5q5 10 20 10q23 0 33 -20q2 -2 0 -6q-1 -3 -3 -8.5t-10 -19.5t-18 -24.5t-28 -19t-39 -8.5zM278 49q1 -4 1 -11q0 -33 -46 -35q-21 0 -21 21l-22 170
q-13 0 -40.5 -0.5t-39.5 -0.5l-5 -34q-18 -122 -25 -138q-5 -4 -22.5 -10t-24.5 -6q-19 0 -19 24q0 10 3 19l15 88q54 298 67 363q5 25 9 38t18.5 26.5t38.5 13.5q18 0 29.5 -15t14.5 -28t7 -37q3 -21 27 -192t35 -256zM141 380l-21 -129q9 0 30.5 0.5t32.5 0.5l-26 219z
" />
    <glyph glyph-name="Aogonek" unicode="&#x104;" horiz-adv-x="345" 
d="M342 -37q27 0 27 -29q0 -34 -16 -54q-24 -30 -71 -30q-30 0 -50.5 17.5t-20.5 48.5q0 57 49 108q-1 2 -1 5l-29 221l-102 -1l-2 -10q-1 -8 -4 -24.5t-4 -25.5q-20 -142 -30 -165q-6 -4 -25.5 -11.5t-27.5 -7.5q-21 0 -21 28q0 11 3 22l23 134q59 331 76 412l3 13
q5 20 8.5 31t11.5 26.5t22.5 22.5t34.5 7q49 0 61 -97q0 -2 52 -370l24 -176q2 -8 2 -13q0 -18 -13 -29q-1 -3 -7 -15q-7 -13 -30 -47q-11 -17 -11 -34q0 -21 14 -21q15 0 20.5 9t8.5 28q5 27 25 27zM161 442l-22 -131q12 0 41 0.5t42 0.5l-36 277q0 -1 -25 -147z" />
    <glyph glyph-name="aogonek" unicode="&#x105;" horiz-adv-x="298" 
d="M288 -37q27 0 27 -29q0 -34 -16 -54q-24 -30 -71 -30q-30 0 -50.5 17.5t-20.5 48.5q0 62 54 114l-21 164q-13 0 -40.5 -0.5t-39.5 -0.5l-5 -34q-18 -122 -25 -138q-5 -4 -22.5 -10t-24.5 -6q-19 0 -19 24q0 10 3 19l15 88q54 298 67 363q5 25 9 38t18.5 26.5t38.5 13.5
q18 0 29.5 -15t14.5 -28t7 -37q3 -21 27 -192t35 -256q1 -4 1 -11q0 -19 -13 -27l-5 -10q-7 -13 -30 -47q-11 -17 -11 -34q0 -21 14 -21q15 0 20.5 9t8.5 28q5 27 25 27zM141 380l-21 -129q9 0 30.5 0.5t32.5 0.5l-26 219z" />
    <glyph glyph-name="Cacute" unicode="&#x106;" horiz-adv-x="340" 
d="M241 840q7 -6 7 -14t-9 -22q-16 -20 -47.5 -46t-42.5 -26q-33 0 -33 20q0 15 20 40l4 4q3 5 8 11.5t11.5 13.5t13.5 13.5t13 10.5q12 6 17 6q23 0 38 -11zM313 515q-12 -17 -42 -17q-19 0 -27 8q-2 7 -5.5 33t-7.5 44.5t-18 34.5t-37 16q-30 0 -48.5 -42.5t-18.5 -87.5
q0 -27 -1 -44q-2 -56 -2 -108l3 -101q0 -186 72 -186q28 0 49.5 25t21.5 64v40q2 12 13 19t23 7q22 0 29 -12t7 -35q0 -54 -9 -78q-41 -97 -136 -97q-68 0 -102.5 43t-41.5 114q-8 91 -8 244q0 108 15 176q28 124 141 124q85 0 117 -91q14 -41 14 -89z" />
    <glyph glyph-name="cacute" unicode="&#x107;" horiz-adv-x="291" 
d="M210 728q7 -6 7 -14t-9 -22q-16 -20 -47.5 -46t-42.5 -26q-32 0 -32 20q0 16 19 40l3 4q4 5 9 11.5t11.5 13.5t13.5 13.5t13 10.5q12 6 17 6q23 0 38 -11zM262 424q-11 -13 -35 -13q-26 0 -31 8q-3 12 -3 28q-2 21 -4.5 32.5t-13 24t-28.5 12.5q-23 0 -35.5 -31.5
t-12.5 -67.5q0 -4 -0.5 -16t-0.5 -20q-1 -23 -1 -89v-71q0 -154 53 -154q55 0 55 65v10v13v11q2 11 13.5 16.5t22.5 5.5q20 0 25.5 -10t5.5 -30q0 -47 -7 -66q-36 -78 -114 -78q-109 0 -119 124q-7 80 -7 203q0 91 12 145q12 59 42.5 81t75.5 22q70 0 97 -75q13 -35 10 -80z
" />
    <glyph glyph-name="Cdotaccent" unicode="&#x10a;" horiz-adv-x="340" 
d="M155 833q25 9 35 9q21 0 28 -11.5t7 -34.5q0 -20 -11.5 -31t-31.5 -11q-18 0 -30.5 16t-12.5 34q0 20 16 29zM313 515q-12 -17 -42 -17q-19 0 -27 8q-2 7 -5.5 33t-7.5 44.5t-18 34.5t-37 16q-30 0 -48.5 -42.5t-18.5 -87.5q0 -27 -1 -44q-2 -56 -2 -108l3 -101
q0 -186 72 -186q28 0 49.5 25t21.5 64v40q2 12 13 19t23 7q22 0 29 -12t7 -35q0 -54 -9 -78q-41 -97 -136 -97q-68 0 -102.5 43t-41.5 114q-8 91 -8 244q0 108 15 176q28 124 141 124q85 0 117 -91q14 -41 14 -89z" />
    <glyph glyph-name="cdotaccent" unicode="&#x10b;" horiz-adv-x="291" 
d="M125 721q25 9 35 9q21 0 28 -11.5t7 -34.5q0 -20 -11.5 -31t-31.5 -11q-18 0 -30 16t-12 34q0 19 15 29zM262 424q-11 -13 -35 -13q-26 0 -31 8q-3 12 -3 28q-2 21 -4.5 32.5t-13 24t-28.5 12.5q-23 0 -35.5 -31.5t-12.5 -67.5q0 -4 -0.5 -16t-0.5 -20q-1 -23 -1 -89v-71
q0 -154 53 -154q55 0 55 65v10v13v11q2 11 13.5 16.5t22.5 5.5q20 0 25.5 -10t5.5 -30q0 -47 -7 -66q-36 -78 -114 -78q-109 0 -119 124q-7 80 -7 203q0 91 12 145q12 59 42.5 81t75.5 22q70 0 97 -75q13 -35 10 -80z" />
    <glyph glyph-name="Ccaron" unicode="&#x10c;" horiz-adv-x="340" 
d="M282 827q0 -7 -2 -9q-77 -77 -98 -78q-23 1 -70 44l-26 21q-7 7 -7 18q0 8 3 13q14 14 26 14q8 0 30 -15l41 -31q33 29 53 40q10 6 16 6q26 0 34 -23zM313 515q-12 -17 -42 -17q-19 0 -27 8q-2 7 -5.5 33t-7.5 44.5t-18 34.5t-37 16q-30 0 -48.5 -42.5t-18.5 -87.5
q0 -27 -1 -44q-2 -56 -2 -108l3 -101q0 -186 72 -186q28 0 49.5 25t21.5 64v40q2 12 13 19t23 7q22 0 29 -12t7 -35q0 -54 -9 -78q-41 -97 -136 -97q-68 0 -102.5 43t-41.5 114q-8 91 -8 244q0 108 15 176q28 124 141 124q85 0 117 -91q14 -41 14 -89z" />
    <glyph glyph-name="ccaron" unicode="&#x10d;" horiz-adv-x="291" 
d="M252 715q0 -7 -2 -9q-77 -77 -98 -78q-23 1 -70 44l-26 21q-7 7 -7 18q0 9 3 13q14 14 26 14q8 0 30 -15l41 -31q33 29 53 40q10 6 16 6q26 0 34 -23zM262 424q-11 -13 -35 -13q-26 0 -31 8q-3 12 -3 28q-2 21 -4.5 32.5t-13 24t-28.5 12.5q-23 0 -35.5 -31.5
t-12.5 -67.5q0 -4 -0.5 -16t-0.5 -20q-1 -23 -1 -89v-71q0 -154 53 -154q55 0 55 65v10v13v11q2 11 13.5 16.5t22.5 5.5q20 0 25.5 -10t5.5 -30q0 -47 -7 -66q-36 -78 -114 -78q-109 0 -119 124q-7 80 -7 203q0 91 12 145q12 59 42.5 81t75.5 22q70 0 97 -75q13 -35 10 -80z
" />
    <glyph glyph-name="Dcaron" unicode="&#x10e;" horiz-adv-x="373" 
d="M276 828q0 -7 -2 -9q-77 -77 -98 -78q-23 1 -70 44l-26 21q-7 7 -7 18q0 8 3 13q14 14 26 14q8 0 30 -15l41 -31q33 29 53 40q10 6 16 6q26 0 34 -23zM61 687q21 4 37 4q56 0 101.5 -26.5t73.5 -66.5t47 -90t26.5 -93.5t7.5 -79.5q0 -288 -211 -325q-30 -5 -50 -5
q-48 0 -51 30q-10 87 -10 333q0 62 1.5 145t1.5 102v10q0 21 1 30.5t7 19t18 12.5zM118 617q-1 -84 -1 -213q0 -265 2 -335v-7q45 2 78 30.5t50 72t24.5 86t7.5 83.5q0 53 -19 119.5t-56 119t-79 52.5q-3 0 -7 -1v-7z" />
    <glyph glyph-name="dcaron" unicode="&#x10f;" horiz-adv-x="419" 
d="M60 575q16 4 34 4q58 0 102 -33t67 -82.5t34 -96.5t11 -87q0 -241 -177 -271q-24 -4 -42 -4q-42 0 -46 26q-7 70 -7 216v62q0 55 1 127t1 86q0 17 1 25.5t6 17t15 10.5zM327 566q18 11 38 11q23 0 30.5 -13t7.5 -38q0 -16 -14.5 -57t-25.5 -56q-11 -11 -22 -11t-19 10
t-8 16q13 46 14 63q-19 15 -19 44q0 22 18 31zM111 510q-1 -71 -1 -172q0 -76 0.5 -136.5t1 -93.5t0.5 -40v-4q45 6 74 44.5t39 82t10 89.5q0 45 -13.5 98t-42 95t-63.5 42h-5v-5z" />
    <glyph glyph-name="Dcroat" unicode="&#x110;" horiz-adv-x="373" 
d="M98 691q56 0 101.5 -26.5t73.5 -66.5t47 -90t26.5 -93.5t7.5 -79.5q0 -288 -211 -325q-30 -5 -50 -5q-48 0 -51 30q-10 82 -10 281h-40q-24 0 -24 39q0 13 7 21.5t18 8.5h39q0 57 1.5 134.5t1.5 95.5v10q0 21 1 30.5t7 19t18 12.5q21 4 37 4zM119 62q45 2 78 30.5t50 72
t24.5 86t7.5 83.5q0 53 -19 119.5t-56 119t-79 52.5q-3 0 -7 -1v-7q-1 -84 -1 -213v-19h103q10 0 17.5 -8.5t7.5 -21.5q-3 -39 -22 -39h-106q0 -187 2 -247v-7z" />
    <glyph glyph-name="dcroat" unicode="&#x111;" horiz-adv-x="330" 
d="M94 579q58 0 102 -33t67 -82.5t34 -96.5t11 -87q0 -241 -177 -271q-24 -4 -42 -4q-42 0 -46 26q-7 70 -7 216v18h-45q-19 0 -19 36q0 13 6 21t14 8h44q0 49 1 114t1 78q0 17 1 25.5t6 17t15 10.5q16 4 34 4zM112 64q45 6 74 44.5t39 82t10 89.5q0 45 -13.5 98t-42 95
t-63.5 42h-5v-5q-1 -71 -1 -172v-8h64q8 0 14 -8.5t6 -20.5q-3 -36 -18 -36h-66l2 -197v-4z" />
    <glyph glyph-name="Emacron" unicode="&#x112;" horiz-adv-x="267" 
d="M256 784q-5 -35 -23 -35h-166q-26 0 -26 36q0 11 8 19t19 8h162q10 0 18 -9t8 -19zM107 621q-2 -1 -2 -76q0 -35 -0.5 -69t-0.5 -38v-22l1 -33q5 -1 37 -1h48q30 0 37.5 -7t7.5 -30q0 -17 -10.5 -26t-24.5 -9h-61q-17 0 -23 -2.5t-6 -11.5v-47q0 -87 -1 -125l-1 -60
l15 -2q25 0 30 1q7 0 23.5 1.5t22.5 1.5q37 0 44 -13q4 -8 4 -21q0 -12 -9 -19.5t-20 -8.5q-75 -7 -130 -7q-33 0 -45 10t-12 39v53q3 86 3 349q0 119 1 127q0 3 0.5 9.5t0.5 10.5q2 63 17 87q11 14 67 14q6 0 16 -0.5t16 -0.5h31q40 0 53 -5.5t13 -29.5q0 -22 -12 -30
t-53 -8h-9z" />
    <glyph glyph-name="emacron" unicode="&#x113;" horiz-adv-x="232" 
d="M237 671q-5 -35 -23 -35h-166q-26 0 -26 36q0 11 8 19t19 8h162q10 0 18 -9t8 -19zM100 510q-1 0 -1 -58q0 -30 -0.5 -57t-0.5 -29v-17q0 -26 -1 -26q2 -1 53 -1h13q25 0 31 -8t6 -28q0 -30 -30 -30h-50q-11 0 -14 -2t-3 -8q0 -10 0.5 -33.5t0.5 -36.5t-0.5 -37t-0.5 -35
q0 -10 -0.5 -24.5t-0.5 -18.5h30q5 0 18.5 1.5t18.5 1.5q32 0 38 -13q3 -6 3 -24q0 -10 -7.5 -16.5t-16.5 -7.5q-54 -6 -109 -6q-28 0 -38 8.5t-10 33.5v47q3 79 3 310l1 97q2 50 15 74q7 10 83 10h26q23 0 33 -1.5t16 -8t6 -20.5q0 -20 -10 -27t-44 -7h-8z" />
    <glyph glyph-name="Edotaccent" unicode="&#x116;" horiz-adv-x="267" 
d="M117 834q25 9 35 9q21 0 28 -11.5t7 -34.5q0 -20 -11.5 -31t-31.5 -11q-18 0 -30.5 16t-12.5 34q0 20 16 29zM107 621q-2 -1 -2 -76q0 -35 -0.5 -69t-0.5 -38v-22l1 -33q5 -1 37 -1h48q30 0 37.5 -7t7.5 -30q0 -17 -10.5 -26t-24.5 -9h-61q-17 0 -23 -2.5t-6 -11.5v-47
q0 -87 -1 -125l-1 -60l15 -2q25 0 30 1q7 0 23.5 1.5t22.5 1.5q37 0 44 -13q4 -8 4 -21q0 -12 -9 -19.5t-20 -8.5q-75 -7 -130 -7q-33 0 -45 10t-12 39v53q3 86 3 349q0 119 1 127q0 3 0.5 9.5t0.5 10.5q2 63 17 87q11 14 67 14q6 0 16 -0.5t16 -0.5h31q40 0 53 -5.5
t13 -29.5q0 -22 -12 -30t-53 -8h-9z" />
    <glyph glyph-name="edotaccent" unicode="&#x117;" horiz-adv-x="232" 
d="M98 721q25 9 35 9q21 0 28 -11.5t7 -34.5q0 -20 -11.5 -31t-31.5 -11q-18 0 -30 16t-12 34q0 19 15 29zM100 510q-1 0 -1 -58q0 -30 -0.5 -57t-0.5 -29v-17q0 -26 -1 -26q2 -1 53 -1h13q25 0 31 -8t6 -28q0 -30 -30 -30h-50q-11 0 -14 -2t-3 -8q0 -10 0.5 -33.5
t0.5 -36.5t-0.5 -37t-0.5 -35q0 -10 -0.5 -24.5t-0.5 -18.5h30q5 0 18.5 1.5t18.5 1.5q32 0 38 -13q3 -6 3 -24q0 -10 -7.5 -16.5t-16.5 -7.5q-54 -6 -109 -6q-28 0 -38 8.5t-10 33.5v47q3 79 3 310l1 97q2 50 15 74q7 10 83 10h26q23 0 33 -1.5t16 -8t6 -20.5
q0 -20 -10 -27t-44 -7h-8z" />
    <glyph glyph-name="Eogonek" unicode="&#x118;" horiz-adv-x="267" 
d="M199 66q37 0 44 -13q4 -8 4 -21q0 -12 -9 -19.5t-20 -8.5q-34 -3 -44 -4q-1 -1 -1.5 -3t-1.5 -3.5t-1.5 -3t-1.5 -2.5q-7 -13 -30 -47q-11 -16 -11 -34q0 -21 14 -21q15 0 20.5 9t8.5 28q4 27 25 27q27 0 27 -29q0 -34 -16 -54q-24 -30 -71 -30q-30 0 -50.5 17.5
t-20.5 48.5q0 47 37 94h-13q-33 0 -45 10t-12 39v53q3 86 3 349q0 119 1 127q0 3 0.5 9.5t0.5 10.5q2 63 17 87q11 14 67 14q6 0 16 -0.5t16 -0.5h31q40 0 53 -5.5t13 -29.5q0 -22 -12 -30t-53 -8h-9l-68 -1q-2 -1 -2 -76q0 -35 -0.5 -69t-0.5 -38v-22l1 -33q5 -1 37 -1h48
q30 0 37.5 -7t7.5 -30q0 -17 -10.5 -26t-24.5 -9h-61q-17 0 -23 -2.5t-6 -11.5v-47q0 -87 -1 -125l-1 -60l15 -2q25 0 30 1q7 0 23.5 1.5t22.5 1.5z" />
    <glyph glyph-name="eogonek" unicode="&#x119;" horiz-adv-x="232" 
d="M156 -9q-7 -13 -30 -47q-11 -16 -11 -34q0 -21 14 -21q15 0 20.5 9t8.5 28q4 27 25 27q27 0 27 -29q0 -34 -16 -54q-24 -30 -71 -30q-30 0 -50.5 17.5t-20.5 48.5q0 45 34 91h-9q-28 0 -38 8.5t-10 33.5v47q3 79 3 310l1 97q2 50 15 74q7 10 83 10h26q23 0 33 -1.5t16 -8
t6 -20.5q0 -20 -10 -27t-44 -7h-8l-50 -3q-1 0 -1 -58q0 -30 -0.5 -57t-0.5 -29v-17q0 -26 -1 -26q2 -1 53 -1h13q25 0 31 -8t6 -28q0 -30 -30 -30h-50q-11 0 -14 -2t-3 -8q0 -10 0.5 -33.5t0.5 -36.5t-0.5 -37t-0.5 -35q0 -10 -0.5 -24.5t-0.5 -18.5h30q5 0 18.5 1.5
t18.5 1.5q32 0 38 -13q3 -6 3 -24q0 -10 -7.5 -16.5t-16.5 -7.5q-14 -2 -25 -2z" />
    <glyph glyph-name="Ecaron" unicode="&#x11a;" horiz-adv-x="267" 
d="M244 828q0 -7 -2 -9q-77 -77 -98 -78q-23 1 -70 44l-26 21q-7 7 -7 18q0 8 3 13q14 14 26 14q8 0 30 -15l41 -31q33 29 53 40q10 6 16 6q26 0 34 -23zM107 621q-2 -1 -2 -76q0 -35 -0.5 -69t-0.5 -38v-22l1 -33q5 -1 37 -1h48q30 0 37.5 -7t7.5 -30q0 -17 -10.5 -26
t-24.5 -9h-61q-17 0 -23 -2.5t-6 -11.5v-47q0 -87 -1 -125l-1 -60l15 -2q25 0 30 1q7 0 23.5 1.5t22.5 1.5q37 0 44 -13q4 -8 4 -21q0 -12 -9 -19.5t-20 -8.5q-75 -7 -130 -7q-33 0 -45 10t-12 39v53q3 86 3 349q0 119 1 127q0 3 0.5 9.5t0.5 10.5q2 63 17 87q11 14 67 14
q6 0 16 -0.5t16 -0.5h31q40 0 53 -5.5t13 -29.5q0 -22 -12 -30t-53 -8h-9z" />
    <glyph glyph-name="ecaron" unicode="&#x11b;" horiz-adv-x="232" 
d="M225 715q0 -7 -2 -9q-77 -77 -98 -78q-23 1 -70 44l-26 21q-7 7 -7 18q0 9 3 13q14 14 26 14q8 0 30 -15l41 -31q33 29 53 40q10 6 16 6q26 0 34 -23zM100 510q-1 0 -1 -58q0 -30 -0.5 -57t-0.5 -29v-17q0 -26 -1 -26q2 -1 53 -1h13q25 0 31 -8t6 -28q0 -30 -30 -30h-50
q-11 0 -14 -2t-3 -8q0 -10 0.5 -33.5t0.5 -36.5t-0.5 -37t-0.5 -35q0 -10 -0.5 -24.5t-0.5 -18.5h30q5 0 18.5 1.5t18.5 1.5q32 0 38 -13q3 -6 3 -24q0 -10 -7.5 -16.5t-16.5 -7.5q-54 -6 -109 -6q-28 0 -38 8.5t-10 33.5v47q3 79 3 310l1 97q2 50 15 74q7 10 83 10h26
q23 0 33 -1.5t16 -8t6 -20.5q0 -20 -10 -27t-44 -7h-8z" />
    <glyph glyph-name="Gbreve" unicode="&#x11e;" horiz-adv-x="399" 
d="M285 827q2 -2 0 -6q-1 -3 -3 -8.5t-10 -19.5t-18 -24.5t-28 -19t-39 -8.5q-47 0 -73 24.5t-26 56.5q0 8 3 13q10 10 23 10q22 0 28 -16q18 -36 43 -36q13 0 26 13.5t21 30.5q5 10 20 10q23 0 33 -20zM207 277q-24 7 -24 36q0 12 9 18q13 11 51 11h50q7 0 24 1t26 1
q42 0 53 -7q2 -4 2 -15q0 -17 -6 -27q-9 -14 -29 -16q-11 -2 -37 -4v-17q0 -6 0.5 -19t0.5 -20q0 -45 -5 -78t-19 -68.5t-45 -54.5t-78 -19q-71 0 -110 49.5t-39 123.5q0 51 -1 96q-5 210 -5 225q0 73 19 124q14 37 52 64.5t84 27.5q22 0 49 -10.5t37 -19.5q21 -21 32 -48.5
t13 -46t4 -60.5q-2 -8 -17 -14.5t-26 -6.5q-29 0 -31 42q0 10 -2 23q-3 19 -5 28.5t-8.5 24.5t-19 22t-30.5 7q-60 0 -70 -114q-1 -11 -1 -81q0 -43 2 -145q2 -98 2 -136t19.5 -75t49.5 -37q36 0 56.5 36.5t20.5 85.5q0 13 -0.5 34t-0.5 30v25q-15 0 -47 4z" />
    <glyph glyph-name="gbreve" unicode="&#x11f;" horiz-adv-x="341" 
d="M262 714q2 -2 0 -6q-1 -3 -3 -8.5t-10 -19.5t-18 -24.5t-28 -19t-39 -8.5q-47 0 -73 24.5t-26 56.5q0 9 3 13q10 10 23 10q22 0 28 -16q18 -36 43 -36q13 0 26 13.5t21 30.5q5 10 20 10q23 0 33 -20zM193 478q-10 41 -38 41q-24 0 -35.5 -25t-13.5 -58q-1 -9 -1 -66
q0 -34 2 -114v-107q0 -32 12.5 -60.5t35.5 -28.5q28 0 42 25.5t14 64.5q0 7 -0.5 20t-0.5 18v33q-20 2 -32 4q-21 8 -21 30q0 15 9 22q13 8 41 8q9 0 23 0.5t20 0.5h38q26 0 39 -6q8 -4 8 -12q0 -20 -3 -26q-8 -12 -28 -16q-16 -3 -27 -3v-10q0 -5 0.5 -16t0.5 -17
q0 -36 -4 -63.5t-15.5 -56.5t-37.5 -45t-64 -16q-59 0 -91 41t-32 101q0 38 -1 74q-4 136 -4 186q0 63 15 102q11 31 43 53t70 22q18 0 40.5 -8.5t29.5 -16.5q24 -25 31 -52.5t9 -74.5q-5 -18 -38 -18q-16 0 -25 20q-7 28 -11 50z" />
    <glyph glyph-name="Gdotaccent" unicode="&#x120;" horiz-adv-x="399" 
d="M152 834q25 9 35 9q21 0 28 -11.5t7 -34.5q0 -20 -11.5 -31t-31.5 -11q-18 0 -30.5 16t-12.5 34q0 20 16 29zM207 277q-24 7 -24 36q0 12 9 18q13 11 51 11h50q7 0 24 1t26 1q42 0 53 -7q2 -4 2 -15q0 -17 -6 -27q-9 -14 -29 -16q-11 -2 -37 -4v-17q0 -6 0.5 -19t0.5 -20
q0 -45 -5 -78t-19 -68.5t-45 -54.5t-78 -19q-71 0 -110 49.5t-39 123.5q0 51 -1 96q-5 210 -5 225q0 73 19 124q14 37 52 64.5t84 27.5q22 0 49 -10.5t37 -19.5q21 -21 32 -48.5t13 -46t4 -60.5q-2 -8 -17 -14.5t-26 -6.5q-29 0 -31 42q0 10 -2 23q-3 19 -5 28.5t-8.5 24.5
t-19 22t-30.5 7q-60 0 -70 -114q-1 -11 -1 -81q0 -43 2 -145q2 -98 2 -136t19.5 -75t49.5 -37q36 0 56.5 36.5t20.5 85.5q0 13 -0.5 34t-0.5 30v25q-15 0 -47 4z" />
    <glyph glyph-name="gdotaccent" unicode="&#x121;" horiz-adv-x="341" 
d="M129 721q25 9 35 9q21 0 28 -11.5t7 -34.5q0 -20 -11.5 -31t-31.5 -11q-18 0 -30 16t-12 34q0 19 15 29zM193 478q-10 41 -38 41q-24 0 -35.5 -25t-13.5 -58q-1 -9 -1 -66q0 -34 2 -114v-107q0 -32 12.5 -60.5t35.5 -28.5q28 0 42 25.5t14 64.5q0 7 -0.5 20t-0.5 18v33
q-20 2 -32 4q-21 8 -21 30q0 15 9 22q13 8 41 8q9 0 23 0.5t20 0.5h38q26 0 39 -6q8 -4 8 -12q0 -20 -3 -26q-8 -12 -28 -16q-16 -3 -27 -3v-10q0 -5 0.5 -16t0.5 -17q0 -36 -4 -63.5t-15.5 -56.5t-37.5 -45t-64 -16q-59 0 -91 41t-32 101q0 38 -1 74q-4 136 -4 186
q0 63 15 102q11 31 43 53t70 22q18 0 40.5 -8.5t29.5 -16.5q24 -25 31 -52.5t9 -74.5q-5 -18 -38 -18q-16 0 -25 20q-7 28 -11 50z" />
    <glyph glyph-name="Gcommaaccent" unicode="&#x122;" horiz-adv-x="399" 
d="M207 277q-24 7 -24 36q0 12 9 18q13 11 51 11h50q7 0 24 1t26 1q42 0 53 -7q2 -4 2 -15q0 -17 -6 -27q-9 -14 -29 -16q-11 -2 -37 -4v-17q0 -6 0.5 -19t0.5 -20q0 -45 -5 -78t-19 -68.5t-45 -54.5t-78 -19q-71 0 -110 49.5t-39 123.5q0 51 -1 96q-5 210 -5 225
q0 73 19 124q14 37 52 64.5t84 27.5q22 0 49 -10.5t37 -19.5q21 -21 32 -48.5t13 -46t4 -60.5q-2 -8 -17 -14.5t-26 -6.5q-29 0 -31 42q0 10 -2 23q-3 19 -5 28.5t-8.5 24.5t-19 22t-30.5 7q-60 0 -70 -114q-1 -11 -1 -81q0 -43 2 -145q2 -98 2 -136t19.5 -75t49.5 -37
q36 0 56.5 36.5t20.5 85.5q0 13 -0.5 34t-0.5 30v25q-15 0 -47 4zM152 -52q22 12 41 12q25 0 33.5 -14.5t8.5 -41.5q0 -17 -16 -62t-28 -62q-10 -12 -24 -12q-12 0 -20.5 11t-8.5 18q14 52 15 68q-21 17 -21 49q0 23 20 34z" />
    <glyph glyph-name="gcommaaccent" unicode="&#x123;" horiz-adv-x="341" 
d="M191 625q-22 -12 -41 -12q-25 0 -33.5 14.5t-8.5 41.5q0 17 16 62t28 62q10 12 24 12q12 0 20.5 -11t8.5 -18q-14 -52 -15 -68q21 -16 21 -49q0 -23 -20 -34zM193 478q-10 41 -38 41q-24 0 -35.5 -25t-13.5 -58q-1 -9 -1 -66q0 -34 2 -114v-107q0 -32 12.5 -60.5
t35.5 -28.5q28 0 42 25.5t14 64.5q0 7 -0.5 20t-0.5 18v33q-20 2 -32 4q-21 8 -21 30q0 15 9 22q13 8 41 8q9 0 23 0.5t20 0.5h38q26 0 39 -6q8 -4 8 -12q0 -20 -3 -26q-8 -12 -28 -16q-16 -3 -27 -3v-10q0 -5 0.5 -16t0.5 -17q0 -36 -4 -63.5t-15.5 -56.5t-37.5 -45
t-64 -16q-59 0 -91 41t-32 101q0 38 -1 74q-4 136 -4 186q0 63 15 102q11 31 43 53t70 22q18 0 40.5 -8.5t29.5 -16.5q24 -25 31 -52.5t9 -74.5q-5 -18 -38 -18q-16 0 -25 20q-7 28 -11 50z" />
    <glyph glyph-name="Hbar" unicode="&#x126;" horiz-adv-x="322" 
d="M312 552q11 0 18.5 -8t7.5 -20q-3 -37 -23 -37h-9q-2 -325 -6 -466q-20 -16 -49 -16q-28 0 -28 16v124q0 23 0.5 67t0.5 61l-116 -1v-152q0 -26 -0.5 -39.5t-3 -33t-9 -30t-16.5 -12.5h-15q-33 0 -33 34t0.5 91t0.5 81v110q0 123 -1 166h-15q-25 0 -25 37q0 13 7.5 20.5
t18.5 7.5h14v30q0 61 2 87q2 25 39 25q13 0 26 -7.5t13 -17.5q-1 -42 -1 -117h118l2 124q0 10 10.5 18t24.5 8q19 0 40 -21q1 -37 1 -128v-1h6zM225 339l2 148h-118q-1 -58 -1 -146q14 1 49 1q38 0 68 -3z" />
    <glyph glyph-name="hbar" unicode="&#x127;" horiz-adv-x="300" 
d="M271 459q11 0 19 -8t8 -20q-3 -36 -24 -36h-12q-2 -296 -5 -376q-18 -14 -41 -14q-27 0 -27 14v102q0 21 0.5 59.5t0.5 53.5l-86 -1v-132q0 -21 -0.5 -32.5t-2.5 -28t-7.5 -25t-14.5 -10.5h-15q-28 0 -28 29q0 28 0.5 74.5t0.5 66.5v90v130h-10q-26 0 -26 36
q0 13 7.5 20.5t19.5 7.5h8v20q0 21 0.5 41.5t0.5 28.5q0 23 34 23q12 0 24 -6.5t12 -16.5q-1 -33 -1 -90h86l1 96q0 9 10.5 16t23.5 7q17 0 35 -17v-102h9zM190 293l1 102h-86q-1 -39 -1 -101q11 1 37 1q35 0 49 -2z" />
    <glyph glyph-name="Imacron" unicode="&#x12a;" horiz-adv-x="248" 
d="M244 784q-5 -35 -23 -35h-166q-26 0 -26 36q0 11 8 19t19 8h162q10 0 18 -9t8 -19zM20 668q6 20 26 29q166 0 177 -6q19 -12 19 -27q0 -11 -7 -24t-14 -13q-1 0 -11 -0.5t-19 -0.5q-3 0 -10.5 -0.5t-11.5 -0.5v-117q0 -154 -3 -269q-2 -94 -2 -124v-42h46q23 -8 27 -25
q0 -39 -18 -44q-5 -1 -33 -1q-53 0 -119 2q-6 0 -17.5 0.5t-12.5 0.5q-7 0 -14.5 15t-7.5 21q0 14 22 29q6 2 50 2v551h-15q-28 0 -33 1q-19 5 -19 43z" />
    <glyph glyph-name="imacron" unicode="&#x12b;" horiz-adv-x="210" 
d="M216 671q-5 -35 -23 -35h-166q-26 0 -26 36q0 11 8 19t19 8h162q10 0 18 -9t8 -19zM15 552q1 22 24 25q138 0 146 -4q16 -13 16 -25q0 -5 -6.5 -19t-11.5 -14h-22q-2 0 -9 -0.5t-11 -0.5v-94q0 -158 -1 -222l-1 -101v-31h35q18 -6 23 -25q0 -34 -15 -38q-9 -2 -126 1h-15
l-10 1q-6 0 -13 13t-7 18q0 13 18 28q3 2 40 2v447q-25 0 -37 2q-17 3 -17 37z" />
    <glyph glyph-name="Iogonek" unicode="&#x12e;" horiz-adv-x="248" 
d="M210 73q23 -8 27 -25q0 -39 -18 -44q-5 -1 -33 -1h-30q-3 -7 -6 -12q-7 -13 -30 -47q-11 -16 -11 -34q0 -21 14 -21q15 0 20.5 9t8.5 28q4 27 25 27q27 0 27 -29q0 -34 -16 -54q-24 -30 -71 -30q-30 0 -50.5 17.5t-20.5 48.5q0 51 40 98q-7 1 -19 1q-6 0 -17.5 0.5
t-12.5 0.5q-7 0 -14.5 15t-7.5 21q0 14 22 29q6 2 50 2v551h-15q-28 0 -33 1q-19 5 -19 43q6 20 26 29q166 0 177 -6q19 -12 19 -27q0 -11 -7 -24t-14 -13q-1 0 -11 -0.5t-19 -0.5q-3 0 -10.5 -0.5t-11.5 -0.5v-117q0 -154 -3 -269q-2 -94 -2 -124v-42h46z" />
    <glyph glyph-name="iogonek" unicode="&#x12f;" horiz-adv-x="210" 
d="M104 642q-18 0 -30 16t-12 34q0 19 15 29q25 9 35 9q21 0 28 -11.5t7 -34.5q0 -20 -11.5 -31t-31.5 -11zM174 66q18 -6 23 -25q0 -34 -15 -38q-5 -1 -54 -1q-9 -15 -29 -45q-11 -16 -11 -34q0 -21 14 -21q15 0 20.5 9t8.5 28q5 27 25 27q27 0 27 -29q0 -34 -16 -54
q-24 -30 -71 -30q-30 0 -50.5 17.5t-20.5 48.5q0 42 30 85h-15l-9 1q-6 0 -13 13t-7 18q0 13 18 28q3 2 40 2v447q-25 0 -37 2q-17 3 -17 37q1 22 24 25q138 0 146 -4q16 -13 16 -25q0 -5 -6.5 -19t-11.5 -14h-22q-2 0 -9 -0.5t-11 -0.5v-94q0 -158 -1 -222l-1 -101v-31h35z
" />
    <glyph glyph-name="Idotaccent" unicode="&#x130;" horiz-adv-x="248" 
d="M105 834q25 9 35 9q21 0 28 -11.5t7 -34.5q0 -20 -11.5 -31t-31.5 -11q-18 0 -30.5 16t-12.5 34q0 20 16 29zM20 668q6 20 26 29q166 0 177 -6q19 -12 19 -27q0 -11 -7 -24t-14 -13q-1 0 -11 -0.5t-19 -0.5q-3 0 -10.5 -0.5t-11.5 -0.5v-117q0 -154 -3 -269
q-2 -94 -2 -124v-42h46q23 -8 27 -25q0 -39 -18 -44q-5 -1 -33 -1q-53 0 -119 2q-6 0 -17.5 0.5t-12.5 0.5q-7 0 -14.5 15t-7.5 21q0 14 22 29q6 2 50 2v551h-15q-28 0 -33 1q-19 5 -19 43z" />
    <glyph glyph-name="dotlessi" unicode="&#x131;" horiz-adv-x="210" 
d="M15 552q1 22 24 25q138 0 146 -4q16 -13 16 -25q0 -5 -6.5 -19t-11.5 -14h-22q-2 0 -9 -0.5t-11 -0.5v-94q0 -158 -1 -222l-1 -101v-31h35q18 -6 23 -25q0 -34 -15 -38q-9 -2 -126 1h-15l-10 1q-6 0 -13 13t-7 18q0 13 18 28q3 2 40 2v447q-25 0 -37 2q-17 3 -17 37z" />
    <glyph glyph-name="Kcommaaccent" unicode="&#x136;" horiz-adv-x="304" 
d="M78 704q15 0 33 -12q4 -32 4 -86q0 -36 -2 -108q-2 -56 -2 -102l17 51q34 94 68 199q19 54 53 51q30 -4 30 -21q0 -23 -10 -46q-44 -106 -48 -117q-64 -160 -72 -175q12 -28 24 -47q40 -71 69 -137q53 -110 53 -140q0 -20 -46 -20q-11 0 -19 7t-12 14.5t-11 24.5
q-27 65 -103 223q-3 -64 -3 -223q0 -30 -9 -38t-29 -8q-37 0 -37 40q11 297 11 587q0 60 8 68q15 15 33 15zM118 -52q22 12 41 12q25 0 33.5 -14.5t8.5 -41.5q0 -17 -16 -62t-28 -62q-10 -12 -24 -12q-12 0 -20.5 11t-8.5 18q14 52 15 68q-21 17 -21 49q0 23 20 34z" />
    <glyph glyph-name="kcommaaccent" unicode="&#x137;" horiz-adv-x="282" 
d="M105 571q5 -35 5 -82q0 -20 -1.5 -58.5t-1.5 -57.5v-20q28 70 64 175q14 44 27 47q20 5 26 5q25 0 27 -24q2 -21 -12 -44q-3 -7 -14.5 -37.5t-20.5 -50.5q-11 -24 -30 -66.5t-25 -55.5q14 -31 29 -60.5t32 -62.5t26 -51l30 -60q12 -24 12 -46q0 -26 -36 -28h-5
q-22 0 -42 45q-28 55 -92 199v-19q0 -35 -2.5 -96t-2.5 -78q0 -30 -7.5 -37.5t-26.5 -7.5q-4 0 -24 5q-9 3 -9 35q9 299 9 466v9q0 1 -1 13.5t0 22t4 15.5q7 16 33 16q16 0 21 -4zM114 -52q22 12 41 12q25 0 33.5 -14.5t8.5 -41.5q0 -17 -16 -62t-28 -62q-10 -12 -24 -12
q-12 0 -20.5 11t-8.5 18q14 52 15 68q-21 17 -21 49q0 23 20 34z" />
    <glyph glyph-name="Lacute" unicode="&#x139;" horiz-adv-x="253" 
d="M165 841q7 -6 7 -14q0 -9 -9 -22q-16 -20 -47.5 -46t-42.5 -26q-33 0 -33 20q0 15 20 40l4 5q3 4 8 10.5t11.5 13.5t13.5 13.5t13 10.5q12 6 17 6q23 0 38 -11zM110 85l28 -2h49q40 0 58 -6q8 -3 8 -28q0 -26 -17 -35q-12 -7 -73 -7q-86 0 -104 7q-8 3 -14 8
q-10 9 -12 56q3 54 3 256q0 277 -4 345q16 24 35 24q10 0 28 -12q19 -13 19 -79q0 -428 -4 -527z" />
    <glyph glyph-name="lacute" unicode="&#x13a;" horiz-adv-x="222" 
d="M160 720q7 -6 7 -14t-9 -22q-16 -20 -47.5 -46t-42.5 -26q-33 0 -33 20q0 15 20 40l3 4q4 5 9 11.5t11.5 13.5t13.5 13.5t13 10.5q12 6 17 6q23 0 38 -11zM161 75q25 0 47 -4q8 -8 8 -29q0 -22 -9 -27q-16 -9 -68 -9h-9q-68 0 -88 12q-9 12 -9 48q2 58 2 202
q0 247 -3 291q12 20 30 20q28 0 36.5 -19t8.5 -64q0 -340 -2 -421h56z" />
    <glyph glyph-name="Lcommaaccent" unicode="&#x13b;" horiz-adv-x="253" 
d="M110 85l28 -2h49q40 0 58 -6q8 -3 8 -28q0 -26 -17 -35q-12 -7 -73 -7q-86 0 -104 7q-8 3 -14 8q-10 9 -12 56q3 54 3 256q0 277 -4 345q16 24 35 24q10 0 28 -12q19 -13 19 -79q0 -428 -4 -527zM93 -52q22 12 41 12q25 0 33.5 -14.5t8.5 -41.5q0 -17 -16 -62t-28 -62
q-10 -12 -24 -12q-12 0 -20.5 11t-8.5 18q14 52 15 68q-21 17 -21 49q0 23 20 34z" />
    <glyph glyph-name="lcommaaccent" unicode="&#x13c;" horiz-adv-x="222" 
d="M161 75q25 0 47 -4q8 -8 8 -29q0 -22 -9 -27q-16 -9 -68 -9h-9q-68 0 -88 12q-9 12 -9 48q2 58 2 202q0 247 -3 291q12 20 30 20q28 0 36.5 -19t8.5 -64q0 -340 -2 -421h56zM77 -52q22 12 41 12q25 0 33.5 -14.5t8.5 -41.5q0 -17 -16 -62t-28 -62q-10 -12 -24 -12
q-12 0 -20.5 11t-8.5 18q14 52 15 68q-21 17 -21 49q0 23 20 34z" />
    <glyph glyph-name="Lcaron" unicode="&#x13d;" horiz-adv-x="253" 
d="M112 93l28 -2h49q40 0 58 -6q8 -3 8 -28q0 -26 -17 -35q-12 -7 -73 -7q-86 0 -104 7q-8 3 -14 8q-10 9 -12 56q3 54 3 256q0 277 -4 345q16 24 35 24q10 0 28 -12q19 -13 19 -79q0 -428 -4 -527zM188 689q22 12 41 12q25 0 33.5 -14.5t8.5 -41.5q0 -17 -16 -62t-28 -62
q-10 -12 -24 -12q-12 0 -20.5 11t-8.5 18q14 52 15 68q-21 16 -21 49q0 23 20 34z" />
    <glyph glyph-name="lcaron" unicode="&#x13e;" horiz-adv-x="224" 
d="M163 83q25 0 47 -4q8 -8 8 -29q0 -22 -9 -27q-16 -9 -68 -9h-9q-68 0 -88 12q-9 12 -9 48q2 58 2 202q0 247 -3 291q12 20 30 20q28 0 36.5 -19t8.5 -64q0 -340 -2 -421h56zM164 566q18 11 38 11q23 0 30.5 -13t7.5 -38q0 -16 -14.5 -57t-25.5 -56q-11 -11 -22 -11
t-19 10t-8 16q13 46 14 63q-19 15 -19 44q0 22 18 31z" />
    <glyph glyph-name="Lslash" unicode="&#x141;" horiz-adv-x="253" 
d="M245 77q8 -3 8 -28q0 -26 -17 -35q-12 -7 -73 -7q-86 0 -104 7q-8 3 -14 8q-10 9 -12 56q1 34 3 169l-31 -29q-18 -17 -39 15q-8 10 -8 21t8 18l70 65q0 274 -4 342q16 24 35 24q10 0 28 -12q19 -13 19 -79v-202l71 66q17 15 35 -7q20 -32 7 -44l-114 -106
q0 -169 -3 -234l28 -2h49q40 0 58 -6z" />
    <glyph glyph-name="lslash" unicode="&#x142;" horiz-adv-x="222" 
d="M215 415q18 -30 6 -40l-114 -107q0 -32 -0.5 -75.5t-1 -73t-0.5 -44.5h56q25 0 47 -4q8 -8 8 -29q0 -22 -9 -27q-16 -9 -68 -9h-9q-68 0 -88 12q-9 12 -9 48q0 9 0.5 28t1 51t0.5 55l-12 -11q-15 -14 -35 14q-7 8 -7 18.5t7 16.5l47 44q0 235 -3 277q12 20 30 20
q28 0 36.5 -19t8.5 -64v-146l76 71q16 14 32 -6z" />
    <glyph glyph-name="Nacute" unicode="&#x143;" horiz-adv-x="378" 
d="M248 841q7 -6 7 -14q0 -9 -9 -22q-16 -20 -47.5 -46t-42.5 -26q-33 0 -33 20q0 15 20 40l3 5q4 4 9 10.5t11.5 13.5t13.5 13.5t13 10.5q12 6 17 6q23 0 38 -11zM35 649q2 17 18 28t41 11q21 -12 32 -57l3 -13q8 -28 42.5 -148.5t58.5 -197.5t45 -135q-4 85 -4 124
q0 29 -2.5 88.5t-2.5 82.5q0 16 -1 44.5t-1.5 50t-0.5 36.5v89q0 20 14 32.5t53 17.5q7 -11 10 -21q0 -13 2 -157q4 -220 4 -360q0 -90 -4 -106q-1 -15 -23.5 -27.5t-44.5 -12.5q-28 0 -35 18l-130 406q4 -82 4 -141l2 -274q-25 -23 -55 -23q-18 0 -22 41t-4 134v181
q0 259 1 289z" />
    <glyph glyph-name="nacute" unicode="&#x144;" horiz-adv-x="320" 
d="M217 728q7 -6 7 -14t-9 -22q-16 -20 -47.5 -46t-42.5 -26q-32 0 -32 20q0 16 19 40l4 4q3 5 8 11.5t11.5 13.5t13.5 13.5t13 10.5q12 6 17 6q23 0 38 -11zM33 534q1 33 50 33q4 -1 7 -3t6 -5.5t4.5 -7t3.5 -9.5t3.5 -10t3.5 -11.5t3 -11.5q87 -293 114 -366
q0 5 -0.5 12.5t-0.5 10.5q-2 32 -2 49q0 47 -2 141q0 14 -1 37t-1.5 40.5t-0.5 29.5v73q0 16 11.5 27t33.5 11q21 0 23 -13q0 -72 1 -130q1 -93 1 -296q0 -75 -4 -88q-4 -12 -21 -22t-34 -10q-25 0 -30 15l-103 297v-85q0 -55 1 -117.5t1 -101.5q-22 -20 -49 -20
q-21 0 -21 90q0 8 0.5 27t0.5 29v148q0 187 2 237z" />
    <glyph glyph-name="Ncommaaccent" unicode="&#x145;" horiz-adv-x="378" 
d="M35 649q2 17 18 28t41 11q21 -12 32 -57l3 -13q8 -28 42.5 -148.5t58.5 -197.5t45 -135q-4 85 -4 124q0 29 -2.5 88.5t-2.5 82.5q0 16 -1 44.5t-1.5 50t-0.5 36.5v89q0 20 14 32.5t53 17.5q7 -11 10 -21q0 -13 2 -157q4 -220 4 -360q0 -90 -4 -106q-1 -15 -23.5 -27.5
t-44.5 -12.5q-28 0 -35 18l-130 406q4 -82 4 -141l2 -274q-25 -23 -55 -23q-18 0 -22 41t-4 134v181q0 259 1 289zM155 -52q22 12 41 12q25 0 33.5 -14.5t8.5 -41.5q0 -17 -16 -62t-28 -62q-10 -12 -24 -12q-12 0 -20.5 11t-8.5 18q14 52 15 68q-21 17 -21 49q0 23 20 34z
" />
    <glyph glyph-name="ncommaaccent" unicode="&#x146;" horiz-adv-x="320" 
d="M33 534q1 33 50 33q4 -1 7 -3t6 -5.5t4.5 -7t3.5 -9.5t3.5 -10t3.5 -11.5t3 -11.5q87 -293 114 -366q0 5 -0.5 12.5t-0.5 10.5q-2 32 -2 49q0 47 -2 141q0 14 -1 37t-1.5 40.5t-0.5 29.5v73q0 16 11.5 27t33.5 11q21 0 23 -13q0 -72 1 -130q1 -93 1 -296q0 -75 -4 -88
q-4 -12 -21 -22t-34 -10q-25 0 -30 15l-103 297v-85q0 -55 1 -117.5t1 -101.5q-22 -20 -49 -20q-21 0 -21 90q0 8 0.5 27t0.5 29v148q0 187 2 237zM126 -52q22 12 41 12q25 0 33.5 -14.5t8.5 -41.5q0 -17 -16 -62t-28 -62q-10 -12 -24 -12q-12 0 -20.5 11t-8.5 18
q14 52 15 68q-21 17 -21 49q0 23 20 34z" />
    <glyph glyph-name="Ncaron" unicode="&#x147;" horiz-adv-x="378" 
d="M289 828q0 -7 -2 -9q-77 -77 -98 -78q-23 1 -70 44l-26 21q-7 7 -7 18q0 8 3 13q14 14 26 14q8 0 30 -15l41 -31q33 29 53 40q10 6 16 6q26 0 34 -23zM35 649q2 17 18 28t41 11q21 -12 32 -57l3 -13q8 -28 42.5 -148.5t58.5 -197.5t45 -135q-4 85 -4 124q0 29 -2.5 88.5
t-2.5 82.5q0 16 -1 44.5t-1.5 50t-0.5 36.5v89q0 20 14 32.5t53 17.5q7 -11 10 -21q0 -13 2 -157q4 -220 4 -360q0 -90 -4 -106q-1 -15 -23.5 -27.5t-44.5 -12.5q-28 0 -35 18l-130 406q4 -82 4 -141l2 -274q-25 -23 -55 -23q-18 0 -22 41t-4 134v181q0 259 1 289z" />
    <glyph glyph-name="ncaron" unicode="&#x148;" horiz-adv-x="320" 
d="M259 715q0 -7 -2 -9q-77 -77 -98 -78q-23 1 -70 44l-26 21q-7 7 -7 18q0 9 3 13q14 14 26 14q8 0 30 -15l41 -31q33 29 53 40q10 6 16 6q26 0 34 -23zM33 534q1 33 50 33q4 -1 7 -3t6 -5.5t4.5 -7t3.5 -9.5t3.5 -10t3.5 -11.5t3 -11.5q87 -293 114 -366q0 5 -0.5 12.5
t-0.5 10.5q-2 32 -2 49q0 47 -2 141q0 14 -1 37t-1.5 40.5t-0.5 29.5v73q0 16 11.5 27t33.5 11q21 0 23 -13q0 -72 1 -130q1 -93 1 -296q0 -75 -4 -88q-4 -12 -21 -22t-34 -10q-25 0 -30 15l-103 297v-85q0 -55 1 -117.5t1 -101.5q-22 -20 -49 -20q-21 0 -21 90q0 8 0.5 27
t0.5 29v148q0 187 2 237z" />
    <glyph glyph-name="Eng" unicode="&#x14a;" horiz-adv-x="375" 
d="M213 -70q23 0 32 14t9 45v36l-148 415q0 -9 1 -29t1 -31q2 -64 2 -79l5 -279q-17 -22 -50 -22q-32 0 -32 251v109q0 230 2 290q3 36 57 36q7 -4 12.5 -12t8 -15t6.5 -20.5t8 -22.5q75 -256 147 -462q0 67 -4 203q0 18 -3 95t-3 111v89q0 21 13 33.5t51 16.5q7 -11 10 -21
q0 -13 2 -157q3 -339 3 -360q0 -131 -7.5 -179t-26.5 -74q-35 -48 -104 -48q-38 0 -69 23q-7 9 -7 33q0 12 9.5 21.5t19.5 9.5q6 0 11 -4q22 -16 44 -16z" />
    <glyph glyph-name="eng" unicode="&#x14b;" horiz-adv-x="323" 
d="M184 -79q33 0 33 51v14q-25 71 -63 181t-58 166q0 -5 0.5 -17t0.5 -18q0 -13 0.5 -35t0.5 -27l6 -237q-24 -18 -48 -18q-28 0 -28 213v92q0 195 2 247q2 14 16 23.5t35 9.5q16 -10 30 -60q70 -236 121 -380q-1 56 -5 162q-7 138 -7 170v76q0 37 58 41l3 -1q3 -2 4.5 -5.5
t2.5 -10.5q0 -14 2 -132q5 -240 5 -305q0 -112 -6.5 -152.5t-22.5 -63.5q-29 -40 -89 -40q-37 0 -58 18q-8 8 -8 22q0 10 9 21.5t17 11.5q5 0 13 -6q12 -11 34 -11z" />
    <glyph glyph-name="Omacron" unicode="&#x14c;" horiz-adv-x="340" 
d="M291 784q-5 -35 -23 -35h-166q-26 0 -26 36q0 11 8 19t19 8h162q10 0 18 -9t8 -19zM317 530q0 -30 2 -80q1 -21 1 -70q0 -89 -6.5 -155t-22 -119t-43 -80.5t-67.5 -27.5q-53 0 -87 27t-50 105q-18 82 -18 204v129q0 37 7 75t23 78.5t50.5 66t82.5 25.5q54 0 90 -55.5
t38 -122.5zM175 62q34 0 49.5 88.5t15.5 214.5q0 11 1 39t1 49.5t-1 51t-5 51t-10.5 42t-19 31t-29.5 10.5q-21 0 -36 -20t-25.5 -87.5t-10.5 -182.5q0 -42 2 -82t8.5 -91t22 -82.5t37.5 -31.5z" />
    <glyph glyph-name="omacron" unicode="&#x14d;" horiz-adv-x="287" 
d="M255 671q-5 -35 -23 -35h-166q-26 0 -26 36q0 11 8 19t19 8h162q10 0 18 -9t8 -19zM264 439q0 -44 1 -66q1 -17 1 -58q0 -73 -5.5 -128t-18.5 -99t-36 -67t-57 -23q-44 0 -72.5 22.5t-41.5 87.5q-15 78 -15 170q0 11 0.5 31t0.5 29v46q0 31 6 62.5t19.5 65.5t42 55
t67.5 21q45 0 75.5 -46.5t32.5 -102.5zM145 58q48 0 48 245q0 123 -7 166q-3 20 -13.5 38t-26.5 18q-17 0 -28 -16t-19 -70.5t-8 -149.5q0 -231 54 -231z" />
    <glyph glyph-name="Ohungarumlaut" unicode="&#x150;" horiz-adv-x="340" 
d="M191 841q6 -5 6 -14q0 -8 -8 -22q-15 -19 -47 -45.5t-43 -26.5q-32 0 -32 20q0 19 19 40l4 5q3 4 8 10.5t11 13.5t13.5 13.5t13.5 10.5q12 6 16 6q24 0 39 -11zM299 841q7 -6 7 -14q0 -9 -9 -22q-16 -20 -47.5 -46t-42.5 -26q-32 0 -32 20q0 16 19 40l4 5q3 4 8 10.5
t11.5 13.5t13.5 13.5t13 10.5q12 6 17 6q23 0 38 -11zM317 530q0 -30 2 -80q1 -21 1 -70q0 -89 -6.5 -155t-22 -119t-43 -80.5t-67.5 -27.5q-53 0 -87 27t-50 105q-18 82 -18 204v129q0 37 7 75t23 78.5t50.5 66t82.5 25.5q54 0 90 -55.5t38 -122.5zM175 62q34 0 49.5 88.5
t15.5 214.5q0 11 1 39t1 49.5t-1 51t-5 51t-10.5 42t-19 31t-29.5 10.5q-21 0 -36 -20t-25.5 -87.5t-10.5 -182.5q0 -42 2 -82t8.5 -91t22 -82.5t37.5 -31.5z" />
    <glyph glyph-name="ohungarumlaut" unicode="&#x151;" horiz-adv-x="287" 
d="M172 728q6 -5 6 -14q0 -8 -8 -22q-15 -19 -47 -45.5t-43 -26.5q-32 0 -32 20q0 19 19 40l3 4q4 5 9 11.5t11 13.5t13.5 13.5t13.5 10.5q12 6 16 6q24 0 39 -11zM280 728q7 -6 7 -14t-9 -22q-16 -20 -47.5 -46t-42.5 -26q-32 0 -32 20q0 16 19 40l3 4q4 5 9 11.5
t11.5 13.5t13.5 13.5t13 10.5q12 6 17 6q23 0 38 -11zM264 439q0 -44 1 -66q1 -17 1 -58q0 -73 -5.5 -128t-18.5 -99t-36 -67t-57 -23q-44 0 -72.5 22.5t-41.5 87.5q-15 78 -15 170q0 11 0.5 31t0.5 29v46q0 31 6 62.5t19.5 65.5t42 55t67.5 21q45 0 75.5 -46.5t32.5 -102.5
zM145 58q48 0 48 245q0 123 -7 166q-3 20 -13.5 38t-26.5 18q-17 0 -28 -16t-19 -70.5t-8 -149.5q0 -231 54 -231z" />
    <glyph glyph-name="OE" unicode="&#x152;" horiz-adv-x="450" 
d="M346 623q-32 0 -53 -4l-1 -74q0 -35 -0.5 -69t-0.5 -38v-22v-39q7 -2 77 -2h9q45 0 45 -32q0 -30 -36 -30h-60q-29 0 -29 -14v-47q0 -89 -1 -128l-1 -60q0 -2 2 -2h12q26 0 31 1q5 0 22.5 1.5t23.5 1.5q38 0 43 -13q4 -8 4 -21q0 -12 -8.5 -19.5t-19.5 -8.5
q-75 -7 -131 -7q-27 0 -40 7q-18 -6 -47 -6q-52 0 -86 27t-50 105q-19 87 -19 204q0 13 0.5 38t0.5 36v55q0 231 162 231q26 0 56 -21q14 9 50 15.5t69 6.5q19 0 30.5 -1.5t23 -9.5t11.5 -24q0 -38 -64 -38h-9zM181 62q15 0 37 7v43q3 86 3 336q0 115 1 129q0 10 1 15
q-19 34 -40 34q-20 0 -35.5 -25.5t-26 -89.5t-10.5 -162q0 -41 2.5 -81.5t9 -91.5t21.5 -82.5t37 -31.5z" />
    <glyph glyph-name="oe" unicode="&#x153;" horiz-adv-x="405" 
d="M342 64q32 0 38 -13q3 -6 3 -24q0 -10 -7.5 -16.5t-16.5 -7.5q-54 -6 -119 -6q-32 0 -41 12q-29 -11 -50 -11q-44 0 -72.5 22.5t-41.5 85.5q-15 77 -15 167q0 11 0.5 30.5t0.5 28.5v45q0 31 6 62t19.5 64t42 54t67.5 21q15 0 54 -13q0 1 0.5 1t0.5 1q7 10 83 10h36
q23 0 33 -1.5t16 -8t6 -20.5q0 -20 -10 -27t-44 -7h-8l-60 -3q-1 0 -1 -58q0 -30 -0.5 -57t-0.5 -29v-17q0 -26 -1 -26q2 -1 63 -1h13q25 0 31 -8t6 -28q0 -30 -30 -30h-60q-11 0 -14 -2t-3 -8q0 -10 0.5 -33.5t0.5 -36.5t-0.5 -37t-0.5 -35q0 -10 -0.5 -24.5t-0.5 -18.5h30
q42 3 47 3zM145 57q11 0 47 8v21q3 79 3 310l1 97q0 3 0.5 8t0.5 7q-17 8 -51 8q-17 0 -28 -15.5t-19 -69t-8 -147.5q0 -227 54 -227z" />
    <glyph glyph-name="Racute" unicode="&#x154;" horiz-adv-x="331" 
d="M224 841q7 -6 7 -14q0 -9 -9 -22q-16 -20 -47.5 -46t-42.5 -26q-33 0 -33 20q0 15 20 40l3 5q4 4 9 10.5t11.5 13.5t13.5 13.5t13 10.5q12 6 17 6q23 0 38 -11zM34 628q16 75 133 75q89 0 125 -56q18 -29 18 -108q0 -141 -17 -192q-21 -60 -62 -80q81 -117 98 -255
q-16 -16 -41 -16q-11 0 -25 9.5t-16 16.5q-11 65 -39 135.5t-64 97.5l-32 1q-2 -4 -2 -143l1 -68q0 -4 -4 -14t-16 -21t-27 -11q-19 0 -27 4.5t-8 18.5zM115 628q-3 -134 -3 -219q0 -58 1 -90h49q35 0 53 31t18 75q0 4 0.5 29.5t0.5 40.5v36q0 55 -17.5 81t-64.5 26
q-35 0 -37 -10z" />
    <glyph glyph-name="racute" unicode="&#x155;" horiz-adv-x="277" 
d="M196 728q7 -6 7 -14t-9 -22q-16 -20 -47.5 -46t-42.5 -26q-32 0 -32 20q0 16 19 40l3 4q4 5 9 11.5t11.5 13.5t13.5 13.5t13 10.5q12 6 17 6q23 0 38 -11zM32 515q12 64 112 64q73 0 104 -47q15 -24 15 -89q0 -115 -14 -159q-16 -48 -51 -64q66 -91 80 -210
q-14 -14 -35 -14q-9 0 -23 7.5t-16 12.5q-10 52 -33.5 110.5t-51.5 82.5l-18 2q-3 -3 -3 -117l1 -56q0 -9 -10 -24.5t-29 -15.5q-32 0 -32 21zM103 512q-3 -107 -3 -169q0 -13 0.5 -35t0.5 -36h39q23 0 37.5 22t14.5 55q0 4 0.5 25.5t0.5 33.5v28q0 45 -12.5 64t-48.5 19
q-27 0 -29 -7z" />
    <glyph glyph-name="Rcommaaccent" unicode="&#x156;" horiz-adv-x="331" 
d="M34 628q16 75 133 75q89 0 125 -56q18 -29 18 -108q0 -141 -17 -192q-21 -60 -62 -80q81 -117 98 -255q-16 -16 -41 -16q-11 0 -25 9.5t-16 16.5q-11 65 -39 135.5t-64 97.5l-32 1q-2 -4 -2 -143l1 -68q0 -4 -4 -14t-16 -21t-27 -11q-19 0 -27 4.5t-8 18.5zM115 628
q-3 -134 -3 -219q0 -58 1 -90h49q35 0 53 31t18 75q0 4 0.5 29.5t0.5 40.5v36q0 55 -17.5 81t-64.5 26q-35 0 -37 -10zM132 -52q22 12 41 12q25 0 33.5 -14.5t8.5 -41.5q0 -17 -16 -62t-28 -62q-10 -12 -24 -12q-12 0 -20.5 11t-8.5 18q14 52 15 68q-21 17 -21 49
q0 23 20 34z" />
    <glyph glyph-name="rcommaaccent" unicode="&#x157;" horiz-adv-x="277" 
d="M32 515q12 64 112 64q73 0 104 -47q15 -24 15 -89q0 -115 -14 -159q-16 -48 -51 -64q66 -91 80 -210q-14 -14 -35 -14q-9 0 -23 7.5t-16 12.5q-10 52 -33.5 110.5t-51.5 82.5l-18 2q-3 -3 -3 -117l1 -56q0 -9 -10 -24.5t-29 -15.5q-32 0 -32 21zM103 512q-3 -107 -3 -169
q0 -13 0.5 -35t0.5 -36h39q23 0 37.5 22t14.5 55q0 4 0.5 25.5t0.5 33.5v28q0 45 -12.5 64t-48.5 19q-27 0 -29 -7zM105 -52q22 12 41 12q25 0 33.5 -14.5t8.5 -41.5q0 -17 -16 -62t-28 -62q-10 -12 -24 -12q-12 0 -20.5 11t-8.5 18q14 52 15 68q-21 17 -21 49q0 23 20 34z
" />
    <glyph glyph-name="Rcaron" unicode="&#x158;" horiz-adv-x="331" 
d="M265 828q0 -7 -2 -9q-77 -77 -98 -78q-23 1 -70 44l-26 21q-7 7 -7 18q0 8 3 13q14 14 26 14q8 0 30 -15l41 -31q33 29 53 40q10 6 16 6q26 0 34 -23zM34 628q16 75 133 75q89 0 125 -56q18 -29 18 -108q0 -141 -17 -192q-21 -60 -62 -80q81 -117 98 -255
q-16 -16 -41 -16q-11 0 -25 9.5t-16 16.5q-11 65 -39 135.5t-64 97.5l-32 1q-2 -4 -2 -143l1 -68q0 -4 -4 -14t-16 -21t-27 -11q-19 0 -27 4.5t-8 18.5zM115 628q-3 -134 -3 -219q0 -58 1 -90h49q35 0 53 31t18 75q0 4 0.5 29.5t0.5 40.5v36q0 55 -17.5 81t-64.5 26
q-35 0 -37 -10z" />
    <glyph glyph-name="rcaron" unicode="&#x159;" horiz-adv-x="277" 
d="M238 715q0 -7 -2 -9q-77 -77 -98 -78q-23 1 -70 44l-26 21q-7 7 -7 18q0 9 3 13q14 14 26 14q8 0 30 -15l41 -31q33 29 53 40q10 6 16 6q26 0 34 -23zM32 515q12 64 112 64q73 0 104 -47q15 -24 15 -89q0 -115 -14 -159q-16 -48 -51 -64q66 -91 80 -210q-14 -14 -35 -14
q-9 0 -23 7.5t-16 12.5q-10 52 -33.5 110.5t-51.5 82.5l-18 2q-3 -3 -3 -117l1 -56q0 -9 -10 -24.5t-29 -15.5q-32 0 -32 21zM103 512q-3 -107 -3 -169q0 -13 0.5 -35t0.5 -36h39q23 0 37.5 22t14.5 55q0 4 0.5 25.5t0.5 33.5v28q0 45 -12.5 64t-48.5 19q-27 0 -29 -7z" />
    <glyph glyph-name="Sacute" unicode="&#x15a;" horiz-adv-x="292" 
d="M204 841q7 -6 7 -14q0 -9 -9 -22q-16 -20 -47.5 -46t-42.5 -26q-33 0 -33 20q0 15 20 40l3 5q4 4 9 10.5t11.5 13.5t13.5 13.5t13 10.5q12 6 17 6q23 0 38 -11zM156 702q115 0 120 -179q0 -31 -24 -31q-16 0 -23.5 1t-16.5 7t-13 18q-1 1 -3 37q-1 19 -2.5 30.5t-5 27
t-11 23t-19.5 7.5q-22 0 -36.5 -22.5t-14.5 -54.5q0 -24 14.5 -56.5t27 -51.5t38.5 -57q42 -59 66 -108t24 -103q0 -196 -142 -196q-54 0 -87.5 47t-33.5 106q0 52 43 52q46 0 46 -44q7 -96 43 -96q52 0 52 97q0 34 -13.5 69.5t-26 55.5t-39.5 59q-29 41 -45 66t-32 69
t-16 87q0 63 37.5 101.5t92.5 38.5z" />
    <glyph glyph-name="sacute" unicode="&#x15b;" horiz-adv-x="257" 
d="M186 728q7 -6 7 -14t-9 -22q-16 -20 -47.5 -46t-42.5 -26q-32 0 -32 20q0 16 19 40l3 4q4 5 9 11.5t11.5 13.5t13.5 13.5t13 10.5q12 6 17 6q23 0 38 -11zM142 589q97 0 102 -151q0 -27 -21 -27q-14 0 -21 0.5t-15 6t-12 15.5q-1 2 -3 30q-1 15 -1.5 23t-3 20.5t-8.5 18
t-15 5.5q-38 0 -38 -56q0 -46 64 -136q75 -111 75 -178q0 -166 -121 -166q-46 0 -73.5 40t-27.5 90q0 44 37 44q18 0 30.5 -10.5t12.5 -29.5q0 -73 31 -73q39 0 39 76q0 28 -10.5 57t-22 47.5t-31.5 47.5q-77 107 -77 188q0 53 32 85.5t78 32.5z" />
    <glyph glyph-name="Scedilla" unicode="&#x15e;" horiz-adv-x="292" 
d="M277 190q0 -186 -128 -195q-6 -11 -6 -16q15 -3 18 -4q37 -11 50 -28.5t13 -45.5q0 -39 -24 -57.5t-57 -18.5q-25 0 -44 10t-19 31q0 26 18 26q4 0 17 -5t19 -5q35 0 35 22q0 9 -9 14.5t-25.5 10t-18.5 5.5q-32 14 -32 40q0 9 9 29q-37 17 -58 57.5t-21 86.5q0 52 43 52
q46 0 46 -44q7 -96 43 -96q52 0 52 97q0 34 -13.5 69.5t-26 55.5t-39.5 59q-29 41 -45 66t-32 69t-16 87q0 63 37.5 101.5t92.5 38.5q115 0 120 -179q0 -31 -24 -31q-16 0 -23.5 1t-16.5 7t-13 18q-1 1 -3 37q-1 19 -2.5 30.5t-5 27t-11 23t-19.5 7.5q-22 0 -36.5 -22.5
t-14.5 -54.5q0 -24 14.5 -56.5t27 -51.5t38.5 -57q42 -59 66 -108t24 -103z" />
    <glyph glyph-name="scedilla" unicode="&#x15f;" horiz-adv-x="257" 
d="M150 -20q37 -11 50 -28.5t13 -45.5q0 -39 -24 -57.5t-57 -18.5q-25 0 -44 10t-19 31q0 26 18 26q4 0 17 -5t19 -5q35 0 35 22q0 9 -9 14.5t-25.5 10t-18.5 5.5q-32 14 -32 40q0 11 8 27q-27 16 -42.5 49t-15.5 69q0 44 37 44q18 0 30.5 -10.5t12.5 -29.5q0 -73 31 -73
q39 0 39 76q0 28 -10.5 57t-22 47.5t-31.5 47.5q-77 107 -77 188q0 53 32 85.5t78 32.5q97 0 102 -151q0 -27 -21 -27q-14 0 -21 0.5t-15 6t-12 15.5q-1 2 -3 30q-1 15 -1.5 23t-3 20.5t-8.5 18t-15 5.5q-38 0 -38 -56q0 -46 64 -136q75 -111 75 -178q0 -158 -110 -166
q-3 -6 -3 -10q15 -3 18 -4z" />
    <glyph glyph-name="Scaron" unicode="&#x160;" horiz-adv-x="292" 
d="M245 828q0 -7 -2 -9q-77 -77 -98 -78q-23 1 -70 44l-26 21q-7 7 -7 18q0 8 3 13q14 14 26 14q8 0 30 -15l41 -31q33 29 53 40q10 6 16 6q26 0 34 -23zM156 702q115 0 120 -179q0 -31 -24 -31q-16 0 -23.5 1t-16.5 7t-13 18q-1 1 -3 37q-1 19 -2.5 30.5t-5 27t-11 23
t-19.5 7.5q-22 0 -36.5 -22.5t-14.5 -54.5q0 -24 14.5 -56.5t27 -51.5t38.5 -57q42 -59 66 -108t24 -103q0 -196 -142 -196q-54 0 -87.5 47t-33.5 106q0 52 43 52q46 0 46 -44q7 -96 43 -96q52 0 52 97q0 34 -13.5 69.5t-26 55.5t-39.5 59q-29 41 -45 66t-32 69t-16 87
q0 63 37.5 101.5t92.5 38.5z" />
    <glyph glyph-name="scaron" unicode="&#x161;" horiz-adv-x="257" 
d="M228 715q0 -7 -2 -9q-77 -77 -98 -78q-23 1 -70 44l-26 21q-7 7 -7 18q0 9 3 13q14 14 26 14q8 0 30 -15l41 -31q33 29 53 40q10 6 16 6q26 0 34 -23zM142 589q97 0 102 -151q0 -27 -21 -27q-14 0 -21 0.5t-15 6t-12 15.5q-1 2 -3 30q-1 15 -1.5 23t-3 20.5t-8.5 18
t-15 5.5q-38 0 -38 -56q0 -46 64 -136q75 -111 75 -178q0 -166 -121 -166q-46 0 -73.5 40t-27.5 90q0 44 37 44q18 0 30.5 -10.5t12.5 -29.5q0 -73 31 -73q39 0 39 76q0 28 -10.5 57t-22 47.5t-31.5 47.5q-77 107 -77 188q0 53 32 85.5t78 32.5z" />
    <glyph glyph-name="uni0162" unicode="&#x162;" horiz-adv-x="286" 
d="M269 694q6 -3 13 -13t7 -17q0 -13 -7.5 -25t-14.5 -12l-12 -1h-23q-14 -1 -49 -1q0 -177 -2 -399q0 -24 -0.5 -77t-0.5 -58v-63q0 -2 -2.5 -6t-8.5 -10t-14 -9q-10 -18 -10 -24q15 -3 18 -4q37 -11 50 -28.5t13 -45.5q0 -39 -24 -57.5t-57 -18.5q-25 0 -44 10t-19 31
q0 26 18 26q4 0 17 -5t19 -5q35 0 35 22q0 9 -9 14.5t-25.5 10t-18.5 5.5q-32 14 -32 40q0 13 14 38q-5 9 -5 25v18q0 3 0.5 10t0.5 11q3 210 3 548h-37q-39 0 -45 1q-19 5 -19 43q7 23 27 31q234 0 244 -5z" />
    <glyph glyph-name="uni0163" unicode="&#x163;" horiz-adv-x="242" 
d="M222 576q5 -3 12 -13.5t7 -16.5q0 -5 -7 -18t-12 -13h-26q-11 -1 -42 -1q0 -235 -1 -326q0 -19 -0.5 -63t-0.5 -49v-52q0 -1 -2.5 -5t-8.5 -9.5t-14 -8.5q-1 -2 -1 -5q15 -3 18 -4q37 -11 50 -28.5t13 -45.5q0 -39 -24 -57.5t-57 -18.5q-25 0 -44 10t-19 31q0 26 18 26
q4 0 17 -5t19 -5q35 0 35 22q0 9 -9 14.5t-25.5 10t-18.5 5.5q-32 14 -32 40q0 11 11 33v8v14q0 3 0.5 9t0.5 9q3 171 3 449h-28q-33 0 -38 1q-18 3 -18 28q0 7 1 10q6 20 24 27q192 0 199 -3z" />
    <glyph glyph-name="Tcaron" unicode="&#x164;" horiz-adv-x="286" 
d="M249 828q0 -7 -2 -9q-77 -77 -98 -78q-23 1 -70 44l-26 21q-7 7 -7 18q0 8 3 13q14 14 26 14q8 0 30 -15l41 -31q33 29 53 40q10 6 16 6q26 0 34 -23zM-2 668q7 23 27 31q234 0 244 -5q6 -3 13 -13t7 -17q0 -13 -7.5 -25t-14.5 -12l-12 -1h-23q-14 -1 -49 -1
q0 -177 -2 -399q0 -24 -0.5 -77t-0.5 -58v-63q0 -3 -4 -9.5t-15 -13t-26 -6.5q-25 0 -32.5 9.5t-7.5 28.5v18q0 3 0.5 10t0.5 11q3 210 3 548h-37q-39 0 -45 1q-19 5 -19 43z" />
    <glyph glyph-name="tcaron" unicode="&#x165;" horiz-adv-x="372" 
d="M-1 552q6 20 24 27q192 0 199 -3q5 -3 12 -13.5t7 -16.5q0 -5 -7 -18t-12 -13h-26q-11 -1 -42 -1q0 -235 -1 -326q0 -19 -0.5 -63t-0.5 -49v-52q0 -2 -4 -7.5t-13.5 -11.5t-21.5 -6q-21 0 -28 8t-7 25v14q0 3 0.5 9t0.5 9q3 171 3 449h-28q-33 0 -38 1q-18 3 -18 28
q0 7 1 10zM286 566q18 11 38 11q23 0 30.5 -13t7.5 -38q0 -16 -14.5 -57t-25.5 -56q-11 -11 -22 -11t-19 10t-8 16q13 46 14 63q-19 15 -19 44q0 22 18 31z" />
    <glyph glyph-name="Tbar" unicode="&#x166;" horiz-adv-x="286" 
d="M256 433q10 0 17.5 -8.5t7.5 -21.5q-3 -39 -22 -39h-77q0 -26 -0.5 -72.5t-0.5 -65.5q0 -24 -0.5 -77t-0.5 -58v-63q0 -3 -4 -9.5t-15 -13t-26 -6.5q-25 0 -32.5 9.5t-7.5 28.5v18q0 3 0.5 10t0.5 11q0 16 0.5 59t1 112t0.5 117h-70q-24 0 -24 39q0 13 7 21.5t18 8.5h69
q1 90 1 191h-37q-39 0 -45 1q-19 5 -19 43q7 23 27 31q234 0 244 -5q6 -3 13 -13t7 -17q0 -13 -7.5 -25t-14.5 -12l-12 -1h-23q-14 -1 -49 -1q0 -128 -1 -192h74z" />
    <glyph glyph-name="tbar" unicode="&#x167;" horiz-adv-x="242" 
d="M218 368q9 0 15.5 -8.5t6.5 -20.5q-3 -36 -19 -36h-67q0 -21 -0.5 -60t-0.5 -55q0 -19 -0.5 -63t-0.5 -49v-52q0 -2 -4 -7.5t-13.5 -11.5t-21.5 -6q-21 0 -28 8t-7 25v14q0 3 0.5 9t0.5 9q0 13 0.5 48.5t1 93t0.5 97.5h-64q-21 0 -21 36q0 13 6.5 21t15.5 8h63
q1 67 1 145h-28q-33 0 -38 1q-18 3 -18 28q0 7 1 10q6 20 24 27q192 0 199 -3q5 -3 12 -13.5t7 -16.5q0 -5 -7 -18t-12 -13h-26q-11 -1 -42 -1v-146h64z" />
    <glyph glyph-name="Umacron" unicode="&#x16a;" horiz-adv-x="368" 
d="M304 784q-5 -35 -23 -35h-166q-26 0 -26 36q0 11 8 19t19 8h162q10 0 18 -9t8 -19zM28 659q19 35 49 35q40 0 40 -59v-484q0 -30 19.5 -59.5t46.5 -29.5q71 0 71 220q0 7 3 136q1 1 1 60l-1 60q0 80 -1 113q13 40 65 40q15 0 22 -19q0 -72 -7.5 -288t-12.5 -241
q-20 -90 -58.5 -119.5t-95.5 -29.5q-84 0 -120 92q-15 40 -19 431z" />
    <glyph glyph-name="umacron" unicode="&#x16b;" horiz-adv-x="317" 
d="M270 671q-5 -35 -23 -35h-166q-26 0 -26 36q0 11 8 19t19 8h162q10 0 18 -9t8 -19zM32 547q15 31 41 31q39 0 39 -51v-401q0 -24 13 -46t33 -22q57 0 57 177q0 21 0.5 58t0.5 54t0.5 50.5t0.5 49.5q0 68 -1 95q12 33 60 33q13 0 20 -15q0 -62 -6 -241.5t-11 -200.5
q-16 -75 -48.5 -99.5t-80.5 -24.5q-71 0 -101 78q-13 34 -17 370v105z" />
    <glyph glyph-name="Uring" unicode="&#x16e;" horiz-adv-x="368" 
d="M135 798q0 26 17.5 42.5t43.5 16.5q25 0 42 -18t17 -43t-17 -42t-44 -17q-25 0 -42 18t-17 43zM180 796q0 -5 4.5 -10t9.5 -5q6 0 11.5 5t5.5 13q0 5 -4.5 10t-12.5 5q-5 0 -9.5 -6t-4.5 -12zM28 659q19 35 49 35q40 0 40 -59v-484q0 -30 19.5 -59.5t46.5 -29.5
q71 0 71 220q0 7 3 136q1 1 1 60l-1 60q0 80 -1 113q13 40 65 40q15 0 22 -19q0 -72 -7.5 -288t-12.5 -241q-20 -90 -58.5 -119.5t-95.5 -29.5q-84 0 -120 92q-15 40 -19 431z" />
    <glyph glyph-name="uring" unicode="&#x16f;" horiz-adv-x="317" 
d="M101 685q0 26 17.5 42.5t43.5 16.5q25 0 42 -18t17 -43t-17 -42t-44 -17q-25 0 -42 18t-17 43zM146 683q0 -5 4.5 -10t9.5 -5q6 0 11.5 5t5.5 13q0 5 -4.5 10t-12.5 5q-5 0 -9.5 -6t-4.5 -12zM32 547q15 31 41 31q39 0 39 -51v-401q0 -24 13 -46t33 -22q57 0 57 177
q0 21 0.5 58t0.5 54t0.5 50.5t0.5 49.5q0 68 -1 95q12 33 60 33q13 0 20 -15q0 -62 -6 -241.5t-11 -200.5q-16 -75 -48.5 -99.5t-80.5 -24.5q-71 0 -101 78q-13 34 -17 370v105z" />
    <glyph glyph-name="Uhungarumlaut" unicode="&#x170;" horiz-adv-x="368" 
d="M204 841q6 -5 6 -14q0 -8 -8 -22q-15 -19 -47 -45.5t-43 -26.5q-32 0 -32 20q0 19 19 40l3 5q4 4 9 10.5t11 13.5t13.5 13.5t13.5 10.5q12 6 16 6q24 0 39 -11zM312 841q7 -6 7 -14q0 -9 -9 -22q-16 -20 -47.5 -46t-42.5 -26q-32 0 -32 20q0 16 19 40l3 5q4 4 9 10.5
t11.5 13.5t13.5 13.5t13 10.5q12 6 17 6q23 0 38 -11zM28 659q19 35 49 35q40 0 40 -59v-484q0 -30 19.5 -59.5t46.5 -29.5q71 0 71 220q0 7 3 136q1 1 1 60l-1 60q0 80 -1 113q13 40 65 40q15 0 22 -19q0 -72 -7.5 -288t-12.5 -241q-20 -90 -58.5 -119.5t-95.5 -29.5
q-84 0 -120 92q-15 40 -19 431z" />
    <glyph glyph-name="uhungarumlaut" unicode="&#x171;" horiz-adv-x="317" 
d="M187 728q6 -5 6 -14q0 -8 -8 -22q-15 -19 -47 -45.5t-43 -26.5q-32 0 -32 20q0 19 19 40l4 4q3 5 8 11.5t11 13.5t13.5 13.5t13.5 10.5q12 6 16 6q24 0 39 -11zM295 728q7 -6 7 -14t-9 -22q-16 -20 -47.5 -46t-42.5 -26q-32 0 -32 20q0 16 19 40l4 4q3 5 8 11.5
t11.5 13.5t13.5 13.5t13 10.5q12 6 17 6q23 0 38 -11zM32 547q15 31 41 31q39 0 39 -51v-401q0 -24 13 -46t33 -22q57 0 57 177q0 21 0.5 58t0.5 54t0.5 50.5t0.5 49.5q0 68 -1 95q12 33 60 33q13 0 20 -15q0 -62 -6 -241.5t-11 -200.5q-16 -75 -48.5 -99.5t-80.5 -24.5
q-71 0 -101 78q-13 34 -17 370v105z" />
    <glyph glyph-name="Uogonek" unicode="&#x172;" horiz-adv-x="368" 
d="M221 -12q-7 -13 -30 -47q-11 -16 -11 -34q0 -21 14 -21q15 0 20.5 9t8.5 28q5 27 25 27q27 0 27 -29q0 -34 -16 -54q-24 -30 -71 -30q-30 0 -50.5 17.5t-20.5 48.5q0 47 35 92q-71 7 -103 91q-15 40 -19 431l-2 142q19 35 49 35q40 0 40 -59v-484q0 -30 19.5 -59.5
t46.5 -29.5q71 0 71 220q0 7 3 136q1 1 1 60l-1 60q0 80 -1 113q13 40 65 40q15 0 22 -19q0 -72 -7.5 -288t-12.5 -241q-26 -117 -95 -141z" />
    <glyph glyph-name="uogonek" unicode="&#x173;" horiz-adv-x="317" 
d="M212 -7q-7 -13 -30 -47q-11 -16 -11 -34q0 -21 14 -21q15 0 20.5 9t8.5 28q4 27 25 27q27 0 27 -29q0 -34 -16 -54q-24 -30 -71 -30q-30 0 -50.5 17.5t-20.5 48.5q0 44 31 86q-62 6 -90 78q-13 34 -17 370v105q15 31 41 31q39 0 39 -51v-401q0 -24 13 -46t33 -22
q57 0 57 177q0 21 0.5 58t0.5 54t0.5 50.5t0.5 49.5q0 68 -1 95q12 33 60 33q13 0 20 -15q0 -62 -6 -241.5t-11 -200.5q-17 -79 -59 -107q-1 -5 -8 -18z" />
    <glyph glyph-name="Wcircumflex" unicode="&#x174;" horiz-adv-x="594" 
d="M404 771q2 -3 2 -10q-10 -21 -34 -21q-10 0 -16 4q-7 3 -20.5 13.5t-23.5 19.5l-10 9q-2 -1 -18.5 -13t-26.5 -20q-20 -13 -30 -13q-12 0 -26 12q-3 4 -3 14q0 11 7 18l30 23q53 40 70 42q9 0 33.5 -19.5t45.5 -39.5zM467 373v-1l55 310q10 18 40 18q28 0 28 -32
q0 -5 -8 -58q-57 -335 -110 -539q-7 -24 -11 -35.5t-17 -22t-34 -10.5q-50 0 -65 97q-18 110 -50 339q-49 -261 -78 -368q-8 -35 -20 -51.5t-42 -16.5q-50 0 -65 97q-24 144 -59 411q-3 27 -9.5 64t-10.5 62t-4 33q0 16 10 21.5t35 7.5q10 0 21.5 -7.5t14.5 -15.5
q7 -32 15 -114q2 -23 60 -439l50 250l42 170q0 9 16.5 24t31.5 15t26 -7.5t13 -17.5q12 -45 23 -118l15 -103q15 -102 36 -215z" />
    <glyph glyph-name="wcircumflex" unicode="&#x175;" horiz-adv-x="508" 
d="M351 657q2 -3 2 -10q-10 -21 -34 -21q-10 0 -16 4q-7 3 -20.5 13.5t-23.5 19.5l-10 9q-2 -1 -18.5 -13t-26.5 -20q-20 -13 -30 -13q-12 0 -26 12q-3 4 -3 14q0 11 7 18l30 23q53 40 70 42q9 0 33.5 -19.5t44.5 -39.5zM380 308l46 254q9 15 39 15q24 0 24 -33q0 -7 -7 -42
q-43 -265 -87 -431q-7 -25 -12 -37t-15.5 -21.5t-27.5 -9.5q-42 0 -54 80q-21 124 -34 226l-5 34q-35 -175 -61 -272q-1 -2 -3 -12.5t-4 -15.5t-6 -14t-9 -13.5t-13.5 -8.5t-19.5 -4q-42 0 -54 80q-23 130 -51 328q-1 9 -5.5 54.5t-7.5 66.5q-2 8 -2 12q0 33 28 33
q9 0 20.5 -6t13.5 -15q6 -24 17 -101.5t25 -179.5t22 -154q6 32 19.5 96t19.5 92l33 140q-1 6 14.5 19t29.5 13q13 0 24 -6.5t12 -15.5q11 -57 29.5 -172.5t27.5 -164.5z" />
    <glyph glyph-name="Ycircumflex" unicode="&#x176;" horiz-adv-x="321" 
d="M268 771q2 -3 2 -10q-10 -21 -34 -21q-10 0 -16 4q-7 3 -20.5 13.5t-23.5 19.5l-10 9q-2 -1 -18.5 -13t-26.5 -20q-20 -13 -30 -13q-12 0 -26 12q-3 4 -3 14q0 11 7 18l30 23q53 40 70 42q9 0 33.5 -19.5t45.5 -39.5zM237 686q11 11 28 11q21 0 28 -27q2 -14 2 -43
q0 -34 -6.5 -252.5t-10.5 -243.5q-24 -132 -137 -132q-10 0 -20.5 1.5t-28 9.5t-30.5 21.5t-23 41t-10 64.5q0 45 43 45q8 0 13.5 -2t12 -8.5t9.5 -23t3 -42.5q0 -42 41 -42q29 0 42.5 24.5t13.5 58.5l4 112q-33 -12 -69 -12q-18 0 -53 15q-24 11 -39 40t-20.5 76t-7 77
t-1.5 79q0 9 0.5 25.5t0.5 24.5q1 19 1 69q0 10 15.5 26t31.5 16q25 0 25 -35q0 -186 12 -293q2 -9 7 -19.5t18.5 -21.5t30.5 -11q18 0 51 20l7 292q0 43 16 59z" />
    <glyph glyph-name="ycircumflex" unicode="&#x177;" horiz-adv-x="278" 
d="M246 658q2 -3 2 -10q-10 -21 -34 -21q-10 0 -16 4q-7 3 -20.5 13.5t-23.5 19.5l-10 9q-2 -1 -18.5 -13t-26.5 -20q-19 -13 -30 -13q-12 0 -26 12q-3 5 -3 14q0 11 7 18l30 23q53 40 70 42q9 0 33.5 -19.5t45.5 -38.5zM201 571q16 8 29 8q20 0 25 -21q2 -10 2 -25v-12
q-9 -377 -15 -411q-19 -111 -115 -111q-11 0 -22.5 3t-29.5 13t-29.5 35.5t-11.5 63.5q0 22 9 30.5t28 8.5q12 0 17 -2.5t10.5 -16.5t7.5 -44q3 -32 31 -32q38 0 38 65l2 88q-25 -7 -48 -7q-27 0 -46 10q-25 13 -38.5 59t-15 80t-1.5 90v41q1 16 1 56q6 26 27 34q9 3 19 3
q21 0 21 -30q0 -12 -0.5 -46.5t0 -51.5t1.5 -45.5t3.5 -52.5t7.5 -47q7 -41 38 -41q15 0 33 11q6 214 6 245q0 33 16 52z" />
    <glyph glyph-name="Ydieresis" unicode="&#x178;" horiz-adv-x="321" 
d="M84 834q15 7 35 7q34 0 34 -44q0 -39 -43 -39q-17 0 -29.5 14.5t-12.5 32.5q0 19 16 29zM180 834q17 7 36 7q34 0 34 -44q0 -39 -43 -39q-18 0 -30 14.5t-12 32.5q0 19 15 29zM237 686q11 11 28 11q21 0 28 -27q2 -14 2 -43q0 -34 -6.5 -252.5t-10.5 -243.5
q-24 -132 -137 -132q-10 0 -20.5 1.5t-28 9.5t-30.5 21.5t-23 41t-10 64.5q0 45 43 45q8 0 13.5 -2t12 -8.5t9.5 -23t3 -42.5q0 -42 41 -42q29 0 42.5 24.5t13.5 58.5l4 112q-33 -12 -69 -12q-18 0 -53 15q-24 11 -39 40t-20.5 76t-7 77t-1.5 79q0 9 0.5 25.5t0.5 24.5
q1 19 1 69q0 10 15.5 26t31.5 16q25 0 25 -35q0 -186 12 -293q2 -9 7 -19.5t18.5 -21.5t30.5 -11q18 0 51 20l7 292q0 43 16 59z" />
    <glyph glyph-name="Zacute" unicode="&#x179;" horiz-adv-x="304" 
d="M231 841q7 -6 7 -14q0 -9 -9 -22q-16 -20 -47.5 -46t-42.5 -26q-33 0 -33 20q0 15 20 40l4 5q3 4 8 10.5t11.5 13.5t13.5 13.5t13 10.5q12 6 17 6q23 0 38 -11zM39 650q0 16 6 29q0 8 176 8q12 0 27 -2q55 -4 55 -53q0 -13 -2.5 -28.5t-4.5 -23.5l-3 -9l-200 -497h165
q22 -8 22 -32q0 -23 -18 -35q-88 -5 -156 -5q-50 0 -55 1q-26 7 -38 24.5t-12 33.5q0 2 50.5 124.5t59.5 143.5q13 28 59 147.5t51 143.5l-144 -1q-38 0 -38 31z" />
    <glyph glyph-name="zacute" unicode="&#x17a;" horiz-adv-x="271" 
d="M201 728q7 -6 7 -14t-9 -22q-16 -20 -47.5 -46t-42.5 -26q-32 0 -32 20q0 16 19 40l4 4q3 5 8 11.5t11.5 13.5t13.5 13.5t13 10.5q12 6 17 6q23 0 38 -11zM45 566q12 4 76 8t93 2q46 -2 46 -49q0 -11 -2.5 -24t-5.5 -21l-2 -7l-157 -403h133q19 -6 19 -36q0 -14 -21 -26
q-72 -4 -128 -4h-11l-38 1q-41 7 -41 44q0 2 40.5 104t49.5 121q9 20 44 113t44 123l-114 -1q-31 0 -31 32q0 12 6 23z" />
    <glyph glyph-name="Zdotaccent" unicode="&#x17b;" horiz-adv-x="304" 
d="M145 834q25 9 35 9q21 0 28 -11.5t7 -34.5q0 -20 -11.5 -31t-31.5 -11q-18 0 -30.5 16t-12.5 34q0 20 16 29zM39 650q0 16 6 29q0 8 176 8q12 0 27 -2q55 -4 55 -53q0 -13 -2.5 -28.5t-4.5 -23.5l-3 -9l-200 -497h165q22 -8 22 -32q0 -23 -18 -35q-88 -5 -156 -5
q-50 0 -55 1q-26 7 -38 24.5t-12 33.5q0 2 50.5 124.5t59.5 143.5q13 28 59 147.5t51 143.5l-144 -1q-38 0 -38 31z" />
    <glyph glyph-name="zdotaccent" unicode="&#x17c;" horiz-adv-x="271" 
d="M116 721q25 9 35 9q21 0 28 -11.5t7 -34.5q0 -20 -11.5 -31t-31.5 -11q-18 0 -30 16t-12 34q0 19 15 29zM45 566q12 4 76 8t93 2q46 -2 46 -49q0 -11 -2.5 -24t-5.5 -21l-2 -7l-157 -403h133q19 -6 19 -36q0 -14 -21 -26q-72 -4 -128 -4h-11l-38 1q-41 7 -41 44
q0 2 40.5 104t49.5 121q9 20 44 113t44 123l-114 -1q-31 0 -31 32q0 12 6 23z" />
    <glyph glyph-name="Zcaron" unicode="&#x17d;" horiz-adv-x="304" 
d="M272 828q0 -7 -2 -9q-77 -77 -98 -78q-23 1 -70 44l-26 21q-7 7 -7 18q0 8 3 13q14 14 26 14q8 0 30 -15l41 -31q33 29 53 40q10 6 16 6q26 0 34 -23zM39 650q0 16 6 29q0 8 176 8q12 0 27 -2q55 -4 55 -53q0 -13 -2.5 -28.5t-4.5 -23.5l-3 -9l-200 -497h165
q22 -8 22 -32q0 -23 -18 -35q-88 -5 -156 -5q-50 0 -55 1q-26 7 -38 24.5t-12 33.5q0 2 50.5 124.5t59.5 143.5q13 28 59 147.5t51 143.5l-144 -1q-38 0 -38 31z" />
    <glyph glyph-name="zcaron" unicode="&#x17e;" horiz-adv-x="271" 
d="M243 715q0 -7 -2 -9q-77 -77 -98 -78q-23 1 -70 44l-26 21q-7 7 -7 18q0 9 3 13q14 14 26 14q8 0 30 -15l41 -31q33 29 53 40q10 6 16 6q26 0 34 -23zM45 566q12 4 76 8t93 2q46 -2 46 -49q0 -11 -2.5 -24t-5.5 -21l-2 -7l-157 -403h133q19 -6 19 -36q0 -14 -21 -26
q-72 -4 -128 -4h-11l-38 1q-41 7 -41 44q0 2 40.5 104t49.5 121q9 20 44 113t44 123l-114 -1q-31 0 -31 32q0 12 6 23z" />
    <glyph glyph-name="Scommaaccent" unicode="&#x218;" horiz-adv-x="292" 
d="M156 702q115 0 120 -179q0 -31 -24 -31q-16 0 -23.5 1t-16.5 7t-13 18q-1 1 -3 37q-1 19 -2.5 30.5t-5 27t-11 23t-19.5 7.5q-22 0 -36.5 -22.5t-14.5 -54.5q0 -24 14.5 -56.5t27 -51.5t38.5 -57q42 -59 66 -108t24 -103q0 -196 -142 -196q-54 0 -87.5 47t-33.5 106
q0 52 43 52q46 0 46 -44q7 -96 43 -96q52 0 52 97q0 34 -13.5 69.5t-26 55.5t-39.5 59q-29 41 -45 66t-32 69t-16 87q0 63 37.5 101.5t92.5 38.5zM112 -52q22 12 41 12q25 0 33.5 -14.5t8.5 -41.5q0 -17 -16 -62t-28 -62q-10 -12 -24 -12q-12 0 -20.5 11t-8.5 18
q14 52 15 68q-21 17 -21 49q0 23 20 34z" />
    <glyph glyph-name="scommaaccent" unicode="&#x219;" horiz-adv-x="257" 
d="M142 589q97 0 102 -151q0 -27 -21 -27q-14 0 -21 0.5t-15 6t-12 15.5q-1 2 -3 30q-1 15 -1.5 23t-3 20.5t-8.5 18t-15 5.5q-38 0 -38 -56q0 -46 64 -136q75 -111 75 -178q0 -166 -121 -166q-46 0 -73.5 40t-27.5 90q0 44 37 44q18 0 30.5 -10.5t12.5 -29.5q0 -73 31 -73
q39 0 39 76q0 28 -10.5 57t-22 47.5t-31.5 47.5q-77 107 -77 188q0 53 32 85.5t78 32.5zM104 -74q22 12 41 12q25 0 33.5 -14.5t8.5 -41.5q0 -17 -16 -62t-28 -62q-10 -12 -24 -12q-12 0 -20.5 11t-8.5 18q14 52 15 68q-21 17 -21 49q0 23 20 34z" />
    <glyph glyph-name="uni021A" unicode="&#x21a;" horiz-adv-x="286" 
d="M-2 668q7 23 27 31q234 0 244 -5q6 -3 13 -13t7 -17q0 -13 -7.5 -25t-14.5 -12l-12 -1h-23q-14 -1 -49 -1q0 -177 -2 -399q0 -24 -0.5 -77t-0.5 -58v-63q0 -3 -4 -9.5t-15 -13t-26 -6.5q-25 0 -32.5 9.5t-7.5 28.5v18q0 3 0.5 10t0.5 11q3 210 3 548h-37q-39 0 -45 1
q-19 5 -19 43zM114 -52q22 12 41 12q25 0 33.5 -14.5t8.5 -41.5q0 -17 -16 -62t-28 -62q-10 -12 -24 -12q-12 0 -20.5 11t-8.5 18q14 52 15 68q-21 17 -21 49q0 23 20 34z" />
    <glyph glyph-name="uni021B" unicode="&#x21b;" horiz-adv-x="242" 
d="M-1 552q6 20 24 27q192 0 199 -3q5 -3 12 -13.5t7 -16.5q0 -5 -7 -18t-12 -13h-26q-11 -1 -42 -1q0 -235 -1 -326q0 -19 -0.5 -63t-0.5 -49v-52q0 -2 -4 -7.5t-13.5 -11.5t-21.5 -6q-21 0 -28 8t-7 25v14q0 3 0.5 9t0.5 9q3 171 3 449h-28q-33 0 -38 1q-18 3 -18 28
q0 7 1 10zM98 -62q22 12 41 12q25 0 33.5 -14.5t8.5 -41.5q0 -17 -16 -62t-28 -62q-10 -12 -24 -12q-12 0 -20.5 11t-8.5 18q14 52 15 68q-21 17 -21 49q0 23 20 34z" />
    <glyph glyph-name="circumflex" unicode="&#x2c6;" horiz-adv-x="211" 
d="M208 758q2 -3 2 -10q-10 -21 -34 -21q-10 0 -16 4q-7 3 -20.5 13.5t-23.5 19.5l-10 9q-2 -1 -18.5 -13t-26.5 -20q-20 -13 -30 -13q-12 0 -26 12q-3 5 -3 14q0 11 7 18l30 23q53 40 70 42q9 0 33.5 -19.5t45.5 -38.5z" />
    <glyph glyph-name="caron" unicode="&#x2c7;" horiz-adv-x="196" 
d="M197 815q0 -7 -2 -9q-77 -77 -98 -78q-23 1 -70 44l-26 21q-7 7 -7 18q0 8 3 13q14 14 26 14q8 0 30 -15l41 -31q33 29 53 40q10 6 16 6q26 0 34 -23z" />
    <glyph glyph-name="breve" unicode="&#x2d8;" horiz-adv-x="201" 
d="M199 814q2 -2 0 -6q-1 -3 -3 -8.5t-10 -19.5t-18 -24.5t-28 -19t-39 -8.5q-47 0 -73 24.5t-26 56.5q0 9 3 13q10 10 23 10q22 0 28 -16q18 -36 43 -36q13 0 26 13.5t21 30.5q5 10 20 10q23 0 33 -20z" />
    <glyph glyph-name="dotaccent" unicode="&#x2d9;" horiz-adv-x="79" 
d="M11 821q25 9 35 9q21 0 28 -11.5t7 -34.5q0 -20 -11.5 -31t-31.5 -11q-18 0 -30 16t-12 34q0 19 15 29z" />
    <glyph glyph-name="ring" unicode="&#x2da;" horiz-adv-x="122" 
d="M1 785q0 26 17.5 42.5t43.5 16.5q25 0 42 -18t17 -43t-17 -42t-44 -17q-25 0 -42 18t-17 43zM46 783q0 -5 4.5 -10t9.5 -5q6 0 11.5 5t5.5 13q0 5 -4.5 10t-12.5 5q-5 0 -9.5 -6t-4.5 -12z" />
    <glyph glyph-name="ogonek" unicode="&#x2db;" horiz-adv-x="160" 
d="M119 62q0 -18 -13 -41q-7 -13 -30 -47q-11 -16 -11 -34q0 -21 14 -21q15 0 20.5 9t8.5 28q4 27 25 27q27 0 27 -29q0 -34 -16 -54q-24 -30 -71 -30q-30 0 -50.5 17.5t-20.5 48.5q0 34 20 69t49 57h48z" />
    <glyph glyph-name="tilde" unicode="&#x2dc;" horiz-adv-x="221" 
d="M0 766q0 17 22 41.5t53 24.5q21 0 45 -16q22 -12 33 -12q7 0 23 11q14 12 27 14q17 -9 17 -24q0 -26 -22.5 -47.5t-47.5 -21.5q-24 0 -48 18q-22 13 -26 13q-11 0 -24 -15t-26 -15q-10 0 -18 7t-8 22z" />
    <glyph glyph-name="hungarumlaut" unicode="&#x2dd;" horiz-adv-x="246" 
d="M127 828q6 -4 6 -14q0 -8 -8 -22q-15 -19 -47 -45.5t-43 -26.5q-32 0 -32 20q0 19 19 40l4 4q3 5 8 11.5t11 13.5t13.5 13.5t13.5 10.5q12 6 16 6q24 0 39 -11zM235 828q7 -6 7 -14t-9 -22q-16 -20 -47.5 -46t-42.5 -26q-32 0 -32 20q0 16 19 40l4 4q3 5 8 11.5
t11.5 13.5t13.5 13.5t13 10.5q12 6 17 6q23 0 38 -11z" />
    <glyph glyph-name="gravecomb" unicode="&#x300;" 
d="M-359 727q16 12 40 12q3 0 4.5 -0.5t2.5 -0.5h1q12 -8 26.5 -22.5t22.5 -25.5l9 -10q19 -24 19 -40q0 -20 -32 -20q-11 0 -47 31.5t-43 42.5q-9 14 -9 20q0 7 6 13z" />
    <glyph glyph-name="acutecomb" unicode="&#x301;" 
d="M-241 728q7 -6 7 -14t-9 -22q-16 -20 -47.5 -46t-42.5 -26q-32 0 -32 20q0 16 19 40l4 4q3 5 8 11.5t11.5 13.5t13.5 13.5t13 10.5q12 6 17 6q23 0 38 -11z" />
    <glyph glyph-name="uni0302" unicode="&#x302;" 
d="M-198 658q2 -3 2 -10q-10 -21 -34 -21q-10 0 -16 4q-7 3 -20.5 13.5t-23.5 19.5l-10 9q-2 -1 -18.5 -13t-26.5 -20q-19 -13 -30 -13q-12 0 -26 12q-3 5 -3 14q0 11 7 18l30 23q53 40 70 42q9 0 33.5 -19.5t45.5 -38.5z" />
    <glyph glyph-name="tildecomb" unicode="&#x303;" 
d="M-410 666q0 17 22 41.5t53 24.5q21 0 45 -16q22 -12 33 -12q7 0 23 11q14 12 27 14q17 -9 17 -24q0 -26 -22.5 -47.5t-47.5 -21.5q-24 0 -48 18q-22 13 -26 13q-11 0 -24 -15t-26 -15q-10 0 -18 7t-8 22z" />
    <glyph glyph-name="uni0304" unicode="&#x304;" 
d="M-192 671q-5 -35 -23 -35h-166q-26 0 -26 36q0 11 8 19t19 8h162q10 0 18 -9t8 -19z" />
    <glyph glyph-name="uni0306" unicode="&#x306;" 
d="M-202 714q2 -2 0 -6q-1 -3 -3 -8.5t-10 -19.5t-18 -24.5t-28 -19t-39 -8.5q-47 0 -73 24.5t-26 56.5q0 9 3 13q10 10 23 10q22 0 28 -16q18 -36 43 -36q13 0 26 13.5t21 30.5q5 10 20 10q23 0 33 -20z" />
    <glyph glyph-name="uni0307" unicode="&#x307;" 
d="M-327 721q25 9 35 9q21 0 28 -11.5t7 -34.5q0 -20 -11.5 -31t-31.5 -11q-18 0 -30 16t-12 34q0 19 15 29z" />
    <glyph glyph-name="uni0308" unicode="&#x308;" 
d="M-375 721q15 7 35 7q34 0 34 -44q0 -39 -43 -39q-17 0 -29.5 14.5t-12.5 32.5q0 19 16 29zM-279 721q17 7 36 7q34 0 34 -44q0 -39 -43 -39q-18 0 -30 14.5t-12 32.5t15 29z" />
    <glyph glyph-name="uni030A" unicode="&#x30a;" 
d="M-360 685q0 26 17.5 42.5t43.5 16.5q25 0 42 -18t17 -43t-17 -42t-44 -17q-25 0 -42 18t-17 43zM-315 683q0 -5 4.5 -10t9.5 -5q6 0 11.5 5t5.5 13q0 5 -4.5 10t-12.5 5q-5 0 -9.5 -6t-4.5 -12z" />
    <glyph glyph-name="uni030B" unicode="&#x30b;" 
d="M-295 728q6 -4 6 -14q0 -8 -8 -22q-15 -19 -47 -45.5t-43 -26.5q-32 0 -32 20q0 19 19 40l4 4q3 5 8 11.5t11 13.5t13.5 13.5t13.5 10.5q12 6 16 6q24 0 39 -11zM-187 728q7 -6 7 -14t-9 -22q-16 -20 -47.5 -46t-42.5 -26q-32 0 -32 20q0 16 19 40l4 4q3 5 8 11.5
t11.5 13.5t13.5 13.5t13 10.5q12 6 17 6q23 0 38 -11z" />
    <glyph glyph-name="uni030C" unicode="&#x30c;" 
d="M-198 715q0 -7 -2 -9q-77 -77 -98 -78q-23 1 -70 44l-26 21q-7 7 -7 18q0 9 3 13q14 14 26 14q8 0 30 -15l41 -31q33 29 53 40q10 6 16 6q26 0 34 -23z" />
    <glyph glyph-name="uni0312" unicode="&#x312;" 
d="M-266 625q-22 -12 -41 -12q-25 0 -33.5 14.5t-8.5 41.5q0 17 16 62t28 62q10 12 24 12q12 0 20.5 -11t8.5 -18q-14 -52 -15 -68q21 -16 21 -49q0 -23 -20 -34z" />
    <glyph glyph-name="uni0326" unicode="&#x326;" 
d="M-334 -52q22 12 41 12q25 0 33.5 -14.5t8.5 -41.5q0 -17 -16 -62t-28 -62q-10 -12 -24 -12q-12 0 -20.5 11t-8.5 18q14 52 15 68q-21 17 -21 49q0 23 20 34z" />
    <glyph glyph-name="uni0327" unicode="&#x327;" 
d="M-291 -13q37 -11 50 -28.5t13 -45.5q0 -39 -24 -57.5t-57 -18.5q-25 0 -44 10t-19 31q0 26 18 26q4 0 17 -5t19 -5q35 0 35 22q0 9 -9 14.5t-25.5 10t-18.5 5.5q-32 14 -32 40q0 14 16 42h61q-18 -31 -18 -37q15 -3 18 -4z" />
    <glyph glyph-name="uni0328" unicode="&#x328;" 
d="M-262 62q0 -18 -13 -41q-7 -13 -30 -47q-11 -16 -11 -34q0 -21 14 -21q15 0 20.5 9t8.5 28q5 27 25 27q27 0 27 -29q0 -34 -16 -54q-24 -30 -71 -30q-30 0 -50.5 17.5t-20.5 48.5q0 34 20 69t49 57h48z" />
    <glyph glyph-name="uni0335" unicode="&#x335;" 
d="M-174 343q-3 -39 -22 -39h-231q-24 0 -24 39q0 13 7 21.5t18 8.5h227q10 0 17.5 -8.5t7.5 -21.5z" />
    <glyph glyph-name="uni0336" unicode="&#x336;" 
d="M-130 517q-3 -39 -22 -39h-291q-24 0 -24 39q0 13 7 21.5t18 8.5h287q10 0 17.5 -8.5t7.5 -21.5z" />
    <glyph glyph-name="uni0337" unicode="&#x337;" 
d="M-163 470q22 -32 8 -44l-247 -207q-19 -16 -44 15q-8 10 -8 21t8 18l244 204q7 6 18.5 4.5t20.5 -11.5z" />
    <glyph glyph-name="uni03BC" unicode="&#x3bc;" horiz-adv-x="381" 
d="M103 585q20 0 20 -32l2 -188q1 -44 20 -92.5t54 -48.5q28 0 45.5 18t21.5 36l4 17v19q1 20 1.5 45t0.5 40q0 135 8 157q4 11 15 18t21 7q4 0 9.5 -4t10.5 -9t7 -6q4 -206 4 -353q0 -133 -4 -157q-6 -24 -16 -33.5t-27 -9.5q-20 0 -25 15q-3 13 -3 49v125q-37 -50 -82 -50
q-28 0 -65 43l1 -189v-23q0 -35 -4 -60.5t-8 -32.5l-3 -8q-10 -15 -31 -15q-20 0 -26.5 4.5t-6.5 19.5q0 3 0.5 11t0.5 13v13.5t0.5 37t1 59.5t0.5 93v125q0 64 1 132t2.5 111t1.5 47q0 56 48 56z" />
    <glyph glyph-name="uni0401" unicode="&#x401;" horiz-adv-x="267" 
d="M70 837q15 7 35 7q34 0 34 -44q0 -39 -43 -39q-17 0 -29.5 14.5t-12.5 32.5q0 19 16 29zM166 837q17 7 36 7q34 0 34 -44q0 -39 -43 -39q-18 0 -30 14.5t-12 32.5t15 29zM107 621q-2 -1 -2 -76q0 -35 -0.5 -69t-0.5 -38v-22q0 -30 1 -33q5 -1 37 -1h48q30 0 37.5 -7
t7.5 -30q0 -17 -10.5 -26t-24.5 -9h-61q-17 0 -23 -2.5t-6 -11.5v-47q0 -87 -1 -125l-1 -60q0 -2 2 -2h13q25 0 30 1q7 0 23.5 1.5t22.5 1.5q37 0 44 -13q4 -8 4 -21q0 -12 -9 -19.5t-20 -8.5q-75 -7 -130 -7q-33 0 -45 10t-12 39v53q3 86 3 349q0 119 1 127q0 3 0.5 9.5
t0.5 10.5q2 63 17 87q11 14 67 14q6 0 16 -0.5t16 -0.5h31q40 0 53 -5.5t13 -29.5q0 -22 -12 -30t-53 -8h-9z" />
    <glyph glyph-name="uni0410" unicode="&#x410;" horiz-adv-x="345" 
d="M333 58q2 -8 2 -13q0 -19 -14.5 -30t-38.5 -12q-20 0 -23 26l-29 221l-102 -1l-2 -10q-1 -8 -4 -24.5t-4 -25.5q-20 -142 -30 -165q-6 -4 -25.5 -11.5t-27.5 -7.5q-21 0 -21 28q0 11 3 22l23 134q59 331 76 412l3 13q5 20 8.5 31t11.5 26.5t22.5 22.5t34.5 7q49 0 61 -97
q0 -2 52 -370zM161 442l-22 -131q12 0 41 0.5t42 0.5l-36 277q0 -1 -25 -147z" />
    <glyph glyph-name="uni0411" unicode="&#x411;" horiz-adv-x="334" 
d="M38 670q7 27 37 27q156 0 165 -6q19 -12 19 -27q0 -6 -7 -21.5t-14 -15.5q-18 0 -37 -1l-87 -3v-39q-2 -56 -2 -80l-2 -94q32 1 69 1q67 0 107 -49q32 -35 32 -121q0 -49 -2 -79.5t-9 -64.5t-20.5 -52t-38.5 -30.5t-61 -12.5h-124q-31 0 -31 45zM161 349q-27 0 -52 -1
v-279q3 -1 10 -1h55q35 0 52.5 30t17.5 74q0 6 0.5 17.5t0.5 16.5v16q0 66 -16 96.5t-68 30.5z" />
    <glyph glyph-name="uni0412" unicode="&#x412;" horiz-adv-x="334" 
d="M285 544q0 -100 -38 -152q20 -10 39 -31q32 -37 32 -120q0 -49 -2 -79.5t-9 -64.5t-20.5 -52t-38.5 -30.5t-61 -12.5h-121q-8 0 -14 3q-23 13 -23 42l6 581q5 24 18.5 40t35 22.5t38.5 8.5t40 2q37 0 61.5 -12t36.5 -35.5t16 -48.5t4 -61zM152 637q-34 0 -37 -9
q-2 -74 -4 -220h49q49 3 49 125v31q0 37 -12.5 55t-44.5 18zM110 348q-1 -76 -1 -234v-46h65q35 0 52.5 30t17.5 74q0 6 0.5 17.5t0.5 16.5v16q0 66 -16 96t-68 30h-51z" />
    <glyph glyph-name="uni0413" unicode="&#x413;" horiz-adv-x="254" 
d="M110 621q4 -99 4 -527q0 -65 -21 -81q-12 -9 -26 -9q-19 0 -35 23q4 68 4 345q0 202 -3 256v10q2 36 11 46q22 16 105 16h14q59 0 73 -8q17 -10 17 -35t-8 -28q-20 -5 -58 -5z" />
    <glyph glyph-name="uni0414" unicode="&#x414;" horiz-adv-x="465" 
d="M340 683q15 -6 20.5 -17.5t5.5 -40.5q0 -181 -2 -399q0 -24 -0.5 -75.5t-0.5 -56.5v-23h4q59 0 70 -9q12 -12 12 -56l-3 -54q-3 -19 -32 -19q-31 0 -31 19l-2 54h-297q0 -9 -1 -27t-1 -27q0 -19 -30 -19t-34 20v4q-1 4 -1.5 10t-0.5 12.5t-0.5 14t-0.5 12.5q0 47 13 56
q11 9 70 9h7q18 104 32.5 276.5t14.5 280.5v11q0 21 12 35t35 14q131 0 141 -5zM227 617q0 -247 -46 -546h109v8q3 216 3 539h-12q-5 0 -21 -0.5t-33 -0.5z" />
    <glyph glyph-name="uni0415" unicode="&#x415;" horiz-adv-x="267" 
d="M107 621q-2 -1 -2 -76q0 -35 -0.5 -69t-0.5 -38v-22q0 -30 1 -33q5 -1 37 -1h48q30 0 37.5 -7t7.5 -30q0 -17 -10.5 -26t-24.5 -9h-61q-17 0 -23 -2.5t-6 -11.5v-47q0 -87 -1 -125l-1 -60q0 -2 2 -2h13q25 0 30 1q7 0 23.5 1.5t22.5 1.5q37 0 44 -13q4 -8 4 -21
q0 -12 -9 -19.5t-20 -8.5q-75 -7 -130 -7q-33 0 -45 10t-12 39v53q3 86 3 349q0 119 1 127q0 3 0.5 9.5t0.5 10.5q2 63 17 87q11 14 67 14q6 0 16 -0.5t16 -0.5h31q40 0 53 -5.5t13 -29.5q0 -22 -12 -30t-53 -8h-9z" />
    <glyph glyph-name="uni0416" unicode="&#x416;" horiz-adv-x="490" 
d="M274 692q3 -20 3 -120q0 -12 -0.5 -36t-0.5 -35q-1 -26 -1 -87q8 23 40 108.5t44 123.5q18 51 53 51q30 -4 30 -21q0 -13 -14 -46q-3 -6 -17.5 -46.5t-26.5 -70.5q-64 -160 -72 -175q18 -43 26 -55q35 -62 71 -137q6 -12 19 -41t17 -37q14 -28 14 -46q0 -28 -48 -28
q-10 0 -18.5 7.5t-11.5 14t-11 24.5l-23 52q-35 83 -78 163v-25q0 -46 2 -124q2 -54 2 -72q0 -30 -9.5 -38t-29.5 -8q-8 0 -22 4h-3l-2 1q-10 3 -10 35q2 52 2 118q0 67 1 110q-4 -10 -68 -164q-1 -2 -10 -22t-13 -30q-9 -24 -17.5 -35t-23.5 -11q-48 0 -48 27q0 21 13 47
q19 38 36 74q32 70 73 141q6 11 25 55q-13 28 -71 175q-42 103 -49 117q-11 22 -11 46q0 22 33 22q10 0 22 -3q14 -6 29 -49q13 -39 41.5 -115t41.5 -114v44q0 43 -1 100t-1 66q2 54 7 62q16 16 36 16q13 0 30 -13z" />
    <glyph glyph-name="uni0417" unicode="&#x417;" horiz-adv-x="298" 
d="M96 571q-4 -11 -16 -18t-22 -7q-14 0 -33 14v50q0 38 33 64.5t80 26.5q70 0 95.5 -41.5t25.5 -115.5q0 -103 -39 -152q24 -10 40 -28q32 -37 32 -123q0 -49 -2 -80t-9.5 -65t-21 -53t-38.5 -31.5t-61 -12.5h-24q-45 0 -80 26t-35 69v46q19 23 34 23q18 0 38 -17l2 -46
q0 -20 17 -30t39 -10q34 0 50.5 31.5t16.5 77.5q0 4 0.5 20.5t0.5 32.5q0 66 -16 96t-68 30h-20q-17 0 -27 6q-13 7 -13 25q0 16 12 29l47 1q48 1 48 121v31q0 40 -8 58.5t-35 18.5q-11 0 -19 -4t-12 -8t-6.5 -15t-3.5 -17.5t-2 -22.5z" />
    <glyph glyph-name="uni0418" unicode="&#x418;" horiz-adv-x="382" 
d="M338 651q1 -8 1 -291v-181q0 -91 -4.5 -132.5t-20.5 -41.5q-31 0 -55 23q5 144 5 271q0 106 3 140q-20 -63 -64 -200.5t-67 -210.5q-9 -18 -35 -18q-22 0 -45.5 13.5t-24.5 28.5q-3 23 -3 104q0 58 2 187.5t2 162.5q0 22 0.5 57t1 58t0.5 31q4 30 24 37q14 4 19 4
q34 0 34 -47v-83q0 -31 -2 -131q-3 -159 -3 -171q0 -30 -3 -72l-4 -48q33 97 136 440l15 57q5 15 6.5 20t8 14.5t15.5 15.5q26 0 41 -10.5t17 -26.5z" />
    <glyph glyph-name="uni0419" unicode="&#x419;" horiz-adv-x="380" 
d="M294 750q0 -3 -1 -4q-1 -3 -3 -7.5t-10 -16t-18 -20.5t-28 -16t-39 -7q-47 0 -74 21t-27 52q0 23 26 23q17 0 32 -15q20 -19 41 -19q30 0 48 24q6 8 20 8q24 0 33 -23zM340 659q1 -8 1 -291v-181q0 -91 -4.5 -132.5t-20.5 -41.5q-31 0 -55 23q5 144 5 271q0 106 3 140
q-20 -63 -64 -200.5t-67 -210.5q-9 -18 -35 -18q-22 0 -45.5 13.5t-24.5 28.5q-3 22 -3 104q0 58 2 187.5t2 162.5q0 22 0.5 57t1 58t0.5 31q4 30 24 37q14 4 19 4q34 0 34 -47v-83q0 -31 -2 -131q-3 -159 -3 -171q0 -30 -3 -72l-4 -48q33 97 136 440l15 57q5 15 6.5 20
t8 14.5t15.5 15.5q26 0 41 -10.5t17 -26.5z" />
    <glyph glyph-name="uni041A" unicode="&#x41a;" horiz-adv-x="304" 
d="M78 704q15 0 33 -12q4 -32 4 -86q0 -36 -2 -108q-2 -56 -2 -102l17 51q34 94 68 199q19 54 53 51q30 -4 30 -21q0 -23 -10 -46q-44 -106 -48 -117q-64 -160 -72 -175q12 -28 24 -47q40 -71 69 -137q53 -110 53 -140q0 -20 -46 -20q-11 0 -19 7t-12 14.5t-11 24.5
q-27 65 -103 223q-3 -64 -3 -223q0 -30 -9 -38t-29 -8q-37 0 -37 40q11 297 11 587q0 60 8 68q15 15 33 15z" />
    <glyph glyph-name="uni041B" unicode="&#x41b;" horiz-adv-x="345" 
d="M187 593q-1 -6 -26 -151q-1 -6 -13.5 -82t-21.5 -121q-1 -8 -4 -24.5t-4 -25.5q-20 -142 -30 -165q-6 -7 -24.5 -13t-28.5 -6q-21 0 -21 28q0 11 3 22l23 134q59 331 76 412l3 13q5 20 8.5 31t11.5 26.5t22.5 22.5t34.5 7q49 0 61 -97q0 -2 52 -370l24 -176q1 -5 1 -14
q0 -39 -52 -41q-20 0 -23 26z" />
    <glyph glyph-name="uni041C" unicode="&#x41c;" horiz-adv-x="539" 
d="M422 683q19 11 43 11q35 0 35 -49l2 -114q5 -242 5 -456q0 -20 -1 -29.5t-6 -22.5t-17.5 -18.5t-33.5 -5.5q-22 0 -25 23q0 363 2 505q-5 -24 -15.5 -79t-15.5 -76q-35 -142 -60 -264q-15 -37 -65 -37q-31 0 -44 38q-33 105 -113 411q0 -84 2 -218q1 -94 1 -270
q-4 -29 -46 -29q-33 0 -33 50q0 3 -0.5 62t-1 146.5t-0.5 161.5q0 55 -0.5 138.5t-0.5 100.5q14 34 57 34q22 0 44 -13l142 -517q85 396 103 451q6 19 10 29t12 20t20 17z" />
    <glyph glyph-name="uni041D" unicode="&#x41d;" horiz-adv-x="322" 
d="M111 669q-3 -220 -3 -328q14 1 49 1q38 0 68 -3l5 337q0 10 10.5 18t24.5 8q19 0 40 -21q1 -37 1 -128q0 -322 -6 -532q-20 -16 -49 -16q-28 0 -28 16v124q0 23 0.5 67t0.5 61l-116 -1v-152q0 -26 -0.5 -39.5t-3 -33t-9 -30t-16.5 -12.5h-15q-33 0 -33 34t0.5 91t0.5 81
v110q0 77 -0.5 162t-0.5 99q0 61 2 87q2 25 39 25q13 0 26 -7.5t13 -17.5z" />
    <glyph glyph-name="uni041E" unicode="&#x41e;" horiz-adv-x="340" 
d="M317 530q0 -30 2 -80q1 -21 1 -70q0 -89 -6.5 -155t-22 -119t-43 -80.5t-67.5 -27.5q-53 0 -87 27t-50 105q-18 82 -18 204v129q0 37 7 75t23 78.5t50.5 66t82.5 25.5q54 0 90 -55.5t38 -122.5zM175 62q34 0 49.5 88.5t15.5 214.5q0 11 1 39t1 49.5t-1 51t-5 51t-10.5 42
t-19 31t-29.5 10.5q-21 0 -36 -20t-25.5 -87.5t-10.5 -182.5q0 -42 2 -82t8.5 -91t22 -82.5t37.5 -31.5z" />
    <glyph glyph-name="uni041F" unicode="&#x41f;" horiz-adv-x="345" 
d="M284 694q16 -8 21.5 -19t5.5 -39q0 -182 -2 -410q0 -24 -0.5 -77t-0.5 -58v-63q0 -3 -3 -9.5t-13.5 -13t-24.5 -6.5q-25 0 -31.5 9t-6.5 29v18q0 3 0.5 10t0.5 11l2 549q-40 -1 -120 -1q0 -177 -2 -399q0 -24 -0.5 -76.5t-0.5 -57.5v-63q0 -3 -4 -9.5t-15 -13t-25 -6.5
q-18 0 -26 5.5t-9.5 11.5t-1.5 19v19q0 3 0.5 10.5t0.5 11.5q3 222 3 562v12q0 21 13 35t36 14q193 0 203 -5z" />
    <glyph glyph-name="uni0420" unicode="&#x420;" horiz-adv-x="326" 
d="M34 628q16 75 133 75q89 0 125 -56q18 -29 18 -108q0 -141 -17 -192q-31 -92 -118 -92q-62 0 -63 -1t-3 -108v-33l1 -68q0 -4 -4 -14t-15.5 -21t-26.5 -11q-19 0 -27 4.5t-8 18.5zM152 638q-34 0 -37 -10q-3 -134 -3 -217q0 -57 1 -89h49q35 0 52.5 29.5t17.5 73.5
q0 4 0.5 29.5t0.5 40.5v36q0 55 -17 81t-64 26z" />
    <glyph glyph-name="uni0421" unicode="&#x421;" horiz-adv-x="340" 
d="M313 515q-12 -17 -42 -17q-19 0 -27 8q-2 7 -5.5 33t-7.5 44.5t-18 34.5t-37 16q-30 0 -48.5 -42.5t-18.5 -87.5q0 -27 -1 -44q-2 -56 -2 -108l3 -101q0 -186 72 -186q28 0 49.5 25t21.5 64v40q2 12 13 19t23 7q22 0 29 -12t7 -35q0 -54 -9 -78q-41 -97 -136 -97
q-68 0 -102.5 43t-41.5 114q-8 91 -8 244q0 108 15 176q28 124 141 124q85 0 117 -91q14 -41 14 -89z" />
    <glyph glyph-name="uni0422" unicode="&#x422;" horiz-adv-x="286" 
d="M-2 668q7 23 27 31q234 0 244 -5q6 -3 13 -13t7 -17q0 -13 -7.5 -25t-14.5 -12l-12 -1h-23q-14 -1 -49 -1q0 -177 -2 -399q0 -24 -0.5 -77t-0.5 -58v-63q0 -3 -4 -9.5t-15 -13t-26 -6.5q-25 0 -32.5 9.5t-7.5 28.5v18q0 3 0.5 10t0.5 11q3 210 3 548h-37q-39 0 -45 1
q-19 5 -19 43z" />
    <glyph glyph-name="uni0423" unicode="&#x423;" horiz-adv-x="321" 
d="M237 686q11 11 28 11q21 0 28 -27q2 -14 2 -43q0 -34 -6.5 -252.5t-10.5 -243.5q-24 -132 -137 -132q-10 0 -20.5 1.5t-28 9.5t-30.5 21.5t-23 41t-10 64.5q0 45 43 45q8 0 13.5 -2t12 -8.5t9.5 -23t3 -42.5q0 -42 41 -42q29 0 42.5 24.5t13.5 58.5l4 112
q-33 -12 -69 -12q-18 0 -53 15q-24 11 -39 40t-20.5 76t-7 77t-1.5 79q0 9 0.5 25.5t0.5 24.5q1 19 1 69q0 10 15.5 26t31.5 16q25 0 25 -35q0 -186 12 -293q2 -9 7 -19.5t18.5 -21.5t30.5 -11q18 0 51 20l7 292q0 43 16 59z" />
    <glyph glyph-name="uni0424" unicode="&#x424;" horiz-adv-x="453" 
d="M271 656q5 1 13 1q113 0 139 -123q14 -65 14 -193q0 -78 -8 -137q-19 -157 -141 -157q-14 0 -22 1v-30q-1 -10 -13 -23.5t-34 -13.5q-30 0 -30 30v37q-6 -1 -17 -1q-121 0 -142 157q-9 63 -9 137q0 117 16 193q26 123 139 123q8 0 13 -1v29q5 15 18 26.5t29 11.5
q21 0 36 -23zM189 112v478q-7 2 -20 2q-35 0 -51.5 -40.5t-16.5 -88.5q0 -20 -1 -31q-3 -73 -2 -103v-32q0 -184 76 -184zM291 592q-13 0 -20 -3l-4 -476h19q74 0 74 184v32q1 48 -1 104q-2 24 -2 30q0 48 -16 88.5t-50 40.5z" />
    <glyph glyph-name="uni0425" unicode="&#x425;" horiz-adv-x="367" 
d="M4 25q69 165 143 336q-60 151 -105 280q-5 13 -5 22q0 15 10 24t25 9q14 0 25.5 -11t16.5 -27q21 -57 76 -197q71 161 102 223q2 4 10 10t15 6q14 0 27 -11.5t13 -26.5q0 -5 -3 -11q-28 -56 -125 -287q88 -220 134 -331q-1 -4 -3 -10t-12 -15.5t-23 -9.5q-18 0 -27 10
q-20 25 -113 255l-95 -225q-21 -43 -48 -43q-22 0 -37 23z" />
    <glyph glyph-name="uni0426" unicode="&#x426;" horiz-adv-x="394" 
d="M225 2q-159 0 -168 4q-17 8 -22.5 18t-5.5 38q0 70 1 212.5t1 196.5q0 37 0.5 83t0.5 52v63q0 3 3 9.5t13.5 13.5t25.5 7q17 0 25.5 -6t10 -12.5t1.5 -20.5v-18q0 -3 -0.5 -10t-0.5 -11q-3 -216 -3 -548h18q9 0 29 -0.5t29 -0.5h44q0 69 1 208t1 192q0 36 0.5 82t0.5 52
v63q0 3 4.5 9.5t16 13.5t25.5 7q24 0 29.5 -8.5t5.5 -28.5v-20q0 -3 -0.5 -10t-0.5 -11q-3 -213 -3 -553q53 0 64 -9q11 -12 11 -56l-3 -54q-3 -19 -32 -19q-31 0 -31 19l-1 52z" />
    <glyph glyph-name="uni0427" unicode="&#x427;" horiz-adv-x="327" 
d="M29 673q18 21 38 21q19 0 31 -12q5 -5 5 -87v-87q0 -97 13 -140t50 -43h53q0 8 0.5 24t0.5 25q2 102 2 181v98q0 25 8 32.5t22 7.5q47 0 47 -59l-5 -612q0 -14 -6 -18.5t-24 -4.5q-16 0 -27 9t-14 17t-3 12v76l-1 142h-63q-85 0 -115 92q-15 50 -15 176q0 111 3 150z" />
    <glyph glyph-name="uni0428" unicode="&#x428;" horiz-adv-x="451" 
d="M56 7q-16 7 -21.5 17t-5.5 38q0 70 1 212.5t1 196.5q0 37 0.5 83t0.5 52v63q0 5 1.5 10t10 12.5t24.5 7.5q24 0 32.5 -10t8.5 -29v-18q0 -3 -0.5 -10t-0.5 -11q-3 -216 -3 -548q50 0 80 -1q0 67 1 202.5t1 187.5q0 38 0.5 85t0.5 53v63q0 4 2 10t12 13t25 7q37 0 37 -32
q0 -6 -0.5 -15t-0.5 -12v-19q-3 -180 -3 -543h73q0 69 1 208t1 192q0 36 0.5 82t0.5 52v63q0 3 3.5 9.5t14 13.5t25.5 7q22 0 27.5 -9t5.5 -28v-20q0 -3 -0.5 -10t-0.5 -11q-3 -222 -3 -564v-12q0 -43 -45 -43h-16q-282 0 -291 5z" />
    <glyph glyph-name="uni0429" unicode="&#x429;" horiz-adv-x="494" 
d="M330 2q-263 0 -272 4q-18 8 -23.5 18t-5.5 38q0 70 1 212.5t1 196.5q0 37 0.5 83t0.5 52v63q0 5 1.5 10t10.5 12.5t25 7.5q24 0 32.5 -10t8.5 -29v-18q0 -3 -0.5 -10t-0.5 -11q-3 -216 -3 -548q49 0 80 -1q0 67 1 202.5t1 187.5q0 38 0.5 85t0.5 53v63q0 4 2 10t11.5 13
t25.5 7q37 0 37 -32q0 -6 -0.5 -15t-0.5 -12v-19q-3 -180 -3 -543h72q0 69 1 208t1 192q0 36 0.5 82t0.5 52v63q0 3 3.5 9.5t14.5 13.5t26 7q21 0 26.5 -9t5.5 -28v-20q0 -3 -0.5 -10t-0.5 -11q-3 -213 -3 -553q56 0 68 -9q11 -12 11 -56l-3 -54q-3 -19 -32 -19
q-31 0 -31 19l-1 52z" />
    <glyph glyph-name="uni042A" unicode="&#x42a;" horiz-adv-x="384" 
d="M86 623l-45 3q-11 1 -24 1q-7 0 -14 10t-7 24q0 18 18 30q9 6 107 6q13 0 26.5 -10.5t16.5 -21.5q-1 -8 -1 -81q-2 -56 -2 -80l-2 -94q32 1 69 1q66 0 107 -49q32 -39 32 -121q0 -49 -2 -79.5t-9 -64.5t-20.5 -52t-38.5 -30.5t-61 -12.5h-117q-12 0 -16 2q-22 9 -22 43z
M157 69q4 -1 11 -1h55q35 0 52.5 30t17.5 74q0 6 0.5 17.5t0.5 16.5v16q0 66 -16 96.5t-68 30.5q-27 0 -52 -1q-1 -71 -1 -234v-45z" />
    <glyph glyph-name="uni042B" unicode="&#x42b;" horiz-adv-x="468" 
d="M38 669q2 12 15 20t22 8q11 0 24 -10.5t16 -21.5q-1 -8 -1 -81q-2 -56 -2 -80l-2 -94q32 1 69 1q67 0 107 -49q32 -35 32 -121q0 -49 -2 -79.5t-9 -64.5t-20.5 -52.5t-38.5 -30.5t-61 -12h-115q-14 0 -18 2q-22 9 -22 43zM356 669q2 12 15 20t22 8q11 0 24 -10.5
t16 -21.5q-1 -8 -1 -81q-2 -56 -2 -80q-3 -189 -3 -390v-68q0 -4 -3.5 -13.5t-15 -20t-26.5 -10.5q-17 0 -24.5 14.5t-7.5 30.5zM109 69q3 -1 65 -1q35 0 52.5 30t17.5 74q0 6 0.5 17.5t0.5 16.5v16q0 66 -16 96.5t-68 30.5q-27 0 -52 -1v-279z" />
    <glyph glyph-name="uni042C" unicode="&#x42c;" horiz-adv-x="334" 
d="M38 669q2 12 15 20t22 8q11 0 24 -10.5t16 -21.5q-1 -8 -1 -81q-2 -56 -2 -80l-2 -94q32 1 69 1q67 0 107 -49q32 -35 32 -121q0 -49 -2 -79.5t-9 -64.5t-20.5 -52.5t-38.5 -30.5t-61 -12h-115q-14 0 -18 2q-22 9 -22 43zM109 69q3 -1 65 -1q35 0 52.5 30t17.5 74
q0 6 0.5 17.5t0.5 16.5v16q0 66 -16 96.5t-68 30.5q-27 0 -52 -1v-279z" />
    <glyph glyph-name="uni042D" unicode="&#x42d;" horiz-adv-x="338" 
d="M32 515q1 59 13 93q32 91 117 91q56 0 92.5 -26.5t48.5 -96.5q12 -74 12 -177q0 -175 -5 -236q-6 -72 -41.5 -118.5t-102.5 -46.5q-46 0 -81.5 25.5t-54.5 71.5q-10 27 -10 78q0 15 2 24t10.5 16t24.5 7q12 0 23 -7t13 -19q-1 -14 -1 -40q0 -38 25 -63.5t53 -25.5
q70 0 70 201q0 35 -1 49h-115q-13 0 -20.5 10.5t-7.5 24.5q0 13 9.5 25t22.5 12h110q0 20 -0.5 46t-1 43.5t-0.5 27.5q-2 55 -19 92.5t-48 37.5q-15 0 -26.5 -7.5t-17.5 -15.5t-10.5 -25.5t-6 -24.5t-3.5 -26q0 -18 -4 -29q-8 -8 -27 -8q-30 0 -42 17z" />
    <glyph glyph-name="uni042E" unicode="&#x42e;" horiz-adv-x="485" 
d="M461 530q0 -30 2 -80q1 -21 1 -70q0 -89 -6.5 -155t-22 -119t-43.5 -80.5t-68 -27.5q-52 0 -86 27t-51 105q-12 61 -17 143l-61 -1v-152q0 -26 -0.5 -39.5t-3 -33t-9 -30t-16.5 -12.5h-16q-32 0 -32 34t0.5 91t0.5 81v110q0 77 -0.5 162t-0.5 99q0 61 2 87q2 25 39 25
q13 0 26 -7.5t13 -17.5q-3 -220 -3 -328q14 1 49 1h11q0 11 0.5 33.5t0.5 32.5v55q0 38 6.5 75.5t23 78t50.5 66t82 25.5q54 0 90 -55.5t39 -122.5zM318 62q34 0 50 89t16 214q0 150 -8 201q-4 24 -20 48.5t-36 24.5q-21 0 -36 -20t-25.5 -87.5t-10.5 -182.5
q0 -41 2.5 -81.5t9 -91.5t21.5 -82.5t37 -31.5z" />
    <glyph glyph-name="uni042F" unicode="&#x42f;" horiz-adv-x="338" 
d="M299 22q-1 -23 -32 -23q-16 0 -27 11t-15 21t-4 14q1 30 1 68q0 7 0.5 22t0.5 22q1 16 1 45v54h-8q-3 0 -11.5 -0.5t-12.5 -0.5q-37 -27 -65 -97t-42 -137q-2 -8 -16 -16.5t-26 -8.5q-23 0 -41 15q20 142 103 257q-36 20 -59 79q-14 41 -14 192q0 63 25 101q42 63 122 63
q106 0 128 -66zM228 629q-11 9 -36 9q-47 0 -65 -26t-20 -81q0 -87 -1 -106q3 -45 20 -75.5t50 -30.5h49q3 67 3 310z" />
    <glyph glyph-name="uni0430" unicode="&#x430;" horiz-adv-x="298" 
d="M278 49q1 -4 1 -11q0 -33 -46 -35q-21 0 -21 21l-22 170q-13 0 -40.5 -0.5t-39.5 -0.5l-5 -34q-18 -122 -25 -138q-5 -4 -22.5 -10t-24.5 -6q-19 0 -19 24q0 10 3 19l15 88q54 298 67 363q5 25 9 38t18.5 26.5t38.5 13.5q18 0 29.5 -15t14.5 -28t7 -37q3 -21 27 -192
t35 -256zM141 380l-21 -129q9 0 30.5 0.5t32.5 0.5l-26 219z" />
    <glyph glyph-name="uni0431" unicode="&#x431;" horiz-adv-x="283" 
d="M37 555q6 24 32 24q130 0 138 -5q15 -10 15 -24q0 -6 -5.5 -20t-10.5 -14h-8q-8 -1 -15 -1q-42 -2 -78 -2v-28l-3 -143h53q57 0 89 -40q27 -33 27 -101q0 -35 -1 -56t-4 -47t-10.5 -41t-19.5 -29t-30.5 -20t-44.5 -6h-103q-25 0 -25 39zM101 285q-1 -57 -1 -189v-34h51
q28 0 41.5 23t13.5 58q0 5 0.5 15t0.5 14v13q0 51 -14 75.5t-52 24.5h-40z" />
    <glyph glyph-name="uni0432" unicode="&#x432;" horiz-adv-x="284" 
d="M242 447q0 -82 -30 -124q16 -9 30 -25q27 -30 27 -99q0 -41 -1.5 -66t-7.5 -53t-17.5 -43t-32 -25t-50.5 -10h-92q-12 0 -17 2q-21 7 -21 36l3 478q4 20 16 33t30.5 18t31.5 6.5t33 1.5q58 0 78 -34t20 -96zM132 521q-22 0 -26 -8q-2 -58 -4 -174h35q37 4 37 93v27
q0 31 -9 46.5t-33 15.5zM102 282q-1 -60 -1 -186v-33h49q52 0 52 79q0 5 0.5 14.5t0.5 13.5v13q0 23 -1.5 38t-7.5 30.5t-19.5 23t-35.5 7.5h-37z" />
    <glyph glyph-name="uni0433" unicode="&#x433;" horiz-adv-x="217" 
d="M105 507q2 -81 2 -421v-8q0 -60 -17 -67q-14 -7 -28 -7q-17 0 -30 19q3 44 3 291q0 144 -2 202q0 36 9 48q20 13 88 13h9q51 0 68 -9q9 -6 9 -27t-8 -29q-18 -4 -47 -4z" />
    <glyph glyph-name="uni0434" unicode="&#x434;" horiz-adv-x="396" 
d="M282 574q14 -6 19 -16t5 -35q0 -153 -2 -335l-1 -110v-18q51 0 63 -9q10 -7 10 -47l-2 -47q-1 -17 -28 -17q-28 0 -28 17l-2 43h-250q0 -7 -1 -21t-1 -22q0 -17 -27 -17t-28 17q-4 30 -4 47q0 39 12 47q8 9 60 9h5q15 90 27 233t12 232v11q0 18 11 30t31 12q110 0 119 -4
zM190 515q0 -222 -40 -455h86v6q3 186 3 450h-8q-3 0 -15 -0.5t-26 -0.5z" />
    <glyph glyph-name="uni0435" unicode="&#x435;" horiz-adv-x="232" 
d="M100 510q-1 0 -1 -58q0 -30 -0.5 -57t-0.5 -29v-17q0 -26 -1 -26q2 -1 53 -1h13q25 0 31 -8t6 -28q0 -30 -30 -30h-50q-11 0 -14 -2t-3 -8q0 -10 0.5 -33.5t0.5 -36.5t-0.5 -37t-0.5 -35q0 -10 -0.5 -24.5t-0.5 -18.5h30q5 0 18.5 1.5t18.5 1.5q32 0 38 -13q3 -6 3 -24
q0 -10 -7.5 -16.5t-16.5 -7.5q-54 -6 -109 -6q-28 0 -38 8.5t-10 33.5v47q3 79 3 310l1 97q2 50 15 74q7 10 83 10h26q23 0 33 -1.5t16 -8t6 -20.5q0 -20 -10 -27t-44 -7h-8z" />
    <glyph glyph-name="uni0436" unicode="&#x436;" horiz-adv-x="403" 
d="M229 567q4 -35 4 -91q0 -10 -0.5 -29.5t-0.5 -28.5v-65l21 55q35 90 44 120q14 38 23 42q7 4 28 2t21 -19q0 -25 -10 -39q-7 -16 -37 -92q-11 -26 -31.5 -78t-27.5 -68q9 -28 20 -44q26 -45 56 -108l33 -68q10 -20 10 -37q0 -26 -41 -26q-12 0 -18.5 8.5t-13.5 25.5
q-1 3 -2 5l-18 42q-29 66 -62 124v-10q0 -38 2 -102q1 -21 1 -59q0 -25 -8 -32t-25 -7q-15 0 -27 5q-5 1 -5 29q1 24 1 113q0 15 0.5 27t0.5 26l-11 -23q-36 -78 -41 -91l-19 -42q-6 -14 -10 -20.5t-11 -12.5t-15 -6h-5q-29 0 -34 18q-3 10 9 45q27 51 32 64q37 74 58 112
q13 22 21 44q-15 33 -54 132q-41 100 -45 107q-9 18 -9 38q0 19 33 19q12 0 17 -2q6 -2 22 -41q20 -61 40 -109q4 -11 11 -29.5t13 -35.5q1 68 1 158v5q0 39 7 47q9 12 22 12q1 0 24 -3z" />
    <glyph glyph-name="uni0437" unicode="&#x437;" horiz-adv-x="259" 
d="M87 471q-5 -23 -34 -23q-21 0 -29 8v46q0 32 27.5 54t66.5 22q59 0 81 -35t22 -95q0 -84 -31 -124q20 -11 32 -23q27 -32 27 -102q0 -41 -1.5 -66.5t-8 -53.5t-18 -44t-32 -26t-50.5 -10h-22q-37 0 -66 21.5t-29 57.5v38q13 20 29 20q18 0 33 -15l2 -39q0 -14 14 -21.5
t30 -7.5q26 0 38 25.5t12 61.5v43q0 55 -11.5 78.5t-52.5 23.5h-15q-13 0 -22 4q-13 6 -13 23q0 16 10 28l41 1q12 0 19.5 8t10 23t3.5 26.5t1 29.5v34q0 60 -32 60q-18 0 -24 -12t-8 -39z" />
    <glyph glyph-name="uni0438" unicode="&#x438;" horiz-adv-x="330" 
d="M290 143q0 -138 -22 -138q-25 0 -49 20q2 122 2 227q0 78 2 94l-102 -321q-6 -16 -31 -16q-19 0 -38 11t-21 24q-4 20 -4 88q0 48 2 155.5t2 135.5q1 57 1 124q0 23 39 32q28 0 28 -39v-69q0 -27 -2 -109q-2 -88 -2 -143q0 -34 -1 -80q46 138 116 383q8 42 30 54
q21 0 34.5 -9.5t15.5 -22.5v-401z" />
    <glyph glyph-name="uni0439" unicode="&#x439;" horiz-adv-x="330" 
d="M258 690q0 -3 -1 -4q-1 -2 -2.5 -6.5t-9 -15t-16.5 -18.5t-25.5 -14.5t-35.5 -6.5q-43 0 -67.5 19t-24.5 47q0 21 24 21q14 0 29 -13q18 -18 37 -18q27 0 44 22q5 8 18 8q22 0 30 -21zM293 151q0 -138 -22 -138q-25 0 -49 20q2 122 2 227q0 78 2 94l-102 -321
q-6 -16 -31 -16q-19 0 -38 11t-21 24q-4 20 -4 88q0 48 2 155.5t2 135.5q1 57 1 124q0 23 39 32q28 0 28 -39v-69q0 -27 -2 -109q-2 -88 -2 -143q0 -34 -1 -80q46 138 116 383q8 42 30 54q21 0 34.5 -9.5t15.5 -22.5v-401z" />
    <glyph glyph-name="uni043A" unicode="&#x43a;" horiz-adv-x="282" 
d="M105 571q5 -35 5 -82q0 -20 -1.5 -58.5t-1.5 -57.5v-20q28 70 64 175q14 44 27 47q20 5 26 5q25 0 27 -24q2 -21 -12 -44q-3 -7 -14.5 -37.5t-20.5 -50.5q-11 -24 -30 -66.5t-25 -55.5q14 -31 29 -60.5t32 -62.5t26 -51l30 -60q12 -24 12 -46q0 -26 -36 -28h-5
q-22 0 -42 45q-28 55 -92 199v-19q0 -35 -2.5 -96t-2.5 -78q0 -30 -7.5 -37.5t-26.5 -7.5q-4 0 -24 5q-9 3 -9 35q9 299 9 466v9q0 1 -1 13.5t0 22t4 15.5q7 16 33 16q16 0 21 -4z" />
    <glyph glyph-name="uni043B" unicode="&#x43b;" horiz-adv-x="298" 
d="M157 468l-13 -84q-9 -54 -39 -225q-18 -122 -25 -138q-6 -6 -22.5 -11t-24.5 -5q-19 0 -19 24q0 10 3 19l15 88q57 315 65 357q8 41 22.5 62.5t45.5 21.5q18 0 29.5 -15t14.5 -28t7 -37q7 -49 20 -140.5t23.5 -168t18.5 -140.5q1 -3 1 -10q0 -33 -46 -35q-19 0 -21 21z
" />
    <glyph glyph-name="uni043C" unicode="&#x43c;" horiz-adv-x="469" 
d="M354 565q22 10 40 10q32 0 32 -41q0 -39 2 -115q3 -175 3 -356q0 -20 -2.5 -32t-14 -22t-33.5 -10q-19 0 -22 31q0 309 1 367l-24 -101q-24 -90 -47 -206q-11 -31 -57 -31q-28 0 -39 32q-47 144 -89 297q0 -93 1 -142q2 -150 2 -219q-4 -25 -39 -25q-16 0 -22.5 14
t-6.5 28q-3 45 -3 306q0 46 -0.5 115t-0.5 83q11 29 50 29q22 0 38 -8l115 -414q69 311 84 357q8 45 32 53z" />
    <glyph glyph-name="uni043D" unicode="&#x43d;" horiz-adv-x="300" 
d="M107 549q-3 -170 -3 -255q11 1 37 1q35 0 49 -2l3 262q0 9 10.5 16t23.5 7q17 0 35 -17v-106q0 -296 -5 -436q-18 -14 -41 -14q-27 0 -27 14v102q0 21 0.5 59.5t0.5 53.5l-86 -1v-132q0 -21 -0.5 -32.5t-2.5 -28t-7.5 -25t-14.5 -10.5h-15q-28 0 -28 29q0 28 0.5 74.5
t0.5 66.5v90q0 63 -0.5 133t-0.5 81q0 21 0.5 41.5t0.5 28.5q0 23 34 23q12 0 24 -6.5t12 -16.5z" />
    <glyph glyph-name="uni043E" unicode="&#x43e;" horiz-adv-x="287" 
d="M264 439q0 -44 1 -66q1 -17 1 -58q0 -73 -5.5 -128t-18.5 -99t-36 -67t-57 -23q-44 0 -72.5 22.5t-41.5 87.5q-15 78 -15 170q0 11 0.5 31t0.5 29v46q0 31 6 62.5t19.5 65.5t42 55t67.5 21q45 0 75.5 -46.5t32.5 -102.5zM145 58q48 0 48 245q0 123 -7 166q-3 20 -13.5 38
t-26.5 18q-17 0 -28 -16t-19 -70.5t-8 -149.5q0 -231 54 -231z" />
    <glyph glyph-name="uni043F" unicode="&#x43f;" horiz-adv-x="296" 
d="M242 574q14 -6 18.5 -15.5t4.5 -34.5q0 -243 -1 -336q0 -20 -0.5 -64t-0.5 -49v-51q0 -3 -3 -8t-12 -11t-22 -6q-22 0 -27.5 8t-5.5 25v14q0 3 0.5 9t0.5 9q3 177 3 451q-33 -1 -97 -1q0 -236 -1 -328q0 -19 -0.5 -62.5t-0.5 -48.5v-51q0 -3 -3.5 -8t-13 -11t-22.5 -6
q-20 0 -26 7.5t-6 23.5v15q0 3 0.5 9t0.5 10q2 122 2 462v10q0 17 11.5 29t31.5 12q161 0 169 -3z" />
    <glyph glyph-name="uni0440" unicode="&#x440;" horiz-adv-x="285" 
d="M32 515q12 64 112 64q75 0 104 -46q15 -23 15 -90q0 -115 -14 -159q-25 -75 -99 -75h-15.5h-15t-13.5 1h-5q-3 -3 -3 -116l1 -56q0 -8 -10.5 -24t-29.5 -16q-31 0 -31 21zM103 512q-3 -107 -3 -169q0 -13 0.5 -35t0.5 -36h39q23 0 37.5 22t14.5 55q0 4 0.5 25.5t0.5 33.5
v28q0 45 -12.5 64t-48.5 19q-27 0 -29 -7z" />
    <glyph glyph-name="uni0441" unicode="&#x441;" horiz-adv-x="291" 
d="M262 424q-11 -13 -35 -13q-26 0 -31 8q-3 12 -3 28q-2 21 -4.5 32.5t-13 24t-28.5 12.5q-23 0 -35.5 -31.5t-12.5 -67.5q0 -4 -0.5 -16t-0.5 -20q-1 -23 -1 -89v-71q0 -154 53 -154q55 0 55 65v10v13v11q2 11 13.5 16.5t22.5 5.5q20 0 25.5 -10t5.5 -30q0 -47 -7 -66
q-36 -78 -114 -78q-109 0 -119 124q-7 80 -7 203q0 91 12 145q12 59 42.5 81t75.5 22q70 0 97 -75q13 -35 10 -80z" />
    <glyph glyph-name="uni0442" unicode="&#x442;" horiz-adv-x="242" 
d="M-1 552q6 20 24 27q192 0 199 -3q5 -3 12 -13.5t7 -16.5q0 -5 -7 -18t-12 -13h-26q-11 -1 -42 -1q0 -235 -1 -326q0 -19 -0.5 -63t-0.5 -49v-52q0 -2 -4 -7.5t-13.5 -11.5t-21.5 -6q-21 0 -28 8t-7 25v14q0 3 0.5 9t0.5 9q3 171 3 449h-28q-33 0 -38 1q-18 3 -18 28
q0 7 1 10z" />
    <glyph glyph-name="uni0443" unicode="&#x443;" horiz-adv-x="278" 
d="M201 571q16 8 29 8q20 0 25 -21q2 -10 2 -25v-12q-9 -377 -15 -411q-19 -111 -115 -111q-11 0 -22.5 3t-29.5 13t-29.5 35.5t-11.5 63.5q0 22 9 30.5t28 8.5q12 0 17 -2.5t10.5 -16.5t7.5 -44q3 -32 31 -32q38 0 38 65l2 88q-25 -7 -48 -7q-27 0 -46 10q-25 13 -38.5 59
t-15 80t-1.5 90v41q1 16 1 56q6 26 27 34q9 3 19 3q21 0 21 -30q0 -12 -0.5 -46.5t0 -51.5t1.5 -45.5t3.5 -52.5t7.5 -47q7 -41 38 -41q15 0 33 11q6 214 6 245q0 33 16 52z" />
    <glyph glyph-name="uni0444" unicode="&#x444;" horiz-adv-x="404" 
d="M237 558h9q97 0 121 -105q13 -61 13 -165q0 -64 -7 -116q-9 -64 -37 -99t-87 -35q-11 0 -15 1v-25q0 -4 -4 -11t-14.5 -14t-24.5 -7q-27 0 -27 26v30h-14q-59 0 -86.5 35t-35.5 99q-8 57 -8 116q0 104 13 165q24 105 121 105h10v23q5 14 16.5 24t24.5 10q22 0 33 -20z
M164 96v403q-6 2 -16 2q-29 0 -41.5 -34t-12.5 -75q0 -17 -1 -25q-3 -64 -2 -88v-29q0 -154 61 -154h12zM252 501q-10 0 -15 -2l-3 -403h14q60 0 60 154v29q0 62 -1 85q-2 22 -2 28q0 41 -12.5 75t-40.5 34z" />
    <glyph glyph-name="uni0445" unicode="&#x445;" horiz-adv-x="303" 
d="M-3 22q58 139 119 281q-19 49 -47.5 126.5t-36.5 96.5q-6 15 -6 25q13 24 35 24q12 0 21.5 -10t13.5 -23q7 -13 15.5 -35.5t21 -56.5t21.5 -58q64 142 80 174q1 3 9 7.5t16 4.5q9 0 21.5 -9t13.5 -20q0 -4 -3 -13q-15 -28 -102 -232q69 -172 113 -277q-11 -30 -35 -30
q-16 0 -25 9q-19 24 -92 207l-77 -184q-14 -34 -40 -34q-10 0 -22.5 7.5t-13.5 19.5z" />
    <glyph glyph-name="uni0446" unicode="&#x446;" horiz-adv-x="342" 
d="M194 -12q-125 0 -140 4q-15 6 -20 16t-5 35q0 59 1 178t1 165q0 31 0.5 70t0.5 44v52q0 3 2.5 9t11.5 12t22 6q21 0 27.5 -8t6.5 -26v-15q0 -3 -0.5 -9t-0.5 -8q-3 -183 -3 -460h14q8 0 24 -0.5t24 -0.5h34q0 59 1 175.5t1 160.5q0 30 0.5 68.5t0.5 43.5v52q0 3 4 9
t14 12t23 6q15 0 22 -4.5t8 -10t1 -18.5v-16q0 -3 -0.5 -9t-0.5 -8q-3 -180 -3 -464q43 0 53 -8q11 -7 11 -48l-3 -45q-1 -18 -28 -18q-28 0 -28 18v39z" />
    <glyph glyph-name="uni0447" unicode="&#x447;" horiz-adv-x="292" 
d="M36 564q14 14 32 14q19 0 29 -10q6 -6 6 -74v-71q0 -80 10.5 -115.5t39.5 -35.5h39q0 6 0.5 19t0.5 20q2 84 2 150v82q0 34 27 34q17 0 30.5 -11.5t13.5 -38.5l-5 -508q0 -20 -29 -20q-14 0 -23.5 8t-12.5 14.5t-3 10.5v63l-1 116h-49q-75 0 -99 77q-13 41 -13 147
q0 93 3 124z" />
    <glyph glyph-name="uni0448" unicode="&#x448;" horiz-adv-x="373" 
d="M52 5q-14 7 -18.5 15t-4.5 32q0 59 0.5 176.5t0.5 162.5q0 29 0.5 67t0.5 43v52q0 4 1 8.5t9 11t22 6.5q37 0 37 -34v-15q0 -3 -0.5 -8.5t-0.5 -7.5q-2 -120 -2 -450q38 0 60 -1q0 55 1 167t1 154q0 31 0.5 69t0.5 43v52q0 3 2 8t10.5 11.5t21.5 6.5q33 0 33 -28v-37
q-3 -156 -3 -446h54q0 57 0.5 170t0.5 157q0 30 0.5 68t0.5 43v52q0 2 4 8t13.5 12t21.5 6q13 0 19.5 -4.5t7.5 -10t1 -17.5v-16q0 -3 -0.5 -9t-0.5 -8q-1 -61 -1 -466v-9q0 -37 -39 -37h-13q-235 0 -241 3z" />
    <glyph glyph-name="uni0449" unicode="&#x449;" horiz-adv-x="421" 
d="M277 2q-219 0 -224 3q-14 7 -18.5 15t-4.5 32q0 59 0.5 176.5t0.5 162.5q0 29 0.5 67t0.5 43v52q0 4 1 8.5t9 11t22 6.5q36 0 36 -34v-15q0 -3 -0.5 -8.5t-0.5 -7.5q-2 -120 -2 -450q38 0 60 -1q0 55 1 167t1 154q0 31 0.5 69t0.5 43v52q0 3 2 8t10.5 11.5t21.5 6.5
q33 0 33 -28v-37q-3 -156 -3 -446h54q0 57 0.5 170t0.5 157q0 30 0.5 68t0.5 43v52q0 2 4 8t14 12t22 6q13 0 19.5 -4.5t7.5 -10t1 -17.5v-16q0 -3 -0.5 -9t-0.5 -8q-2 -116 -2 -451q45 0 56 -9q11 -7 11 -47l-3 -46q-1 -17 -28 -17q-28 0 -28 17v40z" />
    <glyph glyph-name="uni044A" unicode="&#x44a;" horiz-adv-x="326" 
d="M79 513q-26 0 -38 1l-24 1q-21 0 -21 25q0 18 18 32q9 5 95 5q11 0 24.5 -9t16.5 -19q-1 -5 -1 -66l-3 -142h51q54 0 90 -40q27 -32 27 -101q0 -40 -1.5 -66t-8 -53.5t-18 -43t-32 -25.5t-50.5 -10h-98q-9 0 -14 4q-17 10 -17 35zM144 96q0 -24 -1 -34h50q25 0 39.5 23.5
t14.5 57.5v46q0 47 -13 70.5t-52 23.5h-37q-1 -57 -1 -187z" />
    <glyph glyph-name="uni044B" unicode="&#x44b;" horiz-adv-x="406" 
d="M37 554q2 11 13 17t19 6q9 0 22 -9t16 -19q-1 -5 -1 -66l-3 -142h51q54 0 90 -40q27 -31 27 -101q0 -41 -1.5 -66t-7.5 -53t-17.5 -43t-32.5 -25.5t-51 -10.5h-91q-16 0 -20 2q-17 8 -17 37zM306 554q2 11 12.5 17t19.5 6q10 0 22.5 -9t15.5 -19q-1 -5 -1 -66
q-5 -227 -5 -387l-2 -57q-1 -10 -11.5 -23.5t-28.5 -13.5q-14 0 -20.5 12.5t-6.5 26.5zM101 96q0 -24 -1 -34h51q24 0 39 24t15 57v46q0 47 -13.5 70.5t-51.5 23.5h-38q-1 -57 -1 -187z" />
    <glyph glyph-name="uni044C" unicode="&#x44c;" horiz-adv-x="292" 
d="M37 554q2 11 13 17t19 6q9 0 22 -9t16 -19q-1 -5 -1 -66l-3 -142h51q54 0 90 -40q27 -31 27 -101q0 -41 -1.5 -66t-7.5 -53t-17.5 -43t-32.5 -25.5t-51 -10.5h-91q-16 0 -20 2q-17 8 -17 37zM101 96q0 -24 -1 -34h51q24 0 39 24t15 57v46q0 47 -13.5 70.5t-51.5 23.5h-38
q-1 -57 -1 -187z" />
    <glyph glyph-name="uni044D" unicode="&#x44d;" horiz-adv-x="275" 
d="M17 426q2 45 12 77q27 75 98 75q46 0 76.5 -21.5t40.5 -80.5q11 -62 11 -146q0 -134 -5 -195t-34 -99t-86 -38q-80 0 -113 80q-9 22 -9 65q0 20 6 30.5t26 10.5q10 0 21 -6t12 -16q-1 -13 -1 -34q0 -30 19 -49.5t43 -19.5q53 0 53 161q0 29 -1 41h-91q-11 0 -18 10.5
t-7 22.5t8 22t20 10h87q0 72 -1 90q-4 103 -51 103q-16 0 -26 -7t-14.5 -21.5t-6 -23t-3.5 -26.5l-3 -24q-7 -7 -26 -7q-24 0 -37 16z" />
    <glyph glyph-name="uni044E" unicode="&#x44e;" horiz-adv-x="411" 
d="M386 436q0 -22 2 -66q1 -17 1 -58q0 -150 -26 -232t-90 -82q-42 0 -71 23t-42 86q-8 38 -14 117l-45 -1v-123q0 -21 -0.5 -32.5t-2.5 -28t-7.5 -25t-14.5 -10.5h-15q-28 0 -28 29v231v215v70q0 24 34 24q12 0 24 -7t12 -16q-2 -244 -2 -267q11 1 36 1h8q0 9 0.5 27
t0.5 26v43q0 31 5.5 62t18.5 65t41.5 55t68.5 21q45 0 74.5 -46t31.5 -101zM269 55q50 0 50 246q0 127 -7 163q-3 20 -14.5 39t-27.5 19q-17 0 -28.5 -16.5t-20 -71t-8.5 -148.5q0 -231 56 -231z" />
    <glyph glyph-name="uni044F" unicode="&#x44f;" horiz-adv-x="284" 
d="M148 577q90 0 109 -55l-8 -503q0 -21 -28 -21q-19 0 -30 15.5t-11 24.5q2 24 2 56v36q0 6 0.5 18.5t0.5 17.5q0 42 1 43h-5q-3 0 -8 -0.5t-7 -0.5q-31 -24 -56.5 -82.5t-35.5 -110.5q-2 -5 -13.5 -12t-21.5 -7q-21 0 -35 14q18 118 83 209q-32 17 -47 65q-11 34 -11 158
q0 52 21 84q33 51 100 51zM185 265q2 47 2 248q-10 6 -27 6q-67 0 -67 -84q0 -70 -1 -87q4 -83 54 -83h39z" />
    <glyph glyph-name="uni0451" unicode="&#x451;" horiz-adv-x="232" 
d="M45 721q15 7 35 7q34 0 34 -44q0 -39 -43 -39q-17 0 -29.5 14.5t-12.5 32.5q0 19 16 29zM141 721q17 7 36 7q34 0 34 -44q0 -39 -43 -39q-18 0 -30 14.5t-12 32.5t15 29zM100 510q-1 0 -1 -58q0 -30 -0.5 -57t-0.5 -29v-17q0 -26 -1 -26q2 -1 53 -1h13q25 0 31 -8t6 -28
q0 -30 -30 -30h-50q-11 0 -14 -2t-3 -8q0 -10 0.5 -33.5t0.5 -36.5t-0.5 -37t-0.5 -35q0 -10 -0.5 -24.5t-0.5 -18.5h30q5 0 18.5 1.5t18.5 1.5q32 0 38 -13q3 -6 3 -24q0 -10 -7.5 -16.5t-16.5 -7.5q-54 -6 -109 -6q-28 0 -38 8.5t-10 33.5v47q3 79 3 310l1 97q2 50 15 74
q7 10 83 10h26q23 0 33 -1.5t16 -8t6 -20.5q0 -20 -10 -27t-44 -7h-8z" />
    <glyph glyph-name="Wgrave" unicode="&#x1e80;" horiz-adv-x="594" 
d="M236 840q16 12 40 12h4.5h2.5l1 -1q12 -8 26.5 -22.5t23.5 -24.5l8 -11q19 -24 19 -40q0 -20 -32 -20q-11 0 -47 31.5t-43 42.5q-9 13 -9 20t6 13zM467 373v-1l55 310q10 18 40 18q28 0 28 -32q0 -5 -8 -58q-57 -335 -110 -539q-7 -24 -11 -35.5t-17 -22t-34 -10.5
q-50 0 -65 97q-18 110 -50 339q-49 -261 -78 -368q-8 -35 -20 -51.5t-42 -16.5q-50 0 -65 97q-24 144 -59 411q-3 27 -9.5 64t-10.5 62t-4 33q0 16 10 21.5t35 7.5q10 0 21.5 -7.5t14.5 -15.5q7 -32 15 -114q2 -23 60 -439l50 250l42 170q0 9 16.5 24t31.5 15t26 -7.5
t13 -17.5q12 -45 23 -118l15 -103q15 -102 36 -215z" />
    <glyph glyph-name="wgrave" unicode="&#x1e81;" horiz-adv-x="508" 
d="M183 726q16 12 40 12h4.5h2.5l1 -1q12 -8 26.5 -22.5t22.5 -24.5l9 -11q19 -24 19 -40q0 -20 -32 -20q-11 0 -47 31.5t-43 42.5q-9 13 -9 20t6 13zM380 308l46 254q9 15 39 15q24 0 24 -33q0 -7 -7 -42q-43 -265 -87 -431q-7 -25 -12 -37t-15.5 -21.5t-27.5 -9.5
q-42 0 -54 80q-21 124 -34 226l-5 34q-35 -175 -61 -272q-1 -2 -3 -12.5t-4 -15.5t-6 -14t-9 -13.5t-13.5 -8.5t-19.5 -4q-42 0 -54 80q-23 130 -51 328q-1 9 -5.5 54.5t-7.5 66.5q-2 8 -2 12q0 33 28 33q9 0 20.5 -6t13.5 -15q6 -24 17 -101.5t25 -179.5t22 -154
q6 32 19.5 96t19.5 92l33 140q-1 6 14.5 19t29.5 13q13 0 24 -6.5t12 -15.5q11 -57 29.5 -172.5t27.5 -164.5z" />
    <glyph glyph-name="Wacute" unicode="&#x1e82;" horiz-adv-x="594" 
d="M355 841q7 -6 7 -14q0 -9 -9 -22q-16 -20 -47.5 -46t-42.5 -26q-33 0 -33 20q0 15 20 40l4 5q3 4 8 10.5t11.5 13.5t13.5 13.5t13 10.5q12 6 17 6q23 0 38 -11zM467 373v-1l55 310q10 18 40 18q28 0 28 -32q0 -5 -8 -58q-57 -335 -110 -539q-7 -24 -11 -35.5t-17 -22
t-34 -10.5q-50 0 -65 97q-18 110 -50 339q-49 -261 -78 -368q-8 -35 -20 -51.5t-42 -16.5q-50 0 -65 97q-24 144 -59 411q-3 27 -9.5 64t-10.5 62t-4 33q0 16 10 21.5t35 7.5q10 0 21.5 -7.5t14.5 -15.5q7 -32 15 -114q2 -23 60 -439l50 250l42 170q0 9 16.5 24t31.5 15
t26 -7.5t13 -17.5q12 -45 23 -118l15 -103q15 -102 36 -215z" />
    <glyph glyph-name="wacute" unicode="&#x1e83;" horiz-adv-x="508" 
d="M301 727q7 -6 7 -14q0 -9 -9 -22q-16 -20 -47.5 -46t-42.5 -26q-32 0 -32 20q0 16 19 40l4 5q3 4 8 10.5t11.5 13.5t13.5 13.5t13 10.5q12 6 17 6q23 0 38 -11zM380 308l46 254q9 15 39 15q24 0 24 -33q0 -7 -7 -42q-43 -265 -87 -431q-7 -25 -12 -37t-15.5 -21.5
t-27.5 -9.5q-42 0 -54 80q-21 124 -34 226l-5 34q-35 -175 -61 -272q-1 -2 -3 -12.5t-4 -15.5t-6 -14t-9 -13.5t-13.5 -8.5t-19.5 -4q-42 0 -54 80q-23 130 -51 328q-1 9 -5.5 54.5t-7.5 66.5q-2 8 -2 12q0 33 28 33q9 0 20.5 -6t13.5 -15q6 -24 17 -101.5t25 -179.5
t22 -154q6 32 19.5 96t19.5 92l33 140q-1 6 14.5 19t29.5 13q13 0 24 -6.5t12 -15.5q11 -57 29.5 -172.5t27.5 -164.5z" />
    <glyph glyph-name="Wdieresis" unicode="&#x1e84;" horiz-adv-x="594" 
d="M220 834q15 7 35 7q34 0 34 -44q0 -39 -43 -39q-17 0 -29.5 14.5t-12.5 32.5q0 19 16 29zM316 834q17 7 36 7q34 0 34 -44q0 -39 -43 -39q-18 0 -30 14.5t-12 32.5q0 19 15 29zM467 373v-1l55 310q10 18 40 18q28 0 28 -32q0 -5 -8 -58q-57 -335 -110 -539
q-7 -24 -11 -35.5t-17 -22t-34 -10.5q-50 0 -65 97q-18 110 -50 339q-49 -261 -78 -368q-8 -35 -20 -51.5t-42 -16.5q-50 0 -65 97q-24 144 -59 411q-3 27 -9.5 64t-10.5 62t-4 33q0 16 10 21.5t35 7.5q10 0 21.5 -7.5t14.5 -15.5q7 -32 15 -114q2 -23 60 -439l50 250
l42 170q0 9 16.5 24t31.5 15t26 -7.5t13 -17.5q12 -45 23 -118l15 -103q15 -102 36 -215z" />
    <glyph glyph-name="wdieresis" unicode="&#x1e85;" horiz-adv-x="508" 
d="M167 720q15 7 35 7q34 0 34 -44q0 -39 -43 -39q-17 0 -29.5 14.5t-12.5 32.5q0 19 16 29zM263 720q17 7 36 7q34 0 34 -44q0 -39 -43 -39q-18 0 -30 14.5t-12 32.5q0 19 15 29zM380 308l46 254q9 15 39 15q24 0 24 -33q0 -7 -7 -42q-43 -265 -87 -431q-7 -25 -12 -37
t-15.5 -21.5t-27.5 -9.5q-42 0 -54 80q-21 124 -34 226l-5 34q-35 -175 -61 -272q-1 -2 -3 -12.5t-4 -15.5t-6 -14t-9 -13.5t-13.5 -8.5t-19.5 -4q-42 0 -54 80q-23 130 -51 328q-1 9 -5.5 54.5t-7.5 66.5q-2 8 -2 12q0 33 28 33q9 0 20.5 -6t13.5 -15q6 -24 17 -101.5
t25 -179.5t22 -154q6 32 19.5 96t19.5 92l33 140q-1 6 14.5 19t29.5 13q13 0 24 -6.5t12 -15.5q11 -57 29.5 -172.5t27.5 -164.5z" />
    <glyph glyph-name="Ygrave" unicode="&#x1ef2;" horiz-adv-x="321" 
d="M100 840q16 12 40 12h4.5h2.5l1 -1q12 -8 26.5 -22.5t23.5 -24.5l8 -11q19 -24 19 -40q0 -20 -32 -20q-11 0 -47 31.5t-43 42.5q-9 13 -9 20t6 13zM237 686q11 11 28 11q21 0 28 -27q2 -14 2 -43q0 -34 -6.5 -252.5t-10.5 -243.5q-24 -132 -137 -132q-10 0 -20.5 1.5
t-28 9.5t-30.5 21.5t-23 41t-10 64.5q0 45 43 45q8 0 13.5 -2t12 -8.5t9.5 -23t3 -42.5q0 -42 41 -42q29 0 42.5 24.5t13.5 58.5l4 112q-33 -12 -69 -12q-18 0 -53 15q-24 11 -39 40t-20.5 76t-7 77t-1.5 79q0 9 0.5 25.5t0.5 24.5q1 19 1 69q0 10 15.5 26t31.5 16
q25 0 25 -35q0 -186 12 -293q2 -9 7 -19.5t18.5 -21.5t30.5 -11q18 0 51 20l7 292q0 43 16 59z" />
    <glyph glyph-name="ygrave" unicode="&#x1ef3;" horiz-adv-x="278" 
d="M78 727q16 12 40 12q3 0 4.5 -0.5t2.5 -0.5h1q12 -8 26.5 -22.5t23.5 -25.5l8 -10q19 -24 19 -40q0 -20 -32 -20q-11 0 -47 31.5t-43 42.5q-9 14 -9 20q0 7 6 13zM201 571q16 8 29 8q20 0 25 -21q2 -10 2 -25v-12q-9 -377 -15 -411q-19 -111 -115 -111q-11 0 -22.5 3
t-29.5 13t-29.5 35.5t-11.5 63.5q0 22 9 30.5t28 8.5q12 0 17 -2.5t10.5 -16.5t7.5 -44q3 -32 31 -32q38 0 38 65l2 88q-25 -7 -48 -7q-27 0 -46 10q-25 13 -38.5 59t-15 80t-1.5 90v41q1 16 1 56q6 26 27 34q9 3 19 3q21 0 21 -30q0 -12 -0.5 -46.5t0 -51.5t1.5 -45.5
t3.5 -52.5t7.5 -47q7 -41 38 -41q15 0 33 11q6 214 6 245q0 33 16 52z" />
    <glyph glyph-name="endash" unicode="&#x2013;" horiz-adv-x="363" 
d="M328 247q-4 -40 -27 -40h-241q-20 0 -25.5 10.5t-5.5 30.5q0 15 9 24t23 9h236q13 0 22 -9.5t9 -24.5z" />
    <glyph glyph-name="emdash" unicode="&#x2014;" horiz-adv-x="454" 
d="M411 247q-4 -40 -28 -40h-323q-14 0 -21 7t-8 14t-1 20q0 15 9 24t22 9h318q13 0 22.5 -9.5t9.5 -24.5z" />
    <glyph glyph-name="quoteleft" unicode="&#x2018;" horiz-adv-x="160" 
d="M111 521q-22 -12 -41 -12q-25 0 -33.5 14.5t-8.5 41.5q0 17 16 62t28 62q10 12 24 12q12 0 20.5 -11t8.5 -18q-14 -52 -15 -68q21 -16 21 -49q0 -23 -20 -34z" />
    <glyph glyph-name="quoteright" unicode="&#x2019;" horiz-adv-x="162" 
d="M48 689q22 12 41 12q25 0 33.5 -14.5t8.5 -41.5q0 -17 -16 -62t-28 -62q-10 -12 -24 -12q-12 0 -20.5 11t-8.5 18q14 52 15 68q-21 16 -21 49q0 23 20 34z" />
    <glyph glyph-name="quotesinglbase" unicode="&#x201a;" horiz-adv-x="161" 
d="M48 104q22 12 41 12q25 0 33.5 -14.5t8.5 -41.5q0 -17 -16 -62t-28 -62q-10 -12 -24 -12q-12 0 -20.5 11t-8.5 18q14 52 15 68q-21 16 -21 49q0 23 20 34z" />
    <glyph glyph-name="quotedblleft" unicode="&#x201c;" horiz-adv-x="292" 
d="M111 521q-22 -12 -41 -12q-25 0 -33.5 14.5t-8.5 41.5q0 17 16 62t28 62q10 12 24 12q12 0 20.5 -11t8.5 -18q-14 -52 -15 -68q21 -16 21 -49q0 -23 -20 -34zM233 521q-22 -12 -41 -12q-25 0 -33.5 14.5t-8.5 41.5q0 17 16 62t28 62q10 12 24 12q12 0 20.5 -11t8.5 -18
q-14 -52 -15 -68q21 -16 21 -49q0 -23 -20 -34z" />
    <glyph glyph-name="quotedblright" unicode="&#x201d;" horiz-adv-x="292" 
d="M49 689q22 12 41 12q25 0 33.5 -14.5t8.5 -41.5q0 -17 -16 -62t-28 -62q-10 -12 -24 -12q-12 0 -20.5 11t-8.5 18q14 52 15 68q-21 16 -21 49q0 23 20 34zM168 689q22 12 41 12q25 0 33.5 -14.5t8.5 -41.5q0 -17 -16 -62t-28 -62q-10 -12 -24 -12q-12 0 -20.5 11t-8.5 18
q14 52 15 68q-21 16 -21 49q0 23 20 34z" />
    <glyph glyph-name="quotedblbase" unicode="&#x201e;" horiz-adv-x="285" 
d="M48 104q22 12 41 12q25 0 33.5 -14.5t8.5 -41.5q0 -17 -16 -62t-28 -62q-10 -12 -24 -12q-12 0 -20.5 11t-8.5 18q14 52 15 68q-21 16 -21 49q0 23 20 34zM167 104q22 12 41 12q25 0 33.5 -14.5t8.5 -41.5q0 -17 -16 -62t-28 -62q-10 -12 -24 -12q-12 0 -20.5 11t-8.5 18
q14 52 15 68q-21 16 -21 49q0 23 20 34z" />
    <glyph glyph-name="dagger" unicode="&#x2020;" horiz-adv-x="300" 
d="M280 510q-3 -40 -27 -40h-72q0 -129 0.5 -232t1 -148t0.5 -57v-20q0 -17 -3 -26q-8 -17 -22 -17q-43 0 -52 43v11v30.5t-0.5 44t-0.5 58v66.5v247h-68q-14 0 -21 7t-8 14t-1 20q0 14 9 23.5t22 9.5h67q-2 170 -2 171q10 22 34 22q17 0 30 -10t13 -29v-154h69
q12 0 21.5 -10t9.5 -24z" />
    <glyph glyph-name="daggerdbl" unicode="&#x2021;" horiz-adv-x="287" 
d="M276 285q-4 -40 -27 -40h-68q0 -57 0.5 -104t0.5 -73.5v-34.5v-20q0 -17 -3 -26q-9 -17 -22 -17q-43 0 -52 43v11q0 11 -0.5 30.5t-0.5 44v58v66.5v22h-71q-13 0 -20.5 7t-8.5 14.5t-1 19.5q0 15 8.5 24t22.5 9h70v151h-71q-14 0 -21 7t-8 14t-1 20q0 14 9 23.5t22 9.5
h70q-2 170 -2 171q10 22 34 22q17 0 30 -10t13 -29v-154h66q12 0 21.5 -10t9.5 -24q-3 -40 -27 -40h-69v-151h65q12 0 21.5 -9.5t9.5 -24.5z" />
    <glyph glyph-name="bullet" unicode="&#x2022;" horiz-adv-x="270" 
d="M140 415q69 0 69 -79q0 -35 -23 -55.5t-55 -20.5t-51.5 25t-19.5 60q0 30 24 50t56 20z" />
    <glyph glyph-name="ellipsis" unicode="&#x2026;" horiz-adv-x="480" 
d="M51 100q22 11 41 11q25 0 33 -14t8 -41q0 -24 -14 -37t-38 -13q-21 0 -35.5 18.5t-14.5 40.5q0 23 20 35zM207 100q24 11 41 11q25 0 33 -14t8 -41q0 -24 -14 -37t-38 -13q-21 0 -35.5 18.5t-14.5 40.5q0 23 20 35zM363 100q24 11 41 11q25 0 33 -14t8 -41q0 -50 -52 -50
q-21 0 -35 18.5t-14 40.5q0 23 19 35z" />
    <glyph glyph-name="perthousand" unicode="&#x2030;" horiz-adv-x="895" 
d="M30 558q0 62 35.5 98t91.5 36q51 0 85 -39t34 -95q0 -49 -34 -88t-93 -39q-51 0 -83.5 38t-35.5 89zM462 668q7 22 38 22q42 0 42 -27v-3q-1 -4 -1 -6q-10 -7 -420 -622q-6 -9 -9.5 -13.5t-12 -8.5t-20.5 -4q-13 0 -19 1t-12 7t-6 18q0 17 16 47zM110 566q0 -28 10.5 -46
t30.5 -18q22 0 35 16.5t13 40.5q0 61 -43 61q-42 0 -46 -54zM329 142q0 62 35 97.5t92 35.5q51 0 85 -39t34 -94q0 -50 -34 -89t-93 -39q-51 0 -83.5 38t-35.5 90zM608 142q0 62 35 97.5t92 35.5q51 0 85 -39t34 -94q0 -50 -34 -89t-93 -39q-51 0 -83.5 38t-35.5 90z
M409 149q0 -64 41 -64q22 0 35 17t13 41q0 60 -43 60q-41 0 -46 -54zM688 149q0 -64 41 -64q22 0 35 17t13 41q0 60 -43 60q-42 0 -46 -54z" />
    <glyph glyph-name="guilsinglleft" unicode="&#x2039;" horiz-adv-x="219" 
d="M165 446q3 1 11 -1q19 -19 19 -36q0 -13 -6 -21q-7 -9 -30.5 -31t-44.5 -39l-20 -18l83 -81q20 -19 20 -38q0 -18 -16 -31q-5 -4 -20 -4t-20 5l-23 21q-115 102 -115 129q0 10 40.5 46.5t80.5 67.5z" />
    <glyph glyph-name="guilsinglright" unicode="&#x203a;" horiz-adv-x="257" 
d="M59 147q-6 -1 -11 1q-20 16 -20 37q0 7 8 21q6 9 29.5 31t44.5 39l20 18q-61 61 -83 81q-21 21 -21 38q0 15 17 30q6 5 19 5q11 0 21 -7l23 -19q114 -98 114 -129q0 -11 -40 -47.5t-80 -67.5z" />
    <glyph glyph-name="fraction" unicode="&#x2044;" horiz-adv-x="605" 
d="M471 679q8 23 38 23q40 0 41 -36q-4 -3 -217 -318l-213 -315q-6 -10 -9.5 -14.5t-12 -8.5t-20.5 -4q-13 0 -19 1t-12 7t-6 18q0 24 16 47z" />
    <glyph glyph-name="Euro" unicode="&#x20ac;" horiz-adv-x="383" 
d="M288 293q-5 -31 -27 -31h-117q0 -7 0.5 -18.5t0.5 -19.5q1 -33 2.5 -54.5t8 -50t22.5 -43.5t40 -15q74 0 74 97q0 33 35 33q25 0 30 -5.5t5 -28.5q0 -64 -42 -108.5t-103 -44.5q-131 0 -143 149q-4 37 -7 109h-33q-10 0 -13.5 7t-3.5 24q0 13 7.5 22.5t20.5 9.5h20v43
h-31q-17 0 -17 31t28 31h20q4 93 15 145q26 124 141 124q55 0 90 -40.5t37 -94.5v-21q-12 -17 -42 -17q-21 0 -27 8l-3 25q-3 19 -5 28t-8.5 24t-19.5 22t-32 7q-28 0 -43 -28t-18 -61l-5 -121h112q13 0 22 -9t9 -22q-6 -31 -27 -31h-117v-43h113q13 0 22 -9.5t9 -22.5z" />
    <glyph glyph-name="trademark" unicode="&#x2122;" horiz-adv-x="480" 
d="M383 688q16 7 36 7q19 0 19 -27q0 -15 0.5 -43t0.5 -42q2 -108 2 -176q0 -40 -37 -40q-13 0 -17 21v166q-14 -66 -31 -127q-7 -21 -34 -21q-21 0 -26 21q-26 79 -41 136v-56q0 -21 0.5 -61.5t0.5 -58.5q-1 -18 -26 -18q-10 0 -17.5 9t-7.5 16q-2 32 -2 281q7 21 37 21
q16 0 29 -9l57 -219q8 52 37 187q6 26 20 33zM121 386q0 -3 -10 -11t-20 -8q-25 0 -25 23v17q0 7 0.5 71t0.5 100v61h-5q-46 0 -52 4q-8 7 -8 27q0 21 22 21h139q27 0 27 -17q0 -24 -13 -30q-10 -5 -55 -5q0 -34 -0.5 -91t-0.5 -77v-85z" />
    <glyph glyph-name="minus" unicode="&#x2212;" horiz-adv-x="354" 
d="M309 241q-6 -34 -28 -34h-221q-10 0 -19 9.5t-9 24.5q0 30 29 30h216q13 0 22.5 -8.5t9.5 -21.5z" />
    <glyph glyph-name="notequal" unicode="&#x2260;" horiz-adv-x="341" 
d="M246 414q10 -8 10 -19q0 -7 -4 -13l-8 -12h33q13 0 22.5 -8.5t9.5 -21.5q-5 -34 -28 -34h-78l-21 -35h95q13 0 22.5 -8.5t9.5 -21.5q-6 -34 -28 -34h-140l-28 -43q-9 -9 -18 -9t-14 4q-13 9 -13 20q0 5 6 15l8 13h-22q-10 0 -19 9.5t-9 24.5q0 30 29 30h62l22 35h-95
q-18 0 -18 34q0 30 29 30h125l19 31q12 18 27 18q6 0 14 -5z" />
    <glyph glyph-name="i.loclTRK" horiz-adv-x="210" 
d="M77 721q25 9 35 9q21 0 28 -11.5t7 -34.5q0 -20 -11.5 -31t-31.5 -11q-18 0 -30 16t-12 34q0 19 15 29zM15 552q1 22 24 25q138 0 146 -4q16 -13 16 -25q0 -5 -6.5 -19t-11.5 -14h-22q-2 0 -9 -0.5t-11 -0.5v-94q0 -158 -1 -222l-1 -101v-31h35q18 -6 23 -25
q0 -34 -15 -38q-9 -2 -126 1h-15l-10 1q-6 0 -13 13t-7 18q0 13 18 28q3 2 40 2v447q-25 0 -37 2q-17 3 -17 37z" />
    <glyph glyph-name="acutecomb.case" 
d="M-6 841q7 -6 7 -14q0 -9 -9 -22q-16 -20 -47.5 -46t-42.5 -26q-33 0 -33 20q0 15 20 40l3 5q4 4 9 10.5t11.5 13.5t13.5 13.5t13 10.5q12 6 17 6q23 0 38 -11z" />
    <glyph glyph-name="uni0306.case" 
d="M-2 827q2 -2 0 -6q-1 -3 -3 -8.5t-10 -19.5t-18 -24.5t-28 -19t-39 -8.5q-47 0 -73 24.5t-26 56.5q0 8 3 13q10 10 23 10q22 0 28 -16q18 -36 43 -36q13 0 26 13.5t21 30.5q5 10 20 10q23 0 33 -20z" />
    <glyph glyph-name="uni030C.case" 
d="M1 828q0 -7 -2 -9q-77 -77 -98 -78q-23 1 -70 44l-26 21q-7 7 -7 18q0 8 3 13q14 14 26 14q8 0 30 -15l41 -31q33 29 53 40q10 6 16 6q26 0 34 -23z" />
    <glyph glyph-name="uni0327.case" 
d="M-64 -40q37 -11 50 -28.5t13 -45.5q0 -39 -24 -57.5t-57 -18.5q-25 0 -44 10t-19 31q0 26 18 26q4 0 17 -5t19 -5q35 0 35 22q0 9 -9 14.5t-25.5 10t-18.5 5.5q-32 14 -32 40q0 14 16 42h61q-18 -31 -18 -37q15 -3 18 -4z" />
    <glyph glyph-name="uni0302.case" 
d="M-3 771q2 -3 2 -10q-10 -21 -34 -21q-10 0 -16 4q-7 3 -20.5 13.5t-23.5 19.5l-10 9q-2 -1 -18.5 -13t-26.5 -20q-20 -13 -30 -13q-12 0 -26 12q-3 4 -3 14q0 11 7 18l30 23q53 40 70 42q9 0 33.5 -19.5t44.5 -39.5z" />
    <glyph glyph-name="uni0308.case" 
d="M-166 834q15 7 35 7q34 0 34 -44q0 -39 -43 -39q-17 0 -29.5 14.5t-12.5 32.5q0 19 16 29zM-70 834q17 7 36 7q34 0 34 -44q0 -39 -43 -39q-18 0 -30 14.5t-12 32.5q0 19 15 29z" />
    <glyph glyph-name="uni0307.case" 
d="M-68 834q25 9 35 9q21 0 28 -11.5t7 -34.5q0 -20 -11.5 -31t-31.5 -11q-18 0 -30.5 16t-12.5 34q0 20 16 29z" />
    <glyph glyph-name="gravecomb.case" 
d="M-125 840q16 12 40 12h4.5h2.5l1 -1q12 -8 26.5 -22.5t22.5 -24.5l9 -11q19 -24 19 -40q0 -20 -32 -20q-11 0 -47 31.5t-43 42.5q-9 13 -9 20t6 13z" />
    <glyph glyph-name="uni030B.case" 
d="M-119 841q6 -5 6 -14q0 -8 -8 -22q-15 -19 -47 -45.5t-43 -26.5q-32 0 -32 20q0 19 19 40l4 5q3 4 8 10.5t11 13.5t13.5 13.5t13.5 10.5q12 6 16 6q24 0 39 -11zM-11 841q7 -6 7 -14q0 -9 -9 -22q-16 -20 -47.5 -46t-42.5 -26q-32 0 -32 20q0 16 19 40l4 5q3 4 8 10.5
t11.5 13.5t13.5 13.5t13 10.5q12 6 17 6q23 0 38 -11z" />
    <glyph glyph-name="uni0304.case" 
d="M0 784q-5 -35 -23 -35h-166q-26 0 -26 36q0 11 8 19t19 8h162q10 0 18 -9t8 -19z" />
    <glyph glyph-name="uni0328.case" 
d="M-41 62q0 -18 -13 -41q-7 -13 -30 -47q-11 -16 -11 -34q0 -21 14 -21q15 0 20.5 9t8.5 28q4 27 25 27q27 0 27 -29q0 -34 -16 -54q-24 -30 -71 -30q-30 0 -50.5 17.5t-20.5 48.5q0 34 20 69t49 57h48z" />
    <glyph glyph-name="uni030A.case" 
d="M-121 798q0 26 17.5 42.5t43.5 16.5q25 0 42 -18t17 -43t-17 -42t-44 -17q-25 0 -42 18t-17 43zM-76 796q0 -5 4.5 -10t9.5 -5q6 0 11.5 5t5.5 13q0 5 -4.5 10t-12.5 5q-5 0 -9.5 -6t-4.5 -12z" />
    <glyph glyph-name="tildecomb.case" 
d="M-221 779q0 17 22 41.5t53 24.5q21 0 45 -16q22 -12 33 -12q6 0 23 11q14 12 27 14q17 -9 17 -24q0 -26 -22.5 -47.5t-47.5 -21.5q-24 0 -48 18q-22 13 -26 13q-11 0 -24 -15t-26 -15q-10 0 -18 7t-8 22z" />
    <glyph glyph-name="acute.case" horiz-adv-x="125" 
d="M119 841q7 -6 7 -14q0 -9 -9 -22q-16 -20 -47.5 -46t-42.5 -26q-33 0 -33 20q0 15 20 40l4 5q3 4 8 10.5t11.5 13.5t13.5 13.5t13 10.5q12 6 17 6q23 0 38 -11z" />
    <glyph glyph-name="breve.case" horiz-adv-x="201" 
d="M199 827q2 -2 0 -6q-1 -3 -3 -8.5t-10 -19.5t-18 -24.5t-28 -19t-39 -8.5q-47 0 -73 24.5t-26 56.5q0 8 3 13q10 10 23 10q22 0 28 -16q18 -36 43 -36q13 0 26 13.5t21 30.5q5 10 20 10q23 0 33 -20z" />
    <glyph glyph-name="caron.case" horiz-adv-x="196" 
d="M197 828q0 -7 -2 -9q-77 -77 -98 -78q-23 1 -70 44l-26 21q-7 7 -7 18q0 8 3 13q14 14 26 14q8 0 30 -15l41 -31q33 29 53 40q10 6 16 6q26 0 34 -23z" />
    <glyph glyph-name="cedilla.case" horiz-adv-x="145" 
d="M81 11q37 -11 50 -28.5t13 -45.5q0 -39 -24 -57.5t-57 -18.5q-25 0 -44 10t-19 31q0 26 18 26q4 0 17 -5t19 -5q35 0 35 22q0 9 -9 14.5t-25.5 10t-18.5 5.5q-32 14 -32 40q0 14 16 42h61q-18 -31 -18 -37q15 -3 18 -4z" />
    <glyph glyph-name="circumflex.case" horiz-adv-x="211" 
d="M208 771q2 -3 2 -10q-10 -21 -34 -21q-10 0 -16 4q-7 3 -20.5 13.5t-23.5 19.5l-10 9q-2 -1 -18.5 -13t-26.5 -20q-20 -13 -30 -13q-12 0 -26 12q-3 4 -3 14q0 11 7 18l30 23q53 40 70 42q9 0 33.5 -19.5t45.5 -39.5z" />
    <glyph glyph-name="dieresis.case" horiz-adv-x="178" 
d="M12 834q15 7 35 7q34 0 34 -44q0 -39 -43 -39q-17 0 -29.5 14.5t-12.5 32.5q0 19 16 29zM108 834q17 7 36 7q34 0 34 -44q0 -39 -43 -39q-18 0 -30 14.5t-12 32.5q0 19 15 29z" />
    <glyph glyph-name="dotaccent.case" horiz-adv-x="79" 
d="M11 834q25 9 35 9q21 0 28 -11.5t7 -34.5q0 -20 -11.5 -31t-31.5 -11q-18 0 -30.5 16t-12.5 34q0 20 16 29z" />
    <glyph glyph-name="grave.case" horiz-adv-x="132" 
d="M7 840q16 12 40 12h4.5h2.5l1 -1q12 -8 26.5 -22.5t22.5 -24.5l9 -11q19 -24 19 -40q0 -20 -32 -20q-11 0 -47 31.5t-43 42.5q-9 13 -9 20t6 13z" />
    <glyph glyph-name="hungarumlaut.case" horiz-adv-x="246" 
d="M127 841q6 -5 6 -14q0 -8 -8 -22q-15 -19 -47 -45.5t-43 -26.5q-32 0 -32 20q0 19 19 40l4 5q3 4 8 10.5t11 13.5t13.5 13.5t13.5 10.5q12 6 16 6q24 0 39 -11zM235 841q7 -6 7 -14q0 -9 -9 -22q-16 -20 -47.5 -46t-42.5 -26q-32 0 -32 20q0 16 19 40l4 5q3 4 8 10.5
t11.5 13.5t13.5 13.5t13 10.5q12 6 17 6q23 0 38 -11z" />
    <glyph glyph-name="macron.case" horiz-adv-x="217" 
d="M217 784q-5 -35 -23 -35h-166q-26 0 -26 36q0 11 8 19t19 8h162q10 0 18 -9t8 -19z" />
    <glyph glyph-name="ogonek.case" horiz-adv-x="160" 
d="M119 50q0 -18 -13 -41q-7 -13 -30 -47q-11 -16 -11 -34q0 -21 14 -21q15 0 20.5 9t8.5 28q4 27 25 27q27 0 27 -29q0 -34 -16 -54q-24 -30 -71 -30q-30 0 -50.5 17.5t-20.5 48.5q0 34 20 69t49 57h48z" />
    <glyph glyph-name="ring.case" horiz-adv-x="122" 
d="M1 798q0 26 17.5 42.5t43.5 16.5q25 0 42 -18t17 -43t-17 -42t-44 -17q-25 0 -42 18t-17 43zM46 796q0 -5 4.5 -10t9.5 -5q6 0 11.5 5t5.5 13q0 5 -4.5 10t-12.5 5q-5 0 -9.5 -6t-4.5 -12z" />
    <glyph glyph-name="tilde.case" horiz-adv-x="221" 
d="M0 779q0 17 22 41.5t53 24.5q21 0 45 -16q22 -12 33 -12q7 0 23 11q14 12 27 14q17 -9 17 -24q0 -26 -22.5 -47.5t-47.5 -21.5q-24 0 -48 18q-22 13 -26 13q-11 0 -24 -15t-26 -15q-10 0 -18 7t-8 22z" />
  </font>
</defs>
</svg>
