<svg id="Слой_1" data-name="Слой 1" xmlns="http://www.w3.org/2000/svg" xmlns:xlink="http://www.w3.org/1999/xlink" viewBox="0 0 281.85 224.2"><defs><style>.cls-1{fill:none;}.cls-2{fill:#6d9a80;}.cls-3{clip-path:url(#clip-path);}.cls-4{fill:#d26970;}.cls-5{fill:#7cb795;}.cls-6{fill:#edc854;}.cls-7{fill:#d68895;}.cls-8{fill:#f6e09a;}.cls-9{fill:#131714;}</style><clipPath id="clip-path" transform="translate(0)"><rect class="cls-1" width="281.85" height="224.2"/></clipPath></defs><title>logo</title><polygon class="cls-2" points="182.89 90.82 182.89 96.34 177.37 96.34 177.37 90.82 171.68 90.82 171.68 96.34 166.15 96.34 166.15 90.82 160.46 90.82 160.46 96.34 154.94 96.34 154.94 90.82 149.24 90.82 149.24 96.34 143.72 96.34 143.72 90.82 138.03 90.82 138.03 96.34 132.5 96.34 132.5 90.82 126.81 90.82 126.81 96.34 121.29 96.34 121.29 90.82 115.76 90.82 115.76 96.34 110.24 96.34 110.24 90.82 104.55 90.82 104.55 96.34 99.02 96.34 99.02 90.82 93.41 90.82 93.41 101.73 188.43 101.73 188.43 90.82 182.89 90.82"/><g class="cls-3"><path class="cls-2" d="M114.46,129.43q0,10.56-2.3,17.11-2.46,6.94-6.79,6.94a17.72,17.72,0,0,1-2.18-.2,18.2,18.2,0,0,0-2.18-.2c-.52,0-.78.54-.78,1.61q0,2,.16,6t.16,5.94c0,.67-.13,1-.38,1q-1.11,0-3.32-.15c-1.47-.1-4.22-.15-5-.15q-.53,0-.53-1.27c0-3.23,1.66-8.08,1.7-14.55s.06-11.32.06-14.55q0-13.7-.49-28.8l0-.61c0-.55.16-.89.54-1a27,27,0,0,1,6.23-.44q2.84,0,5.45.17,4.29.31,6.92,6.5,2.68,6.37,2.68,16.67m-7.23.7q0-10.17-4.11-10.17-2.9,0-3,.79-.13.57-.13,10.08,0,1.35,0,4t0,4q0,.87,3.26.87,3.93,0,3.93-9.56" transform="translate(0)"/><path class="cls-2" d="M165.21,166.87a.46.46,0,0,1-.36.44,13.24,13.24,0,0,1-3.46.26,13,13,0,0,1-3.23-.26,1,1,0,0,1-.45-.22,2.79,2.79,0,0,1-.26-.87q-.27-1.7-.79-5.06-.71-4.36-2.21-12.87-.33-1.7-1.5-1.88.54.09-1.87.09-.27,0-.27,2.22,0,3,.23,8.86t.23,8.86c0,.49-.05.79-.16.87l-.51.09a22.71,22.71,0,0,1-3.33.17,10.16,10.16,0,0,1-3.12-.26q-.53-.26-.52-1.35,0-4.8.19-14.49t.19-14.53q0-18.46-.34-28.8l0-.61a1,1,0,0,1,.57-1,32,32,0,0,1,5.53-.52q3.35-.17,5.34-.18,4.13,0,6.74,4.5,3,5.06,3,14.62A54,54,0,0,1,164,135.1a24.49,24.49,0,0,1-2.81,7.38,2.58,2.58,0,0,0-.42,1.31s.74,3.62,2.21,11,2.21,11.38,2.21,12.13m-7.61-39.15q0-5.32-1.45-7.37a4,4,0,0,0-3.51-1.57q-1.72,0-1.83,1.27-.11,1.48-.11,8.55,0,1,0,3t0,2.93c0,.14.19.29.58.43a6.85,6.85,0,0,0,2.32.39q4,0,4-7.59" transform="translate(0)"/><path class="cls-2" d="M190.26,164.86a3.22,3.22,0,0,1-.67,2.44c-.36.29-3,.44-4.5.44a9,9,0,0,1-3.26-.44,1.46,1.46,0,0,1-.64-.46,5.24,5.24,0,0,1-.39-1.24q-1.32-5.85-2.63-11.69-2.15-9.43-2.57-10.39-2,1.7-2,2.44,0,3.27.11,9.88t.11,9.93q0,1.35-.49,1.53a11.21,11.21,0,0,1-3.4.35,8.89,8.89,0,0,1-3.11-.35q-.53-.26-.53-1.35,0-4.71.19-14.23t.19-14.27q0-5.06-.18-15.21T166.34,107q0-1,.38-1a16.19,16.19,0,0,1,1.69.13,16,16,0,0,0,1.69.13,16.27,16.27,0,0,0,1.72-.13,16.46,16.46,0,0,1,1.7-.13c.21,0,.31.26.31.78q0,3.23-.14,9.75t-.13,9.75q0,3.75.85,3.75,2.16,0,3.35-2.84a38.2,38.2,0,0,0,1.79-7.64q.58-4.23,1.9-12.48c.13-.73.4-1.09.82-1.09a11.47,11.47,0,0,1,1.42.13,11.3,11.3,0,0,0,1.42.13c.33,0,.81,0,1.46-.09s1.13-.09,1.44-.09.43.33.43,1q0,1.44-.76,7-2.25,16.5-5.16,20.6a2.57,2.57,0,0,0-.6,1.35s1.11,4.33,3.34,13.09,5,14,5,15.62" transform="translate(0)"/><path class="cls-2" d="M137.07,138q-5.41-26.84-6.53-31.42-.37-1.44-.8-1.44a15.79,15.79,0,0,0-1.79.15,15.38,15.38,0,0,1-1.82.15,12.68,12.68,0,0,1-1.93-.22,12.75,12.75,0,0,0-1.9-.22c-.24,0-.46.55-.64,1.66q-.48,2.88-6.07,31.81-5.16,26.75-5.16,27.89t3.49,1.26a20.38,20.38,0,0,0,5.21-.35q.62-.31,1-3.93a19.8,19.8,0,0,1,.87-4.67q.25-.39,4.13-.39,5.75,0,6.12.31t1.21,6.72q.21,1.66,1,2a15.37,15.37,0,0,0,4.2.35,14,14,0,0,0,4.25-.35,1.13,1.13,0,0,0,.57-1.09q0-1.18-5.43-28.19M123.3,118.2a3.17,3.17,0,0,1,6.34,0v8.58H123.3Zm7.51,29.31h-8.68V135.76a4.34,4.34,0,0,1,8.68,0Z" transform="translate(0)"/><path class="cls-4" d="M92.25,81,65.05,24.56V13.29a10.37,10.37,0,0,0,3.78,0,15.6,15.6,0,0,0,7.56-2.64c2.88-2,8.27-6.48,12-4.9.13.05-7.31-4.1-11.48-3-2.44.65-4.71,1.69-7.31,1.59-1.65-.07-3-.74-4.53-.87V0H62.32V25.25L36.49,81h3.83L57.66,41.82,52.89,81Z" transform="translate(0)"/><path class="cls-5" d="M90.34,86H38.4a1.91,1.91,0,0,0-1.91,1.91c0,1.06,3.18,4.24,4.24,4.24v3.14a1.91,1.91,0,0,0,1.91,1.91H86.1A1.91,1.91,0,0,0,88,95.26V92.12c1.06,0,4.24-3.18,4.24-4.24A1.91,1.91,0,0,0,90.34,86" transform="translate(0)"/><path class="cls-5" d="M52.89,99.36l-1.5,58.49L44,99.36H40.73l7.11,59.86L0,166.87H81.82L88,99.36ZM67.24,147.5H58.56V135.75a4.34,4.34,0,0,1,8.68,0Zm0-24.6H58.56V111.15a4.34,4.34,0,1,1,8.68,0Z" transform="translate(0)"/><path class="cls-5" d="M191.51,86h51.93a1.91,1.91,0,0,1,1.91,1.91c0,1.06-3.18,4.24-4.24,4.24v3.14a1.91,1.91,0,0,1-1.91,1.91H195.74a1.91,1.91,0,0,1-1.91-1.91V92.12c-1.06,0-4.24-3.18-4.24-4.24A1.91,1.91,0,0,1,191.51,86" transform="translate(0)"/><path class="cls-5" d="M193.83,99.36l6.2,67.51h81.82L234,159.22l7.11-59.86h-3.28l-7.38,58.49L229,99.36Zm20.77,36.39a4.34,4.34,0,0,1,8.68,0V147.5H214.6Zm0-24.6a4.34,4.34,0,0,1,8.68,0V122.9H214.6Z" transform="translate(0)"/><path class="cls-6" d="M245.35,81,219.52,25.25V25h.32l-.22-.45V13.29a10.37,10.37,0,0,0,3.78,0A15.6,15.6,0,0,0,231,10.64c2.88-2,8.27-6.48,12-4.9.13.05-7.31-4.1-11.48-3-2.44.65-4.71,1.69-7.31,1.59-1.65-.07-3-.74-4.54-.87V0h-2.73V25h-.32l-27,56H229l-4.77-39.23L241.53,81Z" transform="translate(0)"/><path class="cls-7" d="M72.9,58.63a2.12,2.12,0,0,0-2.06,3,5,5,0,0,0,2.88,3.16,2.4,2.4,0,0,0,2.53.49c1.14-.61,1.23-2.12.62-3.52a5.2,5.2,0,0,0-4-3.13" transform="translate(0)"/><path class="cls-7" d="M75.75,66.94a.82.82,0,0,0,.35,1.6.82.82,0,0,0-.35-1.6" transform="translate(0)"/><path class="cls-7" d="M81.82,67.73a.82.82,0,0,0,.35,1.6.82.82,0,0,0-.35-1.6" transform="translate(0)"/><path class="cls-7" d="M78.44,69.92c-3,.65-2,5.36,1,4.71s2-5.36-1-4.71" transform="translate(0)"/><path class="cls-7" d="M75.25,55.09a.82.82,0,0,0,.35,1.6.82.82,0,0,0-.35-1.6" transform="translate(0)"/><path class="cls-7" d="M83.54,75.74a.82.82,0,0,0,.35,1.6.82.82,0,0,0-.35-1.6" transform="translate(0)"/><path class="cls-7" d="M71.64,65.49A.82.82,0,0,0,72,67.1a.82.82,0,0,0-.35-1.6" transform="translate(0)"/><path class="cls-8" d="M204.49,76.79a1.53,1.53,0,0,0,1.13-2.38,3.63,3.63,0,0,0-2.41-1.92,1.73,1.73,0,0,0-1.86-.06c-.74.56-.63,1.65,0,2.58a3.76,3.76,0,0,0,3.18,1.78" transform="translate(0)"/><path class="cls-8" d="M205.47,68.49a.82.82,0,0,0,.89-1.38.82.82,0,0,0-.89,1.38" transform="translate(0)"/><path class="cls-8" d="M200.92,67.67a.82.82,0,0,0,.89-1.38.82.82,0,0,0-.89,1.38" transform="translate(0)"/><path class="cls-8" d="M205.67,64.47c2.6,1.68,5.22-2.36,2.61-4s-5.21,2.36-2.61,4" transform="translate(0)"/><path class="cls-8" d="M197.44,77.22a.82.82,0,0,0,.89-1.38.82.82,0,0,0-.89,1.38" transform="translate(0)"/><path class="cls-8" d="M206.18,56.75a.82.82,0,0,0,.89-1.38.82.82,0,0,0-.89,1.38" transform="translate(0)"/><path class="cls-8" d="M207.35,72.42a.82.82,0,0,0,.89-1.38.82.82,0,0,0-.89,1.38" transform="translate(0)"/><path class="cls-9" d="M49.21,193.73q-6.63,2.76-8.29,3.25a35,35,0,0,1-10.43,1.52,18,18,0,0,1-5.32-.62q-3.25-1-3.25-3.73,0-3.73,3.87-11.75a140.52,140.52,0,0,1,8.29-14.65q3.25-5.18,5.18-7.88,2.55-3.59,3.25-3.59a1.47,1.47,0,0,1,1.66,1.66,5.23,5.23,0,0,1-.07,1,14.51,14.51,0,0,1-1.8,3.45q-3,4.83-4,6.7-3.66,6.36-6.22,11.68Q29,187,29,189a2.32,2.32,0,0,0,1.07,2.28,6.86,6.86,0,0,0,3.07.55h1.14a10.75,10.75,0,0,0,1.21-.07A31.46,31.46,0,0,0,42.3,191q3.73-.83,7.6-1.73a1.57,1.57,0,0,1,1,.38,2,2,0,0,1,.62,1.35,1.58,1.58,0,0,1-.21,1.56,6.78,6.78,0,0,1-2.07,1.21" transform="translate(0)"/><path class="cls-9" d="M85,144.34q0,2.56-3.46,6.56-1.31,1.52-4.15,4.35A40.9,40.9,0,0,1,71.94,160q-2.9,2.14-3.45,2.14-1.31,0-1.31-.9a2.31,2.31,0,0,1,1.35-2.07,13.1,13.1,0,0,0,3.25-3.07,34.34,34.34,0,0,0,3.56-5.35,22.77,22.77,0,0,0,1.56-3.18,21.1,21.1,0,0,0,1.07-3.39q.76-2.9,2.69-2.9a4.69,4.69,0,0,1,2.94.73A2.62,2.62,0,0,1,85,144.34" transform="translate(0)"/><path class="cls-9" d="M119.26,159.05a3,3,0,0,1-1.17,2.7,5.52,5.52,0,0,1-3,.76,15.51,15.51,0,0,1-2.56-.21,14.92,14.92,0,0,0-2.49-.21q-1,.07-6.53,1.07l-8.6,1.55q-2,3-3.66,6-1.38,2.56-2.56,5.25c.69.14,1.31.25,1.86.35a32.5,32.5,0,0,0,3.94.14,64,64,0,0,0,7.43-.38q3.21-.38,6.32-.79a1.21,1.21,0,0,1,1.17.52,2.48,2.48,0,0,1,.14,1.49q0,1.66-8,3.59a116.5,116.5,0,0,1-15.06,2.56q-.69,1.73-1,2.63a17.17,17.17,0,0,0-1.1,3.46,1.56,1.56,0,0,0,.9,1.66,6.85,6.85,0,0,0,2.42.35A84.16,84.16,0,0,0,96.74,190q7.74-1.49,8.15-1.42a3,3,0,0,1,1.42.31.84.84,0,0,1,.45,1,1.7,1.7,0,0,1-.62,1.31,12.87,12.87,0,0,1-1.1.69,46.45,46.45,0,0,1-9.26,3.7,36.62,36.62,0,0,1-10.43,1.83q-3.46,0-4.8-1.49a6,6,0,0,1-1.35-4.18,17.23,17.23,0,0,1,1-4.08q1.31-3.87,1.45-4.49a1.37,1.37,0,0,1-1-1,6.51,6.51,0,0,1-.31-2.18,10.63,10.63,0,0,1,.21-1.76,3,3,0,0,1,1.66-2l2.49-1,3.52-8.43a9.77,9.77,0,0,1-1.31.07q-1.73,0-1.73-1.25a3.71,3.71,0,0,1,.83-2.31,10.06,10.06,0,0,1,2.21-2Q90.52,159.81,100,158a85.09,85.09,0,0,1,13-1.76,17.57,17.57,0,0,1,4.08.34q2.28.62,2.28,2.42" transform="translate(0)"/><path class="cls-9" d="M146.9,191.25q0,1.45-3.25,4.15a11.87,11.87,0,0,1-7.6,3.18q-3.11,0-4.15-1.87a7.81,7.81,0,0,1-.55-3.45v-.9a4.66,4.66,0,0,0-.1-1.17c-.07-.23-.29-.34-.66-.34a6.16,6.16,0,0,0-2.38.93,32.51,32.51,0,0,0-3.49,2.25q-3.46,2.42-3.52,2.42a8.76,8.76,0,0,1-4.35,1.31,4,4,0,0,1-3-1.1,3.88,3.88,0,0,1-1-2.76,38.65,38.65,0,0,1,1-6.49q.07-.21.9-4A2.86,2.86,0,0,1,116,181.3a5.06,5.06,0,0,1,2.59-.62,2.59,2.59,0,0,1,2.25.83,4.46,4.46,0,0,1,.59,2.56q-.76,3.66-1,5.46v1.93a4.45,4.45,0,0,0,2.38-.83q1.28-.83,2.52-1.73,2.07-1.24,4.14-2.56a9.52,9.52,0,0,1,4.28-1.45,4.66,4.66,0,0,1,3.14.93,3,3,0,0,1,1.07,2.38,5.09,5.09,0,0,1-.28,1.31,16.54,16.54,0,0,0-.62,2.28,2.17,2.17,0,0,0,.21,1.17q.21.28,1.11.28a7,7,0,0,0,3.59-1.11q1.8-1.24,3.66-2.49,1.31,0,1.31,1.59" transform="translate(0)"/><path class="cls-9" d="M181.51,147.17a2.89,2.89,0,0,1,2.63,1.17,4.91,4.91,0,0,1,.55,2.56q0,2.9-4.21,9.26-3.46,5.18-9.6,12.78-2.83,3.52-10,11.88a11.49,11.49,0,0,0-2.18,2.49,5.23,5.23,0,0,0-1.14,2.49q0,2.14,2.35,2.14a15.36,15.36,0,0,0,5-1.24q3.52-1.45,7.12-2.9,1.52,0,1.52,1.45a2.06,2.06,0,0,1-.28,1.24,8.13,8.13,0,0,1-1.52,1.17q-3.94,2.7-5.39,3.59-4.21,2.49-6.84,2.49a10.46,10.46,0,0,1-3-.38,3.33,3.33,0,0,1-1.8-1.14,70.4,70.4,0,0,1-2.07,8.08A109.69,109.69,0,0,1,148,217.36q-3,6.84-5.25,6.84a1.87,1.87,0,0,1-1.69-.8,3.52,3.52,0,0,1-.52-2,20.13,20.13,0,0,1,1.59-6.29q1.31-3.45,4.73-10.57t7.63-15.34a60.93,60.93,0,0,1-5.56,3.39q-3.28,1.8-4.11,1.8-1.18,0-1.18-1.45,0-1.17,5.25-4.63,2.83-1.87,8.08-4.91l8.22-16.86q2.14-4.42,4.29-8.91a30.29,30.29,0,0,1,4.9-7.39,9.79,9.79,0,0,1,7.12-3.11m-5.66,11q-1,0-4.56,5.56a70,70,0,0,0-5,9.09q2.76-3.11,5.87-7.39,3.87-5.32,3.87-6.49c0-.51,0-.76-.14-.76" transform="translate(0)"/><path class="cls-9" d="M202.1,190.49q0,1.59-3.83,3.9t-6.39,2.31a6.7,6.7,0,0,1-6.29-4l-2.62,2A12.82,12.82,0,0,1,175,197q-2.62,0-3.45-.9a4.32,4.32,0,0,1-.83-3q0-3.8,5-8t9.71-4.25a5.6,5.6,0,0,1,4.35,1.59,6.32,6.32,0,0,1,1.66,3.77c.14,1.45.3,2.75.49,3.9s.71,1.73,1.59,1.73a8.2,8.2,0,0,0,3.07-.83l4-1.73q1.52,0,1.52,1.17m-17.76-2.76c0-.73-.41-1.1-1.24-1.1a6.13,6.13,0,0,0-3.59,1.45q-1.94,1.45-1.93,2.83a.58.58,0,0,0,.62.52c.37,0,.74,0,1.1,0a6.21,6.21,0,0,0,3.14-1.24q1.9-1.24,1.9-2.49" transform="translate(0)"/><path class="cls-9" d="M232.71,191.25q0,1.45-3.25,4.15a11.87,11.87,0,0,1-7.6,3.18q-3.11,0-4.14-1.87a7.81,7.81,0,0,1-.55-3.45v-.9a4.62,4.62,0,0,0-.1-1.17c-.07-.23-.29-.34-.66-.34a6.15,6.15,0,0,0-2.38.93,32.51,32.51,0,0,0-3.49,2.25q-3.46,2.42-3.52,2.42a8.77,8.77,0,0,1-4.35,1.31,4,4,0,0,1-3-1.1,3.88,3.88,0,0,1-1-2.76,38.58,38.58,0,0,1,1-6.49q.07-.21.9-4a2.86,2.86,0,0,1,1.35-2.07,5.07,5.07,0,0,1,2.59-.62,2.58,2.58,0,0,1,2.25.83,4.46,4.46,0,0,1,.59,2.56q-.76,3.66-1,5.46v1.93a4.44,4.44,0,0,0,2.38-.83q1.28-.83,2.52-1.73,2.07-1.24,4.15-2.56a9.51,9.51,0,0,1,4.28-1.45,4.66,4.66,0,0,1,3.14.93,3,3,0,0,1,1.07,2.38,5.06,5.06,0,0,1-.28,1.31,16.54,16.54,0,0,0-.62,2.28A2.17,2.17,0,0,0,223,193q.21.28,1.11.28a7,7,0,0,0,3.59-1.11q1.8-1.24,3.66-2.49,1.31,0,1.31,1.59" transform="translate(0)"/><path class="cls-9" d="M252.81,180.05q-4.91.9-12.92,1.94a47.36,47.36,0,0,0-2.49,6.08,30,30,0,0,0-1.38,9q0,1.66-.59,2.07a5.18,5.18,0,0,1-2.59.41q-2.49,0-2.49-3.25,0-1.87-.07-7.08t-.07-7.77a3.89,3.89,0,0,1,.35-1.69,1.66,1.66,0,0,1,1-.93,18.77,18.77,0,0,1,2.8-.76q1.69-.34,2.52-.48a148,148,0,0,1,5.94-13.68q4.7-9,8.08-9.47,2.21-.35,2.21,1.59,0,2.56-6.56,13.4L242,176.88q2.49,0,6-.07t7.32-.21q1.59,0,1.59,1.31a1.53,1.53,0,0,1-.86,1.24,8.92,8.92,0,0,1-3.21.9" transform="translate(0)"/></g></svg>