<svg xmlns="http://www.w3.org/2000/svg" width="28.062" height="24" viewBox="0 0 28.062 24">
  <metadata><?xpacket begin="﻿" id="W5M0MpCehiHzreSzNTczkc9d"?>
<x:xmpmeta xmlns:x="adobe:ns:meta/" x:xmptk="Adobe XMP Core 5.6-c138 79.159824, 2016/09/14-01:09:01        ">
   <rdf:RDF xmlns:rdf="http://www.w3.org/1999/02/22-rdf-syntax-ns#">
      <rdf:Description rdf:about=""/>
   </rdf:RDF>
</x:xmpmeta>
                                                                                                    
                                                                                                    
                                                                                                    
                                                                                                    
                                                                                                    
                                                                                                    
                                                                                                    
                                                                                                    
                                                                                                    
                                                                                                    
                                                                                                    
                                                                                                    
                                                                                                    
                                                                                                    
                                                                                                    
                                                                                                    
                                                                                                    
                                                                                                    
                                                                                                    
                                                                                                    
                           
<?xpacket end="w"?></metadata>
<defs>
    <style>
      .cls-1 {
        fill: #d46a70;
        fill-rule: evenodd;
      }
    </style>
  </defs>
  <path id="Фигура_13" data-name="Фигура 13" class="cls-1" d="M475.8,3377.54a0.978,0.978,0,0,0-.876-0.54,1.116,1.116,0,0,0-.59.17,1.16,1.16,0,0,0-.316.22c-5.52,5.58-10.216,10.2-15.152,14.63l-2.592-3.19a0.941,0.941,0,0,0-.723-0.37,1.03,1.03,0,0,0-.643.25l-0.041.02a42.509,42.509,0,0,1-4.015,2.34,0.976,0.976,0,0,0-.556.84,1.009,1.009,0,0,0,.253,1.13c1.161,1.12,2.239,2.36,3.281,3.56,1.141,1.31,2.321,2.66,3.615,3.88a1.856,1.856,0,0,0,.153.12,0.927,0.927,0,0,0,.744.4,0.966,0.966,0,0,0,.583-0.21,93.776,93.776,0,0,0,9.253-8.28c0.706-.7,1.416-1.41,2.127-2.11,2.489-2.48,5.061-5.03,7.5-7.62a1.154,1.154,0,0,0,.269-0.49,0.957,0.957,0,0,0-.029-1.08c-0.841-1.28-1.574-2.48-2.24-3.67h0Zm-0.011,4.19" transform="translate(-450.188 -3377)"/>
</svg>
