<svg xmlns="http://www.w3.org/2000/svg" width="36" height="35" viewBox="0 0 36 35">
  <metadata><?xpacket begin="﻿" id="W5M0MpCehiHzreSzNTczkc9d"?>
<x:xmpmeta xmlns:x="adobe:ns:meta/" x:xmptk="Adobe XMP Core 5.6-c138 79.159824, 2016/09/14-01:09:01        ">
   <rdf:RDF xmlns:rdf="http://www.w3.org/1999/02/22-rdf-syntax-ns#">
      <rdf:Description rdf:about=""/>
   </rdf:RDF>
</x:xmpmeta>
                                                                                                    
                                                                                                    
                                                                                                    
                                                                                                    
                                                                                                    
                                                                                                    
                                                                                                    
                                                                                                    
                                                                                                    
                                                                                                    
                                                                                                    
                                                                                                    
                                                                                                    
                                                                                                    
                                                                                                    
                                                                                                    
                                                                                                    
                                                                                                    
                                                                                                    
                                                                                                    
                           
<?xpacket end="w"?></metadata>
<defs>
    <style>
      .cls-1 {
        fill: #fff;
        stroke: #fff;
        stroke-linejoin: round;
        stroke-width: 1px;
        fill-rule: evenodd;
      }
    </style>
  </defs>
  <path id="Фигура_8_копия_4" data-name="Фигура 8 копия 4" class="cls-1" d="M472.4,3382.63c-3.9-.32-7.909-0.14-11.823-0.16-6.268-.02-3.984-0.13-17.226.86a0.27,0.27,0,1,0,.018.54c6.038-.54,24.9-0.68,22.326-0.71,2.233,0.02,4.5.16,6.725,0.04A0.285,0.285,0,0,0,472.4,3382.63Zm-29.109,26.07c3.9,0.33,7.908.13,11.821,0.16,4.245,0.04,8.852-.2,17.628-0.87a0.275,0.275,0,0,0-.019-0.55c-7.451.52-17.243,0.79-22.726,0.73-2.232-.03-4.494-0.16-6.724-0.04A0.285,0.285,0,0,0,443.289,3408.7Zm2.558,1.65c0.4-9.9-.114-0.17.073-11.38,0.1-5.88.368-11.78,0.241-17.66-0.009-.42-0.442-0.41-0.473,0-0.449,5.85-.446,11.78-0.544,17.66-0.188,11.19-.664,1.5.051,11.38C445.236,3410.91,445.824,3410.92,445.847,3410.35Zm24.519-28.93c-0.235,5.85.1,11.81,0.127,17.68,0.06,11.21-.018,1.65.2,11.58,0.009,0.41.442,0.4,0.473,0,0.76-9.9.168-.38,0.109-11.58-0.03-5.85.167-11.85-.255-17.68C470.977,3380.87,470.389,3380.85,470.366,3381.42Z" transform="translate(-440.5 -3378.5)"/>
</svg>
