<svg xmlns="http://www.w3.org/2000/svg" xmlns:xlink="http://www.w3.org/1999/xlink" width="57" height="48" viewBox="0 0 57 48"><defs><path id="a" d="M946.24 887.57a1.12 1.12 0 0 1-1.26.96 19.14 19.14 0 0 0-6.57.3l-.24.02a1.13 1.13 0 0 1-.24-2.22c2.47-.54 5.01-.65 7.35-.33.62.08 1.05.65.96 1.27zm8.77 5l.3.6a1.13 1.13 0 0 1-2.02.97l-.25-.49a1.13 1.13 0 1 1 1.97-1.08zm1.4 4.25c.47 3.3-.41 6.59-2.47 9.24a1.12 1.12 0 1 1-1.78-1.38 10.01 10.01 0 0 0 2.03-7.56 1.13 1.13 0 0 1 2.23-.3zm9.12 1.68c0 .9-.35 1.75-.98 2.38a1.12 1.12 0 0 1-1.59 0 1.12 1.12 0 0 1 0-1.58c.2-.21.32-.5.32-.8 0-.62-.5-1.13-1.1-1.13-.62 0-1.12.5-1.12 1.13a16.7 16.7 0 0 1-3.53 10.3c-1.35 1.74-3.24 5.87-4.24 9.95h2.46a1.13 1.13 0 0 1 0 2.25h-10.42a1.12 1.12 0 0 1-1.13-1.15c.03-1.27-.12-2.57-.26-3.72l-.04-.37c-3.46.84-6.24 1.04-8.94.62l-.7 2.37h.44a1.13 1.13 0 0 1 0 2.25H922.7a1.13 1.13 0 0 1 0-2.25h2.87c.2-1.55.4-3.26.5-4.7-3.5-.88-6.2-1.78-9.11-5.57h-1.26c-.84 0-1.98-.4-2.6-2.3l-1.3-4.07c-.44-1.36-.36-2.5.23-3.4.4-.6 1.26-1.36 3.04-1.51 1.15-.1 1.5-.22 2.07-2.3.99-3.63 3.05-6.3 6.31-8.15l.75-7.49a1.13 1.13 0 0 1 1.86-.74l5.7 4.94a26.07 26.07 0 0 1 5.43-1.47 4.5 4.5 0 1 1 8.5-.04c4 .63 7.47 2.15 10.12 4.46a15.05 15.05 0 0 1 5 9 3.37 3.37 0 0 1 4.72 3.08zm-26.33-18a2.25 2.25 0 1 0 4.5 0 2.25 2.25 0 0 0-4.5 0zm19.61 18c0-9.51-7.44-13.7-14.57-14.47a4.48 4.48 0 0 1-5.55.02c-2.34.27-4.64.87-6.7 1.75-.39.17-.84.1-1.17-.19l-4.58-3.97-.6 5.93c-.04.38-.26.71-.6.89a10.6 10.6 0 0 0-5.72 7.03c-.65 2.4-1.48 3.73-4.05 3.95-.69.06-1.17.24-1.36.53-.19.28-.17.8.04 1.45l1.3 4.07c.12.34.3.74.47.74h1.8c.37 0 .7.18.92.47 2.8 3.85 5.17 4.43 9.1 5.39.52.12.88.6.85 1.15a89.12 89.12 0 0 1-.54 5.5h4.07l1.17-3.97c.17-.56.74-.9 1.31-.78 2.98.63 6.03.41 10.19-.74a1.13 1.13 0 0 1 1.42 1c.04.5.1 1.04.17 1.61.1.9.22 1.87.26 2.89h4.53c.97-4.18 2.99-9 4.78-11.32 2-2.59 3.06-5.68 3.06-8.93zm-32.71-3.38a1.13 1.13 0 0 1-2.25 0 1.13 1.13 0 0 1 2.25 0zm16.65 24.75c0 .63-.5 1.13-1.12 1.13h-1.05a1.12 1.12 0 1 1 0-2.25h1.05c.62 0 1.12.5 1.12 1.12z"/></defs><g transform="translate(-910 -874)"><use fill="#192c58" xlink:href="#a"/></g></svg>