<svg xmlns="http://www.w3.org/2000/svg" xmlns:xlink="http://www.w3.org/1999/xlink" width="39" height="48" viewBox="0 0 39 48"><defs><path id="a" d="M757 887.04c0 10.88-1.34 18.13-4.34 23.5-2.98 5.36-7.41 8.68-13.6 12.3a1.11 1.11 0 0 1-1.12 0c-6.19-3.62-10.62-6.94-13.6-12.3-3-5.37-4.34-12.62-4.34-23.5 0-.64.5-1.15 1.13-1.15 2.78 0 4.92-1.67 7.18-3.44 2.66-2.09 5.68-4.45 10.19-4.45s7.53 2.36 10.19 4.45c2.26 1.77 4.4 3.44 7.18 3.44.62 0 1.13.51 1.13 1.15zm-27.31-2.78c-2.19 1.71-4.45 3.48-7.43 3.85.17 19.67 4.94 25.7 16.24 32.42 11.3-6.71 16.07-12.75 16.24-32.42-2.98-.37-5.24-2.14-7.43-3.85-2.5-1.95-5.07-3.97-8.81-3.97s-6.32 2.02-8.81 3.97zm-4.24 4.81c.1-.29.3-.52.57-.66l.34-.17c.55-.3 1.24-.08 1.53.48.29.56.07 1.25-.48 1.55l-.39.2a1.12 1.12 0 0 1-1.51-.52 1.15 1.15 0 0 1-.06-.88zm25.34 6l.03-.34c.03-.3.17-.58.4-.78a1.11 1.11 0 0 1 1.59.14c.2.23.29.53.26.83l-.03.36a1.13 1.13 0 0 1-1.22 1.04 1.14 1.14 0 0 1-1.03-1.25zm-22.2-6.83a1.16 1.16 0 0 1 .25-1.6c.52-.38 1.02-.76 1.5-1.14 2.52-1.95 4.9-3.79 8.16-3.79.62 0 1.13.52 1.13 1.15 0 .63-.5 1.15-1.13 1.15-2.5 0-4.48 1.53-6.79 3.31-.47.37-1 .78-1.55 1.18-.19.14-.42.22-.66.22-.36 0-.7-.18-.91-.48zm17.03 22.1c2.52-3.01 4.12-7.17 4.89-12.7.08-.63.65-1.06 1.27-.98.62.1 1.05.67.96 1.3-.83 5.97-2.6 10.5-5.4 13.87-2.45 2.93-5.7 5.12-8.25 6.7h-.03l-.08.04-.05.03a1 1 0 0 1-.07.03h-.02a.7.7 0 0 1-.11.03h-.03a.7.7 0 0 1-.15.03l-.02-.22v.22h-.07a1.25 1.25 0 0 1-.16-.02h-.03l-.06-.02a.64.64 0 0 1-.05-.02h-.02a.95.95 0 0 1-.11-.05h-.01a1.13 1.13 0 0 1-.08-.05h-.02c-2.56-1.58-5.8-3.77-8.26-6.7-.4-.49-.35-1.21.13-1.62.47-.4 1.19-.35 1.59.13 2.15 2.58 5.07 4.57 7.12 5.86 2.05-1.3 4.97-3.28 7.12-5.86zm-17.38-13.27a3.14 3.14 0 0 1 4.51 0l2.11 2.14 9.39-9.53a3.14 3.14 0 0 1 4.5 0 3.27 3.27 0 0 1 0 4.57l-11.62 11.8-.03.04-.03.03-.03.02-.03.04-.02.02-.04.03-.03.03-.02.01-.04.04-.1.07-.02.02-.05.03-.02.02-.05.03-.02.01-.1.07-.03.02-.1.05-.04.03-.17.08a.82.82 0 0 1-.05.02l-.1.05h-.03l-.05.02-.03.01-.03.01a.95.95 0 0 1-.04.02l-.12.03-.03.01-.05.01-.02.01-.12.03h-.06l-.05.02h-.05a.8.8 0 0 1-.03 0l-.1.02h-.09l-.04.01h-.34a1 1 0 0 1-.06 0h-.02-.08l-.05-.01h-.05l-.12-.02-.06-.01-.1-.02-.03-.01-.19-.05h-.01l-.06-.02-.06-.02-.1-.03-.02-.02-.1-.04c-.03 0-.05-.02-.07-.03l-.16-.08h-.02l-.04-.03a.66.66 0 0 1-.04-.02l-.23-.15-.03-.02-.1-.07-.03-.02-.04-.04-.02-.02-.04-.03-.02-.02-.04-.03-.02-.02-.1-.1-4.37-4.44a3.28 3.28 0 0 1 0-4.57zm1.6 2.95l4.4 4.46.13.1.14.08.08.02.13.03.1.02H734.95l.07-.02.14-.03.08-.03.13-.07.09-.06.07-.07 11.64-11.82a.95.95 0 0 0 0-1.33.92.92 0 0 0-.66-.27c-.25 0-.48.1-.65.27l-10.19 10.34a1.11 1.11 0 0 1-1.6 0l-2.9-2.95a.92.92 0 0 0-.66-.28c-.25 0-.49.1-.66.28a.96.96 0 0 0 0 1.33z"/></defs><g transform="translate(-719 -876)"><use fill="#192c58" xlink:href="#a"/></g></svg>