<svg xmlns="http://www.w3.org/2000/svg" xmlns:xlink="http://www.w3.org/1999/xlink" width="48" height="48" viewBox="0 0 48 48"><defs><path id="a" d="M360 919.83c0 .65-.52 1.17-1.17 1.17h-5.88c-.35 0-.68-.15-.9-.42l-5.3-6.35v5.6c0 .65-.52 1.17-1.16 1.17h-16.18a1.16 1.16 0 0 1-1.17-1.17v-6l-6.83 6.83c-.22.22-.52.34-.83.34h-4.41a1.16 1.16 0 0 1-1.17-1.17v-4.41c0-.64.52-1.17 1.17-1.17h3.24v-3.24a1.16 1.16 0 0 1 1.17-1.17h3.25v-3.25c0-.64.52-1.17 1.16-1.17h3.25v-3.24a1.16 1.16 0 0 1 1.17-1.17h.3v-10.94a2.65 2.65 0 0 1-2.2-2.6v-9.57c0-1.05.85-1.9 1.9-1.9h1.47c1.05 0 1.9.85 1.9 1.9v1.78h2.08v-1.78c0-1.05.86-1.9 1.9-1.9h1.48c1.04 0 1.9.85 1.9 1.9v1.78h2.08v-1.78c0-1.05.85-1.9 1.9-1.9h1.47c1.05 0 1.9.85 1.9 1.9v9.57c0 1.3-.95 2.39-2.2 2.6V901h.3a1.16 1.16 0 0 1 1.17 1.17v3.99l10.41 12.5h1.66c.65 0 1.17.52 1.17 1.16zm-13.24-10.02v.77l6.73 8.09h.65zm-12.5 8.86h6.49v-4.72a3.25 3.25 0 0 0-6.5 0zm8.82-4.72v4.72h1.35v-10.91h-13.86v10.9h1.35v-4.71a5.59 5.59 0 0 1 11.16 0zm-11.03-23.85v10.91h10.9v-10.9zm-1.6-10v-1.77h-.61v9.13c0 .17.14.3.3.3h14.72a.3.3 0 0 0 .3-.3v-9.13h-.6v1.78a1.9 1.9 0 0 1-1.91 1.9h-2.94a1.9 1.9 0 0 1-1.9-1.9v-1.78h-.61v1.78a1.9 1.9 0 0 1-1.9 1.9h-2.95a1.9 1.9 0 0 1-1.9-1.9zm.12 23.24v2.08h13.86v-2.08zm-4.4 4.42V911a1.16 1.16 0 0 1-1.18 1.16h-3.24v3.25c0 .64-.53 1.17-1.17 1.17h-3.25v2.08h2.77l8.14-8.15v-2.76zm6.49-12.2a4.85 4.85 0 0 1 4.84-4.85 4.85 4.85 0 1 1-4.85 4.85zm4.84 2.5a2.51 2.51 0 1 0 0-5.02 2.51 2.51 0 0 0 0 5.03z"/></defs><g transform="translate(-313 -874)"><use fill="#192c58" xlink:href="#a"/></g></svg>