<svg xmlns="http://www.w3.org/2000/svg" width="63" height="45" viewBox="0 0 63 45">
  <metadata><?xpacket begin="﻿" id="W5M0MpCehiHzreSzNTczkc9d"?>
<x:xmpmeta xmlns:x="adobe:ns:meta/" x:xmptk="Adobe XMP Core 5.6-c138 79.159824, 2016/09/14-01:09:01        ">
   <rdf:RDF xmlns:rdf="http://www.w3.org/1999/02/22-rdf-syntax-ns#">
      <rdf:Description rdf:about=""/>
   </rdf:RDF>
</x:xmpmeta>
                                                                                                    
                                                                                                    
                                                                                                    
                                                                                                    
                                                                                                    
                                                                                                    
                                                                                                    
                                                                                                    
                                                                                                    
                                                                                                    
                                                                                                    
                                                                                                    
                                                                                                    
                                                                                                    
                                                                                                    
                                                                                                    
                                                                                                    
                                                                                                    
                                                                                                    
                                                                                                    
                           
<?xpacket end="w"?></metadata>
<defs>
    <style>
      .cls-1 {
        fill: #192c58;
        fill-rule: evenodd;
      }
    </style>
  </defs>
  <path id="Фигура_6" data-name="Фигура 6" class="cls-1" d="M161.021,909.989a1.236,1.236,0,1,0,2.471,0,11.872,11.872,0,0,0-2.455-7.273,1.229,1.229,0,0,0-1.733-.226,1.251,1.251,0,0,0-.224,1.746A9.391,9.391,0,0,1,161.021,909.989Zm-49.809,7.318a47.011,47.011,0,0,0,14.539,4,84.328,84.328,0,0,0,21.5,0,47.006,47.006,0,0,0,14.537-4c5.134-2.585,6.212-5.406,6.212-7.318a16.518,16.518,0,0,0-11.114-15.628,9.415,9.415,0,1,0-10.511,0,16.239,16.239,0,0,0-5.053,2.816,6.905,6.905,0,0,0-9.643,0,16.255,16.255,0,0,0-5.054-2.816,9.414,9.414,0,1,0-10.51,0A16.52,16.52,0,0,0,105,909.957c0,0.011,0,.021,0,0.032C105,911.9,106.078,914.722,111.212,917.307Zm15.936,1.668V918.67a9.353,9.353,0,1,1,18.706,0v0.305A82.176,82.176,0,0,1,127.148,918.975Zm17.541-32.485a6.944,6.944,0,1,1,6.943,7A6.98,6.98,0,0,1,144.689,886.49Zm20.84,23.5c0,1.709-1.72,3.517-4.845,5.09a42.589,42.589,0,0,1-12.36,3.563,11.936,11.936,0,0,0-7.384-11.018,7.054,7.054,0,0,0,1.835-8.43,13.759,13.759,0,0,1,8.857-3.215A13.97,13.97,0,0,1,165.529,909.989ZM136.5,897.7a4.481,4.481,0,0,1,3.687,1.945h0A4.465,4.465,0,1,1,136.5,897.7ZM114.425,886.49a6.943,6.943,0,1,1,6.943,7A6.98,6.98,0,0,1,114.425,886.49Zm6.943,9.489a13.767,13.767,0,0,1,8.858,3.215,7.054,7.054,0,0,0,1.835,8.43,11.938,11.938,0,0,0-7.384,11.018,42.565,42.565,0,0,1-12.361-3.563c-3.116-1.568-4.835-3.37-4.845-5.075,0,0,0-.01,0-0.015A13.969,13.969,0,0,1,121.368,895.979Zm35.967,6.3a1.247,1.247,0,0,0,0-2.491A1.247,1.247,0,0,0,157.335,902.281Z" transform="translate(-105 -877)"/>
</svg>
