<svg xmlns="http://www.w3.org/2000/svg" xmlns:xlink="http://www.w3.org/1999/xlink" width="48" height="48" viewBox="0 0 48 48"><defs><path id="a" d="M1151.77 907.52l-.02.02-.02.02a1.44 1.44 0 0 1-.8.4L1120 920.93a.88.88 0 0 1-1.15-1.15l12.97-30.93c.05-.33.2-.6.41-.82l.03-.02c.86-.83 2.42-.42 5.02 1.33.49.33 1 .7 1.52 1.1 2.79-3.51 4.2-8.06 4.2-13.56a.88.88 0 0 1 1.75 0c0 3.57-.57 6.82-1.7 9.67a19.85 19.85 0 0 1-2.88 4.98 61.66 61.66 0 0 1 7.87 7.83c1.94-.93 3.88-1.6 5.78-2a.88.88 0 1 1 .37 1.71c-1.65.35-3.33.92-5.01 1.7.46.6.89 1.18 1.26 1.73 1.75 2.6 2.17 4.16 1.33 5.02zm-.83.44zm-9.87 2.23c.4-.36 2.31-2.25 2.44-6.4a62.5 62.5 0 0 1-5.2-4.92c.76 3.07.58 5.91.17 8.08a22.15 22.15 0 0 1-1.58 4.99zm-6.77 2.84c.49-.67 1.83-3.1 2.45-6.4a16.53 16.53 0 0 0-3.2-13.55c-.38-.56-.7-1.08-.95-1.54l-1.45 3.46c1 1.03 2.3 2.9 2.82 4.1a.88.88 0 1 1-1.62.69 14.9 14.9 0 0 0-1.95-3l-.95 2.27c2.96 5.17 4.11 9.61 3.4 13.2-.1.59-.27 1.1-.45 1.56zm-8.36-5.62c2 3.82 1.86 6.73 1.34 8.56l2.32-.97a5.63 5.63 0 0 0 1.56-3.24c.36-2.02.15-5.45-2.58-10.63zm18.16 1.51l4.14-1.74a32.74 32.74 0 0 1-3.07-2.06c-.19 1.57-.6 2.83-1.07 3.8zm-7.3-17.77c-1.85-1.31-2.8-1.67-3.2-1.76.09.41.44 1.35 1.75 3.2a52.06 52.06 0 0 0 5.49 6.35 52.07 52.07 0 0 0 6.35 5.5c1.85 1.3 2.8 1.65 3.2 1.75-.1-.41-.45-1.36-1.76-3.2a35.1 35.1 0 0 0-1.05-1.41l-.73.4a.88.88 0 0 1-1.2-.32.88.88 0 0 1 .32-1.2l.47-.27a61.4 61.4 0 0 0-7.42-7.33l-.32.34a.88.88 0 1 1-1.25-1.24l.19-.2-.84-.61zm-15.5 27.33l3.67-1.54c.2-.3.6-1.06.78-2.2.25-1.56 0-3.3-.73-5.13zm13.41-17.05a.88.88 0 0 1-1.65.6.88.88 0 1 1 1.65-.6zm16.9-13.08c2.3-2.3 5.93-3.35 8.56-3.56a.88.88 0 0 1 .14 1.75c-2.32.2-5.5 1.1-7.46 3.06a.88.88 0 0 1-1.25 0 .88.88 0 0 1 0-1.25zm12.14-2.31a.88.88 0 0 1-1.08.62l-.04-.01a.88.88 0 1 1 .42-1.7l.08.01c.47.13.75.6.62 1.08zm-39.39-3.57c0-.49.4-.88.88-.88h.88v-.88a.88.88 0 1 1 1.76 0v.88h.88a.88.88 0 0 1 0 1.76h-.88v.88a.88.88 0 1 1-1.76 0v-.88h-.88a.88.88 0 0 1-.88-.88zm20.57 8.53c0-.49.4-.88.88-.88h.88v-.88a.88.88 0 1 1 1.76 0v.88h.87a.88.88 0 1 1 0 1.75h-.87v.88a.88.88 0 1 1-1.76 0v-.88h-.88a.88.88 0 0 1-.88-.87zm13.97 22.58c0 .49-.39.88-.87.88h-.88v.88a.88.88 0 0 1-1.76 0v-.88h-.88a.88.88 0 0 1 0-1.76h.88v-.87a.88.88 0 1 1 1.76 0v.87h.88c.48 0 .87.4.87.88zm-8.48-34.94a2.64 2.64 0 1 1 5.28 0 2.64 2.64 0 0 1-5.28 0zm1.76 0a.88.88 0 1 0 1.76 0 .88.88 0 0 0-1.76 0zm9 15.26a2.64 2.64 0 1 1-5.27-.01 2.64 2.64 0 0 1 5.28 0zm-1.75 0a.88.88 0 1 0-1.76 0 .88.88 0 0 0 1.76 0zm-25.84-12.13a2.64 2.64 0 1 1 5.28 0 2.64 2.64 0 0 1-5.28 0zm1.76 0a.88.88 0 1 0 1.76 0 .88.88 0 0 0-1.76 0zm22.03 20.95a.88.88 0 1 1 0-1.76.88.88 0 0 1 0 1.76zm-10.02-19.24a.88.88 0 0 1 1.76 0 .88.88 0 0 1-1.76 0zm13.54 24.96a.88.88 0 0 1-1.76 0 .88.88 0 0 1 1.76 0zm-30.76-30.68a.88.88 0 0 1 1.75 0 .88.88 0 0 1-1.75 0z"/></defs><g transform="translate(-1117 -874)"><use fill="#192c58" xlink:href="#a"/></g></svg>