<svg xmlns="http://www.w3.org/2000/svg" xmlns:xlink="http://www.w3.org/1999/xlink" width="54" height="48" viewBox="0 0 54 48"><defs><path id="a" d="M555.4 905.65l.24 8.88a1.25 1.25 0 0 1-1.24 1.29c-.3 0-.6-.12-.84-.33l-6.36-5.96a24.98 24.98 0 0 1-6.6.72 19.5 19.5 0 0 1-12.1 4c-1.36 0-2.7-.13-4.02-.38l-7.27 6.8a1.23 1.23 0 0 1-1.35.22c-.46-.21-.74-.67-.73-1.18l.28-10.31a13.07 13.07 0 0 1-4.41-9.6c0-3.92 1.86-7.58 5.23-10.32 1.7-1.38 3.7-2.44 5.87-3.15a17.4 17.4 0 0 1 4.5-5.4 23.15 23.15 0 0 1 14.6-4.93c5.51 0 10.7 1.75 14.6 4.93 4 3.24 6.2 7.57 6.2 12.2 0 4.76-2.4 9.29-6.6 12.52zm-18.77 4.2a22.25 22.25 0 0 1-10.03-4.52c-3.99-3.24-6.19-7.57-6.19-12.2 0-1.24.16-2.45.46-3.63-4.42 2.08-7.4 5.92-7.4 10.3 0 3 1.42 5.88 4 8.1.28.24.44.6.43.98l-.21 7.93 5.58-5.22c.3-.28.71-.39 1.1-.3 1.35.3 2.73.46 4.13.46 3 0 5.78-.7 8.13-1.9zm22.9-16.72c0-8.07-8.22-14.63-18.32-14.63s-18.32 6.56-18.32 14.63c0 8.06 8.21 14.62 18.32 14.62 2.05 0 4.08-.27 6-.8a1.23 1.23 0 0 1 1.17.29l4.7 4.39-.17-6.56c-.02-.42.18-.82.52-1.06 3.87-2.78 6.1-6.74 6.1-10.88zm-14.13.35c0 2.24-1.8 4.06-4.02 4.06a4.05 4.05 0 0 1-4.02-4.06c0-2.25 1.8-4.07 4.02-4.07a4.05 4.05 0 0 1 4.02 4.07zm-2.47 0c0-.87-.7-1.57-1.55-1.57-.86 0-1.55.7-1.55 1.57 0 .86.7 1.56 1.55 1.56.85 0 1.55-.7 1.55-1.56zm13 0c0 2.24-1.81 4.06-4.03 4.06a4.05 4.05 0 0 1-4.02-4.06c0-2.25 1.8-4.07 4.02-4.07a4.05 4.05 0 0 1 4.02 4.07zm-2.48 0c0-.87-.7-1.57-1.55-1.57-.85 0-1.55.7-1.55 1.57 0 .86.7 1.56 1.55 1.56.85 0 1.55-.7 1.55-1.56zm-18.57 0c0 2.24-1.8 4.06-4.02 4.06a4.05 4.05 0 0 1-4.03-4.06c0-2.25 1.8-4.07 4.03-4.07a4.05 4.05 0 0 1 4.02 4.07zm-2.48 0c0-.87-.69-1.57-1.54-1.57-.86 0-1.55.7-1.55 1.57 0 .86.7 1.56 1.55 1.56.85 0 1.54-.7 1.54-1.56z"/></defs><g transform="translate(-509 -874)"><use fill="#fff" xlink:href="#a"/></g></svg>