<svg xmlns="http://www.w3.org/2000/svg" xmlns:xlink="http://www.w3.org/1999/xlink" width="34" height="44" viewBox="0 0 34 44"><defs><path id="a" d="M659.22 41.13c0 4.53-1.93 8.83-5.29 11.8v12.11a.94.94 0 0 1-1.18.94l-8.82-2.25-8.83 2.25a.93.93 0 0 1-.81-.18.97.97 0 0 1-.37-.76v-12.1a15.76 15.76 0 0 1-5.28-11.8c0-8.62 6.86-15.63 15.29-15.63s15.29 7 15.29 15.62zm-23.4 22.67l7.88-2.01c.15-.04.3-.04.46 0l7.88 2.01v-9.43c-.37.24-.74.45-1.13.66v3.07c0 .53-.42.97-.94.97a.96.96 0 0 1-.95-.97v-2.24c-1.2.43-2.43.71-3.7.83l-.45.03h-.04l-.07.01h-.15a17.22 17.22 0 0 1-1.37 0H643l-.45-.04h-.02a14.89 14.89 0 0 1-5.03-1.39l-.09-.04a12.94 12.94 0 0 1-1.59-.89zm13.96-10.36a13.82 13.82 0 0 0 7.54-12.3c0-7.56-6-13.7-13.4-13.7-7.38 0-13.39 6.14-13.39 13.7 0 5.18 2.96 10.01 7.54 12.3 1.48.73 3.06 1.18 4.7 1.33h.01l.24.02h.1a9.87 9.87 0 0 0 .35.02h.91a10.45 10.45 0 0 0 .35-.02h.1l.24-.02h.02c1.63-.15 3.2-.6 4.69-1.33zm6.44-12.3c0 6.92-5.51 12.55-12.3 12.55-6.77 0-12.29-5.63-12.29-12.56 0-6.92 5.52-12.56 12.3-12.56 6.78 0 12.3 5.64 12.3 12.56zm-1.9 0c0-5.87-4.66-10.64-10.4-10.64-5.73 0-10.4 4.77-10.4 10.63 0 5.86 4.67 10.63 10.4 10.63 5.74 0 10.4-4.77 10.4-10.63zm-3.49-1.68c.11.35.02.73-.24.99l-2.64 2.63.62 3.72a.97.97 0 0 1-.38.95.93.93 0 0 1-1 .07l-3.26-1.75-3.27 1.75a.93.93 0 0 1-1-.07.97.97 0 0 1-.38-.95l.63-3.72-2.65-2.63a.98.98 0 0 1 .53-1.65l3.65-.55 1.64-3.38a.94.94 0 0 1 1.7 0l1.63 3.38 3.66.55c.36.05.65.3.76.66zm-4.56 2.6l1.63-1.63-2.25-.33a.95.95 0 0 1-.72-.53l-1-2.09-1.01 2.09a.95.95 0 0 1-.71.53l-2.25.33 1.62 1.62c.23.22.33.54.28.86l-.39 2.29 2.02-1.08a.93.93 0 0 1 .88 0l2.01 1.08-.38-2.3a.98.98 0 0 1 .27-.85zm3.03 19.04a.98.98 0 0 1 .14-1.49.87.87 0 0 1 .34-.14.94.94 0 0 1 1.11.76.96.96 0 0 1-.14.72.95.95 0 0 1-.78.43.9.9 0 0 1-.37-.07.95.95 0 0 1-.3-.21z"/></defs><g opacity=".5" transform="translate(-627 -24)"><use fill="#a1a1a1" xlink:href="#a"/></g></svg>