<svg xmlns="http://www.w3.org/2000/svg" xmlns:xlink="http://www.w3.org/1999/xlink" width="39" height="44" viewBox="0 0 39 44"><defs><path id="a" d="M535.22 50.57v-8.41h-5.95v8.4a2.77 2.77 0 0 1 1.85 2.63 2.74 2.74 0 0 1-2.72 2.76 2.74 2.74 0 0 1-2.71-2.76c0-1.22.78-2.25 1.85-2.62v-8.41h-5.86v18.7h4.02c.48 0 .87.4.87.88v2.51h9.52c.47 0 .86.4.86.88 0 .49-.39.88-.86.88h-30.55a.87.87 0 0 1-.86-.88c0-.49.38-.88.86-.88h9.52v-2.5c0-.5.39-.89.86-.89h4.03v-18.7h-5.86v8.4a2.77 2.77 0 0 1 1.85 2.63 2.74 2.74 0 0 1-2.72 2.76 2.74 2.74 0 0 1-2.71-2.76c0-1.22.78-2.25 1.85-2.62v-8.41h-5.96v8.4a2.77 2.77 0 0 1 1.85 2.63 2.74 2.74 0 0 1-2.71 2.76 2.74 2.74 0 0 1-2.71-2.76c0-1.22.77-2.25 1.85-2.62V37.89v-.02-.06-.04l.01-.05.01-.05.01-.03a1 1 0 0 1 .02-.05v-.03l.03-.04.02-.04.02-.04.02-.03a1.08 1.08 0 0 1 .05-.07l.02-.03.03-.04.03-.02.04-.03.03-.03.03-.02a.97.97 0 0 1 .06-.04h.01v-.01h.01l7.82-4.42a.86.86 0 0 1 1.18.35c.23.42.08.96-.34 1.2l-4.9 2.76h6.54l3.08-5.43-1.47.83a.86.86 0 0 1-1.18-.34.89.89 0 0 1 .34-1.2l3.75-2.11v-2.37c0-.49.39-.88.86-.88.48 0 .87.4.87.88v2.37l14.82 8.36.02.01.05.04.04.02.03.03a.7.7 0 0 1 .04.03l.02.02.04.04.02.03a.84.84 0 0 1 .05.07l.02.03.02.04.02.04.02.04v.03l.02.05.01.03.01.05.01.05v.04l.01.06v12.7a2.77 2.77 0 0 1 1.85 2.62 2.74 2.74 0 0 1-2.71 2.76 2.74 2.74 0 0 1-2.72-2.76c0-1.22.78-2.25 1.85-2.62zm-21.01 2.62a1 1 0 0 0-.99-1 1 1 0 0 0-.98 1 1 1 0 0 0 .98 1 1 1 0 0 0 .99-1zm10.63 9.44h-8.05v1.62h8.05zm4.55-9.44a1 1 0 0 0-.99-1 1 1 0 0 0-.98 1 1 1 0 0 0 .98 1 1 1 0 0 0 .99-1zm7.68 0a1 1 0 0 0-.98-1 1 1 0 0 0-.99 1 1 1 0 0 0 .99 1 1 1 0 0 0 .98-1zM532.74 37l-9.62-5.43 3.08 5.43zm-15.32 0h6.79l-3.4-5.98zm-10.9 16.18a1 1 0 0 0-.98-1 1 1 0 0 0-.99 1 1 1 0 0 0 .99 1 1 1 0 0 0 .99-1zm-.12-12.8h28.82v-1.62h-9.52-9.78-9.52z"/></defs><g opacity=".5" transform="translate(-501 -24)"><use fill="#a1a1a1" xlink:href="#a"/></g></svg>