<svg xmlns="http://www.w3.org/2000/svg" xmlns:xlink="http://www.w3.org/1999/xlink" width="43" height="30" viewBox="0 0 43 30"><defs><path id="a" d="M786.82 35.5v25.03c0 .54-.43.98-.97.98h-38.52a.98.98 0 0 1-.98-.98V35.49c0-.54.44-.98.98-.98h29.6a.98.98 0 0 1 0 1.96h-27.07l16.73 15.25 16.73-15.25h-3.64a.98.98 0 0 1 0-1.96h6.17c.54 0 .97.44.97.98zm-36.95 24.05h33.44l-11.2-10.21-4.86 4.44a.97.97 0 0 1-1.32 0l-4.87-4.44-5.86 5.35a.97.97 0 0 1-1.38-.07.98.98 0 0 1 .06-1.38l5.73-5.23-11.3-10.3v20.6l3.63-3.3a.97.97 0 0 1 1.38.06.99.99 0 0 1-.07 1.39zM773.57 48l11.3 10.3v-20.6z"/></defs><g opacity=".5" transform="translate(-745 -33)"><use fill="#a1a1a1" xlink:href="#a"/></g></svg>