<svg xmlns="http://www.w3.org/2000/svg" xmlns:xlink="http://www.w3.org/1999/xlink" width="45" height="44" viewBox="0 0 45 44"><defs><path id="a" d="M391.14 49.28c0-.5.4-.91.9-.91h22.95c.5 0 .9.4.9.91 0 .5-.4.92-.9.92h-22.95a.9.9 0 0 1-.9-.92zm0-20.92c0-.5.4-.92.9-.92h2c.5 0 .9.41.9.92 0 .5-.4.91-.9.91h-2a.9.9 0 0 1-.9-.91zm0 5.23c0-.5.4-.92.9-.92h2c.5 0 .9.41.9.92 0 .5-.4.91-.9.91h-2a.9.9 0 0 1-.9-.91zm0 5.23c0-.5.4-.91.9-.91h2c.5 0 .9.4.9.91 0 .5-.4.92-.9.92h-2a.9.9 0 0 1-.9-.92zm0 5.23c0-.5.4-.91.9-.91h2c.5 0 .9.4.9.91 0 .5-.4.92-.9.92h-2a.9.9 0 0 1-.9-.92zm6.7-.55v-9.48h-.48c-.48 0-.89-.3-1.03-.77a1.1 1.1 0 0 1 .41-1.23l8.31-5.88c.36-.25.87-.25 1.23 0l8.3 5.88a1.1 1.1 0 0 1-.6 2h-.48v9.48c0 .8-.65 1.47-1.44 1.47h-12.79c-.38 0-.74-.16-1.01-.43a1.47 1.47 0 0 1-.42-1.04zm10.83-5.45v5.09h3.03v-9.12h-12.07v9.12h3.04v-5.09c0-.8.63-1.44 1.4-1.44h3.19c.77 0 1.4.65 1.4 1.44zm-4.21.4v4.69h2.41v-4.7zm7.22-6.26l-6.01-4.25-6.02 4.25zm7.03-6.88v-2.28a.7.7 0 0 0-.7-.71h-29.57v28.45a.93.93 0 0 1-.03.25v.02l-.03.07a.95.95 0 0 1-.09.17c0 .02-.02.03-.03.05a.46.46 0 0 1-.07.07l-.01.02a.89.89 0 0 1-.09.08l-.02.02a.86.86 0 0 1-.1.06h-.01a.82.82 0 0 1-.24.09h-.01a.87.87 0 0 1-.37 0l-.02-.01a.96.96 0 0 1-.1-.03l-.03-.02a.93.93 0 0 1-.1-.05l-.02-.01a.92.92 0 0 1-.08-.06l-.03-.03a.9.9 0 0 1-.15-.17l-.02-.02a.95.95 0 0 1-.04-.09l-.02-.03a.95.95 0 0 1-.08-.38c0-.12 0-.23-.02-.35a3.37 3.37 0 0 0-2.8-3.02l-.16-.02h-.04l-.12-.01h-.27a2 2 0 0 0-.12 0h-.02a2.2 2.2 0 0 0-.15.02h-.11l-.07.02a16.75 16.75 0 0 0-.17.03l-.07.02-.09.03-.05.01-.11.04h-.04l-.12.05-.11-.26.1.27a3.4 3.4 0 0 0-1.94 2.08v.02l-.04.12-.01.04-.03.11-.01.05-.03.1v.07l-.02.1-.01.07-.01.1v.07l-.01.1v.05c-.03.93.3 1.8.93 2.46a3.26 3.26 0 0 0 2.4 1.04H418a.7.7 0 0 0 .7-.71V27.9c0-.5.4-.92.9-.92.49 0 .89.41.89.92v25.56c0 1.4-1.12 2.54-2.49 2.54h-34.69c-1.4 0-2.71-.57-3.68-1.6a5.27 5.27 0 0 1-1.44-3.64V42.8c0-.5.4-.92.9-.92s.9.41.9.92v4c.6-.53 1.3-.91 2.08-1.11h.03l.06-.02.12-.03h.02l.12-.03.12-.02.15-.02h.11c.05-.02.1-.02.16-.02h.03l.08-.01h.19a5.08 5.08 0 0 1 .27 0h.08c1.12.07 2.18.5 3.03 1.25V20.75c0-1.88-1.5-3.4-3.33-3.4a3.37 3.37 0 0 0-3.33 3.4v19.52c0 .5-.4.91-.9.91a.9.9 0 0 1-.89-.91V20.75c0-2.89 2.3-5.24 5.12-5.24 2.74 0 4.98 2.2 5.12 4.98H418a2.52 2.52 0 0 1 2.49 2.54v2.28c0 .5-.4.91-.9.91a.9.9 0 0 1-.9-.91zm-31.5 26.3zm0 0z"/></defs><g transform="translate(-377 -14)"><use fill="#192c58" xlink:href="#a"/></g></svg>