<svg id="Слой_1" data-name="Слой 1" xmlns="http://www.w3.org/2000/svg" xmlns:xlink="http://www.w3.org/1999/xlink" viewBox="0 0 315.37 316.05"><defs><style>.cls-1{fill:none;}.cls-2{clip-path:url(#clip-path);}.cls-3{fill:#ffeec0;}.cls-4{fill:#ffc61b;}</style><clipPath id="clip-path" transform="translate(0 0)"><rect class="cls-1" width="315.37" height="316.05"/></clipPath></defs><title>phone</title><g class="cls-2"><path class="cls-3" d="M104,91l-17,17c.79,1.45,1.58,3,2.47,4.6,8.08,14.58,27.93,43.35,48.91,64.34s49.82,41,64.4,49c1.53.87,2.54,1.23,4,2l15-15.92,1.65-1.65a32.31,32.31,0,0,1,45.69,0L294,235.27a32.31,32.31,0,0,1-.18,45.88l-6.74,6.63a75.22,75.22,0,0,1-18.8,10.67,77.28,77.28,0,0,1-19,4.75c-50.1,6.06-95.9-16.83-158-78.95C5.33,138.35,11.79,69.13,12.12,66.14a77,77,0,0,1,4.77-19.07A74.92,74.92,0,0,1,27.59,28.3l6.63-6.74a32.31,32.31,0,0,1,45.88-.19L104,45.3A32.3,32.3,0,0,1,104,91" transform="translate(0 0)"/><path class="cls-4" d="M88.52,13l23.94,23.94a44.26,44.26,0,0,1,0,62.52l-10.65,10.65c8.25,13.94,25.9,39.29,45,58.44,18.9,18.89,43.56,36.21,57.57,44.61l8.68-9.23.25-.26L215,202a44.26,44.26,0,0,1,62.52,0l24.88,24.88a44.21,44.21,0,0,1-.25,62.77l-6.74,6.63a10.9,10.9,0,0,1-1,.9,87.92,87.92,0,0,1-21.79,12.37l-.13,0A88.92,88.92,0,0,1,250.61,315c-54.15,6.53-102.78-17.34-167.82-82.35C45.66,195.52,20.5,156.86,8,117.73-1.8,87.05.05,67,.29,64.83a89,89,0,0,1,5.51-22A87.22,87.22,0,0,1,18.23,20.94a12.8,12.8,0,0,1,.87-1l6.63-6.74A44.21,44.21,0,0,1,88.52,13M130,185.33c-22.67-22.67-42.86-52.47-50.91-67-.55-1-1.09-2-1.61-3-.3-.57-.6-1.14-.9-1.68a11.9,11.9,0,0,1,2-14.12l17-17a20.43,20.43,0,0,0,0-28.86L71.69,29.79a20.41,20.41,0,0,0-29,.12l-6.14,6.24A63,63,0,0,0,28,51.41a65.56,65.56,0,0,0-4,16.13c0,.09-1.7,16.63,6.77,43.07C38.52,135,56.8,173,99.61,215.83c59.25,59.22,102.19,81.11,148.2,75.55l.13,0a65.35,65.35,0,0,0,16.07-4,63.87,63.87,0,0,0,15.24-8.53l6.23-6.14a20.41,20.41,0,0,0,.11-29L260.71,218.8a20.43,20.43,0,0,0-28.86,0l-1.52,1.52-14.84,15.79a11.9,11.9,0,0,1-14.43,2.27c-.44-.24-.82-.42-1.2-.6-.74-.35-1.68-.8-2.83-1.45-14.45-8-44.18-28.18-67-51" transform="translate(0 0)"/></g></svg>